<?xml version="1.0" encoding="utf-8"?>
<!-- Generator: Adobe Illustrator 21.1.0, SVG Export Plug-In . SVG Version: 6.00 Build 0)  -->
<svg version="1.1" id="Layer_1" xmlns="http://www.w3.org/2000/svg" xmlns:xlink="http://www.w3.org/1999/xlink" x="0px" y="0px"
	 viewBox="0 0 2815.1 958.4" style="enable-background:new 0 0 2815.1 958.4;" xml:space="preserve">
<style type="text/css">
	.st0{fill:#FBC02D;}
	.st1{fill:#F9A825;}
	.st2{fill:#FFF263;}
	.st3{fill:#F57F17;}
	.st4{fill:#FFFFFF;}
</style>
<g>
	<path class="st0" d="M798.9,319.7L479.2,0L0,479.2l479.2,479.2l479.2-479.2L1118.6,319V0L798.9,319.7z M479.2,639.4L319,479.2
		L479.2,319l160.2,160.2L479.2,639.4L479.2,639.4z"/>
	<path class="st1" d="M1118.6,639.4v319L798.9,638.7l159.5-159.5l50.9,50.9L1118.6,639.4z"/>
	<path class="st2" d="M1118.6,0v5.8L482.1,642.3l-2.9-2.9L1118.6,0z"/>
	<path class="st3" d="M798.9,638.7l159.5-159.5l36.5,36.5L835.4,675.2L798.9,638.7z"/>
</g>
<g>
	<path class="st4" d="M1538.5,562.3H1274V118.1h100v363h164.5V562.3z M1681.9,409.3v153h-100V118.1h156.7
		c111.9,0,167.9,47.2,167.9,141.5c0,44.6-16.1,80.7-48.2,108.3c-32.1,27.6-75,41.3-128.7,41.3L1681.9,409.3z M1681.9,194.9v138.4
		h39.3c53.3,0,79.9-23.3,79.9-70c0-45.6-26.6-68.5-79.9-68.5L1681.9,194.9z M2339.3,562.3H2239V381.4h-184v180.9h-100V118.1h100
		v177.2h184V118.1h100.3V562.3z M2815,562.3h-109l-31.6-98.8h-158l-31.3,98.8h-108.4l161.7-444.2h118.6L2815,562.3z M2651.5,386.6
		l-47.7-149.3c-3.5-11.2-6-24.5-7.4-40h-2.5c-1.1,13.2-3.7,26.2-7.7,38.7l-48.3,150.5L2651.5,386.6z"/>
	<path class="st4" d="M1459.3,697.5L1419,840.3h-19.6L1370,736c-1.3-4.7-2.1-9.6-2.3-14.5h-0.4c-0.4,4.9-1.3,9.7-2.6,14.3
		l-29.6,104.5h-19.4l-41.8-142.8h18.4l30.4,109.5c1.3,4.7,2.1,9.5,2.4,14.3h0.5c0.6-4.9,1.6-9.7,3.1-14.3l31.6-109.5h16l30.3,110.3
		c1.2,4.4,2,8.8,2.4,13.3h0.4c0.5-4.7,1.4-9.2,2.7-13.7l29.2-109.9L1459.3,697.5z M1749.1,840.3h-18.5l-15.1-40h-60.5l-14.2,40H1622
		l54.8-142.8h17.3L1749.1,840.3z M1709.9,785.3l-22.4-60.8c-1-3.1-1.7-6.3-2.2-9.6h-0.4c-0.5,3.3-1.2,6.5-2.3,9.6l-22.2,60.8
		L1709.9,785.3z M2010.1,840.3H1936V697.5h16.7v127.6h57.4L2010.1,840.3z M2272.1,840.3H2198V697.5h16.7v127.6h57.4L2272.1,840.3z
		 M2535.7,840.3H2460V697.5h72.5v15.1h-55.8v47.5h51.6v15h-51.6v50h58.9V840.3z M2813.5,712.7h-41.2v127.6h-16.7V712.7h-41.2v-15.1
		h99.1L2813.5,712.7z"/>
</g>
</svg>
