<svg id="Layer_1" data-name="Layer 1" xmlns="http://www.w3.org/2000/svg" viewBox="0 0 1024 1024"><defs><style>.cls-1{fill:#424242;}.cls-2{fill:#fbc02d;}.cls-3{fill:#f9a825;}.cls-4{fill:#fff263;}.cls-5{fill:#f57f17;}</style></defs><title>1024</title><path class="cls-1" d="M-12,791.84C-12,913.43,86.57,1012,208.16,1012H791.84C913.43,1012,1012,913.43,1012,791.84V208.16C1012,86.57,913.43-12,791.84-12H208.16C86.57-12-12,86.57-12,208.16Z" transform="translate(12 12)"/><path class="cls-2" d="M679.2,380.71,440.08,141.6,81.68,500l358.4,358.4L798.48,500,918.31,380.18V141.6ZM440.08,619.82,320.27,500,440.08,380.18,559.91,500,440.1,619.82Z" transform="translate(12 12)"/><polygon class="cls-3" points="930.31 631.82 930.31 870.4 691.2 631.29 810.49 512 848.54 550.05 930.31 631.82"/><polygon class="cls-4" points="930.31 153.6 930.31 157.95 454.27 633.99 452.1 631.82 930.31 153.6"/><rect class="cls-5" x="668.14" y="554" width="168.72" height="38.6" transform="translate(-172.98 712.01) rotate(-45)"/></svg>