<svg id="Layer_1" data-name="Layer 1" xmlns="http://www.w3.org/2000/svg" viewBox="0 0 1536 1536"><defs><style>.cls-1{fill:#424242;}.cls-2{fill:#fbc02d;}.cls-3{fill:#f9a825;}.cls-4{fill:#fff263;}.cls-5{fill:#f57f17;}</style></defs><title>1536</title><path class="cls-1" d="M-268,937.76C-268,1120.15-120.15,1268,62.24,1268H937.76c182.39,0,330.24-147.85,330.24-330.24V62.24C1268-120.15,1120.15-268,937.76-268H62.24C-120.15-268-268-120.15-268,62.24Z" transform="translate(268 268)"/><path class="cls-2" d="M768.8,321.06,410.13-37.59-127.47,500l537.6,537.6L947.73,500l179.74-179.74V-37.59ZM410.13,679.73,230.4,500,410.13,320.26,589.87,500,410.14,679.73Z" transform="translate(268 268)"/><polygon class="cls-3" points="1395.47 947.73 1395.47 1305.6 1036.8 946.93 1215.73 768 1272.81 825.08 1395.47 947.73"/><polygon class="cls-4" points="1395.47 230.41 1395.47 236.92 681.4 950.99 678.14 947.73 1395.47 230.41"/><rect class="cls-5" x="752.21" y="581" width="253.07" height="57.91" transform="translate(94.08 1068.02) rotate(-45)"/></svg>