<svg id="Layer_1" data-name="Layer 1" xmlns="http://www.w3.org/2000/svg" viewBox="0 0 512 512"><defs><style>.cls-1{fill:#424242;}.cls-2{fill:#fbc02d;}.cls-3{fill:#f9a825;}.cls-4{fill:#fff263;}.cls-5{fill:#f57f17;}</style></defs><title>512</title><path class="cls-1" d="M244,645.92A110.08,110.08,0,0,0,354.08,756H645.92A110.08,110.08,0,0,0,756,645.92V354.08A110.08,110.08,0,0,0,645.92,244H354.08A110.08,110.08,0,0,0,244,354.08Z" transform="translate(-244 -244)"/><path class="cls-2" d="M589.6,440.35,470,320.8,290.84,500,470,679.2,649.24,500l59.91-59.91V320.8ZM470,559.91,410.13,500,470,440.09,530,500,470,559.91Z" transform="translate(-244 -244)"/><polygon class="cls-3" points="465.15 315.91 465.15 435.2 345.6 315.64 405.25 256 424.27 275.03 465.15 315.91"/><polygon class="cls-4" points="465.16 76.8 465.16 78.97 227.13 317 226.05 315.91 465.16 76.8"/><rect class="cls-5" x="584.07" y="527" width="84.36" height="19.3" transform="translate(-440.04 356.01) rotate(-45)"/></svg>