<svg xmlns="http://www.w3.org/2000/svg" viewBox="2326 1333.669 40.17 35.599">
  <defs>
    <style>
      .cls-1 {
        fill: #fff;
      }
    </style>
  </defs>
  <path id="Alpha_dashboard_icon" data-name="Alpha dashboard icon" class="cls-1" d="M91.69,85.453q-1.746,0-3.082-2.146a26.3,26.3,0,0,1-2.562-7.083l7.17-17.148h-10l-1.965,6.442H81.1Q78.122,58.25,69.873,58.25a14.1,14.1,0,0,0-11.538,5.309Q54.027,68.868,54,76.991q0,7.531,3.711,12.195a12.221,12.221,0,0,0,10.1,4.663q8.249,0,12.452-8.21h.213q1.888,7.822,8.758,7.822a13.043,13.043,0,0,0,4.784-.826h0q.088-5.922.148-7.663A6.491,6.491,0,0,1,91.69,85.453ZM77.536,77.32q-3.153,10.208-8.872,10.208a5.543,5.543,0,0,1-5.052-3.087,16.086,16.086,0,0,1-1.8-7.964,16.213,16.213,0,0,1,2.157-8.615,6.688,6.688,0,0,1,5.982-3.525q5.857,0,8.123,11.232Z" transform="translate(2272 1275.419)"/>
</svg>
