<?xml version="1.0" encoding="utf-8"?>
<!-- Generator: Adobe Illustrator 21.1.0, SVG Export Plug-In . SVG Version: 6.00 Build 0)  -->
<svg version="1.1" id="Layer_1" xmlns="http://www.w3.org/2000/svg" xmlns:xlink="http://www.w3.org/1999/xlink" x="0px" y="0px"
	 viewBox="0 0 21.6 19.1" style="enable-background:new 0 0 21.6 19.1;" xml:space="preserve">
<style type="text/css">
	.st0{fill:#1B1B1B;}
</style>
<g>
	<path class="st0" d="M20.2,14.6c-0.7-0.1-1.4-0.5-1.7-1.2c-0.6-1.2-1.1-2.5-1.4-3.8l3.8-9.2h-5.4l-1.1,3.5h-0.1
		c-0.9-2.5-3.4-4.1-6-3.9c-2.2-0.1-4.5,1-6,2.9c-1.6,2-2.4,4.6-2.3,7.2c-0.1,2.3,0.6,4.7,2,6.5c1.3,1.7,3.3,2.6,5.4,2.5
		c3,0,5.2-1.5,6.7-4.4h0.1c0.7,2.8,2.2,4.2,4.7,4.2c0.9,0,1.7-0.1,2.6-0.4l0,0c0-2.1,0.1-3.5,0.1-4.1C21.1,14.5,20.7,14.6,20.2,14.6
		z M12.6,10.2c-1.1,3.7-2.7,5.5-4.8,5.5c-1.1,0-2.2-0.6-2.7-1.7c-1.3-2.8-1.3-6.1,0.2-8.9C6,4,7.2,3.3,8.6,3.3c2.1,0,3.6,2,4.4,6
		L12.6,10.2z"/>
</g>
</svg>
