<?xml version="1.0" encoding="utf-8"?>
<!-- Generator: Adobe Illustrator 21.1.0, SVG Export Plug-In . SVG Version: 6.00 Build 0)  -->
<svg version="1.1" id="Layer_1" xmlns="http://www.w3.org/2000/svg" xmlns:xlink="http://www.w3.org/1999/xlink" x="0px" y="0px"
	 viewBox="0 0 23.1 23.1" style="enable-background:new 0 0 23.1 23.1;" xml:space="preserve">
<g id="Alpha_icon_withdraw" transform="translate(4760.31 1333.31)">
	<path d="M-4750.2-1325.8c-0.9,0-1.7,0.5-2.1,1.2c-0.5,0.9-0.8,1.9-0.8,3c0,1,0.2,1.9,0.6,2.8c0.3,0.7,1,1.1,1.8,1.1
		c1.3,0,2.4-1.2,3.1-3.6l0.2-0.6C-4747.9-1324.5-4748.9-1325.8-4750.2-1325.8z"/>
	<path d="M-4741.8-1333.3h-13.9c-2.5,0-4.6,2.1-4.6,4.6v13.9c0,2.5,2.1,4.6,4.6,4.6h13.9c2.5,0,4.6-2.1,4.6-4.6v-13.9
		C-4737.2-1331.2-4739.3-1333.3-4741.8-1333.3z M-4741.8-1316c-0.5,0.2-1.1,0.3-1.7,0.3c-1.6,0-2.6-0.9-3.1-2.7h-0.1
		c-0.7,1.7-2.4,2.9-4.3,2.9c-1.4,0.1-2.7-0.6-3.5-1.6c-0.9-1.2-1.4-2.7-1.3-4.3c-0.1-1.7,0.5-3.3,1.5-4.7c1-1.2,2.5-1.9,4-1.8
		c1.7-0.1,3.3,0.9,3.9,2.5h0.1l0.7-2.2h3.5l-2.5,6c0.2,0.9,0.5,1.7,0.9,2.5c0.2,0.4,0.6,0.7,1.1,0.7c0.3,0,0.6,0,0.9-0.2
		C-4741.8-1318.2-4741.8-1317.3-4741.8-1316L-4741.8-1316z"/>
</g>
</svg>
