<?xml version="1.0" encoding="utf-8"?>
<!-- Generator: Adobe Illustrator 21.1.0, SVG Export Plug-In . SVG Version: 6.00 Build 0)  -->
<svg version="1.1" id="Layer_1" xmlns="http://www.w3.org/2000/svg" xmlns:xlink="http://www.w3.org/1999/xlink" x="0px" y="0px"
	 viewBox="0 0 9 8" style="enable-background:new 0 0 9 8;" xml:space="preserve">
<style type="text/css">
	.st0{fill:#1B1B1B;}
</style>
<g>
	<path class="st0" d="M8.4,6.1c-0.3,0-0.6-0.2-0.7-0.5c-0.3-0.5-0.5-1-0.6-1.6l1.6-3.9H6.5L6.1,1.7h0C5.7,0.6,4.7-0.1,3.6,0
		c-1,0-2,0.4-2.6,1.2c-0.7,0.9-1,1.9-1,3c0,1,0.2,2,0.8,2.7C1.4,7.7,2.2,8,3.1,8c1.2,0,2.3-0.7,2.8-1.9h0c0.1,1,1,1.8,2,1.7
		c0.4,0,0.7-0.1,1.1-0.2l0,0c0-0.9,0-1.5,0-1.7C8.9,6.1,8.7,6.2,8.4,6.1z M5.3,4.3c-0.5,1.6-1.1,2.3-2,2.3c-0.5,0-0.9-0.3-1.1-0.7
		C1.6,4.7,1.6,3.3,2.3,2.2C2.5,1.7,3,1.4,3.6,1.4c0.9,0,1.5,0.8,1.8,2.5L5.3,4.3z"/>
</g>
</svg>
