<?xml version="1.0" encoding="utf-8"?>
<!-- Generator: Adobe Illustrator 21.1.0, SVG Export Plug-In . SVG Version: 6.00 Build 0)  -->
<svg version="1.1" id="Layer_1" xmlns="http://www.w3.org/2000/svg" xmlns:xlink="http://www.w3.org/1999/xlink" x="0px" y="0px"
	 viewBox="0 0 96.8 24.7" style="enable-background:new 0 0 96.8 24.7;" xml:space="preserve">
<style type="text/css">
	.st0{fill:#102A40;enable-background:new    ;}
	.st1{fill:#F58026;enable-background:new    ;}
</style>
<g>
	<g>
		<path class="st0" d="M37.4,0.3c1,0,1.8,0.8,1.8,1.8c0,1-0.8,1.8-1.8,1.8c-1,0-1.9-0.8-1.8-1.9C35.6,1.1,36.4,0.3,37.4,0.3z"/>
		<path class="st0" d="M42.4,5.3c0,1-0.8,1.8-1.8,1.8c-1,0-1.8-0.8-1.8-1.8c0-1,0.8-1.9,1.9-1.9C41.6,3.5,42.4,4.3,42.4,5.3z"/>
		<path class="st1" d="M37.4,10.4c-1,0-1.8-0.8-1.8-1.8c0-1,0.8-1.8,1.8-1.8c1,0,1.8,0.8,1.8,1.8C39.2,9.6,38.4,10.4,37.4,10.4z"/>
		<path class="st0" d="M36,5.4c0,1-0.8,1.8-1.7,1.9c-1,0-1.9-0.8-1.9-1.8c0-1,0.8-1.8,1.8-1.8C35.2,3.6,36,4.3,36,5.4z"/>
		<path class="st0" d="M55.6,24.2c-0.1,0.4-0.4,0.3-0.7,0.3c-1.5,0-2.9,0-4.4,0c-0.3,0-0.6,0.1-0.7-0.3c0-0.4,0.3-0.5,0.6-0.5
			c0.8-0.1,1.1-0.6,1.1-1.3c0-1.9,0.1-3.8,0-5.7c0-1-0.3-2-1.4-2.4c-1.1-0.4-2.3-0.3-3.3,0.3c-0.6,0.4-0.9,1-0.9,1.7c0,2,0,4,0,6
			c0,0.8,0.3,1.3,1.1,1.4c0.3,0,0.6,0.1,0.5,0.5c-0.1,0.4-0.3,0.3-0.6,0.3c-1.5,0-3,0-4.5,0c-0.3,0-0.6,0.1-0.6-0.3
			c-0.1-0.4,0.3-0.5,0.5-0.5c1,0,1.3-0.7,1.3-1.5c0-2.2,0-4.4,0-6.6c0-0.6-0.3-1-0.8-1.3c-0.5-0.3-0.4-0.6,0.1-0.9
			c0.8-0.4,1.5-0.7,2.2-1.1c0.5-0.2,0.7-0.2,0.7,0.4c0,1.4,0,1.4,1.2,0.7c0.9-0.5,1.8-0.8,2.8-0.9c2.2-0.2,3.7,1.1,3.7,3.3
			c0,1,0,2,0,3c0,0,0,0,0.1,0c0,1.1,0,2.2,0,3.4c0,0.8,0.3,1.3,1.2,1.4C55.3,23.8,55.7,23.7,55.6,24.2z"/>
		<path class="st0" d="M21.7,13.4c0.1,0.5,0.1,1-0.4,1.4c-0.4,0.3-0.9,0.4-1.4,0.2c-0.2-0.1-0.4-0.2-0.6-0.3c-1-0.4-1.7-0.1-2,1
			c-0.1,0.3-0.1,0.6-0.1,0.9c0,1.9,0,3.9,0,5.8c0,1,0.2,1.2,1.2,1.4c0.2,0,0.4,0.1,0.6,0.1c0.3,0,0.4,0.1,0.4,0.4
			c0,0.3-0.3,0.3-0.5,0.3c-0.6,0-1.1,0-1.7,0c-1.1,0-2.2,0-3.4,0c-0.3,0-0.6,0.1-0.6-0.4c0-0.4,0.3-0.4,0.5-0.4
			c1-0.1,1.2-0.7,1.2-1.5c0-2.1,0-4.3,0-6.4c0-0.6-0.2-1-0.7-1.4c-0.6-0.4-0.6-0.6,0.1-1c0.7-0.3,1.4-0.6,2-1
			c0.6-0.3,0.8-0.1,0.7,0.5c0,0.4,0,0.8,0,1.4c0.7-0.5,1.2-0.8,1.7-1.2c0.5-0.3,1.1-0.6,1.7-0.5C21.2,12.7,21.6,12.9,21.7,13.4z"/>
		<path class="st0" d="M40.4,24.2c-0.1,0.4-0.4,0.3-0.7,0.3c-0.7,0-1.4,0-2.2,0c0,0,0,0,0,0c-0.8,0-1.6,0-2.4,0
			c-0.2,0-0.5,0-0.5-0.3c-0.1-0.4,0.2-0.4,0.5-0.5c1.3-0.4,1.3-0.4,1.3-1.8c0.1-2.4,0.1-4.9,0-7.3c0-0.5,0.1-1.1-0.7-1.2
			c-0.3,0-0.4-0.3-0.3-0.5c0-0.3,0.3-0.3,0.5-0.3c1.1,0,2.1,0,3.2,0c0.2,0,0.5,0,0.5,0.3c0,0.3-0.1,0.5-0.3,0.5
			c-0.6,0.1-0.6,0.6-0.7,1.1c0,2.6,0,5.2,0,7.8c0,0.8,0.3,1.5,1.3,1.5C40.1,23.8,40.5,23.8,40.4,24.2z"/>
		<path class="st0" d="M9.3,16.8c-0.2-0.1-0.6,0-0.8-0.3c0.3-0.1,0.6-0.3,0.8-0.4c1.3-0.7,1.7-1.6,1.5-3.1c-0.2-1.5-1.3-2.4-3.2-2.7
			c-2.5-0.4-4.9-0.1-7.4,0c-0.2,0.4-0.1,0.8,0.3,1c0.8,0.4,0.9,1.1,0.9,1.8c0,2.6,0,5.2,0,7.8c0,1,0,2-1.1,2.5
			c-0.1,0.1-0.2,0.2-0.2,0.4c0,0.2,0,0.3,0,0.5c1.9,0,3.7,0.1,5.6,0.1c1.2,0,2.5,0,3.7-0.5c1.7-0.6,2.7-1.9,2.6-3.6
			C12.1,18.6,11.1,17.4,9.3,16.8z M5.2,11.1c1,0,2,0.1,2.7,1.1c0.7,1,0.6,2.1,0.1,3.1c-0.4,0.8-2.3,1.4-3.1,1.1
			c-0.3-0.1-0.3-0.3-0.3-0.6c0-0.7,0-1.3,0-2c0-0.7,0-1.3,0-2C4.5,11.3,4.7,11.1,5.2,11.1z M9.2,21.6c-0.4,1.6-2.3,2.5-3.8,1.8
			c-0.7-0.3-0.8-0.9-0.9-1.5c0-0.7,0-1.4,0-2.2c0,0,0,0,0,0c0-0.4,0-0.8,0-1.2c0-1.3,0-1.3,1.4-1.3C8.3,17.4,9.7,19.3,9.2,21.6z"/>
		<path class="st0" d="M33.3,23.3c-1.5,0.4-2,0-2.1-1.5c-0.1-1.1,0-2.2,0-3.3c0-1.2,0.3-2.4,0.1-3.6c-0.2-1.2-0.8-2-2.1-2.2
			c-2.3-0.4-4.2,0.7-5.8,2.3c-0.3,0.3-0.5,0.6-0.5,1.1c0,0.3,0.1,0.4,0.4,0.5c0.8,0.2,1.8-0.5,2-1.3c0.1-0.5,0.2-0.9,0.7-1.2
			c1.3-0.8,3-0.1,3.2,1.4c0.1,0.6,0,1.2,0,1.7c0.1,0.8-0.3,1.1-1,1.4c-1.3,0.4-2.6,0.9-3.8,1.4c-1.3,0.6-1.8,1.4-1.5,2.7
			c0.3,1.3,1.2,2.1,2.5,2.2c1.1,0.1,2-0.4,2.8-0.9c0.5-0.3,0.8-0.4,1.3,0.2c1,1.2,3.1,1,4-0.2c0.1-0.1,0.2-0.3,0.1-0.5
			C33.7,23.2,33.5,23.3,33.3,23.3z M29.1,20.3c0,0.2,0,0.4,0,0.5c-0.1,2-0.8,2.8-2.3,2.7c-0.8,0-1.3-0.5-1.6-1.2
			c-0.2-0.7,0-1.4,0.7-1.8c0.7-0.5,1.5-0.7,2.3-0.9C29,19.3,29.1,19.5,29.1,20.3z"/>
	</g>
	<g>
		<path class="st1" d="M61,14.9c0,2.1,0,4.1,0,6.2c0.1,2,1.3,2.7,3.2,1.9c0.2-0.1,0.4-0.3,0.6,0c0.1,0.2,0,0.4-0.2,0.6
			c-1,1.1-3.5,1.4-4.7,0.6c-0.8-0.5-1-1.3-1.1-2.2c0-1.2,0-2.4,0-3.6c0,0,0,0,0,0c0-1.2,0-2.3,0-3.5c0-0.6-0.2-0.9-0.8-0.9
			c-0.3,0-0.6,0-0.7-0.3c0-0.3,0.3-0.4,0.5-0.5c1-0.3,1.8-1,2.3-2c0.1-0.2,0.3-0.5,0.6-0.4c0.4,0.1,0.3,0.5,0.3,0.7
			c0,1.2,0,1.2,1.3,1.2c0.6,0,1.2,0,1.8,0c0.4,0,0.8,0.1,0.8,0.6c0,0.6-0.3,0.7-0.8,0.7c-0.8,0-1.6,0-2.4,0
			C61.2,14.1,61,14.3,61,14.9z"/>
		<path class="st1" d="M74.6,13.2c0.2,0.5,0.1,1-0.3,1.3c-0.4,0.4-0.9,0.5-1.4,0.2c-0.3-0.1-0.6-0.3-0.9-0.4
			c-0.8-0.2-1.4,0.1-1.7,0.9c-0.1,0.4-0.2,0.8-0.2,1.3c0,1.8,0,3.6,0,5.3c0,1.3,0.2,1.5,1.5,1.6c0.3,0,0.8,0,0.8,0.5
			c0,0.5-0.5,0.3-0.8,0.4c-1.6,0-3.1,0-4.7,0c-0.3,0-0.6,0.1-0.7-0.3c-0.1-0.5,0.3-0.5,0.6-0.5c0.8-0.1,1.1-0.6,1.1-1.3
			c0-1.1,0-2.3,0-3.4c0,0,0,0,0,0c0-1,0-2,0-3c0-0.6-0.1-1.2-0.7-1.6c-0.5-0.3-0.4-0.7,0.1-0.9c0.7-0.3,1.5-0.7,2.2-1.1
			c0.4-0.2,0.6-0.1,0.6,0.4c0.1,1.4,0.1,1.4,1.3,0.6c0.6-0.4,1.2-0.8,2-0.7C74,12.4,74.5,12.7,74.6,13.2z"/>
		<path class="st1" d="M96,22.1c-0.7,0.7-1.5,1-2.4,1c-3.1-0.1-4.7-2.8-4.6-5.5c0-0.5,0.3-0.6,0.7-0.6c1,0,2.1,0,3.1,0c0,0,0,0,0,0
			c0.8,0,1.6,0,2.4,0c1.7,0,2.1-0.6,1.4-2.2c-0.2-0.4-0.4-0.8-0.7-1c-1.2-1.1-2.7-1.4-4.3-1c-4.2,0.9-6.2,6.7-3.5,10.2
			c2,2.6,6.6,2.6,8.4-0.1c0.2-0.3,0.6-0.6,0.2-0.9C96.4,21.4,96.2,21.9,96,22.1z M89.4,15.3c0.5-1.5,2.9-2.4,4.3-1.7
			c0.4,0.2,0.7,0.5,0.8,0.9c0.3,0.8,0.1,1.2-0.8,1.3c-0.7,0.1-1.4,0-2.1,0c0,0,0,0,0,0.1c-0.6,0-1.2,0-1.8,0
			C89.4,15.9,89.3,15.8,89.4,15.3z"/>
		<path class="st1" d="M78.3,16.9c1,0,2,0,3,0c0,0,0,0,0,0c0.8,0,1.6,0,2.4,0c0.1,0,0.1,0,0.2,0c1.5,0,1.9-0.5,1.4-2
			c-0.1-0.4-0.3-0.7-0.6-1c-1.3-1.4-2.9-1.7-4.7-1.3c-3.8,0.9-5.8,5.8-3.9,9.4c1.8,3.4,6.8,3.7,9,0.6c0.2-0.2,0.5-0.5,0.2-0.8
			c-0.3-0.3-0.6,0.1-0.8,0.3c-0.7,0.7-1.4,1-2.4,1c-3.3-0.1-4.8-3-4.6-5.5C77.6,17,77.9,16.9,78.3,16.9z M78,15.2
			c0.6-1.4,2.6-2.3,4-1.8c0.5,0.2,0.9,0.5,1.1,0.9c0.4,0.8,0.1,1.3-0.8,1.5c-0.1,0-0.2,0-0.3,0c-0.6,0-1.2,0-1.8,0c0,0,0,0,0,0
			c-0.6,0-1.1,0-1.7,0C77.9,15.9,77.8,15.7,78,15.2z"/>
	</g>
</g>
</svg>
