<?xml version="1.0" encoding="utf-8"?>
<!-- Generator: Adobe Illustrator 21.1.0, SVG Export Plug-In . SVG Version: 6.00 Build 0)  -->
<svg version="1.1" id="Layer_1" xmlns="http://www.w3.org/2000/svg" xmlns:xlink="http://www.w3.org/1999/xlink" x="0px" y="0px"
	 viewBox="0 0 100 26" style="enable-background:new 0 0 100 26;" xml:space="preserve">
<style type="text/css">
	.st0{fill:#102A40;}
	.st1{fill:#F58026;}
</style>
<g>
	<g>
		<path class="st0" d="M38.5,0c1,0,1.9,0.8,1.9,1.9s-0.8,1.9-1.9,1.9s-2-0.8-1.9-2C36.7,0.8,37.5,0,38.5,0z"/>
		<path class="st0" d="M43.7,5.3c0,1.1-0.8,1.9-1.9,1.9S40,6.3,40,5.3s0.8-2,2-2C42.9,3.4,43.7,4.2,43.7,5.3z"/>
		<path class="st1" d="M38.5,10.6c-1,0-1.9-0.8-1.9-1.9s0.8-1.9,1.9-1.9s1.9,0.8,1.9,1.9S39.6,10.6,38.5,10.6z"/>
		<path class="st0" d="M37.1,5.4c0,1.1-0.8,1.9-1.8,2c-1,0-2-0.8-2-1.9s0.8-1.9,1.9-1.9C36.2,3.5,37.1,4.2,37.1,5.4z"/>
		<path class="st0" d="M57.3,25.2c-0.1,0.4-0.4,0.3-0.7,0.3c-1.5,0-3,0-4.5,0c-0.3,0-0.6,0.1-0.7-0.3c0-0.4,0.3-0.5,0.6-0.5
			c0.8-0.1,1.1-0.6,1.1-1.4c0-2,0.1-4,0-6c0-1.1-0.3-2.1-1.4-2.5s-2.4-0.3-3.4,0.3c-0.6,0.4-0.9,1.1-0.9,1.8c0,2.1,0,4.2,0,6.3
			c0,0.8,0.3,1.4,1.1,1.5c0.3,0,0.6,0.1,0.5,0.5s-0.3,0.3-0.6,0.3c-1.5,0-3.1,0-4.6,0c-0.3,0-0.6,0.1-0.6-0.3
			c-0.1-0.4,0.3-0.5,0.5-0.5c1,0,1.3-0.7,1.3-1.6c0-2.3,0-4.6,0-6.9c0-0.6-0.3-1.1-0.8-1.4s-0.4-0.6,0.1-0.9
			c0.8-0.4,1.5-0.7,2.3-1.2c0.5-0.2,0.7-0.2,0.7,0.4c0,1.5,0,1.5,1.2,0.7c0.9-0.5,1.9-0.8,2.9-0.9c2.3-0.2,3.8,1.2,3.8,3.5
			c0,1.1,0,2.1,0,3.2c0,0,0,0,0.1,0c0,1.2,0,2.3,0,3.6c0,0.8,0.3,1.4,1.2,1.5C57,24.7,57.4,24.6,57.3,25.2z"/>
		<path class="st0" d="M22.3,13.8c0.1,0.5,0.1,1.1-0.4,1.5c-0.4,0.3-0.9,0.4-1.4,0.2c-0.2-0.1-0.4-0.2-0.6-0.3
			c-1-0.4-1.8-0.1-2.1,1.1c-0.1,0.3-0.1,0.6-0.1,0.9c0,2,0,4.1,0,6.1c0,1.1,0.2,1.3,1.2,1.5c0.2,0,0.4,0.1,0.6,0.1
			c0.3,0,0.4,0.1,0.4,0.4c0,0.3-0.3,0.3-0.5,0.3c-0.6,0-1.1,0-1.8,0c-1.1,0-2.3,0-3.5,0c-0.3,0-0.6,0.1-0.6-0.4
			c0-0.4,0.3-0.4,0.5-0.4c1-0.1,1.2-0.7,1.2-1.6c0-2.2,0-4.5,0-6.7c0-0.6-0.2-1.1-0.7-1.5c-0.6-0.4-0.6-0.6,0.1-1.1
			c0.7-0.3,1.4-0.6,2.1-1.1c0.6-0.3,0.8-0.1,0.7,0.5c0,0.4,0,0.8,0,1.5c0.7-0.5,1.2-0.8,1.8-1.3c0.5-0.3,1.1-0.6,1.8-0.5
			C21.8,13,22.2,13.3,22.3,13.8z"/>
		<path class="st0" d="M41.6,25.2c-0.1,0.4-0.4,0.3-0.7,0.3c-0.7,0-1.4,0-2.3,0l0,0c-0.8,0-1.7,0-2.5,0c-0.2,0-0.5,0-0.5-0.3
			c-0.1-0.4,0.2-0.4,0.5-0.5c1.3-0.4,1.3-0.4,1.3-1.9c0.1-2.5,0.1-5.2,0-7.7c0-0.5,0.1-1.2-0.7-1.3c-0.3,0-0.4-0.3-0.3-0.5
			c0-0.3,0.3-0.3,0.5-0.3c1.1,0,2.2,0,3.3,0c0.2,0,0.5,0,0.5,0.3s-0.1,0.5-0.3,0.5c-0.6,0.1-0.6,0.6-0.7,1.2c0,2.7,0,5.5,0,8.2
			c0,0.8,0.3,1.6,1.3,1.6C41.3,24.7,41.7,24.7,41.6,25.2z"/>
		<path class="st0" d="M9.5,17.4c-0.2-0.1-0.6,0-0.8-0.3c0.3-0.1,0.6-0.3,0.8-0.4c1.3-0.7,1.8-1.7,1.5-3.3c-0.2-1.6-1.3-2.5-3.3-2.8
			c-2.6-0.4-5.1-0.1-7.6,0c-0.2,0.4-0.1,0.8,0.3,1.1c0.8,0.4,0.9,1.2,0.9,1.9c0,2.7,0,5.5,0,8.2c0,1.1,0,2.1-1.1,2.6
			C0.1,24.4,0,24.5,0,24.7c0,0.2,0,0.3,0,0.5c2,0,3.8,0.1,5.8,0.1c1.2,0,2.6,0,3.8-0.5c1.8-0.6,2.8-2,2.7-3.8
			C12.4,19.3,11.4,18,9.5,17.4z M5.3,11.4c1,0,2.1,0.1,2.8,1.2s0.6,2.2,0.1,3.3c-0.4,0.8-2.4,1.5-3.2,1.2c-0.3-0.1-0.3-0.3-0.3-0.6
			c0-0.7,0-1.4,0-2.1s0-1.4,0-2.1C4.5,11.6,4.8,11.4,5.3,11.4z M9.4,22.4C9,24.1,7,25,5.5,24.3c-0.7-0.3-0.8-0.9-0.9-1.6
			c0-0.7,0-1.5,0-2.3l0,0c0-0.4,0-0.8,0-1.3c0-1.4,0-1.4,1.4-1.4C8.5,18,9.9,20,9.4,22.4z"/>
		<path class="st0" d="M34.3,24.2c-1.5,0.4-2.1,0-2.2-1.6c-0.1-1.2,0-2.3,0-3.5c0-1.3,0.3-2.5,0.1-3.8c-0.2-1.3-0.8-2.1-2.2-2.3
			c-2.4-0.4-4.3,0.7-6,2.4c-0.3,0.3-0.5,0.6-0.5,1.2c0,0.3,0.1,0.4,0.4,0.5c0.8,0.2,1.9-0.5,2.1-1.4c0.1-0.5,0.2-0.9,0.7-1.3
			c1.3-0.8,3.1-0.1,3.3,1.5c0.1,0.6,0,1.3,0,1.8c0.1,0.8-0.3,1.2-1,1.5c-1.3,0.4-2.7,0.9-3.9,1.5c-1.3,0.6-1.9,1.5-1.5,2.8
			c0.3,1.4,1.2,2.2,2.6,2.3c1.1,0.1,2.1-0.4,2.9-0.9c0.5-0.3,0.8-0.4,1.3,0.2c1,1.3,3.2,1.1,4.1-0.2c0.1-0.1,0.2-0.3,0.1-0.5
			C34.7,24.1,34.5,24.2,34.3,24.2z M30,21c0,0.2,0,0.4,0,0.5c-0.1,2.1-0.8,2.9-2.4,2.8c-0.8,0-1.3-0.5-1.7-1.3
			c-0.2-0.7,0-1.5,0.7-1.9c0.7-0.5,1.5-0.7,2.4-0.9C29.8,20,30,20.2,30,21z"/>
	</g>
	<g>
		<path class="st1" d="M62.9,15.4c0,2.2,0,4.3,0,6.5c0.1,2.1,1.3,2.8,3.3,2c0.2-0.1,0.4-0.3,0.6,0c0.1,0.2,0,0.4-0.2,0.6
			c-1,1.2-3.6,1.5-4.9,0.6c-0.8-0.5-1-1.4-1.1-2.3c0-1.3,0-2.5,0-3.8l0,0c0-1.3,0-2.4,0-3.7c0-0.6-0.2-0.9-0.8-0.9
			c-0.3,0-0.6,0-0.7-0.3c0-0.3,0.3-0.4,0.5-0.5c1-0.3,1.9-1.1,2.4-2.1c0.1-0.2,0.3-0.5,0.6-0.4c0.4,0.1,0.3,0.5,0.3,0.7
			c0,1.3,0,1.3,1.3,1.3c0.6,0,1.2,0,1.9,0c0.4,0,0.8,0.1,0.8,0.6c0,0.6-0.3,0.7-0.8,0.7c-0.8,0-1.7,0-2.5,0
			C63.1,14.5,62.9,14.7,62.9,15.4z"/>
		<path class="st1" d="M76.9,13.6c0.2,0.5,0.1,1.1-0.3,1.4c-0.4,0.4-0.9,0.5-1.4,0.2c-0.3-0.1-0.6-0.3-0.9-0.4
			c-0.8-0.2-1.4,0.1-1.8,0.9c-0.1,0.4-0.2,0.8-0.2,1.4c0,1.9,0,3.8,0,5.6c0,1.4,0.2,1.6,1.5,1.7c0.3,0,0.8,0,0.8,0.5
			c0,0.5-0.5,0.3-0.8,0.4c-1.7,0-3.2,0-4.9,0c-0.3,0-0.6,0.1-0.7-0.3c-0.1-0.5,0.3-0.5,0.6-0.5c0.8-0.1,1.1-0.6,1.1-1.4
			c0-1.2,0-2.4,0-3.6l0,0c0-1.1,0-2.1,0-3.2c0-0.6-0.1-1.3-0.7-1.7c-0.5-0.3-0.4-0.7,0.1-0.9c0.7-0.3,1.5-0.7,2.3-1.2
			c0.4-0.2,0.6-0.1,0.6,0.4c0.1,1.5,0.1,1.5,1.3,0.6c0.6-0.4,1.2-0.8,2.1-0.7C76.3,12.7,76.8,13,76.9,13.6z"/>
		<path class="st1" d="M99,22.9c-0.7,0.7-1.5,1.1-2.5,1.1c-3.2-0.1-4.9-2.9-4.8-5.8c0-0.5,0.3-0.6,0.7-0.6c1,0,2.2,0,3.2,0l0,0
			c0.8,0,1.7,0,2.5,0c1.8,0,2.2-0.6,1.4-2.3c-0.2-0.4-0.4-0.8-0.7-1.1c-1.2-1.2-2.8-1.5-4.4-1.1c-4.3,0.9-6.4,7.1-3.6,10.7
			c2.1,2.7,6.8,2.7,8.7-0.1c0.2-0.3,0.6-0.6,0.2-0.9C99.5,22.2,99.2,22.7,99,22.9z M92.2,15.8c0.5-1.6,3-2.5,4.4-1.8
			c0.4,0.2,0.7,0.5,0.8,0.9c0.3,0.8,0.1,1.3-0.8,1.4c-0.7,0.1-1.4,0-2.2,0c0,0,0,0,0,0.1c-0.6,0-1.2,0-1.9,0
			C92.2,16.4,92.1,16.3,92.2,15.8z"/>
		<path class="st1" d="M80.8,17.5c1,0,2.1,0,3.1,0l0,0c0.8,0,1.7,0,2.5,0c0.1,0,0.1,0,0.2,0c1.5,0,2-0.5,1.4-2.1
			c-0.1-0.4-0.3-0.7-0.6-1.1c-1.3-1.5-3-1.8-4.9-1.4c-3.9,0.9-6,6.1-4,9.9c1.9,3.6,7,3.9,9.3,0.6c0.2-0.2,0.5-0.5,0.2-0.8
			c-0.3-0.3-0.6,0.1-0.8,0.3c-0.7,0.7-1.4,1.1-2.5,1.1c-3.4-0.1-5-3.2-4.8-5.8C80,17.6,80.3,17.5,80.8,17.5z M80.5,15.7
			c0.6-1.5,2.7-2.4,4.1-1.9c0.5,0.2,0.9,0.5,1.1,0.9c0.4,0.8,0.1,1.4-0.8,1.6c-0.1,0-0.2,0-0.3,0c-0.6,0-1.2,0-1.9,0l0,0
			c-0.6,0-1.1,0-1.8,0C80.3,16.4,80.2,16.2,80.5,15.7z"/>
	</g>
</g>
</svg>
