<?xml version="1.0" encoding="utf-8"?>
<!-- Generator: Adobe Illustrator 21.1.0, SVG Export Plug-In . SVG Version: 6.00 Build 0)  -->
<svg version="1.1" id="Layer_1" xmlns="http://www.w3.org/2000/svg" xmlns:xlink="http://www.w3.org/1999/xlink" x="0px" y="0px"
	 viewBox="0 0 25 16.9" style="enable-background:new 0 0 25 16.9;" xml:space="preserve">
<style type="text/css">
	.st0{fill:#FF9800;}
</style>
<g>
	<path class="st0" d="M18.6,0c-3.6,0-6.4,1.5-6.4,3.4V4c-0.8,0-1.5,0.2-2.2,0.5C8.8,4.2,7.6,4,6.4,4C2.8,4,0,5.5,0,7.4v6
		c0,1.9,2.8,3.4,6.4,3.4c1.2,0,2.4-0.2,3.5-0.5c1.6,0.7,3.5,0.7,5.1,0c1.1,0.4,2.3,0.5,3.5,0.5c3.6,0,6.4-1.5,6.4-3.4v-10
		C25,1.5,22.2,0,18.6,0z M14.4,1.6c1.3-0.6,2.7-0.9,4.1-0.8c1.4,0,2.8,0.3,4.1,0.8c1,0.5,1.6,1.2,1.6,1.8s-0.6,1.3-1.6,1.8
		c-1.3,0.6-2.7,0.9-4.1,0.8c-0.5,0-0.9-0.1-1.4-0.1c-1.1-1.1-2.5-1.9-4.1-2c-0.1-0.2-0.2-0.4-0.2-0.6C12.9,2.7,13.5,2,14.4,1.6
		L14.4,1.6z M12.5,16.1c-3,0-5.4-2.3-5.7-5.3c0-0.1,0-0.3,0-0.4c0-0.1,0-0.3,0-0.4C7,7.2,9.3,5,12.1,4.8h0.8
		c0.9,0.1,1.8,0.4,2.6,0.9C16.4,6.2,17.2,7,17.6,8c0.3,0.6,0.5,1.3,0.5,2.1c0,0.1,0,0.2,0,0.4s0,0.3,0,0.4c0,0.7-0.2,1.4-0.5,2
		c-0.6,1.2-1.5,2.1-2.7,2.7C14.2,15.9,13.4,16.1,12.5,16.1z M2.3,5.7C3.6,5.1,5,4.8,6.4,4.8c0.8,0,1.7,0.1,2.5,0.3
		c-1.7,1.1-2.7,3-2.9,5c-1.3,0-2.6-0.3-3.7-0.8c-1-0.5-1.6-1.1-1.6-1.8S1.3,6.1,2.3,5.7z M6.1,10.9c0,0.4,0.1,0.8,0.2,1.2
		c-1.4,0-2.7-0.3-3.9-0.8c-1-0.5-1.6-1.1-1.6-1.8V9.1C2.3,10.3,4.2,10.9,6.1,10.9z M6.4,12.9L6.4,12.9c0.3,0.4,0.5,0.9,0.8,1.2H6.4
		c-1.4,0-2.8-0.3-4.1-0.8c-1-0.5-1.6-1.1-1.6-1.8v-0.4C2.4,12.3,4.4,13,6.4,12.9L6.4,12.9z M6.4,16.1c-1.4,0-2.8-0.3-4.1-0.8
		c-1-0.5-1.6-1.1-1.6-1.8v-0.4c1.6,1.3,3.6,1.9,5.7,1.8c0.4,0,0.9,0,1.3-0.1c0.4,0.4,0.8,0.7,1.2,1C8.1,16,7.3,16.1,6.4,16.1
		L6.4,16.1z M24.2,13.5c0,0.6-0.6,1.3-1.6,1.8c-1.3,0.6-2.7,0.9-4.1,0.9c-0.9,0-1.7-0.1-2.6-0.3c0.4-0.3,0.8-0.6,1.2-1
		c0.4,0,0.9,0.1,1.3,0.1c2,0.1,4.1-0.5,5.7-1.8L24.2,13.5z M24.2,11.5c0,0.6-0.6,1.3-1.6,1.8c-1.3,0.6-2.7,0.9-4.1,0.9h-0.8
		c0.3-0.4,0.5-0.8,0.7-1.2h0.1c2,0.1,4.1-0.5,5.7-1.8L24.2,11.5L24.2,11.5z M24.2,9.5c0,0.6-0.6,1.3-1.6,1.8
		c-1.2,0.6-2.6,0.9-3.9,0.8c0.1-0.4,0.2-0.8,0.2-1.2c1.9,0.1,3.8-0.6,5.3-1.8V9.5z M24.2,7.5c0,0.7-0.6,1.3-1.6,1.8
		c-1.2,0.5-2.4,0.8-3.7,0.8c0-0.4-0.1-0.8-0.2-1.3c2,0.1,3.9-0.5,5.5-1.8L24.2,7.5z M24.2,5.5c0,0.6-0.6,1.3-1.6,1.8
		c-1.3,0.6-2.7,0.9-4.1,0.8h-0.1c-0.2-0.4-0.4-0.9-0.7-1.2h0.7c2,0.1,4.1-0.5,5.7-1.8L24.2,5.5z"/>
	<path class="st0" d="M15,12.2c0-0.3,0-0.5-0.1-0.7c-0.4-0.7-1-1.2-1.8-1.3h-0.2V7.4c0.7,0,1.3,0.6,1.4,1.3c0,0.2,0.2,0.4,0.4,0.3
		C14.8,9,15,8.9,15,8.7c0-0.1,0-0.3-0.1-0.4c-0.3-0.9-1.1-1.6-2.1-1.7V6.1c0-0.2-0.2-0.4-0.4-0.4c-0.1,0-0.2,0.1-0.3,0.2l0,0
		c0,0.1-0.1,0.1-0.1,0.2v0.5h-0.3c-1,0.1-1.8,1-1.9,2c0,0.3,0.1,0.5,0.2,0.7c0.1,0.2,0.3,0.5,0.5,0.6c0.3,0.2,0.6,0.4,0.9,0.6
		c0.2,0.1,0.4,0.1,0.6,0.2v2.7l0,0l-0.3-0.1c-0.3-0.1-0.5-0.2-0.7-0.4c-0.2-0.2-0.3-0.5-0.4-0.8c0-0.2-0.2-0.4-0.4-0.3
		c-0.2,0-0.3,0.2-0.3,0.3c0,0,0,0.1,0,0.1c0,0.4,0.2,0.7,0.4,1c0.2,0.3,0.4,0.5,0.6,0.7c0.3,0.2,0.5,0.3,0.8,0.3h0.3v0.5
		c0,0.2,0.1,0.4,0.3,0.4c0.2,0,0.4-0.1,0.4-0.3c0,0,0-0.1,0-0.1v-0.5h0.3c0.3-0.1,0.6-0.2,0.9-0.3c0.2-0.1,0.5-0.3,0.6-0.5
		c0.2-0.3,0.4-0.6,0.4-1C15,12.3,15,12.2,15,12.2z M12,9.9c-0.2-0.1-0.5-0.2-0.7-0.3c-0.2-0.1-0.4-0.4-0.5-0.6
		c-0.1-0.1-0.1-0.3-0.1-0.4c0.1-0.7,0.7-1.3,1.4-1.3l0,0V10L12,9.9z M14.3,12.1c0,0.3-0.1,0.6-0.4,0.8c-0.2,0.2-0.4,0.3-0.7,0.4
		l-0.3,0.1l0,0v-2.6c0.7,0.1,1.2,0.5,1.4,1.1C14.3,12.1,14.3,12.1,14.3,12.1L14.3,12.1z"/>
</g>
</svg>
