<svg id="Layer_1" data-name="Layer 1" xmlns="http://www.w3.org/2000/svg" viewBox="0 0 25 16.87"><defs><style>.cls-1{fill:#ff9800;}</style></defs><title>Charge Menu icon-clicked</title><g id="Charge_Menu_icon" data-name="Charge Menu icon"><g id="Group_285" data-name="Group 285"><path id="Path_29" data-name="Path 29" class="cls-1" d="M18.56,4.06c-3.61,0-6.44,1.5-6.44,3.41v.59a6.4,6.4,0,0,0-2.22.54,11.12,11.12,0,0,0-3.45-.51C2.83,8.09,0,9.59,0,11.5v6c0,1.92,2.83,3.41,6.44,3.41a11.08,11.08,0,0,0,3.5-.53,6.44,6.44,0,0,0,5.12,0,11.08,11.08,0,0,0,3.5.53c3.61,0,6.44-1.5,6.44-3.41v-10C25,5.56,22.17,4.06,18.56,4.06ZM14.45,5.68a9.42,9.42,0,0,1,4.11-.84,9.42,9.42,0,0,1,4.11.84c1,.5,1.56,1.15,1.56,1.8s-.57,1.3-1.56,1.8a9.42,9.42,0,0,1-4.11.84A11.59,11.59,0,0,1,17.15,10a6.43,6.43,0,0,0-4.1-2,1.27,1.27,0,0,1-.16-.6c0-.64.57-1.3,1.56-1.79ZM12.5,20.16a5.67,5.67,0,0,1-5.66-5.25q0-.21,0-.42t0-.35a5.67,5.67,0,0,1,5.28-5.3h.77a5.63,5.63,0,0,1,2.64.86,5.71,5.71,0,0,1,2.1,2.38,5.63,5.63,0,0,1,.53,2.06c0,.12,0,.23,0,.35s0,.28,0,.42a5.63,5.63,0,0,1-.51,2A5.71,5.71,0,0,1,15,19.57,5.64,5.64,0,0,1,12.5,20.16ZM2.33,9.71a9.42,9.42,0,0,1,4.11-.84,11,11,0,0,1,2.49.27,6.44,6.44,0,0,0-2.86,5,9.17,9.17,0,0,1-3.74-.84c-1-.5-1.56-1.15-1.56-1.8S1.34,10.2,2.33,9.71Zm3.74,5.21a6.42,6.42,0,0,0,.2,1.23,9.31,9.31,0,0,1-3.94-.84c-1-.5-1.56-1.15-1.56-1.8v-.35a8.12,8.12,0,0,0,5.3,1.76Zm.37,2h.09a6.44,6.44,0,0,0,.67,1.24l-.75,0a9.42,9.42,0,0,1-4.11-.84c-1-.5-1.56-1.15-1.56-1.8v-.39A8.37,8.37,0,0,0,6.44,16.91Zm0,3.25a9.42,9.42,0,0,1-4.11-.84c-1-.5-1.56-1.15-1.56-1.8v-.35a8.36,8.36,0,0,0,5.68,1.77,12.48,12.48,0,0,0,1.34-.07,6.49,6.49,0,0,0,1.19,1A10.92,10.92,0,0,1,6.44,20.16Zm17.79-2.64c0,.65-.57,1.3-1.56,1.8a9.42,9.42,0,0,1-4.11.85A10.92,10.92,0,0,1,16,19.88a6.5,6.5,0,0,0,1.19-1,12.48,12.48,0,0,0,1.34.07,8.36,8.36,0,0,0,5.67-1.77Zm0-2c0,.65-.57,1.3-1.56,1.8a9.42,9.42,0,0,1-4.11.85l-.75,0a6.43,6.43,0,0,0,.67-1.24h.09a8.36,8.36,0,0,0,5.67-1.77v.39Zm0-2c0,.65-.57,1.3-1.56,1.8a9.3,9.3,0,0,1-3.94.84,6.41,6.41,0,0,0,.2-1.23,8.11,8.11,0,0,0,5.3-1.76Zm0-2c0,.65-.57,1.3-1.56,1.8a9.17,9.17,0,0,1-3.73.84,6.41,6.41,0,0,0-.19-1.26,8.24,8.24,0,0,0,5.49-1.77Zm0-2c0,.65-.57,1.3-1.56,1.8a9.42,9.42,0,0,1-4.11.84h-.08a6.43,6.43,0,0,0-.66-1.24l.73,0a8.36,8.36,0,0,0,5.67-1.77Z" transform="translate(0 -4.06)"/><path id="Path_30" data-name="Path 30" class="cls-1" d="M15,16.22a1.79,1.79,0,0,0-.15-.73,2.45,2.45,0,0,0-1.81-1.33l-.2,0V11.46a1.49,1.49,0,0,1,1.39,1.31.39.39,0,0,0,.77,0,1.77,1.77,0,0,0-.05-.43,2.4,2.4,0,0,0-2.11-1.65v-.5a.38.38,0,0,0-.69-.23l0,0a.38.38,0,0,0-.06.21v.5l-.27,0a2.22,2.22,0,0,0-1.89,2,1.79,1.79,0,0,0,.16.73,2.08,2.08,0,0,0,.46.64,2.58,2.58,0,0,0,.89.55,2.92,2.92,0,0,0,.65.16v2.68h0l-.32-.08a1.8,1.8,0,0,1-.72-.43,1.14,1.14,0,0,1-.35-.8.39.39,0,0,0-.77,0,1.15,1.15,0,0,0,0,.15,1.88,1.88,0,0,0,.43,1A2.39,2.39,0,0,0,11,18a2.8,2.8,0,0,0,.83.32l.25,0v.5a.39.39,0,1,0,.77,0v-.5l.25,0A2.8,2.8,0,0,0,14,18a2.38,2.38,0,0,0,.64-.54,1.88,1.88,0,0,0,.43-1C15,16.32,15,16.27,15,16.22ZM12,14a2,2,0,0,1-.67-.29,1.37,1.37,0,0,1-.51-.6,1,1,0,0,1-.08-.4,1.49,1.49,0,0,1,1.39-1.31h0v2.62L12,14Zm2.3,2.17a1.14,1.14,0,0,1-.35.8,1.79,1.79,0,0,1-.72.43l-.32.08h0V14.91a1.56,1.56,0,0,1,1.38,1.15,1,1,0,0,1,0,.16Z" transform="translate(0 -4.06)"/></g></g></svg>