<svg xmlns="http://www.w3.org/2000/svg" viewBox="2875 1705 32.596 22">
  <defs>
    <style>
      .cls-1 {
        fill: #424242;
      }
    </style>
  </defs>
  <g id="Charge_Menu_icon" data-name="Charge Menu icon" transform="translate(2874 1643.993)">
    <g id="Group_285" data-name="Group 285" transform="translate(1 61.007)">
      <path id="Path_29" data-name="Path 29" class="cls-1" d="M24.2,58.007c-4.711,0-8.4,1.955-8.4,4.452v.763a8.339,8.339,0,0,0-2.9.705,14.5,14.5,0,0,0-4.5-.671c-4.71,0-8.4,1.955-8.4,4.451v7.848c0,2.5,3.69,4.451,8.4,4.451a14.446,14.446,0,0,0,4.56-.692,8.393,8.393,0,0,0,6.675,0,14.444,14.444,0,0,0,4.56.692c4.71,0,8.4-1.955,8.4-4.451v-13.1C32.6,59.962,28.906,58.007,24.2,58.007Zm-5.36,2.109a12.283,12.283,0,0,1,5.36-1.1,12.28,12.28,0,0,1,5.359,1.1c1.293.647,2.035,1.5,2.035,2.343s-.742,1.7-2.035,2.343A12.278,12.278,0,0,1,24.2,65.9a15.114,15.114,0,0,1-1.838-.11,8.382,8.382,0,0,0-5.35-2.558,1.651,1.651,0,0,1-.207-.778C16.8,61.616,17.543,60.762,18.836,60.116ZM16.3,79a7.375,7.375,0,0,1-4.914-1.873,7.435,7.435,0,0,1-1.8-2.413,7.347,7.347,0,0,1-.666-2.565q-.02-.269-.02-.544c0-.155.005-.309.015-.462A7.388,7.388,0,0,1,15.8,64.228c.166-.011.334-.017.5-.017l.152,0q.176,0,.35.016a7.346,7.346,0,0,1,3.445,1.127,7.443,7.443,0,0,1,2.742,3.1,7.34,7.34,0,0,1,.69,2.688c.009.153.015.306.015.462q0,.275-.02.544a7.344,7.344,0,0,1-.666,2.565,7.441,7.441,0,0,1-3.418,3.512A7.35,7.35,0,0,1,16.3,79ZM3.041,65.364a12.283,12.283,0,0,1,5.36-1.1,14.284,14.284,0,0,1,3.24.358,8.4,8.4,0,0,0-3.73,6.527,11.952,11.952,0,0,1-4.87-1.1c-1.293-.647-2.035-1.5-2.035-2.343S1.747,66.011,3.041,65.364Zm4.875,6.787a8.368,8.368,0,0,0,.26,1.6,12.136,12.136,0,0,1-5.135-1.1c-1.293-.647-2.035-1.5-2.035-2.343v-.455C2.342,71.167,4.893,72.065,7.916,72.152ZM8.4,74.758h.111a8.393,8.393,0,0,0,.872,1.613Q8.9,76.4,8.4,76.4a12.28,12.28,0,0,1-5.36-1.1c-1.293-.647-2.035-1.5-2.035-2.343v-.505C2.413,73.836,5.166,74.758,8.4,74.758ZM8.4,79a12.279,12.279,0,0,1-5.36-1.1c-1.293-.647-2.035-1.5-2.035-2.343V75.1c1.408,1.386,4.161,2.308,7.4,2.308a16.268,16.268,0,0,0,1.742-.092A8.455,8.455,0,0,0,11.7,78.63,14.238,14.238,0,0,1,8.4,79Zm23.19-3.446c0,.842-.742,1.7-2.035,2.343A12.277,12.277,0,0,1,24.2,79a14.236,14.236,0,0,1-3.3-.371,8.47,8.47,0,0,0,1.554-1.315,16.268,16.268,0,0,0,1.741.092c3.234,0,5.987-.922,7.395-2.308Zm0-2.6c0,.842-.742,1.7-2.035,2.343A12.278,12.278,0,0,1,24.2,76.4q-.5,0-.983-.031a8.387,8.387,0,0,0,.872-1.613H24.2c3.234,0,5.987-.922,7.395-2.308v.505Zm0-2.649c0,.842-.742,1.7-2.035,2.343a12.13,12.13,0,0,1-5.135,1.1,8.359,8.359,0,0,0,.26-1.6c3.023-.087,5.573-.984,6.91-2.3Zm0-2.6c0,.842-.742,1.7-2.035,2.343a11.951,11.951,0,0,1-4.869,1.1,8.354,8.354,0,0,0-.253-1.638c3.131-.044,5.784-.954,7.157-2.306Zm0-2.649c0,.842-.742,1.7-2.035,2.343A12.278,12.278,0,0,1,24.2,68.5H24.1a8.383,8.383,0,0,0-.864-1.621q.47.027.955.027c3.234,0,5.987-.922,7.395-2.307Z" transform="translate(0 -58.007)"/>
      <path id="Path_30" data-name="Path 30" class="cls-1" d="M148.747,148.114a2.335,2.335,0,0,0-.2-.949,3.2,3.2,0,0,0-2.354-1.733c-.085-.017-.171-.031-.259-.043V141.9a1.948,1.948,0,0,1,1.811,1.708.5.5,0,1,0,1.005,0,2.308,2.308,0,0,0-.071-.567,3.135,3.135,0,0,0-2.745-2.157v-.655a.5.5,0,0,0-.9-.3l-.021.029a.5.5,0,0,0-.083.276v.655c-.12.015-.238.036-.354.062a2.9,2.9,0,0,0-2.462,2.662,2.331,2.331,0,0,0,.206.956,2.707,2.707,0,0,0,.6.84,3.362,3.362,0,0,0,1.162.719,3.81,3.81,0,0,0,.848.208v3.49h0a2.879,2.879,0,0,1-.415-.1,2.341,2.341,0,0,1-.937-.561,1.485,1.485,0,0,1-.459-1.045.5.5,0,1,0-1.005,0c0,.066,0,.132.009.2a2.452,2.452,0,0,0,.56,1.344,3.11,3.11,0,0,0,.837.708,3.644,3.644,0,0,0,1.086.419c.106.023.214.041.324.055v.657a.5.5,0,0,0,1.005,0v-.657q.165-.021.324-.055a3.646,3.646,0,0,0,1.087-.419,3.109,3.109,0,0,0,.837-.708,2.453,2.453,0,0,0,.56-1.344C148.743,148.246,148.747,148.18,148.747,148.114Zm-4-2.834a2.582,2.582,0,0,1-.869-.374,1.788,1.788,0,0,1-.66-.778,1.357,1.357,0,0,1-.1-.521,1.947,1.947,0,0,1,1.809-1.708h0v3.416C144.866,145.305,144.807,145.294,144.749,145.28Zm2.993,2.834a1.486,1.486,0,0,1-.459,1.045,2.34,2.34,0,0,1-.937.561,2.84,2.84,0,0,1-.415.1h0V146.4a2.036,2.036,0,0,1,1.794,1.5A1.331,1.331,0,0,1,147.742,148.114Z" transform="translate(-129.13 -132.262)"/>
    </g>
  </g>
</svg>
