<svg xmlns="http://www.w3.org/2000/svg" viewBox="2876 1706 29.633 20">
  <defs>
    <style>
      .cls-1 {
        fill: #424242;
      }
    </style>
  </defs>
  <g id="Charge" transform="translate(2875 1644.993)">
    <g id="Group_285" data-name="Group 285" transform="translate(1 61.007)">
      <path id="Path_29" data-name="Path 29" class="cls-1" d="M22,58.007c-4.282,0-7.637,1.778-7.637,4.047v.693a7.581,7.581,0,0,0-2.636.641,13.179,13.179,0,0,0-4.087-.61C3.354,62.779,0,64.556,0,66.825V73.96c0,2.269,3.354,4.047,7.637,4.047a13.132,13.132,0,0,0,4.146-.629,7.63,7.63,0,0,0,6.069,0A13.131,13.131,0,0,0,22,78.007c4.282,0,7.636-1.778,7.636-4.047V62.054C29.633,59.785,26.279,58.007,22,58.007Zm-4.873,1.917a11.166,11.166,0,0,1,4.873-1,11.164,11.164,0,0,1,4.872,1c1.176.588,1.85,1.364,1.85,2.13s-.674,1.542-1.85,2.13a11.162,11.162,0,0,1-4.872,1,13.74,13.74,0,0,1-1.671-.1,7.62,7.62,0,0,0-4.863-2.326,1.5,1.5,0,0,1-.188-.707C15.274,61.288,15.948,60.512,17.124,59.924ZM14.817,77.093a6.7,6.7,0,0,1-4.467-1.7A6.759,6.759,0,0,1,8.718,73.2a6.679,6.679,0,0,1-.606-2.332q-.018-.245-.018-.495c0-.141,0-.281.013-.42a6.717,6.717,0,0,1,6.253-6.288c.151-.01.3-.016.457-.016l.138,0q.16,0,.318.014a6.678,6.678,0,0,1,3.132,1.025A6.767,6.767,0,0,1,20.9,67.507a6.673,6.673,0,0,1,.628,2.443c.009.139.014.279.014.42q0,.25-.018.495a6.676,6.676,0,0,1-.606,2.332,6.765,6.765,0,0,1-3.107,3.193,6.682,6.682,0,0,1-2.992.7ZM2.764,64.7a11.166,11.166,0,0,1,4.873-1,12.986,12.986,0,0,1,2.946.325,7.639,7.639,0,0,0-3.391,5.933,10.866,10.866,0,0,1-4.427-1c-1.176-.588-1.85-1.364-1.85-2.13S1.588,65.283,2.764,64.7ZM7.2,70.866a7.607,7.607,0,0,0,.236,1.454,11.032,11.032,0,0,1-4.668-1c-1.176-.588-1.85-1.364-1.85-2.13v-.414C2.129,69.971,4.448,70.787,7.2,70.866Zm.44,2.37h.1A7.63,7.63,0,0,0,8.531,74.7q-.441.028-.894.028a11.164,11.164,0,0,1-4.873-1C1.588,73.139.914,72.362.914,71.6v-.459C2.194,72.4,4.7,73.235,7.637,73.235Zm0,3.858a11.163,11.163,0,0,1-4.873-1C1.588,75.5.914,74.725.914,73.96v-.414c1.28,1.26,3.783,2.1,6.723,2.1A14.79,14.79,0,0,0,9.22,75.56a7.686,7.686,0,0,0,1.413,1.2A12.944,12.944,0,0,1,7.637,77.093ZM28.719,73.96c0,.765-.674,1.542-1.85,2.13a11.161,11.161,0,0,1-4.872,1,12.942,12.942,0,0,1-3-.338,7.7,7.7,0,0,0,1.413-1.2A14.79,14.79,0,0,0,22,75.644c2.94,0,5.443-.838,6.722-2.1Zm0-2.363c0,.765-.674,1.542-1.85,2.13a11.162,11.162,0,0,1-4.872,1q-.452,0-.894-.028a7.625,7.625,0,0,0,.793-1.467H22c2.94,0,5.443-.838,6.722-2.1V71.6Zm0-2.408c0,.766-.674,1.542-1.85,2.13a11.027,11.027,0,0,1-4.668,1,7.6,7.6,0,0,0,.236-1.454c2.748-.079,5.066-.895,6.282-2.091Zm0-2.363c0,.765-.674,1.542-1.85,2.13a10.865,10.865,0,0,1-4.427,1,7.6,7.6,0,0,0-.23-1.489c2.846-.04,5.258-.867,6.507-2.1Zm0-2.408c0,.765-.674,1.542-1.85,2.13a11.162,11.162,0,0,1-4.872,1h-.083a7.621,7.621,0,0,0-.785-1.474q.427.024.868.025c2.94,0,5.443-.838,6.722-2.1Z" transform="translate(0 -58.007)"/>
      <path id="Path_30" data-name="Path 30" class="cls-1" d="M148.144,147.352a2.123,2.123,0,0,0-.184-.863,2.908,2.908,0,0,0-2.14-1.576c-.078-.015-.156-.029-.236-.039V141.7a1.771,1.771,0,0,1,1.646,1.553.457.457,0,1,0,.914,0,2.1,2.1,0,0,0-.064-.515,2.85,2.85,0,0,0-2.5-1.961v-.6a.456.456,0,0,0-.819-.277l-.019.026a.455.455,0,0,0-.075.251v.6c-.109.014-.216.033-.322.056a2.639,2.639,0,0,0-2.238,2.42,2.119,2.119,0,0,0,.188.869,2.461,2.461,0,0,0,.545.764,3.056,3.056,0,0,0,1.057.654,3.464,3.464,0,0,0,.771.189V148.9h0a2.615,2.615,0,0,1-.377-.092,2.128,2.128,0,0,1-.852-.51,1.35,1.35,0,0,1-.417-.95.457.457,0,1,0-.914,0c0,.06,0,.12.009.179a2.229,2.229,0,0,0,.509,1.222,2.827,2.827,0,0,0,.761.644,3.313,3.313,0,0,0,.988.381c.1.021.195.037.294.05v.6a.457.457,0,0,0,.914,0v-.6q.15-.019.294-.05a3.315,3.315,0,0,0,.988-.381,2.826,2.826,0,0,0,.76-.643,2.23,2.23,0,0,0,.509-1.222C148.14,147.472,148.144,147.412,148.144,147.352Zm-3.635-2.576a2.348,2.348,0,0,1-.79-.34,1.626,1.626,0,0,1-.6-.707,1.233,1.233,0,0,1-.1-.473,1.77,1.77,0,0,1,1.645-1.553h0v3.105C144.616,144.8,144.562,144.788,144.509,144.775Zm2.721,2.576a1.351,1.351,0,0,1-.417.95,2.127,2.127,0,0,1-.852.51,2.582,2.582,0,0,1-.377.092h0V145.8a1.85,1.85,0,0,1,1.631,1.364A1.211,1.211,0,0,1,147.23,147.352Z" transform="translate(-130.31 -132.941)"/>
    </g>
  </g>
</svg>
