<?xml version="1.0" encoding="utf-8"?>
<!-- Generator: Adobe Illustrator 21.1.0, SVG Export Plug-In . SVG Version: 6.00 Build 0)  -->
<svg version="1.1" id="Layer_1" xmlns="http://www.w3.org/2000/svg" xmlns:xlink="http://www.w3.org/1999/xlink" x="0px" y="0px"
	 viewBox="0 0 55 56.1" style="enable-background:new 0 0 55 56.1;" xml:space="preserve">
<style type="text/css">
	.st0{stroke:#000000;stroke-width:0.5;stroke-miterlimit:10;}
</style>
<path class="st0" d="M45,10.7c0,0.2-0.1,0.3-0.2,0.4c-2.7,1.5-3.7,3.3-4.8,5c-0.5,0.9-1,1.6-1.6,2.3l-0.2,0.2l0.1,0.2
	c0.1,0.3,0.2,0.6,0.2,0.9v13c0,1.6-1.3,2.9-2.9,2.9H12.9c-1.6,0-2.9-1.3-2.9-2.9v-13c0-1.6,1.3-2.9,2.9-2.9h5.3l0-0.3
	c0.7-4.4,1.6-7.6,2.5-8.5c1.2-1.2,5-2.3,9.2-3.5l0.1,0c0.9-0.3,1.7-0.5,2.2-0.6c2.5-0.8,5.5-3.2,5.6-3.2c0.1-0.1,0.3-0.1,0.4-0.1
	c0,0,1.7,0.7,3.4,2.3C43.9,5,45,7.6,45,10.7z M20.3,22.9c0,0.2,0.1,0.4,0.3,0.6c1.3,1.3,3.9,0.5,6-0.9c2-1.4,4.3-2.4,5.9-2.5
	c0.2,0,0.5,0,0.7,0c1.1-0.1,2-0.1,3.9-1.5c1-0.7,1.6-1.7,2.3-2.9c0.9-1.5,2.1-3.5,4.7-5.1l0.2-0.1l0-0.2c-0.2-5.5-4.5-8-5.8-8.7
	l-0.2-0.1L38,1.7c-0.9,0.7-3.3,2.4-5.4,3c-0.6,0.2-1.4,0.4-2.3,0.7c-3.9,1.1-7.8,2.3-8.9,3.3c-1.1,1.1-2.1,7.1-2.2,7.8l-0.1,0.4h4.1
	l1.5-3.8c0.1-0.1,0.2-0.2,0.3-0.3c0.4-0.1,1.3-0.5,1.8-0.7c0.1,0,0.2-0.1,0.2-0.1c1.1-0.1,2.8,1,3.3,1.7c0,0.1,0.1,0.2,0.1,0.2
	c0,0.1,0,0.1,0,0.2c-0.9,2.1-4.4,3.7-5.9,4.3c-1.4,0.5-3.8,2.7-4.1,4.1C20.3,22.7,20.3,22.8,20.3,22.9z M37.7,28.2v-9.1l-0.6,0.4
	c-1.9,1.2-2.9,1.3-3.9,1.3h-0.1c-0.2,0-0.4,0-0.6,0C31,21.1,28.8,22,27,23.3c-2.1,1.5-5.3,2.6-7.1,0.8c-0.3-0.3-0.5-0.7-0.5-1.2
	c0-0.1,0-0.3,0-0.4c0.3-1.4,1.9-3,3.4-4l1-0.7h-11c-1.1,0-2,0.9-2,2v8.5H37.7z M37.7,31.5v-2.4H10.9v2.4H37.7z M10.9,32.7
	c0,1.1,0.9,2,2,2h22.8c1.1,0,2-0.9,2-2v-0.4H10.9V32.7z M26,16.8L26,16.8c1.2-0.6,2.6-1.5,3.3-2.5l0.2-0.3l-0.3-0.2
	c-0.3-0.3-0.7-0.4-1.1-0.6c-0.2-0.1-0.4-0.2-0.5-0.3l-0.2-0.1L27.3,13c-0.5,0.2-1.2,0.4-1.7,0.5l-0.2,0.1l-1.3,3.3H26z"/>
<path d="M13.6,49.3L13.6,49.3c0,1-0.3,1.9-1,2.5c-0.7,0.6-1.6,0.9-2.7,0.9c-1.2,0-2.1-0.4-2.8-1.2c-0.7-0.8-1.1-1.8-1.1-3v-1.9
	c0-1.2,0.4-2.2,1.1-3c0.7-0.8,1.6-1.2,2.8-1.2c1.2,0,2.1,0.3,2.8,0.9c0.7,0.6,1,1.4,1,2.5l0,0H12c0-0.7-0.2-1.2-0.5-1.5
	c-0.4-0.4-0.9-0.5-1.6-0.5c-0.7,0-1.2,0.3-1.6,0.8c-0.4,0.5-0.6,1.2-0.6,2v1.9c0,0.8,0.2,1.5,0.6,2c0.4,0.5,0.9,0.8,1.6,0.8
	c0.7,0,1.2-0.2,1.5-0.5c0.4-0.4,0.5-0.9,0.5-1.5H13.6z M16.7,46.1c0.2-0.3,0.5-0.6,0.9-0.8c0.4-0.2,0.7-0.3,1.2-0.3
	c0.8,0,1.4,0.2,1.8,0.7c0.4,0.5,0.7,1.3,0.7,2.3v4.5h-1.7V48c0-0.6-0.1-1-0.3-1.3c-0.2-0.3-0.6-0.4-1-0.4c-0.4,0-0.7,0.1-0.9,0.2
	c-0.3,0.1-0.5,0.3-0.6,0.5v5.5H15V41.9h1.7V46.1z M27.4,52.6c-0.1-0.2-0.1-0.4-0.1-0.5c0-0.2-0.1-0.4-0.1-0.5
	c-0.2,0.3-0.5,0.6-0.9,0.9c-0.4,0.2-0.8,0.4-1.3,0.4c-0.8,0-1.4-0.2-1.8-0.6c-0.4-0.4-0.6-0.9-0.6-1.6c0-0.7,0.3-1.3,0.8-1.7
	c0.6-0.4,1.4-0.6,2.4-0.6h1.3v-0.6c0-0.4-0.1-0.7-0.3-0.9c-0.2-0.2-0.6-0.3-1-0.3c-0.4,0-0.7,0.1-0.9,0.3c-0.2,0.2-0.3,0.4-0.3,0.7
	l-1.6,0l0,0c0-0.6,0.2-1.1,0.8-1.6c0.6-0.5,1.3-0.7,2.2-0.7c0.9,0,1.6,0.2,2.1,0.7s0.8,1.1,0.8,1.9v3.3c0,0.3,0,0.6,0.1,0.9
	c0,0.3,0.1,0.6,0.2,0.8H27.4z M25.4,51.4c0.4,0,0.8-0.1,1.1-0.3c0.3-0.2,0.6-0.4,0.7-0.7v-1.1h-1.3c-0.5,0-0.9,0.1-1.1,0.4
	c-0.3,0.2-0.4,0.5-0.4,0.8c0,0.3,0.1,0.5,0.3,0.7C24.8,51.3,25,51.4,25.4,51.4z M34.3,46.7l-0.7,0c-0.3,0-0.6,0.1-0.8,0.2
	c-0.2,0.1-0.4,0.3-0.5,0.6v5.1h-1.7v-7.4h1.5l0.1,1.1c0.2-0.4,0.4-0.7,0.7-0.9c0.3-0.2,0.6-0.3,1-0.3c0.1,0,0.2,0,0.3,0
	c0.1,0,0.2,0,0.2,0.1L34.3,46.7z M35.1,49c0-1.2,0.3-2.1,0.8-2.9c0.5-0.7,1.2-1.1,2.1-1.1c0.4,0,0.8,0.1,1.2,0.3
	c0.3,0.2,0.6,0.5,0.9,0.8l0.2-1h1.4v7.4c0,1-0.3,1.7-0.9,2.2s-1.4,0.8-2.5,0.8c-0.4,0-0.7-0.1-1.2-0.2c-0.4-0.1-0.8-0.2-1.1-0.4
	l0.3-1.3c0.3,0.1,0.6,0.3,0.9,0.3c0.3,0.1,0.7,0.1,1.1,0.1c0.6,0,1-0.1,1.3-0.4c0.3-0.3,0.4-0.7,0.4-1.2v-0.8
	c-0.2,0.3-0.5,0.5-0.8,0.7c-0.3,0.2-0.7,0.2-1.1,0.2c-0.9,0-1.6-0.3-2.1-1s-0.8-1.5-0.8-2.6V49z M36.7,49.1c0,0.7,0.1,1.2,0.4,1.6
	s0.7,0.6,1.3,0.6c0.4,0,0.7-0.1,0.9-0.2c0.2-0.1,0.4-0.4,0.6-0.6v-3.2c-0.2-0.3-0.4-0.5-0.6-0.6c-0.2-0.2-0.5-0.2-0.9-0.2
	c-0.6,0-1,0.2-1.3,0.7c-0.3,0.5-0.4,1.1-0.4,1.9V49.1z M46.4,52.7c-1.1,0-1.9-0.3-2.5-1C43.3,51,43,50.1,43,49v-0.3
	c0-1.1,0.3-2,0.9-2.7c0.6-0.7,1.4-1.1,2.4-1c1,0,1.7,0.3,2.3,0.9c0.5,0.6,0.8,1.4,0.8,2.5v0.9h-4.6l0,0c0,0.6,0.2,1.1,0.5,1.5
	s0.8,0.6,1.4,0.6c0.5,0,0.8-0.1,1.2-0.2c0.3-0.1,0.6-0.3,0.9-0.5l0.5,1.1c-0.3,0.2-0.7,0.5-1.1,0.6S47,52.7,46.4,52.7z M46.2,46.4
	c-0.4,0-0.8,0.2-1,0.5c-0.3,0.3-0.4,0.7-0.5,1.2l0,0h2.9v-0.1c0-0.5-0.1-0.9-0.3-1.2C47.1,46.5,46.7,46.4,46.2,46.4z"/>
</svg>
