<svg xmlns="http://www.w3.org/2000/svg" viewBox="2811 1704 24 24">
  <defs>
    <style>
      .cls-1 {
        fill: #ff9800;
      }
    </style>
  </defs>
  <path id="Dashboard" class="cls-1" d="M20.5,35.231h-6a.511.511,0,0,1-.5-.522V27.926H10v6.783a.511.511,0,0,1-.5.522h-6a.511.511,0,0,1-.5-.522V24.274a.5.5,0,1,1,1,0v9.913H9V27.4a.511.511,0,0,1,.5-.522h5a.511.511,0,0,1,.5.522v6.783h5V24.8a.5.5,0,1,1,1,0v9.913A.511.511,0,0,1,20.5,35.231Zm3-10.957a.488.488,0,0,1-.353-.153L12,12.49.853,24.121a.485.485,0,0,1-.707,0,.538.538,0,0,1,0-.738l11.5-12a.485.485,0,0,1,.707,0l11.5,12a.538.538,0,0,1,0,.738A.488.488,0,0,1,23.5,24.274Zm-4-7.3a.511.511,0,0,1-.5-.522v-3.13H16a.522.522,0,0,1,0-1.044h3.5a.511.511,0,0,1,.5.522v3.652A.511.511,0,0,1,19.5,16.97Z" transform="translate(2811 1692.769)"/>
</svg>
