<?xml version="1.0" encoding="utf-8"?>
<!-- Generator: Adobe Illustrator 21.1.0, SVG Export Plug-In . SVG Version: 6.00 Build 0)  -->
<svg version="1.1" id="Layer_1" xmlns="http://www.w3.org/2000/svg" xmlns:xlink="http://www.w3.org/1999/xlink" x="0px" y="0px"
	 viewBox="0 0 25 25" style="enable-background:new 0 0 25 25;" xml:space="preserve">
<style type="text/css">
	.st0{fill:#424242;}
</style>
<path class="st0" d="M21.4,25h-6.3c-0.3,0-0.5-0.2-0.5-0.5c0,0,0,0,0,0l0,0v-7.1h-4.2v7.1c0,0.3-0.2,0.5-0.5,0.5c0,0,0,0,0,0H3.7
	c-0.3,0-0.5-0.2-0.5-0.5c0,0,0,0,0,0l0,0V13.6c-0.1-0.3,0.1-0.6,0.4-0.6c0.3-0.1,0.6,0.1,0.6,0.4c0,0.1,0,0.2,0,0.3v10.3h5.3v-7.1
	c0-0.3,0.2-0.5,0.5-0.5c0,0,0,0,0,0h5.2c0.3,0,0.5,0.2,0.5,0.5c0,0,0,0,0,0l0,0v7.1h5.2v-9.8c0.1-0.3,0.4-0.4,0.6-0.4
	c0.2,0,0.3,0.2,0.4,0.4v10.3C21.8,24.7,21.6,25,21.4,25z M24.5,13.6c-0.1,0-0.3-0.1-0.4-0.2L12.5,1.3L0.9,13.4
	c-0.2,0.2-0.5,0.2-0.7,0l0,0c-0.2-0.2-0.2-0.6,0-0.8l12-12.5c0.2-0.2,0.5-0.2,0.7,0l0,0l12,12.5c0.2,0.2,0.2,0.6,0,0.8
	C24.8,13.5,24.6,13.6,24.5,13.6L24.5,13.6z M20.3,6c-0.3,0-0.5-0.2-0.5-0.5c0,0,0,0,0,0l0,0V2.2h-3.1c-0.3,0-0.5-0.2-0.5-0.5
	s0.2-0.5,0.5-0.5h3.6c0.3,0,0.5,0.2,0.5,0.5c0,0,0,0,0,0l0,0v3.8C20.8,5.7,20.6,6,20.3,6C20.3,6,20.3,6,20.3,6L20.3,6z"/>
</svg>
