<?xml version="1.0" encoding="utf-8"?>
<!-- Generator: Adobe Illustrator 21.1.0, SVG Export Plug-In . SVG Version: 6.00 Build 0)  -->
<svg version="1.1" id="Layer_1" xmlns="http://www.w3.org/2000/svg" xmlns:xlink="http://www.w3.org/1999/xlink" x="0px" y="0px"
	 viewBox="0 0 6 11" style="enable-background:new 0 0 6 11;" xml:space="preserve">
<g>
	<path d="M0,7.3h1.2C1.2,8,2,8.6,3,8.6S4.8,8,4.8,7.3S4.2,6.4,2.9,6.1C1.6,5.7,0,5.4,0,3.7c0.1-1.2,1-2.1,2.1-2.3V0h1.8v1.3
		C5,1.5,5.9,2.5,6,3.7H4.8C4.8,3,4,2.4,3,2.4S1.2,3,1.2,3.7s0.6,0.9,1.9,1.2C4.4,5.2,6,5.6,6,7.3C5.9,8.5,5,9.4,3.9,9.7V11H2.1V9.7
		C1,9.4,0.1,8.5,0,7.3z"/>
</g>
</svg>
