<?xml version="1.0" encoding="utf-8"?>
<!-- Generator: Adobe Illustrator 21.1.0, SVG Export Plug-In . SVG Version: 6.00 Build 0)  -->
<svg version="1.1" id="Layer_1" xmlns="http://www.w3.org/2000/svg" xmlns:xlink="http://www.w3.org/1999/xlink" x="0px" y="0px"
	 viewBox="0 0 61 57" style="enable-background:new 0 0 61 57;" xml:space="preserve">
<style type="text/css">
	.st0{fill:#001B1B;enable-background:new    ;}
</style>
<path class="st0" d="M6.6,48.5H2.7v3.2h4.6V53H1V43h6.2v1.3H2.7v2.8h3.9V48.5z M11.3,48.1l1.4-2.5h1.9l-2.3,3.7l2.4,3.7h-1.9
	l-1.4-2.6L9.9,53H8l2.4-3.7L8,45.6h1.9L11.3,48.1z M18.6,51.8c0.4,0,0.7-0.1,1-0.4s0.4-0.5,0.4-0.9h1.5l0,0c0,0.7-0.3,1.3-0.8,1.8
	s-1.3,0.8-2,0.8c-1.1,0-1.9-0.4-2.5-1.1c-0.6-0.7-0.9-1.6-0.9-2.7v-0.2c0-1.1,0.3-2,0.9-2.7s1.4-1.1,2.5-1.1c0.9,0,1.6,0.3,2.1,0.8
	c0.5,0.5,0.8,1.2,0.8,2l0,0H20c0-0.4-0.1-0.8-0.4-1s-0.6-0.4-1-0.4c-0.6,0-1,0.2-1.3,0.7c-0.3,0.5-0.4,1-0.4,1.7v0.2
	c0,0.7,0.1,1.3,0.4,1.7C17.6,51.6,18,51.8,18.6,51.8z M24.5,46.6c0.2-0.3,0.5-0.6,0.9-0.8c0.4-0.2,0.7-0.3,1.2-0.3
	c0.8,0,1.4,0.2,1.8,0.7c0.4,0.5,0.7,1.3,0.7,2.3V53h-1.7v-4.5c0-0.6-0.1-1-0.3-1.3c-0.2-0.3-0.6-0.4-1-0.4c-0.4,0-0.7,0.1-0.9,0.2
	c-0.3,0.1-0.5,0.3-0.6,0.5V53h-1.7V42.3h1.7V46.6z M35.3,53c-0.1-0.2-0.1-0.4-0.1-0.5c0-0.2-0.1-0.4-0.1-0.5
	c-0.2,0.3-0.5,0.6-0.9,0.9c-0.4,0.2-0.8,0.4-1.3,0.4c-0.8,0-1.4-0.2-1.8-0.6c-0.4-0.4-0.6-0.9-0.6-1.6c0-0.7,0.3-1.3,0.8-1.7
	c0.6-0.4,1.4-0.6,2.4-0.6H35V48c0-0.4-0.1-0.7-0.3-0.9c-0.2-0.2-0.6-0.3-1-0.3c-0.4,0-0.7,0.1-0.9,0.3c-0.2,0.2-0.3,0.4-0.3,0.7
	l-1.6,0l0,0c0-0.6,0.2-1.1,0.8-1.6c0.6-0.5,1.3-0.7,2.2-0.7c0.9,0,1.6,0.2,2.1,0.7s0.8,1.1,0.8,1.9v3.3c0,0.3,0,0.6,0.1,0.9
	c0,0.3,0.1,0.6,0.2,0.8H35.3z M33.2,51.8c0.4,0,0.8-0.1,1.1-0.3c0.3-0.2,0.6-0.4,0.7-0.7v-1.1h-1.3c-0.5,0-0.9,0.1-1.1,0.4
	c-0.3,0.2-0.4,0.5-0.4,0.8c0,0.3,0.1,0.5,0.3,0.7C32.6,51.7,32.9,51.8,33.2,51.8z M39.9,45.6l0.1,1.1c0.2-0.4,0.5-0.7,0.9-0.9
	c0.4-0.2,0.8-0.3,1.2-0.3c0.8,0,1.4,0.2,1.8,0.7c0.4,0.5,0.6,1.2,0.6,2.2V53H43v-4.6c0-0.6-0.1-1-0.3-1.2s-0.6-0.4-1-0.4
	c-0.4,0-0.7,0.1-0.9,0.2c-0.3,0.1-0.5,0.3-0.6,0.6V53h-1.7v-7.4H39.9z M46.1,49.4c0-1.2,0.3-2.1,0.8-2.9c0.5-0.7,1.2-1.1,2.1-1.1
	c0.4,0,0.8,0.1,1.2,0.3c0.3,0.2,0.6,0.5,0.9,0.8l0.2-1h1.4V53c0,1-0.3,1.7-0.9,2.2S50.2,56,49.2,56c-0.4,0-0.7-0.1-1.2-0.2
	c-0.4-0.1-0.8-0.2-1.1-0.4l0.3-1.3c0.3,0.1,0.6,0.3,0.9,0.3c0.3,0.1,0.7,0.1,1.1,0.1c0.6,0,1-0.1,1.3-0.4c0.3-0.3,0.4-0.7,0.4-1.2
	v-0.8c-0.2,0.3-0.5,0.5-0.8,0.7c-0.3,0.2-0.7,0.2-1.1,0.2c-0.9,0-1.6-0.3-2.1-1s-0.8-1.5-0.8-2.6V49.4z M47.7,49.5
	c0,0.7,0.1,1.2,0.4,1.6s0.7,0.6,1.3,0.6c0.4,0,0.7-0.1,0.9-0.2c0.2-0.1,0.4-0.4,0.6-0.6v-3.2c-0.2-0.3-0.4-0.5-0.6-0.6
	c-0.2-0.2-0.5-0.2-0.9-0.2c-0.6,0-1,0.2-1.3,0.7c-0.3,0.5-0.4,1.1-0.4,1.9V49.5z M57.4,53.1c-1.1,0-1.9-0.3-2.5-1
	c-0.6-0.7-0.9-1.6-0.9-2.6v-0.3c0-1.1,0.3-2,0.9-2.7c0.6-0.7,1.4-1.1,2.4-1c1,0,1.7,0.3,2.3,0.9c0.5,0.6,0.8,1.4,0.8,2.5v0.9h-4.6
	l0,0c0,0.6,0.2,1.1,0.5,1.5s0.8,0.6,1.4,0.6c0.5,0,0.8-0.1,1.2-0.2c0.3-0.1,0.6-0.3,0.9-0.5l0.5,1.1c-0.3,0.2-0.7,0.5-1.1,0.6
	S58,53.1,57.4,53.1z M57.2,46.8c-0.4,0-0.8,0.2-1,0.5c-0.3,0.3-0.4,0.7-0.5,1.2l0,0h2.9v-0.1c0-0.5-0.1-0.9-0.3-1.2
	C58.1,46.9,57.7,46.8,57.2,46.8z M34.8,6c-0.1-0.2-0.1-0.5,0.1-0.6l4.3-5.2c0,0,0,0,0,0c0.2-0.3,0.6-0.3,0.8-0.1l0,0
	c0.1,0,0.1,0,0.1,0.1c0.2,0.1,0.2,0.4,0.1,0.5l-3.7,4.6h8.6c0.7-0.1,1.3,0.1,1.8,0.6c0.5,0.5,0.8,1.2,0.7,1.9v5.8
	c-0.1,0.3-0.3,0.5-0.6,0.6c0,0,0,0-0.1,0c-0.3,0-0.6-0.3-0.5-0.6V7.8c0-0.4-0.1-0.7-0.4-1c-0.3-0.2-0.6-0.4-1-0.4H37l3.2,4.2
	c0.1,0.3,0.1,0.6-0.1,0.8c-0.1,0.1-0.2,0.1-0.4,0.1c-0.2,0-0.4-0.1-0.5-0.2l-4.3-5.3L34.8,6C34.8,6,34.8,6,34.8,6z M25,29.9
	l-0.1-0.1l-4.3-5.3c-0.1-0.1-0.3-0.2-0.5-0.2c-0.1,0-0.3,0-0.4,0.1c-0.2,0.2-0.3,0.6-0.1,0.8l3.2,4.1h-8.3c-0.4,0-0.7-0.1-1-0.4
	c-0.2-0.3-0.4-0.6-0.4-1v-5.8c0-0.3-0.2-0.6-0.5-0.6c0,0,0,0-0.1,0c-0.3,0-0.6,0.3-0.6,0.6V28c-0.1,0.7,0.2,1.4,0.7,1.9
	c0.5,0.5,1.1,0.7,1.8,0.6h8.6L19.5,35c0,0.1,0,0.6,0.2,0.7h0c0.3,0.2,0.6,0.2,0.8-0.1c0,0,0,0,0,0l4.3-5.2
	C25.1,30.4,25.1,30.1,25,29.9C25,29.9,25,29.9,25,29.9z M26.3,20.6c-0.9,0.2-1.8,0.4-2.8,0.4c0,0,0,0,0,0c-5.4,0-9.7-4.4-9.7-9.7
	c0-5.4,4.4-9.7,9.7-9.7c5.4,0,9.7,4.4,9.7,9.7c0,1-0.1,2-0.5,2.9c0.5-0.2,1.1-0.4,1.7-0.5c0.1-0.8,0.2-1.6,0.2-2.4
	c0-0.1,0-0.1,0-0.2C34.6,4.9,29.6-0.1,23.4,0S12.2,5.1,12.3,11.3c0,0,0,0,0,0c0,6.2,5.1,11.3,11.3,11.3c0.8,0,1.6-0.1,2.3-0.3
	c0.1-0.4,0.2-0.8,0.4-1.2C26.3,20.9,26.3,20.8,26.3,20.6z M40.2,27.8c-0.6,0.7-1.5,1.1-2.4,1.1c-1.5-0.1-2.8-1.1-3.2-2.5h4
	c0.3,0,0.6-0.3,0.6-0.6s-0.3-0.6-0.6-0.6h-4.3v-1.3h4.3c0.3,0,0.6-0.3,0.6-0.6c0-0.3-0.3-0.6-0.6-0.6h-4c0.5-1.4,1.8-2.4,3.2-2.5
	c0.9,0,1.8,0.4,2.4,1.1c0.2,0.2,0.6,0.2,0.8,0c0.2-0.2,0.2-0.6,0-0.8C40.2,19.5,39,19,37.7,19c-2.2,0.1-4,1.6-4.6,3.7h-1.7
	c-0.3,0-0.6,0.3-0.6,0.6s0.3,0.6,0.6,0.6h1.4v1.3h-1.4c-0.3,0-0.6,0.3-0.6,0.6s0.3,0.6,0.6,0.6h1.7c0.5,2.1,2.4,3.7,4.6,3.7
	c1.3,0,2.5-0.5,3.4-1.4c0,0,0,0,0,0c0.2-0.2,0.2-0.6,0-0.8S40.4,27.6,40.2,27.8z M22.7,17.2c0,0.6,0.2,0.8,0.7,0.7
	c0.1,0,0.1,0,0.2,0c0.3,0,0.6-0.4,0.5-0.7v-0.2c1.5-0.3,2.6-1.7,2.5-3.2c0-2.3-2.5-3-3.2-3.2c-1.8-0.6-2-1.3-2-1.8
	c0-1,0.8-1.8,1.8-1.8c1,0,1.8,0.8,1.8,1.8c0,0.1,0,0.1,0,0.2c0,0.3,0.4,0.6,0.7,0.5c0.1,0,0.1,0,0.2,0c0.3,0,0.6-0.4,0.5-0.7
	c0-1.5-1-2.9-2.5-3.2V5.2c0-0.1,0-0.1,0-0.2c0-0.3-0.4-0.6-0.7-0.5c-0.1,0-0.1,0-0.2,0c-0.3,0-0.6,0.4-0.5,0.7v0.2
	c-1.5,0.3-2.6,1.7-2.5,3.2c0,1.4,1.2,2.5,3.2,3.2c1.8,0.6,2,1.3,2,1.8c0,1-0.8,1.8-1.8,1.8c-1,0-1.8-0.8-1.8-1.8c0-0.1,0-0.1,0-0.2
	c0-0.3-0.4-0.6-0.7-0.5c-0.1,0-0.1,0-0.2,0c-0.3,0-0.6,0.4-0.5,0.7c0,1.5,1,2.9,2.5,3.2V17.2L22.7,17.2z M48.1,24.7
	c0,6.2-5,11.3-11.3,11.3c-6.2,0-11.3-5-11.3-11.3c0-0.9,0.1-1.7,0.3-2.5c0,0,0,0,0.1,0c0.1-0.5,0.2-0.8,0.3-1.2
	c1.5-4.4,5.7-7.6,10.6-7.6l0,0c0,0,0,0,0,0C43.1,13.5,48.1,18.5,48.1,24.7z M46.6,24.7c0-5.4-4.4-9.7-9.7-9.7s-9.7,4.4-9.7,9.7
	s4.4,9.7,9.7,9.7h0C42.2,34.4,46.6,30.1,46.6,24.7z"/>
</svg>
