<?xml version="1.0" encoding="utf-8"?>
<!-- Generator: Adobe Illustrator 21.1.0, SVG Export Plug-In . SVG Version: 6.00 Build 0)  -->
<svg version="1.1" id="Layer_1" xmlns="http://www.w3.org/2000/svg" xmlns:xlink="http://www.w3.org/1999/xlink" x="0px" y="0px"
	 viewBox="0 0 15 13" style="enable-background:new 0 0 15 13;" xml:space="preserve">
<style type="text/css">
	.st0{fill:#1B1B1B;}
</style>
<path class="st0" d="M7.4,4.1l2.2,2.2c0,0,0-0.1,0-0.1c0-1.1-0.9-2.1-2-2.1C7.5,4.1,7.4,4.1,7.4,4.1 M4.5,4.7l1.1,1.1
	c0,0.1-0.1,0.3-0.1,0.4c0,1.1,0.9,2.1,2,2.1c0.2,0,0.3,0,0.4-0.1L9,9.2C8.5,9.4,8,9.6,7.5,9.6C5.6,9.6,4.1,8,4.1,6.2
	C4.1,5.6,4.2,5.1,4.5,4.7 M0.7,0.9l1.6,1.6l0.3,0.3C1.4,3.6,0.5,4.8,0,6.2c1.2,3,4.1,5.1,7.5,5.1c1.1,0,2.1-0.2,3-0.6l0.3,0.3l2,2
	l0.9-0.9L1.5,0 M7.5,2.7c1.9,0,3.4,1.5,3.4,3.4c0,0.4-0.1,0.9-0.2,1.2l2,2c1-0.9,1.8-2,2.3-3.3C13.8,3.2,10.9,1,7.5,1
	c-1,0-1.9,0.2-2.7,0.5L6.3,3C6.6,2.8,7.1,2.7,7.5,2.7z"/>
</svg>
