<?xml version="1.0" encoding="utf-8"?>
<!-- Generator: Adobe Illustrator 21.1.0, SVG Export Plug-In . SVG Version: 6.00 Build 0)  -->
<svg version="1.1" id="Layer_1" xmlns="http://www.w3.org/2000/svg" xmlns:xlink="http://www.w3.org/1999/xlink" x="0px" y="0px"
	 viewBox="0 0 15 10" style="enable-background:new 0 0 15 10;" xml:space="preserve">
<style type="text/css">
	.st0{fill:#1B1B1B;}
</style>
<path class="st0" d="M7.5,3c-1.1,0-2,0.9-2,2s0.9,2,2,2s2-0.9,2-2S8.6,3,7.5,3 M7.5,8.3C5.6,8.3,4.1,6.8,4.1,5s1.5-3.3,3.4-3.3
	s3.4,1.5,3.4,3.3S9.4,8.3,7.5,8.3 M7.5,0C4.1,0,1.2,2.1,0,5c1.2,2.9,4.1,5,7.5,5s6.3-2.1,7.5-5C13.8,2.1,10.9,0,7.5,0z"/>
</svg>
