<?xml version="1.0" encoding="utf-8"?>
<!-- Generator: Adobe Illustrator 21.1.0, SVG Export Plug-In . SVG Version: 6.00 Build 0)  -->
<svg version="1.1" id="Capa_1" xmlns="http://www.w3.org/2000/svg" xmlns:xlink="http://www.w3.org/1999/xlink" x="0px" y="0px"
	 viewBox="0 0 612 612" style="enable-background:new 0 0 612 612;" xml:space="preserve">
<path d="M331.7,425.4c-7.5,7.5-7.5,19.6,0,27c7.5,7.5,19.6,7.5,27,0l131.9-132c4-4,5.7-9.3,5.4-14.5c0.3-5.2-1.4-10.5-5.4-14.5
	L358.7,159.6c-7.5-7.5-19.6-7.5-27,0c-7.5,7.5-7.5,19.6,0,27L432,286.9H19.1C8.6,286.9,0,295.4,0,306s8.6,19.1,19.1,19.1H432
	L331.7,425.4z M535.5,38.3H153c-42.2,0-76.5,34.3-76.5,76.5v76.5h38.3v-76.5c0-21.1,17.1-38.3,38.3-38.3h382.5
	c21.1,0,38.3,17.1,38.3,38.3v382.5c0,21.1-17.1,38.3-38.3,38.3H153c-21.1,0-38.3-17.1-38.3-38.3v-76.5H76.5v76.5
	c0,42.2,34.3,76.5,76.5,76.5h382.5c42.2,0,76.5-34.3,76.5-76.5V114.8C612,72.5,577.7,38.3,535.5,38.3z"/>
</svg>
