<?xml version="1.0" encoding="utf-8"?>
<!-- Generator: Adobe Illustrator 21.1.0, SVG Export Plug-In . SVG Version: 6.00 Build 0)  -->
<svg version="1.1" id="Layer_1" xmlns="http://www.w3.org/2000/svg" xmlns:xlink="http://www.w3.org/1999/xlink" x="0px" y="0px"
	 viewBox="0 0 20 4.9" style="enable-background:new 0 0 20 4.9;" xml:space="preserve">
<style type="text/css">
	.st0{fill:#FF9800;}
</style>
<g>
	<path class="st0" d="M10,0C8.7,0,7.6,1.1,7.6,2.4S8.7,4.9,10,4.9s2.4-1.1,2.4-2.4S11.3,0,10,0z M10,3.9c-0.8,0-1.4-0.6-1.4-1.4
		C8.6,1.6,9.2,1,10,1s1.4,0.6,1.4,1.4C11.4,3.2,10.8,3.9,10,3.9z"/>
	<path class="st0" d="M2.4,0C1.1,0,0,1.1,0,2.4s1.1,2.4,2.4,2.4s2.4-1.1,2.4-2.4S3.8,0,2.4,0z M2.4,3.9C1.6,3.9,1,3.2,1,2.4
		C1,1.6,1.6,1,2.4,1c0.8,0,1.4,0.6,1.4,1.4C3.9,3.2,3.2,3.9,2.4,3.9z"/>
	<path class="st0" d="M17.6,0c-1.3,0-2.4,1.1-2.4,2.4s1.1,2.4,2.4,2.4S20,3.8,20,2.4S18.9,0,17.6,0z M17.6,3.9
		c-0.8,0-1.4-0.6-1.4-1.4c0-0.8,0.6-1.4,1.4-1.4C18.4,1,19,1.6,19,2.4C19,3.2,18.4,3.9,17.6,3.9z"/>
</g>
</svg>
