<svg id="Layer_1" data-name="Layer 1" xmlns="http://www.w3.org/2000/svg" viewBox="0 0 20 4.86"><defs><style>.cls-1{fill:#ff9800;}</style></defs><title>More Menu icon-clicked</title><g id="More_Menu_icon" data-name="More Menu icon"><g id="Group_278" data-name="Group 278"><path id="Path_733" data-name="Path 733" class="cls-1" d="M12.43,2.43A2.43,2.43,0,1,0,10,4.86,2.43,2.43,0,0,0,12.43,2.43ZM10,3.86a1.43,1.43,0,1,1,1.43-1.43A1.43,1.43,0,0,1,10,3.86Z" transform="translate(0)"/><path id="Path_734" data-name="Path 734" class="cls-1" d="M2.43,0A2.43,2.43,0,1,0,4.86,2.43,2.43,2.43,0,0,0,2.43,0Zm0,3.86A1.43,1.43,0,1,1,3.86,2.43,1.43,1.43,0,0,1,2.43,3.86Z" transform="translate(0)"/><path id="Path_735" data-name="Path 735" class="cls-1" d="M17.57,0A2.43,2.43,0,1,0,20,2.43h0A2.43,2.43,0,0,0,17.57,0Zm0,3.86A1.43,1.43,0,1,1,19,2.43h0A1.43,1.43,0,0,1,17.57,3.86Z" transform="translate(0)"/></g></g></svg>