<?xml version="1.0" encoding="utf-8"?>
<!-- Generator: Adobe Illustrator 21.1.0, SVG Export Plug-In . SVG Version: 6.00 Build 0)  -->
<svg version="1.1" id="Capa_1" xmlns="http://www.w3.org/2000/svg" xmlns:xlink="http://www.w3.org/1999/xlink" x="0px" y="0px"
	 viewBox="0 0 24 24" style="enable-background:new 0 0 24 24;" xml:space="preserve">
<g>
	<g>
		<path d="M18.8,14.8c-0.5-0.5-1.1-0.8-1.7-0.8c-0.6,0-1.2,0.3-1.7,0.8l-1.6,1.6c-0.1-0.1-0.3-0.1-0.4-0.2c-0.2-0.1-0.3-0.2-0.5-0.3
			c-1.5-0.9-2.8-2.2-4.1-3.7c-0.6-0.8-1-1.4-1.3-2.1C8,9.7,8.4,9.3,8.7,8.9C8.9,8.8,9,8.7,9.2,8.5c1-1,1-2.4,0-3.4L7.8,3.7
			C7.6,3.6,7.5,3.4,7.3,3.2C7,2.9,6.7,2.6,6.4,2.3C5.9,1.8,5.3,1.6,4.7,1.6S3.5,1.8,3,2.3c0,0,0,0,0,0L1.3,4c-0.6,0.6-1,1.4-1.1,2.3
			C0.2,7.8,0.6,9.1,0.9,10c0.8,2.2,2,4.2,3.8,6.3c2.2,2.6,4.8,4.6,7.8,6.1c1.1,0.5,2.7,1.2,4.4,1.3c0.1,0,0.2,0,0.3,0
			c1.1,0,2.1-0.4,2.9-1.2c0,0,0,0,0,0c0.3-0.3,0.6-0.6,0.9-0.9c0.2-0.2,0.4-0.4,0.6-0.6c0.5-0.5,0.8-1.1,0.8-1.7
			c0-0.6-0.3-1.2-0.8-1.7L18.8,14.8z M20.6,20C20.6,20,20.6,20,20.6,20c-0.2,0.2-0.4,0.4-0.6,0.6c-0.3,0.3-0.7,0.6-1,1
			c-0.5,0.5-1.1,0.8-1.9,0.8c-0.1,0-0.2,0-0.2,0c-1.5-0.1-2.8-0.7-3.9-1.2c-2.8-1.4-5.3-3.3-7.3-5.7c-1.7-2-2.8-3.9-3.6-6
			C1.7,8.3,1.5,7.4,1.6,6.5c0-0.6,0.3-1.1,0.7-1.5L4,3.3c0.2-0.2,0.5-0.4,0.8-0.4c0.3,0,0.6,0.2,0.7,0.3c0,0,0,0,0,0
			c0.3,0.3,0.6,0.6,0.9,0.9c0.2,0.2,0.3,0.3,0.5,0.5L8.2,6c0.5,0.5,0.5,1,0,1.5C8.1,7.7,7.9,7.9,7.8,8C7.4,8.4,7,8.8,6.5,9.2
			c0,0,0,0,0,0c-0.4,0.4-0.3,0.8-0.3,1.1c0,0,0,0,0,0c0.4,0.9,0.8,1.7,1.6,2.6l0,0c1.4,1.7,2.8,3,4.4,4c0.2,0.1,0.4,0.2,0.6,0.3
			c0.2,0.1,0.3,0.2,0.5,0.3c0,0,0,0,0.1,0c0.2,0.1,0.3,0.1,0.5,0.1c0.4,0,0.7-0.3,0.8-0.3l1.7-1.7c0.2-0.2,0.4-0.4,0.8-0.4
			c0.3,0,0.6,0.2,0.7,0.4c0,0,0,0,0,0l2.7,2.7C21.1,19,21.1,19.5,20.6,20z"/>
		<path d="M13,5.8c1.3,0.2,2.5,0.8,3.4,1.8c0.9,0.9,1.6,2.1,1.8,3.4c0.1,0.3,0.3,0.6,0.7,0.6c0,0,0.1,0,0.1,0
			c0.4-0.1,0.6-0.4,0.6-0.8c-0.3-1.6-1-3-2.2-4.1c-1.1-1.1-2.6-1.9-4.1-2.2c-0.4-0.1-0.7,0.2-0.8,0.5C12.3,5.4,12.6,5.8,13,5.8z"/>
		<path d="M23.7,10.6c-0.4-2.6-1.7-5-3.5-6.8S16,0.7,13.4,0.2c-0.4-0.1-0.7,0.2-0.8,0.5c-0.1,0.4,0.2,0.7,0.6,0.8
			c2.3,0.4,4.4,1.5,6.1,3.2c1.7,1.7,2.8,3.8,3.2,6.1c0.1,0.3,0.3,0.6,0.7,0.6c0,0,0.1,0,0.1,0C23.6,11.3,23.8,11,23.7,10.6z"/>
	</g>
</g>
</svg>
