<?xml version="1.0" encoding="utf-8"?>
<!-- Generator: Adobe Illustrator 21.1.0, SVG Export Plug-In . SVG Version: 6.00 Build 0)  -->
<svg version="1.1" id="_x38_484a344-ecb5-4603-9bae-f1ee6adfa230"
	 xmlns="http://www.w3.org/2000/svg" xmlns:xlink="http://www.w3.org/1999/xlink" x="0px" y="0px" viewBox="0 0 143.3 143.3"
	 style="enable-background:new 0 0 143.3 143.3;" xml:space="preserve">
<style type="text/css">
	.st0{fill:#FFFFFF;}
	.st1{fill:#424242;}
</style>
<g>
	<path class="st0" d="M71.8,142.2c-14,0-27.8-4.2-39.4-12c-11.4-7.6-20.1-18.4-25.6-31C-2.4,77.3,0,52.1,13.4,32.4
		c7.6-11.3,18.4-20.2,31-25.5c21.9-9.3,47.1-6.9,66.8,6.5c11.4,7.6,20.1,18.4,25.6,31c9.3,21.9,6.9,47.1-6.5,66.9
		c-7.6,11.4-18.4,20.2-31,25.6C90.5,140.5,81.2,142.3,71.8,142.2z"/>
	<path class="st1" d="M71.8,141.2c13.8,0,27.3-4.1,38.8-11.9c11.2-7.5,19.9-18.2,25.2-30.6c9.1-21.6,6.7-46.4-6.4-65.8
		c-7.5-11.2-18.2-20-30.6-25.2C77.3-1.4,52.5,1,33.1,14.1C21.9,21.8,13.2,32.4,7.8,44.8c-9.1,21.6-6.7,46.4,6.4,65.8
		c7.5,11.2,18.2,20,30.5,25.2C53.4,139.4,62.5,141.3,71.8,141.2 M71.8,143.3c-39.5,0-71.5-32-71.5-71.4s32-71.6,71.5-71.6
		s71.5,32.1,71.5,71.6l0,0C143.2,111.3,111.3,143.3,71.8,143.3z"/>
</g>
<g>
	<path class="st1" d="M60.9,64.2H94l5.8-20.9h-8.7L88,33.7l-12.8,4.2l1.8,5.3h-0.6l-3.1-9.5l-12.9,4.2l1.8,5.3h-6.9l-1.5-5.7
		c-0.6-2.7-3.1-4.8-6.1-4.8h-4v2.4h4c1.8,0,3.3,1.3,3.8,3l6.4,24.8c-1.4,0.9-2.2,2.5-2.2,4.2c0,2.8,2.4,5.2,5.2,5.2H93V70H60.9
		c-1.6,0-2.9-1.3-2.9-2.8C58.1,65.5,59.3,64.2,60.9,64.2L60.9,64.2z M86.6,36.7l2.2,6.5h-9.3l-1.4-3.7L86.6,36.7z M71.6,36.7
		l2.2,6.5h-9.3l-1.4-3.7L71.6,36.7z M96.7,45.6l-4.6,16.3H59.9l-4.2-16.2L96.7,45.6z M82.6,75.9c-2.8,0-5,2.2-5,5s2.2,5,5,5l0,0l0,0
		c2.7,0,5-2.2,5-4.9l0,0v-0.1C87.6,78.1,85.3,75.9,82.6,75.9L82.6,75.9z M82.6,83.6c-1.6,0-2.7-1.3-2.7-2.7c0-1.6,1.3-2.7,2.7-2.7
		c1.5,0,2.7,1.1,2.7,2.6l0,0v0.1C85.3,82.4,84.2,83.6,82.6,83.6z M64.2,75.9c-2.8,0-5,2.2-5,5s2.2,5,5,5c2.8,0,5-2.2,5-5l0,0
		C69.2,78.2,67,75.9,64.2,75.9z M64.2,83.6c-1.6,0-2.7-1.3-2.7-2.7c0-1.6,1.3-2.7,2.7-2.7c1.6,0,2.7,1.3,2.7,2.7l0,0
		C66.9,82.4,65.8,83.6,64.2,83.6z"/>
</g>
<g>
	<path class="st1" d="M39,106v4.8h-1.6V98.9h4.5c1-0.1,2.1,0.3,2.9,0.9c1.4,1.5,1.4,3.8,0,5.1c-0.8,0.7-1.9,1-2.9,0.9L39,106z
		 M39,104.7h2.9c1.3,0.1,2.4-0.8,2.4-2.1c0.1-1.3-0.8-2.4-2.1-2.4c-0.1,0-0.2,0-0.3,0H39V104.7z M53.4,109.4c-0.2,0.4-0.6,0.8-1,1
		c-0.4,0.3-0.9,0.4-1.6,0.4c-0.8,0-1.7-0.3-2.3-0.9c-0.6-0.8-0.9-1.9-0.8-2.9v-5.2h1.6v5.2c-0.1,0.6,0.1,1.4,0.4,2
		c0.3,0.4,0.8,0.5,1.3,0.5s0.9-0.1,1.5-0.3c0.4-0.2,0.6-0.6,0.8-0.9v-6.4h1.6v8.8h-1.5V109.4z M61.4,103.4h-0.8
		c-0.4,0-0.7,0.1-1,0.3c-0.3,0.2-0.5,0.5-0.6,0.8v6.3h-1.7V102h1.5l0.2,1.3c0.2-0.4,0.5-0.7,0.9-1c0.4-0.2,0.8-0.4,1.3-0.4h0.3
		l0.3,0.1L61.4,103.4z M66.4,109.6c0.5,0,1-0.2,1.4-0.5s0.6-0.7,0.6-1.3h1.5l0,0c0,0.8-0.4,1.6-1,2c-0.7,0.6-1.6,0.9-2.5,0.8
		c-1.1,0.1-2.2-0.4-2.9-1.3c-0.7-0.9-1-2-1-3.1V106c0-1.1,0.3-2.2,1-3.1c1.5-1.6,3.9-1.7,5.4-0.3c0.6,0.5,0.9,1.4,0.9,2.3l0,0h-1.5
		c0-0.5-0.2-1-0.6-1.4s-0.9-0.6-1.5-0.5c-0.7-0.1-1.5,0.3-1.8,0.9c-0.4,0.6-0.5,1.5-0.5,2.2v0.3c0,0.8,0.2,1.6,0.5,2.3
		C64.9,109.3,65.7,109.8,66.4,109.6L66.4,109.6z M73.3,103.1c0.3-0.4,0.6-0.7,1.1-0.9c0.4-0.2,0.9-0.3,1.5-0.3
		c0.8,0,1.7,0.2,2.2,0.8c0.6,0.7,0.8,1.7,0.8,2.6v5.5h-1.7v-5.5c0-0.6-0.1-1.1-0.4-1.7c-0.4-0.4-0.8-0.5-1.4-0.5
		c-0.4,0-0.8,0.1-1.3,0.3c-0.3,0.2-0.6,0.5-0.9,0.8v6.5h-1.6V98.1h1.7L73.3,103.1L73.3,103.1z M86.7,110.8c-0.1-0.3-0.1-0.5-0.1-0.7
		s0-0.4-0.1-0.6c-0.3,0.4-0.7,0.7-1.1,1s-1,0.4-1.6,0.4c-0.7,0-1.5-0.2-2.1-0.7c-0.5-0.5-0.7-1.3-0.7-2c0-0.8,0.4-1.6,1-2
		c0.8-0.5,1.8-0.7,2.8-0.7h1.8v-0.7c0-0.4-0.1-0.9-0.4-1.3c-0.4-0.3-0.8-0.5-1.4-0.4c-0.4,0-0.9,0.1-1.3,0.4
		c-0.3,0.2-0.5,0.6-0.5,0.9h-1.6l0,0c0-0.7,0.3-1.4,0.9-1.8c0.7-0.5,1.6-0.8,2.5-0.8c0.8,0,1.8,0.2,2.4,0.7s0.9,1.4,0.9,2.2v4.3
		c0,0.3,0,0.6,0,0.9s0.1,0.6,0.2,0.8L86.7,110.8L86.7,110.8z M83.9,109.5c0.5,0,1.1-0.1,1.6-0.4c0.4-0.2,0.7-0.6,0.9-1v-1.5h-1.9
		c-0.5,0-1.1,0.1-1.6,0.5c-0.3,0.3-0.6,0.7-0.6,1.1c0,0.3,0.1,0.7,0.3,0.9C83.1,109.4,83.5,109.6,83.9,109.5L83.9,109.5z
		 M95.5,108.4c0-0.3-0.1-0.6-0.4-0.8c-0.4-0.3-0.9-0.5-1.6-0.6c-0.8-0.1-1.7-0.5-2.4-0.9c-0.5-0.4-0.8-0.9-0.8-1.7
		c0-0.7,0.3-1.4,0.9-1.9c1.5-1,3.3-1,4.8,0c0.6,0.4,0.9,1.1,0.8,1.9l0,0h-1.6c0-0.4-0.2-0.7-0.5-1s-0.8-0.5-1.3-0.4
		c-0.4,0-0.9,0.1-1.3,0.4c-0.3,0.2-0.4,0.5-0.4,0.9c0,0.3,0.1,0.6,0.3,0.8c0.4,0.3,0.9,0.4,1.5,0.5c0.8,0.1,1.8,0.5,2.5,0.9
		c0.5,0.4,0.8,1,0.8,1.7s-0.3,1.5-0.9,1.9c-0.7,0.5-1.6,0.7-2.5,0.7c-0.9,0.1-1.9-0.2-2.7-0.8c-0.6-0.5-0.9-1.3-0.9-2l0,0h1.6
		c0,0.5,0.2,0.9,0.6,1.3c0.4,0.3,0.9,0.4,1.4,0.4s0.9-0.1,1.4-0.3C95.3,109.1,95.5,108.8,95.5,108.4L95.5,108.4z M102.8,110.9
		c-1.1,0-2.2-0.4-2.9-1.3c-0.7-0.9-1.1-2-1-3.2v-0.3c0-1.1,0.3-2.3,1.1-3.1c0.6-0.8,1.7-1.3,2.6-1.3c1-0.1,2,0.3,2.7,1
		c0.6,0.8,0.9,1.9,0.9,2.9v1h-5.8l0,0c0,0.7,0.2,1.5,0.6,2.1c0.4,0.5,1,0.8,1.8,0.8c0.5,0,0.9-0.1,1.5-0.2c0.4-0.1,0.7-0.3,1-0.6
		l0.6,1c-0.3,0.3-0.8,0.6-1.3,0.8C104,110.8,103.4,110.9,102.8,110.9L102.8,110.9z M102.6,103.1c-0.5,0-1,0.2-1.4,0.7
		s-0.6,1-0.7,1.7l0,0h4.1v-0.2c0-0.5-0.2-1.1-0.5-1.6C103.7,103.2,103.1,103,102.6,103.1L102.6,103.1z"/>
</g>
</svg>
