<svg xmlns="http://www.w3.org/2000/svg" viewBox="2840 1542 56.415 53.525">
  <defs>
    <style>
      .cls-1 {
        fill: #424242;
      }
    </style>
  </defs>
  <g id="Purchase_icon" data-name="Purchase icon" transform="translate(2840 1542)">
    <path id="Path_9" data-name="Path 9" class="cls-1" d="M17.281,47.356h33.25l5.883-21H47.757l-3.109-9.6-12.964,4.2,1.773,5.4h-.61l-3.2-9.6-12.964,4.2,1.773,5.4H11.525L10.086,20.6a6.387,6.387,0,0,0-6.125-4.916H0v2.406H3.961a3.974,3.974,0,0,1,3.845,3.005l6.367,24.915A5.216,5.216,0,0,0,12,50.257a5.337,5.337,0,0,0,5.285,5.285h32.41V53.136H17.281a2.89,2.89,0,0,1,0-5.78ZM43.094,19.747l2.164,6.482H35.9L34.574,22.51Zm-15,0,2.164,6.482H20.9L19.573,22.51Zm25.2,8.888L48.736,44.961H16.326l-4.2-16.326Z" transform="translate(0 -15.683)"/>
    <path id="Path_10" data-name="Path 10" class="cls-1" d="M375.06,487.171a5.043,5.043,0,0,0,0,10.086,5,5,0,0,0,5.043-5.043A5.071,5.071,0,0,0,375.06,487.171Zm0,7.806a2.763,2.763,0,0,1,0-5.526,2.714,2.714,0,0,1,2.763,2.763A2.793,2.793,0,0,1,375.06,494.977Z" transform="translate(-335.926 -443.731)"/>
    <path id="Path_11" data-name="Path 11" class="cls-1" d="M174.369,487.171a5.043,5.043,0,1,0,5.043,5.043A5.071,5.071,0,0,0,174.369,487.171Zm0,7.806a2.763,2.763,0,1,1,2.763-2.763A2.793,2.793,0,0,1,174.369,494.977Z" transform="translate(-153.726 -443.731)"/>
  </g>
</svg>
