<?xml version="1.0" encoding="utf-8"?>
<!-- Generator: Adobe Illustrator 21.1.0, SVG Export Plug-In . SVG Version: 6.00 Build 0)  -->
<svg version="1.1" id="Layer_1" xmlns="http://www.w3.org/2000/svg" xmlns:xlink="http://www.w3.org/1999/xlink" x="0px" y="0px"
	 viewBox="0 0 56.4 53.5" style="enable-background:new 0 0 56.4 53.5;" xml:space="preserve">
<style type="text/css">
	.st0{fill:#424242;}
</style>
<g>
	<path class="st0" d="M17.3,31.7h33.3l5.9-21h-8.7l-3.1-9.6l-13,4.2l1.8,5.4h-0.6l-3.2-9.6l-13,4.2l1.8,5.4h-6.9l-1.4-5.8
		C9.4,2.1,6.9,0,4,0H0v2.4h4c1.8,0,3.4,1.2,3.8,3l6.4,24.9c-1.4,1-2.2,2.6-2.2,4.2c0,2.9,2.4,5.3,5.3,5.3h32.4v-2.4H17.3
		c-1.6,0-2.9-1.3-2.9-2.9C14.4,33,15.7,31.7,17.3,31.7z M43.1,4.1l2.2,6.5h-9.4l-1.3-3.7L43.1,4.1z M28.1,4.1l2.2,6.5h-9.4l-1.3-3.7
		L28.1,4.1z M12.1,13h41.2l-4.6,16.3H16.3L12.1,13z"/>
	<path class="st0" d="M39.1,43.4c-2.8,0-5,2.3-5,5c0,2.8,2.3,5,5,5c2.8,0,5-2.2,5-5c0,0,0-0.1,0-0.1C44.2,45.7,41.9,43.5,39.1,43.4z
		 M41.9,48.5c0,1.5-1.2,2.7-2.8,2.8c-1.5,0-2.8-1.2-2.8-2.8c0-1.5,1.2-2.8,2.8-2.8C40.6,45.7,41.9,46.9,41.9,48.5
		C41.9,48.4,41.9,48.5,41.9,48.5z"/>
	<path class="st0" d="M20.6,43.4c-2.8,0-5,2.3-5,5s2.3,5,5,5s5-2.3,5-5C25.7,45.7,23.4,43.5,20.6,43.4z M20.6,51.2
		c-1.5,0-2.8-1.2-2.8-2.8c0-1.5,1.2-2.8,2.8-2.8c1.5,0,2.8,1.2,2.8,2.8C23.4,50,22.2,51.2,20.6,51.2z"/>
</g>
</svg>
