<svg xmlns="http://www.w3.org/2000/svg" xmlns:xlink="http://www.w3.org/1999/xlink" viewBox="2793 1509 149.819 149.819">
  <defs>
    <style>
      .cls-1 {
        fill: #fff;
      }

      .cls-2, .cls-3, .cls-5 {
        fill: #424242;
      }

      .cls-3 {
        font-size: 14px;
        font-family: Roboto-Regular, Roboto;
      }

      .cls-4, .cls-5 {
        stroke: none;
      }

      .cls-6 {
        filter: url(#circel);
      }
    </style>
    <filter id="circel" x="2793" y="1509" width="149.819" height="149.819" filterUnits="userSpaceOnUse">
      <feOffset dy="2" input="SourceAlpha"/>
      <feGaussianBlur stdDeviation="1" result="blur"/>
      <feFlood flood-opacity="0.239"/>
      <feComposite operator="in" in2="blur"/>
      <feComposite in="SourceGraphic"/>
    </filter>
  </defs>
  <g id="Purchase_button" data-name="Purchase button" transform="translate(2765 1082)">
    <g class="cls-6" transform="matrix(1, 0, 0, 1, -2765, -1082)">
      <g id="circel-2" data-name="circel" class="cls-1" transform="translate(2796 1510)">
        <path class="cls-4" d="M 71.90967559814453 142.8193511962891 C 62.33649444580078 142.8193511962891 53.05019378662109 140.9446563720703 44.30873489379883 137.2473297119141 C 40.10727691650391 135.4702606201172 36.05487442016602 133.2706756591797 32.26409530639648 130.7096710205078 C 28.50909614562988 128.1728515625 24.9780158996582 125.2594375610352 21.76897621154785 122.0503768920898 C 18.55991554260254 118.8413391113281 15.6464958190918 115.3102569580078 13.10967540740967 111.5552520751953 C 10.54867553710938 107.7644729614258 8.349095344543457 103.7120742797852 6.572015762329102 99.51061248779297 C 2.874695539474487 90.76915740966797 0.9999955892562866 81.48285675048828 0.9999955892562866 71.90967559814453 C 0.9999955892562866 62.33649444580078 2.874695539474487 53.05019378662109 6.572015762329102 44.30873489379883 C 8.349095344543457 40.10727691650391 10.54867553710938 36.05487442016602 13.10967540740967 32.26409530639648 C 15.6464958190918 28.50909614562988 18.55991554260254 24.9780158996582 21.76897621154785 21.76897621154785 C 24.9780158996582 18.55991554260254 28.50909614562988 15.6464958190918 32.26409530639648 13.10967540740967 C 36.05487442016602 10.54867553710938 40.10727691650391 8.349095344543457 44.30873489379883 6.572015762329102 C 53.05019378662109 2.874695539474487 62.33649444580078 0.9999955892562866 71.90967559814453 0.9999955892562866 C 81.48285675048828 0.9999955892562866 90.76915740966797 2.874695539474487 99.51061248779297 6.572015762329102 C 103.7120742797852 8.349095344543457 107.7644729614258 10.54867553710938 111.5552520751953 13.10967540740967 C 115.3102569580078 15.6464958190918 118.8413391113281 18.55991554260254 122.0503768920898 21.76897621154785 C 125.2594375610352 24.9780158996582 128.1728515625 28.50909614562988 130.7096710205078 32.26409530639648 C 133.2706756591797 36.05487442016602 135.4702606201172 40.10727691650391 137.2473297119141 44.30873489379883 C 140.9446563720703 53.05019378662109 142.8193511962891 62.33649444580078 142.8193511962891 71.90967559814453 C 142.8193511962891 81.48285675048828 140.9446563720703 90.76915740966797 137.2473297119141 99.51061248779297 C 135.4702606201172 103.7120742797852 133.2706756591797 107.7644729614258 130.7096710205078 111.5552520751953 C 128.1728515625 115.3102569580078 125.2594375610352 118.8413391113281 122.0503768920898 122.0503768920898 C 118.8413391113281 125.2594375610352 115.3102569580078 128.1728515625 111.5552520751953 130.7096710205078 C 107.7644729614258 133.2706756591797 103.7120742797852 135.4702606201172 99.51061248779297 137.2473297119141 C 90.76915740966797 140.9446563720703 81.48285675048828 142.8193511962891 71.90967559814453 142.8193511962891 Z"/>
        <path class="cls-5" d="M 71.90967559814453 141.8193511962891 C 81.34829711914063 141.8193511962891 90.50353240966797 139.9712371826172 99.12105560302734 136.3263092041016 C 103.263053894043 134.5744018554688 107.2581787109375 132.4058990478516 110.9954376220703 129.8810577392578 C 114.6977157592773 127.3798522949219 118.1792144775391 124.5073318481445 121.3432769775391 121.3432769775391 C 124.5073318481445 118.1792144775391 127.3798522949219 114.6977157592773 129.8810577392578 110.9954376220703 C 132.4058990478516 107.2581787109375 134.5744018554688 103.263053894043 136.3263092041016 99.12105560302734 C 139.9712371826172 90.50353240966797 141.8193511962891 81.34829711914063 141.8193511962891 71.90967559814453 C 141.8193511962891 62.47105407714844 139.9712371826172 53.31581497192383 136.3263092041016 44.69829559326172 C 134.5744018554688 40.55629730224609 132.4058990478516 36.56117630004883 129.8810577392578 32.82391738891602 C 127.3798522949219 29.12163543701172 124.5073318481445 25.64013481140137 121.3432769775391 22.47607612609863 C 118.1792144775391 19.31201553344727 114.6977157592773 16.43949508666992 110.9954376220703 13.93829536437988 C 107.2581787109375 11.41345596313477 103.263053894043 9.244956016540527 99.12105560302734 7.493035793304443 C 90.50353240966797 3.848115682601929 81.34829711914063 1.999995589256287 71.90967559814453 1.999995589256287 C 62.47105407714844 1.999995589256287 53.31581497192383 3.848115682601929 44.69829559326172 7.493035793304443 C 40.55629730224609 9.244956016540527 36.56117630004883 11.41345596313477 32.82391738891602 13.93829536437988 C 29.12163543701172 16.43949508666992 25.64013481140137 19.31201553344727 22.47607612609863 22.47607612609863 C 19.31201553344727 25.64013481140137 16.43949508666992 29.12163543701172 13.93829536437988 32.82391738891602 C 11.41345596313477 36.56117630004883 9.244956016540527 40.55629730224609 7.493035793304443 44.69829559326172 C 3.848115682601929 53.31581497192383 1.999995589256287 62.47105407714844 1.999995589256287 71.90967559814453 C 1.999995589256287 81.34829711914063 3.848115682601929 90.50353240966797 7.493035793304443 99.12105560302734 C 9.244956016540527 103.263053894043 11.41345596313477 107.2581787109375 13.93829536437988 110.9954376220703 C 16.43949508666992 114.6977157592773 19.31201553344727 118.1792144775391 22.47607612609863 121.3432769775391 C 25.64013481140137 124.5073318481445 29.12163543701172 127.3798522949219 32.82391738891602 129.8810577392578 C 36.56117630004883 132.4058990478516 40.55629730224609 134.5744018554688 44.69829559326172 136.3263092041016 C 53.31581497192383 139.9712371826172 62.47105407714844 141.8193511962891 71.90967559814453 141.8193511962891 M 71.90967559814453 143.8193511962891 C 32.19507598876953 143.8193511962891 -4.40185567640583e-06 111.6242752075195 -4.40185567640583e-06 71.90967559814453 C -4.40185567640583e-06 32.19507598876953 32.19507598876953 -4.40185567640583e-06 71.90967559814453 -4.40185567640583e-06 C 111.6242752075195 -4.40185567640583e-06 143.8193511962891 32.19507598876953 143.8193511962891 71.90967559814453 C 143.8193511962891 111.6242752075195 111.6242752075195 143.8193511962891 71.90967559814453 143.8193511962891 Z"/>
      </g>
    </g>
    <g id="Group_298" data-name="Group 298" transform="translate(0 3.038)">
      <g id="Purchase_icon" data-name="Purchase icon" transform="translate(75 456.962)">
        <path id="Path_9" data-name="Path 9" class="cls-2" d="M17.281,47.356h33.25l5.883-21H47.757l-3.109-9.6-12.964,4.2,1.773,5.4h-.61l-3.2-9.6-12.964,4.2,1.773,5.4H11.525L10.086,20.6a6.387,6.387,0,0,0-6.125-4.916H0v2.406H3.961a3.974,3.974,0,0,1,3.845,3.005l6.367,24.915A5.216,5.216,0,0,0,12,50.257a5.337,5.337,0,0,0,5.285,5.285h32.41V53.136H17.281a2.89,2.89,0,0,1,0-5.78ZM43.094,19.747l2.164,6.482H35.9L34.574,22.51Zm-15,0,2.164,6.482H20.9L19.573,22.51Zm25.2,8.888L48.736,44.961H16.326l-4.2-16.326Z" transform="translate(0 -15.683)"/>
        <path id="Path_10" data-name="Path 10" class="cls-2" d="M375.06,487.171a5.043,5.043,0,0,0,0,10.086,5,5,0,0,0,5.043-5.043A5.071,5.071,0,0,0,375.06,487.171Zm0,7.806a2.763,2.763,0,0,1,0-5.526,2.714,2.714,0,0,1,2.763,2.763A2.793,2.793,0,0,1,375.06,494.977Z" transform="translate(-335.926 -443.731)"/>
        <path id="Path_11" data-name="Path 11" class="cls-2" d="M174.369,487.171a5.043,5.043,0,1,0,5.043,5.043A5.071,5.071,0,0,0,174.369,487.171Zm0,7.806a2.763,2.763,0,1,1,2.763-2.763A2.793,2.793,0,0,1,174.369,494.977Z" transform="translate(-153.726 -443.731)"/>
      </g>
      <text id="Purchase" class="cls-3" transform="translate(73 532.594)"><tspan x="0" y="0">Purchase</tspan></text>
    </g>
  </g>
</svg>
