<?xml version="1.0" encoding="utf-8"?>
<!-- Generator: Adobe Illustrator 21.1.0, SVG Export Plug-In . SVG Version: 6.00 Build 0)  -->
<svg version="1.1" id="Layer_1" xmlns="http://www.w3.org/2000/svg" xmlns:xlink="http://www.w3.org/1999/xlink" x="0px" y="0px"
	 viewBox="0 0 156 156" style="enable-background:new 0 0 156 156;" xml:space="preserve">
<g>
	<path d="M0,0h4.7v4.7v4.7v4.7v4.7H0v-4.7V9.5V4.7V0z M9.5,0H4.7v4.7h4.7h4.7h4.7V0h-4.7H9.5z M23.6,0h-4.7v4.7h4.7h4.7v4.7v4.7v4.7
		h4.7v-4.7V9.5V4.7V0h-4.7H23.6z M47.3,4.7v4.7H52V4.7V0h-4.7V4.7z M61.5,0h-4.7v4.7h4.7h4.7h4.7V0h-4.7H61.5z M94.5,0h-4.7v4.7h4.7
		V0z M99.3,4.7h4.7V0h-4.7V4.7z M113.5,4.7h4.7V0h-4.7h-4.7H104v4.7h4.7H113.5z M127.6,0h-4.7v4.7v4.7v4.7v4.7h4.7v-4.7V9.5V4.7h4.7
		h4.7V0h-4.7H127.6z M137.1,4.7h4.7V0h-4.7V4.7z M151.3,0h-4.7h-4.7v4.7h4.7h4.7v4.7v4.7v4.7h4.7v-4.7V9.5V4.7V0H151.3z M42.5,4.7
		h-4.7v4.7h4.7V4.7z M70.9,4.7v4.7h4.7V4.7H70.9z M80.4,9.5h4.7V4.7h-4.7V9.5z M94.5,9.5h4.7V4.7h-4.7V9.5z M9.5,9.5v4.7v4.7h4.7
		h4.7v-4.7V9.5h-4.7H9.5z M75.6,14.2h4.7V9.5h-4.7V14.2z M89.8,9.5V4.7h-4.7v4.7v4.7v4.7h4.7v-4.7h4.7V9.5H89.8z M104,14.2V9.5h-4.7
		v4.7H104z M113.5,14.2h4.7V9.5h-4.7h-4.7H104v4.7h4.7H113.5z M132.4,14.2v4.7h4.7v-4.7V9.5h-4.7V14.2z M137.1,14.2v4.7h4.7v-4.7
		V9.5h-4.7V14.2z M23.6,14.2V9.5h-4.7v4.7v4.7h4.7V14.2z M42.5,14.2h-4.7v4.7h4.7h4.7H52v-4.7h-4.7H42.5z M66.2,18.9v-4.7h-4.7V9.5
		h-4.7v4.7v4.7h4.7H66.2z M70.9,18.9h4.7v-4.7h-4.7V18.9z M85.1,18.9v-4.7h-4.7v4.7H85.1z M94.5,18.9h4.7v-4.7h-4.7V18.9z
		 M146.5,14.2V9.5h-4.7v4.7v4.7h4.7V14.2z M0,23.6v4.7v4.7h4.7v-4.7v-4.7v-4.7H0V23.6z M9.5,18.9v4.7h4.7h4.7v-4.7h-4.7H9.5z
		 M23.6,18.9h-4.7v4.7h4.7V18.9z M28.4,23.6v4.7h-4.7h-4.7v4.7h4.7h4.7h4.7v-4.7v-4.7v-4.7h-4.7V23.6z M47.3,18.9h-4.7v4.7h-4.7v4.7
		v4.7h4.7v-4.7h4.7v-4.7V18.9z M61.5,18.9v4.7h4.7h4.7v-4.7h-4.7H61.5z M75.6,18.9v4.7h4.7h4.7v-4.7h-4.7H75.6z M89.8,18.9h-4.7v4.7
		h4.7h4.7v-4.7H89.8z M99.3,23.6h4.7v-4.7h-4.7V23.6z M113.5,23.6h4.7v-4.7h-4.7h-4.7H104v4.7h4.7H113.5z M132.4,23.6h4.7v-4.7h-4.7
		V23.6z M137.1,23.6h4.7v-4.7h-4.7V23.6z M146.5,18.9h-4.7v4.7h4.7V18.9z M151.3,23.6v4.7h-4.7h-4.7v4.7h4.7h4.7h4.7v-4.7v-4.7v-4.7
		h-4.7V23.6z M52,23.6v4.7h4.7v4.7h4.7v-4.7v-4.7h-4.7H52z M70.9,28.4h4.7v-4.7h-4.7V28.4z M94.5,28.4v4.7h4.7v-4.7v-4.7h-4.7V28.4z
		 M9.5,28.4H4.7v4.7h4.7h4.7h4.7v-4.7h-4.7H9.5z M47.3,33.1H52v-4.7h-4.7V33.1z M66.2,33.1h4.7v-4.7h-4.7V33.1z M80.4,33.1v-4.7
		h-4.7v4.7H80.4z M89.8,28.4h-4.7v4.7h4.7V28.4z M108.7,28.4H104v4.7h4.7V28.4z M113.5,33.1h4.7v-4.7h-4.7V33.1z M127.6,28.4v-4.7
		v-4.7h-4.7v4.7v4.7v4.7h4.7h4.7h4.7v-4.7h-4.7H127.6z M137.1,33.1h4.7v-4.7h-4.7V33.1z M42.5,33.1v4.7h-4.7h-4.7v4.7h4.7v4.7h4.7
		v-4.7h4.7v-4.7H52v-4.7h-4.7H42.5z M56.7,33.1H52v4.7v4.7h4.7v-4.7V33.1z M66.2,37.8h4.7v-4.7h-4.7V37.8z M80.4,33.1h-4.7v4.7h4.7
		V33.1z M89.8,33.1v4.7h4.7v-4.7H89.8z M99.3,37.8h4.7v-4.7h-4.7V37.8z M0,42.5h4.7v-4.7H0V42.5z M14.2,37.8h4.7v4.7v4.7V52h-4.7
		H9.5H4.7v-4.7v-4.7v-4.7h4.7H14.2z M14.2,42.5H9.5v4.7h4.7V42.5z M23.6,37.8h-4.7v4.7h4.7V37.8z M28.4,42.5h4.7v-4.7h-4.7V42.5z
		 M61.5,42.5h4.7v-4.7h-4.7V42.5z M70.9,37.8v4.7h4.7v-4.7H70.9z M80.4,42.5h4.7v-4.7h-4.7V42.5z M94.5,42.5h4.7v-4.7h-4.7V42.5z
		 M113.5,37.8v-4.7h-4.7H104v4.7h4.7v4.7H104v4.7V52h4.7v-4.7h4.7h4.7v-4.7h4.7v-4.7h-4.7H113.5z M132.4,37.8h-4.7v4.7h4.7V37.8z
		 M137.1,42.5h4.7v-4.7h-4.7V42.5z M151.3,37.8h-4.7v4.7h-4.7v4.7h4.7V52h4.7v-4.7h4.7v-4.7h-4.7V37.8z M56.7,47.3h4.7v-4.7h-4.7
		V47.3z M70.9,47.3v-4.7h-4.7v4.7H70.9z M75.6,47.3h4.7v-4.7h-4.7V47.3z M85.1,42.5v4.7V52h4.7v-4.7h4.7v-4.7h-4.7H85.1z M104,47.3
		v-4.7h-4.7v4.7H104z M122.9,42.5v4.7h4.7v-4.7H122.9z M0,52h4.7v-4.7H0V52z M23.6,47.3h-4.7V52h4.7V47.3z M28.4,52h4.7v-4.7h-4.7
		V52z M47.3,52H52v-4.7v-4.7h-4.7v4.7V52z M70.9,52h4.7v-4.7h-4.7V52z M122.9,52v-4.7h-4.7V52H122.9z M127.6,47.3V52h4.7h4.7v-4.7
		h-4.7H127.6z M137.1,52h4.7v-4.7h-4.7V52z M14.2,56.7H9.5V52H4.7v4.7h4.7v4.7H4.7v4.7h4.7h4.7v-4.7V56.7l4.7,0V52h-4.7V56.7z
		 M66.2,56.7h-4.7V52h-4.7v4.7v0v4.7h4.7v4.7h-4.7H52v4.7h4.7h4.7h4.7h4.7v-4.7h-4.7v-4.7V56.7l4.7,0V52h-4.7V56.7z M94.5,52v4.7v0
		v4.7h4.7v-4.7h4.7V52h-4.7H94.5z M113.5,52h-4.7v4.7h4.7V52z M118.2,56.7h4.7V52h-4.7V56.7z M132.4,52h-4.7v4.7v0v4.7h4.7h4.7v-4.7
		h-4.7V52z M146.5,52h-4.7v4.7h4.7V52z M0,61.5h4.7v-4.7H0V61.5z M28.4,61.5h4.7v-4.7h-4.7V61.5z M42.5,56.7V52h-4.7v4.7L42.5,56.7
		v4.7h-4.7h-4.7v4.7h4.7v4.7h4.7v-4.7h4.7v-4.7H52v-4.7h-4.7H42.5z M75.6,56.7V52h-4.7v4.7v0v4.7h4.7h4.7h4.7v-4.7h-4.7H75.6z
		 M85.1,56.7v4.7h4.7v-4.7H85.1z M137.1,61.5h4.7v-4.7h-4.7V61.5z M89.8,61.5v4.7h4.7v-4.7H89.8z M104,66.2v-4.7h-4.7v4.7H104z
		 M113.5,66.2v-4.7h-4.7H104v4.7h4.7H113.5z M122.9,66.2v4.7h4.7v-4.7v-4.7h-4.7V66.2z M146.5,61.5v4.7v4.7h4.7v-4.7h4.7v-4.7h-4.7
		H146.5z M18.9,70.9v-4.7h-4.7v4.7H18.9z M23.6,66.2v-4.7v-4.7h-4.7v4.7v4.7v4.7h4.7V66.2z M28.4,70.9h4.7v-4.7h-4.7V70.9z M52,70.9
		v-4.7h-4.7v4.7H52z M75.6,66.2h-4.7v4.7h4.7V66.2z M80.4,70.9h4.7v-4.7h-4.7V70.9z M94.5,70.9h4.7v-4.7h-4.7V70.9z M118.2,70.9h4.7
		v-4.7h-4.7V70.9z M132.4,70.9h4.7v-4.7h-4.7V70.9z M0,75.6L0,75.6v4.7v4.7h4.7v-4.7v-4.7v0v-4.7H0V75.6z M14.2,75.6H9.5H4.7v4.7
		v4.7h4.7h4.7h4.7v-4.7h-4.7V75.6l4.7,0v-4.7h-4.7V75.6z M42.5,70.9v4.7h-4.7v-4.7h-4.7v4.7v0v4.7v4.7h4.7v-4.7h4.7v4.7h4.7v-4.7H52
		v-4.7v0v-4.7h-4.7H42.5z M66.2,75.6h4.7v-4.7h-4.7V75.6z M80.4,70.9h-4.7h-4.7v4.7v0v4.7h4.7v-4.7h4.7v4.7h4.7v-4.7h-4.7V70.9z
		 M94.5,70.9v4.7h-4.7h-4.7v4.7h4.7v4.7h4.7v-4.7v-4.7h4.7h4.7v-4.7h-4.7H94.5z M132.4,75.6h-4.7v-4.7h-4.7v4.7h4.7v4.7h4.7h4.7
		v-4.7v0v-4.7h-4.7V75.6z M23.6,75.6h-4.7v4.7h4.7v4.7h4.7v-4.7h4.7v-4.7h-4.7H23.6z M56.7,75.6L56.7,75.6v-4.7H52v4.7v0v4.7h4.7
		V75.6z M113.5,75.6v4.7h4.7h4.7v-4.7h-4.7H113.5z M151.3,75.6h-4.7v-4.7h-4.7v4.7h4.7v4.7v4.7h4.7h4.7v-4.7h-4.7V75.6z M61.5,85.1
		h4.7v-4.7h-4.7h-4.7v4.7H61.5z M75.6,85.1h4.7v-4.7h-4.7V85.1z M104,80.4v4.7h4.7h4.7v-4.7h-4.7H104z M122.9,85.1h4.7v-4.7h-4.7
		V85.1z M137.1,85.1h4.7v-4.7h-4.7V85.1z M9.5,85.1v4.7H4.7v4.7v4.7v4.7h4.7v-4.7v-4.7h4.7h4.7v-4.7v-4.7h-4.7H9.5z M28.4,89.8h4.7
		v-4.7h-4.7V89.8z M42.5,85.1v4.7h4.7v4.7v4.7v4.7H52v-4.7v-4.7v-4.7v-4.7h-4.7H42.5z M61.5,85.1v4.7h-4.7v4.7v4.7h4.7v-4.7h4.7
		v-4.7h4.7v-4.7h-4.7H61.5z M75.6,85.1h-4.7v4.7h4.7V85.1z M80.4,89.8h4.7v-4.7h-4.7V89.8z M94.5,85.1v4.7h-4.7h-4.7v4.7h4.7h4.7
		v4.7h4.7v-4.7h4.7v-4.7v-4.7h-4.7H94.5z M132.4,85.1h-4.7v4.7h4.7V85.1z M137.1,89.8h4.7v-4.7h-4.7V89.8z M151.3,85.1h-4.7v4.7h4.7
		V85.1z M23.6,89.8v-4.7h-4.7v4.7v4.7v4.7h4.7v-4.7V89.8z M104,89.8v4.7h4.7v-4.7H104z M113.5,89.8v4.7h-4.7v4.7H104v4.7h4.7h4.7
		v-4.7h4.7h4.7v-4.7v-4.7h-4.7H113.5z M122.9,89.8v4.7h4.7v-4.7H122.9z M141.8,89.8v4.7h4.7v-4.7H141.8z M0,99.3v4.7h4.7v-4.7v-4.7
		H0V99.3z M28.4,99.3h4.7v-4.7h-4.7V99.3z M70.9,99.3v-4.7h-4.7v4.7H70.9z M70.9,94.5v4.7h4.7v-4.7H70.9z M80.4,99.3h4.7v-4.7h-4.7
		V99.3z M127.6,94.5v4.7h4.7h4.7v-4.7h-4.7H127.6z M151.3,94.5h-4.7v4.7v4.7h4.7h4.7v-4.7h-4.7V94.5z M14.2,104h4.7v-4.7h-4.7V104z
		 M23.6,104h4.7v-4.7h-4.7V104z M42.5,104v-4.7h-4.7h-4.7v4.7h4.7H42.5z M75.6,104h4.7v-4.7h-4.7V104z M85.1,99.3v4.7h4.7h4.7v-4.7
		h-4.7H85.1z M104,104v-4.7h-4.7v4.7H104z M122.9,104h4.7v-4.7h-4.7V104z M137.1,104h4.7v-4.7h-4.7V104z M0,108.7L0,108.7v4.7v4.7
		h4.7v-4.7v-4.7v0V104H0V108.7z M23.6,104h-4.7v4.7h4.7h4.7h4.7V104h-4.7H23.6z M37.8,104h-4.7v4.7h4.7V104z M47.3,104h-4.7v4.7h4.7
		v4.7H52v-4.7h-4.7V104z M75.6,104h-4.7v4.7v0v4.7v4.7h4.7h4.7v4.7h4.7v-4.7v-4.7h-4.7h-4.7v-4.7h4.7h4.7V104h-4.7H75.6z M94.5,104
		v4.7h-4.7V104h-4.7v4.7h4.7v4.7h4.7v4.7h4.7v-4.7h4.7v-4.7v0V104h-4.7H94.5z M113.5,104v4.7h-4.7H104v4.7h4.7h4.7v-4.7h4.7v4.7
		h-4.7v4.7h-4.7H104v4.7h4.7h4.7h4.7v-4.7h4.7v-4.7v-4.7v0V104h-4.7H113.5z M137.1,108.7L137.1,108.7v4.7v4.7h4.7v-4.7v-4.7v0V104
		h-4.7V108.7z M56.7,108.7h4.7V104h-4.7H52v4.7v0v4.7v4.7h4.7v-4.7V108.7z M66.2,113.5h4.7v-4.7h-4.7V113.5z M132.4,108.7h-4.7V104
		h-4.7v4.7v0v4.7v4.7h4.7h4.7v4.7h4.7v-4.7v-4.7h-4.7V108.7z M146.5,108.7h4.7V104h-4.7V108.7l-4.7,0v4.7h4.7V108.7z M14.2,113.5
		v-4.7H9.5v4.7v4.7h4.7V113.5z M23.6,113.5v4.7h4.7h4.7v-4.7h-4.7H23.6z M89.8,113.5h-4.7v4.7v4.7h4.7h4.7v-4.7h-4.7V113.5z
		 M151.3,118.2v4.7h4.7v-4.7v-4.7h-4.7V118.2z M42.5,118.2h-4.7v4.7h4.7V118.2z M61.5,118.2h-4.7v4.7h4.7h4.7h4.7v-4.7h-4.7H61.5z
		 M0,127.6L0,127.6v4.7v4.7h4.7v-4.7v-4.7v0v-4.7H0V127.6z M9.5,122.9H4.7v4.7h4.7h4.7h4.7v-4.7h-4.7H9.5z M23.6,122.9h-4.7v4.7h4.7
		h4.7v4.7v4.7h4.7v-4.7v-4.7v0v-4.7h-4.7H23.6z M37.8,127.6h4.7v-4.7h-4.7V127.6z M61.5,122.9v4.7h-4.7v4.7v4.7h4.7v-4.7h4.7v-4.7
		h4.7v-4.7h-4.7H61.5z M99.3,127.6L99.3,127.6v4.7h4.7v-4.7v0v-4.7h-4.7V127.6z M127.6,122.9h-4.7v4.7h4.7V122.9z M132.4,127.6
		L132.4,127.6v4.7h-4.7h-4.7v4.7h4.7h4.7h4.7v-4.7v-4.7v0v-4.7h-4.7V127.6z M151.3,122.9h-4.7h-4.7v4.7v0v4.7h4.7v4.7h4.7h4.7v-4.7
		v-4.7h-4.7V122.9z M47.3,132.4h-4.7h-4.7v4.7h4.7h4.7H52v-4.7v-4.7h-4.7V132.4z M80.4,127.6h-4.7v-4.7h-4.7v4.7v0v4.7v4.7h4.7h4.7
		h4.7v-4.7h-4.7V127.6z M118.2,127.6L118.2,127.6v-4.7h-4.7h-4.7v4.7H104v4.7h4.7h4.7v4.7h4.7h4.7v-4.7h-4.7V127.6z M137.1,132.4
		h4.7v-4.7h-4.7V132.4z M9.5,132.4v4.7h4.7h4.7v-4.7h-4.7H9.5z M23.6,132.4h-4.7v4.7h4.7V132.4z M70.9,137.1v-4.7h-4.7v4.7H70.9z
		 M89.8,132.4h-4.7v4.7h4.7h4.7h4.7v-4.7h-4.7H89.8z M0,141.8v4.7v0v4.7v4.7h4.7v-4.7v-4.7v0v-4.7v-4.7H0V141.8z M9.5,137.1v4.7v4.7
		h4.7h4.7v-4.7v-4.7h-4.7H9.5z M28.4,141.8v4.7v0v4.7h-4.7h-4.7v4.7h4.7h4.7h4.7v-4.7v-4.7v0v-4.7v-4.7h-4.7V141.8z M42.5,137.1
		h-4.7v4.7v4.7v0v4.7v4.7h4.7h4.7H52v-4.7h-4.7h-4.7v-4.7h4.7v-4.7H52v-4.7h-4.7H42.5z M94.5,137.1h-4.7v4.7h4.7V137.1z
		 M118.2,141.8h4.7v-4.7h-4.7V141.8z M127.6,137.1v4.7h4.7h4.7v-4.7h-4.7H127.6z M137.1,141.8h4.7v-4.7h-4.7V141.8z M146.5,137.1
		h-4.7v4.7v4.7v0v4.7h4.7v-4.7v0v-4.7h4.7h4.7v-4.7h-4.7H146.5z M23.6,141.8v-4.7h-4.7v4.7v4.7h4.7V141.8z M52,141.8v4.7v0v4.7v4.7
		h4.7v-4.7v-4.7h4.7v-4.7h-4.7H52z M80.4,146.5v-4.7h-4.7h-4.7v4.7v0v4.7h4.7v-4.7H80.4z M99.3,146.5h-4.7h-4.7h-4.7v4.7v4.7h4.7
		v-4.7h4.7h4.7h4.7v-4.7v0v-4.7h-4.7V146.5z M113.5,141.8v-4.7h-4.7v4.7H104v4.7v0v4.7v4.7h4.7v-4.7v-4.7h4.7V141.8z M122.9,146.5
		L122.9,146.5v4.7h4.7h4.7v4.7h4.7v-4.7v-4.7h-4.7h-4.7v-4.7h-4.7V146.5z M66.2,151.3h4.7v-4.7h-4.7V151.3z M118.2,151.3h-4.7v4.7
		h4.7h4.7v-4.7v-4.7h-4.7V151.3z M9.5,151.3H4.7v4.7h4.7h4.7h4.7v-4.7h-4.7H9.5z M75.6,151.3v4.7h4.7h4.7v-4.7h-4.7H75.6z
		 M151.3,156v-4.7h-4.7v4.7H151.3z"/>
</g>
</svg>
