<?xml version="1.0" encoding="utf-8"?>
<!-- Generator: Adobe Illustrator 21.1.0, SVG Export Plug-In . SVG Version: 6.00 Build 0)  -->
<svg version="1.1" id="Layer_1" xmlns="http://www.w3.org/2000/svg" xmlns:xlink="http://www.w3.org/1999/xlink" x="0px" y="0px"
	 viewBox="0 0 25 23.1" style="enable-background:new 0 0 25 23.1;" xml:space="preserve">
<style type="text/css">
	.st0{fill:#FF9800;}
</style>
<g>
	<path class="st0" d="M22.7,16.8c-0.7,0.1-1.6,0.3-2.6,0.4c-1.2,0.3-2.5,0.5-3.7,0.6c-1,0-2-0.1-3-0.4c-0.3-0.1-0.5-0.3-0.6-0.5h2
		c0.8,0,1.5-0.6,1.5-1.4c0,0,0,0,0,0v-1.1c0-0.8-0.7-1.5-1.5-1.4c0,0,0,0,0,0H9.2c-1.8,0-3.5,0.5-5,1.5c-0.3,0.2-0.6,0.5-0.8,0.8
		c-0.2-0.3-0.6-0.5-1-0.5H0.5c-0.3,0-0.5,0.2-0.5,0.5c0,0,0,0,0,0v7.3c0,0.1,0.1,0.3,0.2,0.4c0.1,0.1,0.2,0.1,0.4,0.2h1.8
		c0.7,0,1.3-0.5,1.3-1.2c0,0,0,0,0,0v-0.4c1.5,0.1,2.9,0.3,4.4,0.6c2.1,0.4,4.3,0.7,6.5,0.7c1,0,1.9-0.1,2.9-0.3
		c1.3-0.2,2.6-0.5,3.9-0.9l1.7-0.4c1.3-0.3,1.5-1.1,1.5-1.6v-1.3c0-0.5-0.2-0.9-0.6-1.2C23.6,16.9,23.2,16.7,22.7,16.8z M2.5,21.8
		c0,0.1-0.1,0.2-0.2,0.2H1.1v-6.3h1.3c0.1,0,0.2,0.1,0.2,0.2V21.8z M23.4,19.7L23.4,19.7c0,0.1,0,0.4-0.7,0.6
		c-0.5,0.1-1.1,0.3-1.7,0.4c-1.2,0.4-2.5,0.6-3.8,0.9c-2.1,0.3-3.9,0.4-9-0.5c-1.5-0.3-3-0.5-4.6-0.6v-3.9l0-0.1
		c0.3-0.5,0.7-1,1.2-1.3c1.3-0.9,2.8-1.3,4.3-1.3h5.6c0.2,0,0.4,0.2,0.4,0.4c0,0,0,0,0,0v1.1c0,0.2-0.2,0.4-0.4,0.4c0,0,0,0,0,0H9.2
		c-0.3-0.1-0.6,0.1-0.6,0.4c-0.1,0.3,0.1,0.6,0.4,0.6c0.1,0,0.2,0,0.3,0h2.4c0.2,0.7,0.7,1.2,1.3,1.5c1.2,0.4,2.4,0.6,3.6,0.5
		c1.3-0.1,2.6-0.3,3.9-0.6c1-0.2,1.9-0.4,2.5-0.4c0.1,0,0.2,0,0.3,0.1c0.1,0.1,0.2,0.3,0.2,0.5V19.7z"/>
	<path class="st0" d="M23.6,0H4.5C3.7,0,3.1,0.6,3.1,1.4v9c0,0.8,0.6,1.4,1.4,1.4h19.1c0.8,0,1.4-0.6,1.4-1.4v-9
		C25,0.6,24.4,0,23.6,0z M23.6,1.1c0.2,0,0.3,0.1,0.3,0.3l0,0V3c-1-0.2-1.7-0.9-1.9-1.9H23.6z M4.2,1.4c0-0.2,0.1-0.3,0.3-0.3h1.6
		C5.9,2,5.1,2.8,4.2,3V1.4z M4.5,10.6c-0.2,0-0.3-0.1-0.3-0.3V8.6c1,0.2,1.8,1,1.9,2H4.5z M23.9,10.4c0,0.2-0.1,0.3-0.3,0.3l0,0H22
		c0.1-1,0.9-1.8,1.9-2V10.4z M23.9,7.5c-1.6,0.2-2.9,1.5-3,3.1H7.2C7,9.1,5.8,7.8,4.2,7.5V4.1c1.6-0.2,2.8-1.4,3-3h13.7
		c0.2,1.6,1.4,2.8,3,3V7.5z"/>
	<path class="st0" d="M14.1,2C14.1,2,14.1,2,14.1,2c-2.2,0-3.9,1.8-3.9,3.9s1.8,3.9,3.9,3.9C16.3,9.8,18,8,18,5.9
		C18,3.7,16.3,2,14.1,2z M16.9,5.9c0,1.6-1.2,2.8-2.8,2.8c0,0,0,0,0,0v0c-1.6,0-2.8-1.2-2.8-2.8c0-1.6,1.2-2.8,2.8-2.8
		C15.6,3.1,16.9,4.3,16.9,5.9C16.9,5.9,16.9,5.9,16.9,5.9z"/>
	<path class="st0" d="M7.8,4.2c-0.9,0-1.7,0.7-1.7,1.7c0,0.9,0.7,1.7,1.7,1.7c0.9,0,1.7-0.7,1.7-1.7c0,0,0,0,0,0
		C9.5,5,8.7,4.2,7.8,4.2z M7.8,6.5C7.8,6.5,7.8,6.5,7.8,6.5L7.8,6.5c-0.3,0-0.6-0.3-0.6-0.6c0-0.3,0.3-0.6,0.6-0.6
		c0.3,0,0.6,0.3,0.6,0.6c0,0,0,0,0,0C8.4,6.2,8.1,6.5,7.8,6.5z"/>
	<path class="st0" d="M20.3,4.2c-0.9,0-1.7,0.7-1.7,1.7c0,0.9,0.7,1.7,1.7,1.7c0.9,0,1.7-0.7,1.7-1.7c0,0,0,0,0,0
		C22,5,21.3,4.2,20.3,4.2z M20.3,6.5C20.3,6.5,20.3,6.5,20.3,6.5L20.3,6.5c-0.3,0-0.6-0.3-0.6-0.6s0.3-0.6,0.6-0.6
		c0.3,0,0.6,0.3,0.6,0.6C20.9,6.2,20.7,6.5,20.3,6.5z"/>
</g>
</svg>
