<svg id="Layer_1" data-name="Layer 1" xmlns="http://www.w3.org/2000/svg" viewBox="0 0 24.98 23.06"><defs><style>.cls-1{fill:#424242;}</style></defs><title>Receive Menu icon-nclicked</title><g id="Receive_Menu_icon" data-name="Receive Menu icon"><g id="Group_287" data-name="Group 287"><path id="Path_33" data-name="Path 33" class="cls-1" d="M23.9,18.58a1.53,1.53,0,0,0-1.16-.36c-.7.08-1.63.26-2.61.45a31.29,31.29,0,0,1-3.73.59,8.93,8.93,0,0,1-3-.41,1.41,1.41,0,0,1-.62-.54h2a1.48,1.48,0,0,0,1.52-1.44V15.73a1.48,1.48,0,0,0-1.52-1.44H9.22a8.41,8.41,0,0,0-5,1.54,7.68,7.68,0,0,0-.84.79,1.29,1.29,0,0,0-1-.46H.54a.53.53,0,0,0-.54.52H0V24a.51.51,0,0,0,.16.37.56.56,0,0,0,.38.15H2.36A1.24,1.24,0,0,0,3.63,23.3v-.4A41.49,41.49,0,0,1,8,23.52a37.27,37.27,0,0,0,6.49.73A20.59,20.59,0,0,0,17.37,24a33.9,33.9,0,0,0,3.91-.89l1.66-.43c1.34-.32,1.54-1.13,1.54-1.58V19.81A1.63,1.63,0,0,0,23.9,18.58ZM2.54,23.29a.18.18,0,0,1-.18.17H1.09V17.19H2.36a.18.18,0,0,1,.18.17Zm20.85-2.16c0,.11,0,.4-.72.58-.51.12-1.08.28-1.69.44a33.19,33.19,0,0,1-3.76.86c-2.14.29-3.93.41-9-.5a40.69,40.69,0,0,0-4.57-.64V18l.05-.07A5.05,5.05,0,0,1,4.9,16.61a7.4,7.4,0,0,1,4.3-1.29h5.59a.42.42,0,0,1,.43.41v1.13a.42.42,0,0,1-.43.41H9.22a.52.52,0,1,0,0,1H11.6a2.27,2.27,0,0,0,1.27,1.46,9.8,9.8,0,0,0,3.61.53,32,32,0,0,0,3.88-.61c1-.19,1.85-.36,2.51-.44a.41.41,0,0,1,.31.11.61.61,0,0,1,.21.46v1.32Z" transform="translate(0 -1.45)"/><g id="Group_286" data-name="Group 286"><path id="Path_34" data-name="Path 34" class="cls-1" d="M23.59,1.45H4.47a1.4,1.4,0,0,0-1.4,1.4v9a1.4,1.4,0,0,0,1.4,1.4H23.59a1.4,1.4,0,0,0,1.4-1.4v-9A1.4,1.4,0,0,0,23.59,1.45Zm-2.7,10.67H7.18A3.49,3.49,0,0,0,4.17,9V5.53a3.49,3.49,0,0,0,3-3H20.91a3.49,3.49,0,0,0,3,3V9A3.49,3.49,0,0,0,20.89,12.12Zm3-9.28V4.43A2.4,2.4,0,0,1,22,2.54h1.58a.31.31,0,0,1,.3.31ZM4.48,2.54H6.06A2.4,2.4,0,0,1,4.17,4.43V2.85a.31.31,0,0,1,.31-.31h0Zm-.31,9.28V10.09a2.4,2.4,0,0,1,1.91,2H4.48a.31.31,0,0,1-.31-.31h0Zm19.42.31H22a2.4,2.4,0,0,1,1.91-2v1.73a.31.31,0,0,1-.3.31Z" transform="translate(0 -1.45)"/><path id="Path_35" data-name="Path 35" class="cls-1" d="M14.06,3.43A3.9,3.9,0,1,0,18,7.33h0A3.9,3.9,0,0,0,14.06,3.43Zm0,6.7a2.81,2.81,0,1,1,2.8-2.81h0A2.81,2.81,0,0,1,14.06,10.14Z" transform="translate(0 -1.45)"/><path id="Path_36" data-name="Path 36" class="cls-1" d="M7.8,5.65A1.68,1.68,0,1,0,9.47,7.33h0A1.68,1.68,0,0,0,7.8,5.65Zm0,2.26a.59.59,0,1,1,.58-.59h0A.59.59,0,0,1,7.8,7.92Z" transform="translate(0 -1.45)"/><path id="Path_37" data-name="Path 37" class="cls-1" d="M20.33,5.65A1.68,1.68,0,1,0,22,7.33h0A1.68,1.68,0,0,0,20.33,5.65Zm0,2.26a.59.59,0,1,1,.59-.59h0A.59.59,0,0,1,20.33,7.92Z" transform="translate(0 -1.45)"/></g></g></g></svg>