<svg xmlns="http://www.w3.org/2000/svg" viewBox="2939 1704 26.01 24">
  <defs>
    <style>
      .cls-1 {
        fill: #424242;
      }
    </style>
  </defs>
  <g id="Receive_Menu_icon" data-name="Receive Menu icon" transform="translate(2941 1685.024)">
    <g id="Group_287" data-name="Group 287" transform="translate(-2 18.976)">
      <path id="Path_33" data-name="Path 33" class="cls-1" d="M24.887,260.622a1.588,1.588,0,0,0-1.209-.376c-.734.08-1.7.269-2.714.468a32.585,32.585,0,0,1-3.885.613,9.3,9.3,0,0,1-3.16-.43,1.464,1.464,0,0,1-.641-.564h2.11a1.543,1.543,0,0,0,1.579-1.5v-1.179a1.543,1.543,0,0,0-1.579-1.5H9.6a8.753,8.753,0,0,0-5.24,1.6,8,8,0,0,0-.879.823,1.347,1.347,0,0,0-1.033-.474H.567a.553.553,0,0,0-.567.539v7.61a.526.526,0,0,0,.166.381.582.582,0,0,0,.4.158H2.452a1.293,1.293,0,0,0,1.323-1.258v-.414a43.2,43.2,0,0,1,4.546.649,38.8,38.8,0,0,0,6.757.763,21.437,21.437,0,0,0,3.011-.23,35.3,35.3,0,0,0,4.067-.931c.62-.167,1.206-.324,1.725-.449,1.4-.335,1.606-1.173,1.606-1.643V261.9A1.7,1.7,0,0,0,24.887,260.622ZM2.642,265.528a.186.186,0,0,1-.19.181H1.133v-6.533H2.452a.186.186,0,0,1,.19.181v6.171Zm21.712-2.254c0,.114,0,.418-.75.6-.534.128-1.128.288-1.756.457a34.557,34.557,0,0,1-3.917.9c-2.229.3-4.088.423-9.4-.525a42.373,42.373,0,0,0-4.755-.669v-4a.533.533,0,0,0,.055-.078A5.259,5.259,0,0,1,5.1,258.57a7.7,7.7,0,0,1,4.473-1.34h5.816a.436.436,0,0,1,.446.424v1.179a.436.436,0,0,1-.446.424H9.595a.539.539,0,1,0,0,1.077h2.481a2.364,2.364,0,0,0,1.318,1.519,10.206,10.206,0,0,0,3.756.551,33.289,33.289,0,0,0,4.043-.633c.993-.195,1.93-.379,2.614-.453a.431.431,0,0,1,.326.11.64.64,0,0,1,.222.476v1.372Z" transform="translate(0 -242.786)"/>
      <g id="Group_286" data-name="Group 286" transform="translate(3.207)">
        <path id="Path_34" data-name="Path 34" class="cls-1" d="M80.784,18.625h-19.9a1.455,1.455,0,0,0-1.453,1.454v9.338a1.455,1.455,0,0,0,1.453,1.454h19.9a1.455,1.455,0,0,0,1.453-1.454V20.079A1.455,1.455,0,0,0,80.784,18.625Zm-2.81,11.113H63.7a3.632,3.632,0,0,0-3.131-3.272V22.876a3.633,3.633,0,0,0,3.114-3.117h14.31A3.633,3.633,0,0,0,81.1,22.876v3.589A3.632,3.632,0,0,0,77.974,29.738Zm3.13-9.658v1.649a2.5,2.5,0,0,1-1.966-1.969h1.646A.32.32,0,0,1,81.1,20.079Zm-20.217-.32h1.647a2.5,2.5,0,0,1-1.967,1.969V20.079A.32.32,0,0,1,60.887,19.759Zm-.32,9.658v-1.8a2.5,2.5,0,0,1,1.992,2.124H60.887A.32.32,0,0,1,60.567,29.417Zm20.217.32H79.113A2.5,2.5,0,0,1,81.1,27.614v1.8A.32.32,0,0,1,80.784,29.738Z" transform="translate(-59.434 -18.625)"/>
        <path id="Path_35" data-name="Path 35" class="cls-1" d="M200.259,56.884a4.057,4.057,0,1,0,4.053,4.057A4.059,4.059,0,0,0,200.259,56.884Zm0,6.98a2.923,2.923,0,1,1,2.92-2.923A2.925,2.925,0,0,1,200.259,63.864Z" transform="translate(-188.827 -54.818)"/>
        <path id="Path_36" data-name="Path 36" class="cls-1" d="M119.884,99.705a1.744,1.744,0,1,0,1.743,1.744A1.745,1.745,0,0,0,119.884,99.705Zm0,2.354a.61.61,0,1,1,.609-.61A.611.611,0,0,1,119.884,102.059Z" transform="translate(-114.974 -95.326)"/>
        <path id="Path_37" data-name="Path 37" class="cls-1" d="M361.655,99.705a1.744,1.744,0,1,0,1.743,1.744A1.745,1.745,0,0,0,361.655,99.705Zm0,2.354a.61.61,0,1,1,.61-.61A.61.61,0,0,1,361.655,102.059Z" transform="translate(-343.7 -95.326)"/>
      </g>
    </g>
  </g>
</svg>
