<?xml version="1.0" encoding="utf-8"?>
<!-- Generator: Adobe Illustrator 21.1.0, SVG Export Plug-In . SVG Version: 6.00 Build 0)  -->
<svg version="1.1" id="Capa_1" xmlns="http://www.w3.org/2000/svg" xmlns:xlink="http://www.w3.org/1999/xlink" x="0px" y="0px"
	 viewBox="0 0 524.2 524.2" style="enable-background:new 0 0 524.2 524.2;" xml:space="preserve">
<path d="M483.6,75.3H40.5C18.3,75.3,0,93.7,0,115.9v292.5c0,22.2,18.3,40.5,40.5,40.5h443.1c22.2,0,40.5-18.3,40.5-40.5V115.9
	C525.1,93.7,506.8,75.3,483.6,75.3z M332.1,273.2L501,142.9v261.6L332.1,273.2z M41.5,99.4h442.1c7.7,0,14.5,5.8,16.4,12.5
	L276.1,285.7c-8.7,6.8-23.2,6.8-30.9,0l-221-171.8C26.1,106.2,32.8,99.4,41.5,99.4z M24.1,404.5V144.8l167,129.3L24.1,404.5z
	 M41.5,426.7c-1.9,0-3.9,0-4.8-1l174.7-136.1l19.3,15.4c8.7,6.8,19.3,9.7,29.9,9.7s22.2-2.9,29.9-9.7l21.2-16.4l176.6,137.1
	c-1.9,1-2.9,1-4.8,1L41.5,426.7L41.5,426.7z"/>
</svg>
