<svg xmlns="http://www.w3.org/2000/svg" viewBox="2941 1705 24 22.146">
  <defs>
    <style>
      .cls-1 {
        fill: #424242;
      }
    </style>
  </defs>
  <g id="Request_to_receive" data-name="Request to receive" transform="translate(2943 1685.375)">
    <g id="Group_287" data-name="Group 287" transform="translate(-2 19.625)">
      <path id="Path_33" data-name="Path 33" class="cls-1" d="M22.964,260.277a1.465,1.465,0,0,0-1.115-.347c-.678.074-1.565.248-2.5.432a30.061,30.061,0,0,1-3.585.566,8.585,8.585,0,0,1-2.915-.4,1.351,1.351,0,0,1-.591-.521H14.2a1.424,1.424,0,0,0,1.457-1.385v-1.088a1.424,1.424,0,0,0-1.457-1.385H8.863a8.076,8.076,0,0,0-4.836,1.474,7.38,7.38,0,0,0-.811.759,1.243,1.243,0,0,0-.954-.437H.523a.51.51,0,0,0-.523.5v7.022a.485.485,0,0,0,.153.351.537.537,0,0,0,.37.146h1.74A1.194,1.194,0,0,0,3.484,264.8v-.382a39.859,39.859,0,0,1,4.195.6,35.8,35.8,0,0,0,6.234.7,19.784,19.784,0,0,0,2.778-.212,32.579,32.579,0,0,0,3.753-.859c.573-.154,1.113-.3,1.592-.414,1.289-.309,1.482-1.082,1.482-1.516v-1.266A1.571,1.571,0,0,0,22.964,260.277ZM2.438,264.8a.172.172,0,0,1-.176.167H1.045v-6.028H2.263a.172.172,0,0,1,.176.167V264.8Zm20.034-2.08c0,.106,0,.386-.692.552-.493.118-1.041.266-1.621.422a31.881,31.881,0,0,1-3.614.831c-2.057.275-3.772.391-8.674-.485a39.094,39.094,0,0,0-4.388-.617v-3.691a.5.5,0,0,0,.051-.072,4.852,4.852,0,0,1,1.171-1.281,7.1,7.1,0,0,1,4.128-1.237H14.2a.4.4,0,0,1,.411.391v1.088a.4.4,0,0,1-.411.391H8.853a.5.5,0,1,0,0,.994h2.289a2.181,2.181,0,0,0,1.216,1.4,9.417,9.417,0,0,0,3.466.508,30.7,30.7,0,0,0,3.731-.584c.916-.18,1.781-.349,2.412-.418a.4.4,0,0,1,.3.1.591.591,0,0,1,.2.439v1.266Z" transform="translate(0 -243.819)"/>
      <g id="Group_286" data-name="Group 286" transform="translate(2.959)">
        <path id="Path_34" data-name="Path 34" class="cls-1" d="M79.135,18.625H60.775a1.343,1.343,0,0,0-1.341,1.342v8.616a1.343,1.343,0,0,0,1.341,1.342h18.36a1.343,1.343,0,0,0,1.341-1.342V19.967A1.343,1.343,0,0,0,79.135,18.625ZM76.541,28.879H63.369A3.352,3.352,0,0,0,60.48,25.86V22.548a3.352,3.352,0,0,0,2.873-2.876h13.2a3.352,3.352,0,0,0,2.872,2.876V25.86A3.352,3.352,0,0,0,76.541,28.879Zm2.888-8.912v1.521a2.306,2.306,0,0,1-1.814-1.817h1.519A.3.3,0,0,1,79.43,19.967Zm-18.655-.3h1.52a2.306,2.306,0,0,1-1.815,1.817V19.967A.3.3,0,0,1,60.775,19.672Zm-.3,8.912V26.919a2.305,2.305,0,0,1,1.838,1.96H60.775A.3.3,0,0,1,60.48,28.583Zm18.655.3H77.593a2.305,2.305,0,0,1,1.837-1.96v1.664A.3.3,0,0,1,79.135,28.879Z" transform="translate(-59.434 -18.625)"/>
        <path id="Path_35" data-name="Path 35" class="cls-1" d="M199.946,56.884a3.744,3.744,0,1,0,3.74,3.744A3.746,3.746,0,0,0,199.946,56.884Zm0,6.441a2.7,2.7,0,1,1,2.694-2.7A2.7,2.7,0,0,1,199.946,63.325Z" transform="translate(-189.397 -54.977)"/>
        <path id="Path_36" data-name="Path 36" class="cls-1" d="M119.749,99.705a1.61,1.61,0,1,0,1.608,1.61A1.611,1.611,0,0,0,119.749,99.705Zm0,2.173a.563.563,0,1,1,.562-.563A.563.563,0,0,1,119.749,101.878Z" transform="translate(-115.218 -95.664)"/>
        <path id="Path_37" data-name="Path 37" class="cls-1" d="M361.52,99.705a1.61,1.61,0,1,0,1.608,1.61A1.611,1.611,0,0,0,361.52,99.705Zm0,2.173a.563.563,0,1,1,.563-.563A.563.563,0,0,1,361.52,101.878Z" transform="translate(-344.953 -95.664)"/>
      </g>
    </g>
  </g>
</svg>
