<?xml version="1.0" encoding="utf-8"?>
<!-- Generator: Adobe Illustrator 21.1.0, SVG Export Plug-In . SVG Version: 6.00 Build 0)  -->
<svg version="1.1" id="Layer_1" xmlns="http://www.w3.org/2000/svg" xmlns:xlink="http://www.w3.org/1999/xlink" x="0px" y="0px"
	 viewBox="0 0 25 25" style="enable-background:new 0 0 25 25;" xml:space="preserve">
<style type="text/css">
	.st0{fill:#FF9800;}
</style>
<g>
	<path class="st0" d="M25,12.5C25,18.8,19.9,24,13.6,24c-0.4,0-0.7-0.3-0.7-0.7c-0.1-0.5,0.3-0.9,0.7-0.9c5.3,0,9.6-4.2,9.7-9.5
		c0.1-5.3-4.1-9.8-9.5-9.9C8.4,2.9,4,7.1,3.9,12.5c0,1.1,0.1,2.3,0.4,3.4L5,14c0.1-0.4,0.6-0.6,1-0.4c0.4,0.2,0.6,0.7,0.4,1.1
		L5,18.3c0,0.1,0,0.1,0,0.1v0.1c-0.1,0-0.1,0.1-0.2,0.1l-0.1,0.1H4.6H4.5H4.4H4.3H4.2H4.1H4l-0.1-0.1l-3.5-2.1
		c-0.4-0.2-0.5-0.7-0.3-1.1c0.3-0.4,0.7-0.5,1.1-0.3L2.7,16c-0.3-1.2-0.4-2.4-0.4-3.6C2.2,6.1,7.3,1,13.6,0.9C19.9,1,25,6.1,25,12.5
		z"/>
	<path class="st0" d="M13.3,14l-4.5-1.8c-0.4-0.2-0.6-0.7-0.4-1.1c0.1-0.4,0.6-0.6,1-0.4l4.1,1.8l4.6-4.7c0.3-0.3,0.8-0.3,1.1,0
		s0.3,0.8,0,1.1l-4.9,5c-0.1,0-0.1,0.1-0.2,0.1H14c-0.1,0.1-0.2,0.1-0.3,0.1h-0.1C13.5,14,13.4,14,13.3,14z"/>
</g>
</svg>
