<?xml version="1.0" encoding="utf-8"?>
<!-- Generator: Adobe Illustrator 21.1.0, SVG Export Plug-In . SVG Version: 6.00 Build 0)  -->
<svg version="1.1" id="Layer_1" xmlns="http://www.w3.org/2000/svg" xmlns:xlink="http://www.w3.org/1999/xlink" x="0px" y="0px"
	 viewBox="0 0 82.9 53" style="enable-background:new 0 0 82.9 53;" xml:space="preserve">
<style type="text/css">
	.st0{fill:#1B1B1B;stroke:#FFFFFF;stroke-width:0.5;}
</style>
<path class="st0" d="M43,0.4c-8.7,0-15.8,7-15.9,15.7c0,1.6,0.2,3.3,0.6,4.9l-2.1-1.2c-0.5-0.3-1.2-0.1-1.5,0.4
	c-0.3,0.5-0.1,1.2,0.4,1.5c0,0,0,0,0,0l5,2.9c0,0,0,0,0,0c0.1,0,0.1,0.1,0.2,0.1c0,0,0.1,0,0.1,0c0,0,0.1,0,0.1,0c0,0,0.1,0,0.1,0
	c0,0,0,0,0.1,0c0,0,0,0,0.1,0c0,0,0.1,0,0.1,0c0.1,0,0.1,0,0.2,0c0,0,0.1,0,0.1-0.1c0,0,0.1,0,0.1-0.1c0.1-0.1,0.2-0.1,0.2-0.2
	c0,0,0.1-0.1,0.1-0.1c0,0,0,0,0-0.1c0,0,0,0,0-0.1c0,0,0-0.1,0.1-0.1l2-4.9c0.2-0.6,0-1.2-0.6-1.4c0,0,0,0,0,0
	c-0.6-0.2-1.2,0-1.4,0.6l-1,2.5c-0.4-1.5-0.6-3.1-0.6-4.7c-0.1-7.5,6-13.7,13.5-13.8s13.7,6,13.8,13.5c0.1,7.5-6,13.7-13.5,13.8
	c0,0-0.1,0-0.1,0c-0.6,0-1.1,0.5-1.1,1.1c0,0.6,0.5,1.1,1.1,1.1l0,0c8.7,0.1,15.8-6.9,15.9-15.6S52.1,0.5,43.4,0.4
	C43.3,0.4,43.1,0.4,43,0.4L43,0.4z M42.6,18.2c0.1,0,0.2,0.1,0.3,0.1c0,0,0,0,0.1,0c0.1,0,0.3,0,0.4-0.1c0,0,0.1,0,0.1,0
	c0.1,0,0.2-0.1,0.3-0.2c0,0,0,0,0.1,0l6.9-6.9c0.4-0.4,0.4-1.1,0-1.6c0,0,0,0,0,0c-0.4-0.4-1.1-0.4-1.6,0l-6.4,6.3L37,13.5
	c-0.6-0.2-1.2,0-1.5,0.6c-0.2,0.6,0,1.2,0.6,1.4c0,0,0,0,0,0L42.6,18.2L42.6,18.2z"/>
<path d="M8.5,40.9H5.4v8.6H3.7v-8.6h-3v-1.3h7.8V40.9z M12.8,43.6l-0.7,0c-0.3,0-0.6,0.1-0.8,0.2s-0.4,0.3-0.5,0.6v5.1H9.1v-7.4h1.5
	l0.1,1.1c0.2-0.4,0.4-0.7,0.7-0.9s0.6-0.3,1-0.3c0.1,0,0.2,0,0.3,0c0.1,0,0.2,0,0.2,0.1L12.8,43.6z M18.5,49.5
	c-0.1-0.2-0.1-0.4-0.1-0.5c0-0.2-0.1-0.4-0.1-0.5c-0.2,0.3-0.5,0.6-0.9,0.9c-0.4,0.2-0.8,0.4-1.3,0.4c-0.8,0-1.4-0.2-1.8-0.6
	c-0.4-0.4-0.6-0.9-0.6-1.6c0-0.7,0.3-1.3,0.8-1.7c0.6-0.4,1.4-0.6,2.4-0.6h1.3v-0.6c0-0.4-0.1-0.7-0.3-0.9c-0.2-0.2-0.6-0.3-1-0.3
	c-0.4,0-0.7,0.1-0.9,0.3c-0.2,0.2-0.3,0.4-0.3,0.7l-1.6,0l0,0c0-0.6,0.2-1.1,0.8-1.6c0.6-0.5,1.3-0.7,2.2-0.7c0.9,0,1.6,0.2,2.1,0.7
	s0.8,1.1,0.8,1.9v3.3c0,0.3,0,0.6,0.1,0.9c0,0.3,0.1,0.6,0.2,0.8H18.5z M16.4,48.3c0.4,0,0.8-0.1,1.1-0.3c0.3-0.2,0.6-0.4,0.7-0.7
	v-1.1h-1.3c-0.5,0-0.9,0.1-1.1,0.4c-0.3,0.2-0.4,0.5-0.4,0.8c0,0.3,0.1,0.5,0.3,0.7C15.8,48.2,16.1,48.3,16.4,48.3z M23.1,42.1
	l0.1,1.1c0.2-0.4,0.5-0.7,0.9-0.9c0.4-0.2,0.8-0.3,1.2-0.3c0.8,0,1.4,0.2,1.8,0.7c0.4,0.5,0.6,1.2,0.6,2.2v4.6h-1.7v-4.6
	c0-0.6-0.1-1-0.3-1.2s-0.6-0.4-1-0.4c-0.4,0-0.7,0.1-0.9,0.2c-0.3,0.1-0.5,0.3-0.6,0.6v5.4h-1.7v-7.4H23.1z M33.7,47.5
	c0-0.3-0.1-0.5-0.3-0.6c-0.2-0.2-0.6-0.3-1.2-0.4c-0.9-0.2-1.5-0.4-2-0.8s-0.7-0.8-0.7-1.4c0-0.6,0.3-1.1,0.8-1.6
	c0.5-0.4,1.2-0.7,2.1-0.7c0.9,0,1.6,0.2,2.1,0.7c0.5,0.5,0.8,1,0.8,1.6l0,0h-1.6c0-0.3-0.1-0.6-0.4-0.8c-0.2-0.2-0.6-0.3-1-0.3
	c-0.4,0-0.7,0.1-0.9,0.3s-0.3,0.4-0.3,0.7c0,0.3,0.1,0.5,0.3,0.6s0.6,0.3,1.2,0.4c0.9,0.2,1.6,0.5,2.1,0.8c0.5,0.4,0.7,0.8,0.7,1.4
	c0,0.7-0.3,1.2-0.8,1.6c-0.5,0.4-1.3,0.6-2.2,0.6c-1,0-1.7-0.2-2.3-0.7s-0.8-1.1-0.8-1.7l0,0h1.5c0,0.4,0.2,0.7,0.5,0.9
	s0.6,0.3,1.1,0.3c0.4,0,0.8-0.1,1-0.3C33.6,48,33.7,47.8,33.7,47.5z M41.3,49.5c-0.1-0.2-0.1-0.4-0.1-0.5c0-0.2-0.1-0.4-0.1-0.5
	c-0.2,0.3-0.5,0.6-0.9,0.9c-0.4,0.2-0.8,0.4-1.3,0.4c-0.8,0-1.4-0.2-1.8-0.6c-0.4-0.4-0.6-0.9-0.6-1.6c0-0.7,0.3-1.3,0.8-1.7
	c0.6-0.4,1.4-0.6,2.4-0.6h1.3v-0.6c0-0.4-0.1-0.7-0.3-0.9c-0.2-0.2-0.6-0.3-1-0.3c-0.4,0-0.7,0.1-0.9,0.3c-0.2,0.2-0.3,0.4-0.3,0.7
	l-1.6,0l0,0c0-0.6,0.2-1.1,0.8-1.6c0.6-0.5,1.3-0.7,2.2-0.7c0.9,0,1.6,0.2,2.1,0.7c0.5,0.4,0.8,1.1,0.8,1.9v3.3c0,0.3,0,0.6,0.1,0.9
	c0,0.3,0.1,0.6,0.2,0.8H41.3z M39.3,48.3c0.4,0,0.8-0.1,1.1-0.3c0.3-0.2,0.6-0.4,0.7-0.7v-1.1h-1.3c-0.5,0-0.9,0.1-1.1,0.4
	c-0.3,0.2-0.4,0.5-0.4,0.8c0,0.3,0.1,0.5,0.3,0.7C38.7,48.2,38.9,48.3,39.3,48.3z M47.5,48.3c0.4,0,0.7-0.1,1-0.4
	c0.3-0.2,0.4-0.5,0.4-0.9h1.5l0,0c0,0.7-0.3,1.3-0.8,1.8c-0.6,0.5-1.3,0.8-2,0.8c-1.1,0-1.9-0.4-2.5-1.1c-0.6-0.7-0.9-1.6-0.9-2.7
	v-0.2c0-1.1,0.3-2,0.9-2.7c0.6-0.7,1.4-1.1,2.5-1.1c0.9,0,1.6,0.3,2.1,0.8c0.5,0.5,0.8,1.2,0.8,2l0,0h-1.5c0-0.4-0.1-0.8-0.4-1
	c-0.3-0.3-0.6-0.4-1-0.4c-0.6,0-1,0.2-1.3,0.7c-0.3,0.5-0.4,1-0.4,1.7v0.2c0,0.7,0.1,1.3,0.4,1.7C46.4,48.1,46.9,48.3,47.5,48.3z
	 M53.9,40.3v1.8h1.3v1.2h-1.3v4.1c0,0.3,0.1,0.5,0.2,0.7c0.1,0.1,0.3,0.2,0.5,0.2c0.1,0,0.2,0,0.3,0c0.1,0,0.2,0,0.2-0.1l0.2,1.2
	c-0.1,0.1-0.3,0.1-0.5,0.2c-0.2,0-0.4,0.1-0.6,0.1c-0.6,0-1.1-0.2-1.4-0.5c-0.3-0.4-0.5-0.9-0.5-1.7v-4.1h-1.1v-1.2h1.1v-1.8H53.9z
	 M58.3,40.3h-1.7v-1.5h1.7V40.3z M58.3,49.5h-1.7v-7.4h1.7V49.5z M59.8,45.7c0-1.1,0.3-2,0.9-2.7c0.6-0.7,1.4-1.1,2.5-1.1
	c1.1,0,1.9,0.4,2.5,1.1c0.6,0.7,0.9,1.6,0.9,2.7v0.1c0,1.1-0.3,2-0.9,2.7c-0.6,0.7-1.4,1-2.5,1c-1.1,0-1.9-0.4-2.5-1.1
	s-0.9-1.6-0.9-2.7V45.7z M61.5,45.9c0,0.7,0.1,1.3,0.4,1.8c0.3,0.5,0.7,0.7,1.3,0.7c0.6,0,1-0.2,1.3-0.7c0.3-0.5,0.4-1,0.4-1.8v-0.1
	c0-0.7-0.1-1.3-0.4-1.7c-0.3-0.5-0.7-0.7-1.3-0.7c-0.6,0-1,0.2-1.3,0.7c-0.3,0.5-0.4,1-0.4,1.7V45.9z M69.6,42.1l0.1,1.1
	c0.2-0.4,0.5-0.7,0.9-0.9c0.4-0.2,0.8-0.3,1.2-0.3c0.8,0,1.4,0.2,1.8,0.7c0.4,0.5,0.6,1.2,0.6,2.2v4.6h-1.7v-4.6
	c0-0.6-0.1-1-0.3-1.2c-0.2-0.2-0.6-0.4-1-0.4c-0.4,0-0.7,0.1-0.9,0.2c-0.3,0.1-0.5,0.3-0.6,0.6v5.4h-1.7v-7.4H69.6z M80.2,47.5
	c0-0.3-0.1-0.5-0.3-0.6c-0.2-0.2-0.6-0.3-1.2-0.4c-0.9-0.2-1.5-0.4-2-0.8c-0.5-0.3-0.7-0.8-0.7-1.4c0-0.6,0.3-1.1,0.8-1.6
	c0.5-0.4,1.2-0.7,2.1-0.7c0.9,0,1.6,0.2,2.1,0.7c0.5,0.5,0.8,1,0.8,1.6l0,0h-1.6c0-0.3-0.1-0.6-0.4-0.8c-0.2-0.2-0.6-0.3-0.9-0.3
	c-0.4,0-0.7,0.1-0.9,0.3c-0.2,0.2-0.3,0.4-0.3,0.7c0,0.3,0.1,0.5,0.3,0.6c0.2,0.2,0.6,0.3,1.2,0.4c0.9,0.2,1.6,0.5,2.1,0.8
	c0.5,0.4,0.7,0.8,0.7,1.4c0,0.7-0.3,1.2-0.8,1.6c-0.6,0.4-1.3,0.6-2.2,0.6c-1,0-1.7-0.2-2.3-0.7c-0.6-0.5-0.8-1.1-0.8-1.7l0,0h1.5
	c0,0.4,0.2,0.7,0.5,0.9c0.3,0.2,0.6,0.3,1.1,0.3c0.4,0,0.8-0.1,1-0.3C80.1,48,80.2,47.8,80.2,47.5z"/>
</svg>
