<svg xmlns="http://www.w3.org/2000/svg" viewBox="3014 1704 26.182 24">
  <defs>
    <style>
      .cls-1 {
        fill: #424242;
      }
    </style>
  </defs>
  <g id="Transactions_Menu_icon" data-name="Transactions Menu icon" transform="translate(3018 1703)">
    <g id="Transactions" transform="translate(-4 1)">
      <path id="Path_31" data-name="Path 31" class="cls-1" d="M14.3,3.315A11.945,11.945,0,0,0,2.423,15.281,14.027,14.027,0,0,0,2.85,19l-1.6-.942a.828.828,0,0,0-1.137.3.845.845,0,0,0,.3,1.147l3.75,2.208c.008,0,.016.005.023.009a.817.817,0,0,0,.124.052.881.881,0,0,0,.087.028.85.85,0,0,0,.108.014c.026,0,.051.01.077.01s.028-.005.043-.006.026,0,.04,0,.039-.011.059-.014a.845.845,0,0,0,.116-.028.809.809,0,0,0,.095-.039.784.784,0,0,0,.1-.057A.761.761,0,0,0,5.2,21.55a.766.766,0,0,0,.066-.085c.011-.017.026-.029.036-.046s.007-.028.014-.041.028-.043.038-.067l1.492-3.731a.843.843,0,0,0-.458-1.093A.829.829,0,0,0,5.3,16.95l-.766,1.916a12.558,12.558,0,0,1-.451-3.551A10.217,10.217,0,1,1,14.3,25.636a.84.84,0,0,0,0,1.679,12,12,0,0,0,0-24Z" transform="translate(0 -3.315)"/>
      <path id="Path_32" data-name="Path 32" class="cls-1" d="M26.313,26.395a.815.815,0,0,0,.261.054c.019,0,.037.011.055.011a.816.816,0,0,0,.282-.056.73.73,0,0,0,.073-.035.83.83,0,0,0,.191-.128c.013-.011.03-.015.042-.028l5.19-5.243a.845.845,0,0,0,0-1.187.825.825,0,0,0-1.175,0l-4.8,4.844-4.3-1.821a.828.828,0,0,0-1.088.45.843.843,0,0,0,.445,1.1l4.819,2.038Z" transform="translate(-12.329 -12.78)"/>
    </g>
  </g>
</svg>
