<svg xmlns="http://www.w3.org/2000/svg" viewBox="3016 1705 24 22">
  <defs>
    <style>
      .cls-1 {
        fill: #424242;
      }
    </style>
  </defs>
  <g id="Transactions" transform="translate(3016 1705)">
    <path id="Path_31" data-name="Path 31" class="cls-1" d="M13.11,3.315A10.949,10.949,0,0,0,2.222,14.284,12.858,12.858,0,0,0,2.612,17.7l-1.467-.864A.759.759,0,0,0,.1,17.111a.775.775,0,0,0,.275,1.052l3.437,2.024.021.008a.749.749,0,0,0,.114.048.807.807,0,0,0,.08.026.779.779,0,0,0,.1.013c.023,0,.047.01.07.01s.026,0,.039-.005.024,0,.037,0,.036-.01.054-.013a.775.775,0,0,0,.107-.026.743.743,0,0,0,.087-.036.719.719,0,0,0,.091-.052.7.7,0,0,0,.151-.132.7.7,0,0,0,.06-.078c.01-.015.024-.026.033-.042s.007-.026.012-.037.026-.039.035-.062l1.367-3.42a.772.772,0,0,0-.42-1,.76.76,0,0,0-.992.425l-.7,1.756a11.512,11.512,0,0,1-.414-3.255,9.366,9.366,0,1,1,9.365,9.46.77.77,0,0,0,0,1.539,11,11,0,0,0,0-22Z" transform="translate(0 -3.315)"/>
    <path id="Path_32" data-name="Path 32" class="cls-1" d="M25.869,25.823a.747.747,0,0,0,.24.049c.017,0,.034.01.051.01a.748.748,0,0,0,.259-.051.669.669,0,0,0,.067-.032.761.761,0,0,0,.175-.117c.012-.01.027-.014.039-.026l4.757-4.806a.775.775,0,0,0,0-1.089.756.756,0,0,0-1.078,0l-4.4,4.441-3.945-1.669a.759.759,0,0,0-1,.413.773.773,0,0,0,.408,1.007l4.417,1.869Z" transform="translate(-13.05 -13.343)"/>
  </g>
</svg>
