<?xml version="1.0" encoding="utf-8"?>
<!-- Generator: Adobe Illustrator 21.1.0, SVG Export Plug-In . SVG Version: 6.00 Build 0)  -->
<svg version="1.1" id="Layer_1" xmlns="http://www.w3.org/2000/svg" xmlns:xlink="http://www.w3.org/1999/xlink" x="0px" y="0px"
	 viewBox="0 0 295.2 231.7" style="enable-background:new 0 0 295.2 231.7;" xml:space="preserve">
<path d="M287.4,92.5l-71.3,71.3c-1.4,1.4-4.3,2.9-7.1,2.9c-5.7,0-10-4.3-10-10v-30H86.2c-5.7,0-10-4.3-10-10V99.6l-47.1,47.1
	l47.1,47.1v-15.7c0-5.7,4.3-10,10-10h81.3c5.7,0,10,4.3,10,10c0,5.7-4.3,10-10,10H96.2v30c0,4.3-2.9,7.1-5.7,10c-1.4,0-2.9,0-4.3,0
	c-2.9,0-5.7-1.4-7.1-2.9L7.8,153.8c-4.3-4.3-4.3-10,0-14.3l71.3-71.3c1.4-1.4,4.3-2.9,7.1-2.9c5.7,0,10,4.3,10,10v30h112.7
	c5.7,0,10,4.3,10,10v17.1L266,85.3l-47.1-47.1V54c0,5.7-4.3,10-10,10h-81.3c-5.7,1.4-10-2.9-10-8.6s4.3-10,10-10h71.3V14
	c0-2.9,1.4-5.7,2.9-7.1c4.3-4.3,10-4.3,14.3,0l71.3,71.3C291.7,82.5,291.7,88.2,287.4,92.5z"/>
</svg>
