<?xml version="1.0" encoding="utf-8"?>
<!-- Generator: Adobe Illustrator 21.1.0, SVG Export Plug-In . SVG Version: 6.00 Build 0)  -->
<svg version="1.1" id="Layer_1" xmlns="http://www.w3.org/2000/svg" xmlns:xlink="http://www.w3.org/1999/xlink" x="0px" y="0px"
	 viewBox="0 0 25 25" style="enable-background:new 0 0 25 25;" xml:space="preserve">
<style type="text/css">
	.st0{fill:#424242;}
</style>
<g>
	<path class="st0" d="M13.6,0.9C7.3,1,2.2,6.1,2.3,12.4c0,1.2,0.1,2.4,0.4,3.6l-1.5-0.9c-0.4-0.2-0.8-0.1-1.1,0.3l0,0l0,0
		c-0.2,0.4-0.1,0.9,0.3,1.1l3.5,2.1l0,0L4,18.7h0.1h0.1h0.1h0.1h0.1h0.1h0.1l0.1-0.1c0.1,0,0.1-0.1,0.2-0.1l0-0.1l0,0l0,0
		c0,0,0,0,0-0.1l1.4-3.6c0.2-0.4,0-0.9-0.4-1.1c-0.4-0.2-0.9,0-1,0.4l0,0l0,0l-0.7,1.9c-0.3-1.1-0.4-2.3-0.4-3.4
		C4,7.1,8.4,2.9,13.8,3s9.6,4.6,9.5,9.9c-0.1,5.3-4.4,9.5-9.7,9.5c-0.4,0-0.8,0.4-0.7,0.9c0,0.4,0.3,0.7,0.7,0.7
		C19.9,24,25,18.8,25,12.5C25,6.1,19.9,1,13.6,0.9z M13.3,14c0.1,0,0.2,0,0.3,0.1h0.1c0.1,0,0.2,0,0.3-0.1h0.1
		c0.1,0,0.1-0.1,0.2-0.1l0,0l4.9-5c0.3-0.3,0.3-0.8,0-1.1c-0.3-0.3-0.8-0.3-1.1,0l0,0l0,0l-4.6,4.7l-4.1-1.8c-0.4-0.2-0.9,0-1,0.4
		l0,0l0,0c-0.2,0.4,0,0.9,0.4,1.1L13.3,14L13.3,14z"/>
</g>
</svg>
