<?xml version="1.0" encoding="utf-8"?>
<!-- Generator: Adobe Illustrator 21.1.0, SVG Export Plug-In . SVG Version: 6.00 Build 0)  -->
<svg version="1.1" id="Layer_1" xmlns="http://www.w3.org/2000/svg" xmlns:xlink="http://www.w3.org/1999/xlink" x="0px" y="0px"
	 viewBox="0 0 64.5 47.6" style="enable-background:new 0 0 64.5 47.6;" xml:space="preserve">
<style type="text/css">
	.st0{fill:#424242;}
</style>
<g>
	<path class="st0" d="M64.5,21.8c0,0.6-0.5,1-1,1h-7.2c-0.6,0-1-0.5-1-1c0-0.6,0.5-1,1-1h7.2C64,20.8,64.5,21.3,64.5,21.8z"/>
	<path class="st0" d="M9.2,21.8c0,0.6-0.5,1-1,1H1c-0.6,0-1-0.5-1-1V1c0-0.6,0.5-1,1-1h62.5c0.6,0,1,0.5,1,1v15.6h0c0,0.6-0.5,1-1,1
		c-0.6,0-1-0.5-1-1V2H2v18.8h6.1C8.7,20.8,9.2,21.3,9.2,21.8z"/>
	<path class="st0" d="M55.4,11.4c0,0.6-0.5,1-1,1H10.1c-0.6,0-1-0.5-1-1c0-0.6,0.5-1,1-1h44.2C54.9,10.4,55.4,10.9,55.4,11.4z"/>
	<path class="st0" d="M52.8,16.6c0-0.6-0.5-1-1-1h-4.6c-0.6,0-1,0.5-1,1s0.5,1,1,1h3.5v11.1c-2,0.2-3.8,1.1-5.2,2.5
		c-1.4,1.4-2.3,3.3-2.5,5.2H21.5c-0.5-4.1-3.7-7.3-7.7-7.7V17.6h7.1c0.2,2.7,1.4,5.2,3.3,7.1c4.5,4.5,11.7,4.5,16.1,0
		c2.1-2.1,3.3-5,3.3-8.1v0c0,0,0,0,0,0c0-0.6-0.5-1-1-1h0H26.4c-0.6,0-1,0.5-1,1s0.5,1,1,1h15.2c-0.2,2.1-1.2,4.1-2.7,5.6
		C37.1,25,34.7,26,32.2,26c-5.2,0-9.4-4.2-9.4-9.4c0-0.6-0.5-1-1-1c0,0,0,0,0,0l-9.1,0c-0.6,0-1,0.5-1,1v13c0,0,0,0,0,0s0,0,0,0v7.8
		c0,0.6,0.5,1,1,1h7.8c0,0,0,0,0,0s0,0,0,0h31.2c0.6,0,1-0.5,1-1v-7.8c0,0,0,0,0,0s0,0,0,0V16.6z M13.7,36.4v-5.7
		c2.9,0.4,5.3,2.8,5.7,5.7H13.7z M50.7,36.4H45c0.2-1.4,0.9-2.8,1.9-3.8c1-1,2.4-1.7,3.8-1.9V36.4z"/>
	<path class="st0" d="M52.8,42c0,0.6-0.5,1-1,1h-39c-0.6,0-1-0.5-1-1c0-0.6,0.5-1,1-1h39C52.3,41,52.8,41.4,52.8,42z"/>
	<path class="st0" d="M52.8,46.6c0,0.6-0.5,1-1,1h-39c-0.6,0-1-0.5-1-1s0.5-1,1-1h39C52.3,45.5,52.8,46,52.8,46.6z"/>
</g>
</svg>
