<?xml version="1.0" encoding="utf-8"?>
<!-- Generator: Adobe Illustrator 21.1.0, SVG Export Plug-In . SVG Version: 6.00 Build 0)  -->
<svg version="1.1" id="Layer_1" xmlns="http://www.w3.org/2000/svg" xmlns:xlink="http://www.w3.org/1999/xlink" x="0px" y="0px"
	 viewBox="0 0 149.8 149.8" style="enable-background:new 0 0 149.8 149.8;" xml:space="preserve">
<style type="text/css">
	.st0{fill:#FFFFFF;}
	.st1{fill:#424242;}
	.st2{fill:#424242;enable-background:new    ;}
</style>
<g>
	<path class="st0" d="M74.9,145.8c-9.6,0-18.9-1.9-27.6-5.6c-4.2-1.8-8.3-4-12-6.5c-3.8-2.5-7.3-5.5-10.5-8.7
		c-3.2-3.2-6.1-6.7-8.7-10.5c-2.6-3.8-4.8-7.8-6.5-12C5.9,93.8,4,84.5,4,74.9c0-9.6,1.9-18.9,5.6-27.6c1.8-4.2,4-8.3,6.5-12
		c2.5-3.8,5.5-7.3,8.7-10.5s6.7-6.1,10.5-8.7c3.8-2.6,7.8-4.8,12-6.5C56.1,5.9,65.3,4,74.9,4c9.6,0,18.9,1.9,27.6,5.6
		c4.2,1.8,8.3,4,12,6.5c3.8,2.5,7.3,5.5,10.5,8.7c3.2,3.2,6.1,6.7,8.7,10.5c2.6,3.8,4.8,7.8,6.5,12c3.7,8.7,5.6,18,5.6,27.6
		c0,9.6-1.9,18.9-5.6,27.6c-1.8,4.2-4,8.3-6.5,12c-2.5,3.8-5.5,7.3-8.7,10.5c-3.2,3.2-6.7,6.1-10.5,8.7c-3.8,2.6-7.8,4.8-12,6.5
		C93.8,143.9,84.5,145.8,74.9,145.8z"/>
	<path class="st1" d="M74.9,144.8c9.4,0,18.6-1.8,27.2-5.5c4.1-1.8,8.1-3.9,11.9-6.4c3.7-2.5,7.2-5.4,10.3-8.5
		c3.2-3.2,6-6.6,8.5-10.3c2.5-3.7,4.7-7.7,6.4-11.9c3.6-8.6,5.5-17.8,5.5-27.2c0-9.4-1.8-18.6-5.5-27.2c-1.8-4.1-3.9-8.1-6.4-11.9
		c-2.5-3.7-5.4-7.2-8.5-10.3c-3.2-3.2-6.6-6-10.3-8.5c-3.7-2.5-7.7-4.7-11.9-6.4C93.5,6.8,84.3,5,74.9,5c-9.4,0-18.6,1.8-27.2,5.5
		c-4.1,1.8-8.1,3.9-11.9,6.4c-3.7,2.5-7.2,5.4-10.3,8.5c-3.2,3.2-6,6.6-8.5,10.3c-2.5,3.7-4.7,7.7-6.4,11.9C6.8,56.3,5,65.5,5,74.9
		c0,9.4,1.8,18.6,5.5,27.2c1.8,4.1,3.9,8.1,6.4,11.9c2.5,3.7,5.4,7.2,8.5,10.3c3.2,3.2,6.6,6,10.3,8.5c3.7,2.5,7.7,4.7,11.9,6.4
		C56.3,143,65.5,144.8,74.9,144.8 M74.9,146.8C35.2,146.8,3,114.6,3,74.9C3,35.2,35.2,3,74.9,3c39.7,0,71.9,32.2,71.9,71.9
		C146.8,114.6,114.6,146.8,74.9,146.8z"/>
	<path class="st2" d="M45.5,106.8l0.2,1.3l0,0l0.3-1.3l2-7h1.3l2,7l0.3,1.4h0l0.2-1.4l1.6-7h1.4l-2.6,10.7h-1.3l-2.1-7.4l-0.2-1h0
		l-0.2,1l-2.1,7.4H45l-2.6-10.7h1.4L45.5,106.8z M57.9,100.5h-1.4V99h1.4V100.5z M57.9,110.5h-1.4v-7.9h1.4V110.5z M62,100.6v1.9
		h1.5v1.1H62v4.8c0,0.4,0.1,0.6,0.2,0.8c0.2,0.2,0.4,0.2,0.6,0.2c0.1,0,0.2,0,0.3,0c0.1,0,0.2,0,0.3-0.1l0.2,1
		c-0.1,0.1-0.3,0.2-0.5,0.2c-0.2,0.1-0.4,0.1-0.6,0.1c-0.6,0-1.1-0.2-1.4-0.5c-0.3-0.4-0.5-0.9-0.5-1.7v-4.8h-1.3v-1.1h1.3v-1.9H62z
		 M66.7,103.6c0.3-0.4,0.6-0.7,1-0.9c0.4-0.2,0.8-0.3,1.3-0.3c0.8,0,1.5,0.3,2,0.8s0.7,1.3,0.7,2.3v5h-1.4v-5c0-0.7-0.1-1.1-0.4-1.5
		s-0.7-0.5-1.3-0.5c-0.4,0-0.8,0.1-1.1,0.3c-0.3,0.2-0.6,0.4-0.8,0.8v5.9h-1.4V99h1.4V103.6z M73.5,106.7c0-1.3,0.3-2.3,0.8-3.1
		s1.3-1.2,2.3-1.2c0.5,0,0.9,0.1,1.2,0.3c0.4,0.2,0.7,0.4,0.9,0.7V99h1.4v11.4H79l-0.2-1c-0.3,0.4-0.6,0.7-1,0.8s-0.8,0.3-1.3,0.3
		c-1,0-1.7-0.4-2.3-1.1c-0.5-0.7-0.8-1.6-0.8-2.8V106.7z M74.9,106.8c0,0.8,0.2,1.4,0.5,1.9c0.3,0.5,0.8,0.7,1.5,0.7
		c0.4,0,0.8-0.1,1.1-0.3s0.5-0.5,0.7-0.8v-3.7c-0.2-0.3-0.4-0.6-0.7-0.8c-0.3-0.2-0.7-0.3-1.1-0.3c-0.7,0-1.2,0.3-1.5,0.9
		c-0.3,0.6-0.5,1.3-0.5,2.2V106.8z M86.1,103.8l-0.7,0c-0.4,0-0.7,0.1-1,0.3c-0.3,0.2-0.5,0.4-0.6,0.8v5.7h-1.4v-7.9h1.3l0.1,1.2
		c0.2-0.4,0.5-0.7,0.8-1c0.3-0.2,0.7-0.3,1.1-0.3c0.1,0,0.2,0,0.3,0c0.1,0,0.2,0,0.2,0.1L86.1,103.8z M92.3,110.5
		c0-0.2-0.1-0.5-0.1-0.6c0-0.2,0-0.4,0-0.6c-0.3,0.4-0.6,0.7-1.1,1c-0.4,0.3-0.9,0.4-1.4,0.4c-0.8,0-1.5-0.2-1.9-0.6
		c-0.4-0.4-0.6-1-0.6-1.7c0-0.8,0.3-1.3,0.9-1.8c0.6-0.4,1.4-0.6,2.5-0.6h1.6V105c0-0.5-0.1-0.8-0.4-1.1c-0.3-0.3-0.7-0.4-1.2-0.4
		c-0.5,0-0.8,0.1-1.1,0.4c-0.3,0.2-0.4,0.5-0.4,0.9h-1.4l0,0c0-0.6,0.2-1.1,0.8-1.6c0.6-0.5,1.3-0.7,2.2-0.7c0.9,0,1.6,0.2,2.2,0.7
		c0.5,0.5,0.8,1.1,0.8,2v3.8c0,0.3,0,0.6,0,0.8s0.1,0.5,0.2,0.8H92.3z M89.9,109.4c0.5,0,1-0.1,1.4-0.4s0.7-0.6,0.8-0.9v-1.3h-1.6
		c-0.6,0-1,0.1-1.4,0.4c-0.3,0.3-0.5,0.6-0.5,1c0,0.4,0.1,0.6,0.3,0.8C89.2,109.3,89.5,109.4,89.9,109.4z M97.7,107.6l0.2,1h0l0.2-1
		l1.6-5h1.2l1.6,5l0.2,1.1h0l0.2-1.1l1.2-5h1.4l-2.3,7.9h-1.2l-1.5-4.8l-0.3-1.3l0,0l-0.3,1.3l-1.5,4.8h-1.2l-2.3-7.9h1.4
		L97.7,107.6z"/>
	<path class="st1" d="M51.2,57.8c0,0.6-0.5,1-1,1H43c-0.6,0-1-0.5-1-1V37c0-0.6,0.5-1,1-1h62.5c0.6,0,1,0.5,1,1v15.6h0
		c0,0.6-0.5,1-1,1c-0.6,0-1-0.5-1-1V38H44v18.8h6.1C50.7,56.8,51.2,57.3,51.2,57.8z M105.5,56.8h-7.2c-0.6,0-1,0.5-1,1
		c0,0.6,0.5,1,1,1h7.2c0.6,0,1-0.5,1-1C106.5,57.3,106,56.8,105.5,56.8z M96.4,46.4H52.1c-0.6,0-1,0.5-1,1c0,0.6,0.5,1,1,1h44.2
		c0.6,0,1-0.5,1-1C97.4,46.9,96.9,46.4,96.4,46.4z M94.8,65.6C94.8,65.6,94.8,65.6,94.8,65.6C94.8,65.6,94.8,65.6,94.8,65.6v7.8
		c0,0.6-0.5,1-1,1H62.5c0,0,0,0,0,0s0,0,0,0h-7.8c-0.6,0-1-0.5-1-1v-7.8c0,0,0,0,0,0s0,0,0,0v-13c0-0.6,0.5-1,1-1l9.1,0c0,0,0,0,0,0
		c0.6,0,1,0.5,1,1c0,5.2,4.2,9.4,9.4,9.4c2.5,0,4.9-1,6.7-2.8c1.5-1.5,2.5-3.5,2.7-5.6H68.4c-0.6,0-1-0.5-1-1s0.5-1,1-1h16.3h0
		c0.6,0,1,0.5,1,1c0,0,0,0,0,0c0,3-1.2,5.9-3.3,8.1c-4.5,4.5-11.7,4.5-16.1,0c-1.9-1.9-3.1-4.4-3.3-7.1h-7.1v11.1
		c4.1,0.5,7.3,3.7,7.7,7.7H85c0.2-2,1.1-3.8,2.5-5.2c1.4-1.4,3.3-2.3,5.2-2.5V53.6h-3.5c-0.6,0-1-0.5-1-1s0.5-1,1-1h4.6
		c0.6,0,1,0.5,1,1V65.6z M55.7,72.4h5.7c-0.4-2.9-2.8-5.3-5.7-5.7V72.4z M92.7,72.4v-5.7c-1.4,0.2-2.8,0.9-3.8,1.9
		c-1,1-1.7,2.4-1.9,3.8H92.7z M93.8,77h-39c-0.6,0-1,0.5-1,1c0,0.6,0.5,1,1,1h39c0.6,0,1-0.5,1-1C94.8,77.4,94.3,77,93.8,77z
		 M93.8,81.5h-39c-0.6,0-1,0.5-1,1s0.5,1,1,1h39c0.6,0,1-0.5,1-1S94.3,81.5,93.8,81.5z"/>
</g>
</svg>
