<svg xmlns="http://www.w3.org/2000/svg" xmlns:xlink="http://www.w3.org/1999/xlink" viewBox="2963 1509 149.819 149.819">
  <defs>
    <style>
      .cls-1 {
        fill: #fff;
      }

      .cls-2, .cls-3, .cls-5 {
        fill: #424242;
      }

      .cls-2 {
        font-size: 15px;
        font-family: Roboto-Regular, Roboto;
      }

      .cls-4, .cls-5 {
        stroke: none;
      }

      .cls-6 {
        filter: url(#circel);
      }
    </style>
    <filter id="circel" x="2963" y="1509" width="149.819" height="149.819" filterUnits="userSpaceOnUse">
      <feOffset dy="2" input="SourceAlpha"/>
      <feGaussianBlur stdDeviation="1" result="blur"/>
      <feFlood flood-opacity="0.239"/>
      <feComposite operator="in" in2="blur"/>
      <feComposite in="SourceGraphic"/>
    </filter>
  </defs>
  <g id="Withdraw" transform="translate(2765 1082)">
    <g class="cls-6" transform="matrix(1, 0, 0, 1, -2765, -1082)">
      <g id="circel-2" data-name="circel" class="cls-1" transform="translate(2966 1510)">
        <path class="cls-4" d="M 71.90965270996094 142.8193054199219 C 62.33647155761719 142.8193054199219 53.0501708984375 140.9446105957031 44.30873107910156 137.2472991943359 C 40.10725402832031 135.4702301025391 36.05485153198242 133.2706451416016 32.26409149169922 130.7096557617188 C 28.50909233093262 128.1728363037109 24.97801208496094 125.2594146728516 21.76895332336426 122.0503692626953 C 18.55989265441895 118.8413162231445 15.64649295806885 115.3102340698242 13.10965251922607 111.5552291870117 C 10.54867267608643 107.7644729614258 8.349092483520508 103.7120742797852 6.572012901306152 99.51058959960938 C 2.874692678451538 90.76914978027344 0.9999927282333374 81.48284912109375 0.9999927282333374 71.90965270996094 C 0.9999927282333374 62.33647155761719 2.874692678451538 53.0501708984375 6.572012901306152 44.30873107910156 C 8.349092483520508 40.10725402832031 10.54867267608643 36.05485153198242 13.10965251922607 32.26409149169922 C 15.64649295806885 28.50909233093262 18.55989265441895 24.97801208496094 21.76895332336426 21.76895332336426 C 24.97801208496094 18.55989265441895 28.50909233093262 15.64649295806885 32.26409149169922 13.10965251922607 C 36.05485153198242 10.54867267608643 40.10725402832031 8.349092483520508 44.30873107910156 6.572012901306152 C 53.0501708984375 2.874692678451538 62.33647155761719 0.9999927282333374 71.90965270996094 0.9999927282333374 C 81.48284912109375 0.9999927282333374 90.76914978027344 2.874692678451538 99.51058959960938 6.572012901306152 C 103.7120742797852 8.349092483520508 107.7644729614258 10.54867267608643 111.5552291870117 13.10965251922607 C 115.3102340698242 15.64649295806885 118.8413162231445 18.55989265441895 122.0503692626953 21.76895332336426 C 125.2594146728516 24.97801208496094 128.1728363037109 28.50909233093262 130.7096557617188 32.26409149169922 C 133.2706451416016 36.05485153198242 135.4702301025391 40.10725402832031 137.2472991943359 44.30873107910156 C 140.9446105957031 53.0501708984375 142.8193054199219 62.33647155761719 142.8193054199219 71.90965270996094 C 142.8193054199219 81.48284912109375 140.9446105957031 90.76914978027344 137.2472991943359 99.51058959960938 C 135.4702301025391 103.7120742797852 133.2706451416016 107.7644729614258 130.7096557617188 111.5552291870117 C 128.1728363037109 115.3102340698242 125.2594146728516 118.8413162231445 122.0503692626953 122.0503692626953 C 118.8413162231445 125.2594146728516 115.3102340698242 128.1728363037109 111.5552291870117 130.7096557617188 C 107.7644729614258 133.2706451416016 103.7120742797852 135.4702301025391 99.51058959960938 137.2472991943359 C 90.76914978027344 140.9446105957031 81.48284912109375 142.8193054199219 71.90965270996094 142.8193054199219 Z"/>
        <path class="cls-5" d="M 71.90965270996094 141.8193054199219 C 81.34828948974609 141.8193054199219 90.50350952148438 139.97119140625 99.12105560302734 136.3262939453125 C 103.263053894043 134.5743713378906 107.258171081543 132.4058685302734 110.9954299926758 129.8810272216797 C 114.6976928710938 127.3798294067383 118.1792144775391 124.5073089599609 121.3432540893555 121.3432540893555 C 124.5073089599609 118.1792144775391 127.3798294067383 114.6976928710938 129.8810272216797 110.9954299926758 C 132.4058685302734 107.258171081543 134.5743713378906 103.263053894043 136.3262939453125 99.12105560302734 C 139.97119140625 90.50350952148438 141.8193054199219 81.34828948974609 141.8193054199219 71.90965270996094 C 141.8193054199219 62.47103118896484 139.97119140625 53.31579208374023 136.3262939453125 44.69827270507813 C 134.5743713378906 40.5562744140625 132.4058685302734 36.56115341186523 129.8810272216797 32.82389450073242 C 127.3798294067383 29.12163352966309 124.5073089599609 25.64011192321777 121.3432540893555 22.47605323791504 C 118.1792144775391 19.31201362609863 114.6976928710938 16.43949317932129 110.9954299926758 13.93827247619629 C 107.258171081543 11.41343307495117 103.263053894043 9.244933128356934 99.12105560302734 7.49301290512085 C 90.50350952148438 3.848112821578979 81.34828948974609 1.999992728233337 71.90965270996094 1.999992728233337 C 62.47103118896484 1.999992728233337 53.31579208374023 3.848112821578979 44.69827270507813 7.49301290512085 C 40.5562744140625 9.244933128356934 36.56115341186523 11.41343307495117 32.82389450073242 13.93827247619629 C 29.12163352966309 16.43949317932129 25.64011192321777 19.31201362609863 22.47605323791504 22.47605323791504 C 19.31201362609863 25.64011192321777 16.43949317932129 29.12163352966309 13.93827247619629 32.82389450073242 C 11.41343307495117 36.56115341186523 9.244933128356934 40.5562744140625 7.49301290512085 44.69827270507813 C 3.848112821578979 53.31579208374023 1.999992728233337 62.47103118896484 1.999992728233337 71.90965270996094 C 1.999992728233337 81.34828948974609 3.848112821578979 90.50350952148438 7.49301290512085 99.12105560302734 C 9.244933128356934 103.263053894043 11.41343307495117 107.258171081543 13.93827247619629 110.9954299926758 C 16.43949317932129 114.6976928710938 19.31201362609863 118.1792144775391 22.47605323791504 121.3432540893555 C 25.64011192321777 124.5073089599609 29.12163352966309 127.3798294067383 32.82389450073242 129.8810272216797 C 36.56115341186523 132.4058685302734 40.5562744140625 134.5743713378906 44.69827270507813 136.3262939453125 C 53.31579208374023 139.97119140625 62.47103118896484 141.8193054199219 71.90965270996094 141.8193054199219 M 71.90965270996094 143.8193054199219 C 32.19505310058594 143.8193054199219 -7.290038865903625e-06 111.6242904663086 -7.290038865903625e-06 71.90965270996094 C -7.290038865903625e-06 32.19505310058594 32.19505310058594 -7.290038865903625e-06 71.90965270996094 -7.290038865903625e-06 C 111.6242904663086 -7.290038865903625e-06 143.8193054199219 32.19505310058594 143.8193054199219 71.90965270996094 C 143.8193054199219 111.6242904663086 111.6242904663086 143.8193054199219 71.90965270996094 143.8193054199219 Z"/>
      </g>
    </g>
    <g id="Group_298" data-name="Group 298" transform="translate(1 1.88)">
      <text id="Withdraw-2" data-name="Withdraw" class="cls-2" transform="translate(239 533.594)"><tspan x="0" y="0">Withdraw</tspan></text>
      <g id="Withdraw_icon" data-name="Withdraw icon" transform="translate(239 459.12)">
        <path id="Path_1" data-name="Path 1" class="cls-3" d="M64.474,96.9a1.007,1.007,0,0,1-2.015,0V82.291H2.015v18.8H8.164a1.007,1.007,0,1,1,0,2.015H1.007A1.008,1.008,0,0,1,0,102.1V81.283a1.008,1.008,0,0,1,1.008-1.007H63.465a1.008,1.008,0,0,1,1.007,1.007V96.9Zm-8.166,6.212h7.157a1.007,1.007,0,0,0,0-2.015H56.308a1.007,1.007,0,0,0,0,2.015Z" transform="translate(0 -80.276)"/>
        <path id="Path_2" data-name="Path 2" class="cls-3" d="M87.468,181.1a1.007,1.007,0,1,1,0-2.015H131.71a1.007,1.007,0,1,1,0,2.015Z" transform="translate(-77.352 -168.678)"/>
        <path id="Path_3" data-name="Path 3" class="cls-3" d="M121.281,228.494a1.007,1.007,0,1,1,0,2.015h-8.1v18.8H150.2v-18.8h-3.547a1.007,1.007,0,1,1,0-2.015h4.554a1.008,1.008,0,0,1,1.007,1.007v20.82a1.009,1.009,0,0,1-1.007,1.007H112.172a1.008,1.008,0,0,1-1.007-1.007V229.5a1.008,1.008,0,0,1,1.007-1.007Zm20.818,0H125.833a1.007,1.007,0,1,0,0,2.015H142.1a1.007,1.007,0,0,0,0-2.015Z" transform="translate(-99.454 -212.879)"/>
        <path id="Path_4" data-name="Path 4" class="cls-3" d="M112.172,471.385a1.007,1.007,0,1,1,0-2.015H151.21a1.007,1.007,0,0,1,0,2.015Z" transform="translate(-99.454 -428.379)"/>
        <path id="Path_5" data-name="Path 5" class="cls-3" d="M112.172,514.615a1.007,1.007,0,1,1,0-2.015H151.21a1.007,1.007,0,0,1,0,2.015Z" transform="translate(-99.454 -467.055)"/>
        <path id="Path_6" data-name="Path 6" class="cls-3" d="M197.626,229.5a1.007,1.007,0,0,1,2.015,0,9.4,9.4,0,0,0,16.049,6.651l0,0,0,0a9.372,9.372,0,0,0,2.754-6.647,1.007,1.007,0,1,1,2.015,0,11.387,11.387,0,0,1-3.343,8.074l0,0a11.414,11.414,0,0,1-19.487-8.072Z" transform="translate(-176.806 -212.879)"/>
        <path id="Path_7" data-name="Path 7" class="cls-3" d="M112.172,354.045a1.007,1.007,0,1,1,0-2.015,8.814,8.814,0,0,1,8.815,8.815,1.007,1.007,0,1,1-2.015,0,6.8,6.8,0,0,0-6.8-6.8Z" transform="translate(-99.454 -323.401)"/>
        <path id="Path_8" data-name="Path 8" class="cls-3" d="M416.416,352.03a1.007,1.007,0,1,1,0,2.015,6.778,6.778,0,0,0-4.808,1.988l0,0a6.778,6.778,0,0,0-1.987,4.808,1.007,1.007,0,1,1-2.015,0,8.792,8.792,0,0,1,2.582-6.229l0,0A8.792,8.792,0,0,1,416.416,352.03Z" transform="translate(-364.66 -323.401)"/>
      </g>
    </g>
  </g>
</svg>
