<svg xmlns="http://www.w3.org/2000/svg" viewBox="3005 1543 64.474 47.56">
  <defs>
    <style>
      .cls-1 {
        fill: #424242;
      }
    </style>
  </defs>
  <g id="Withdraw_icon" data-name="Withdraw icon" transform="translate(3005 1543)">
    <path id="Path_1" data-name="Path 1" class="cls-1" d="M64.474,96.9a1.007,1.007,0,0,1-2.015,0V82.291H2.015v18.8H8.164a1.007,1.007,0,1,1,0,2.015H1.007A1.008,1.008,0,0,1,0,102.1V81.283a1.008,1.008,0,0,1,1.008-1.007H63.465a1.008,1.008,0,0,1,1.007,1.007V96.9Zm-8.166,6.212h7.157a1.007,1.007,0,0,0,0-2.015H56.308a1.007,1.007,0,0,0,0,2.015Z" transform="translate(0 -80.276)"/>
    <path id="Path_2" data-name="Path 2" class="cls-1" d="M87.468,181.1a1.007,1.007,0,1,1,0-2.015H131.71a1.007,1.007,0,1,1,0,2.015Z" transform="translate(-77.352 -168.678)"/>
    <path id="Path_3" data-name="Path 3" class="cls-1" d="M121.281,228.494a1.007,1.007,0,1,1,0,2.015h-8.1v18.8H150.2v-18.8h-3.547a1.007,1.007,0,1,1,0-2.015h4.554a1.008,1.008,0,0,1,1.007,1.007v20.82a1.009,1.009,0,0,1-1.007,1.007H112.172a1.008,1.008,0,0,1-1.007-1.007V229.5a1.008,1.008,0,0,1,1.007-1.007Zm20.818,0H125.833a1.007,1.007,0,1,0,0,2.015H142.1a1.007,1.007,0,0,0,0-2.015Z" transform="translate(-99.454 -212.879)"/>
    <path id="Path_4" data-name="Path 4" class="cls-1" d="M112.172,471.385a1.007,1.007,0,1,1,0-2.015H151.21a1.007,1.007,0,0,1,0,2.015Z" transform="translate(-99.454 -428.379)"/>
    <path id="Path_5" data-name="Path 5" class="cls-1" d="M112.172,514.615a1.007,1.007,0,1,1,0-2.015H151.21a1.007,1.007,0,0,1,0,2.015Z" transform="translate(-99.454 -467.055)"/>
    <path id="Path_6" data-name="Path 6" class="cls-1" d="M197.626,229.5a1.007,1.007,0,0,1,2.015,0,9.4,9.4,0,0,0,16.049,6.651l0,0,0,0a9.372,9.372,0,0,0,2.754-6.647,1.007,1.007,0,1,1,2.015,0,11.387,11.387,0,0,1-3.343,8.074l0,0a11.414,11.414,0,0,1-19.487-8.072Z" transform="translate(-176.806 -212.879)"/>
    <path id="Path_7" data-name="Path 7" class="cls-1" d="M112.172,354.045a1.007,1.007,0,1,1,0-2.015,8.814,8.814,0,0,1,8.815,8.815,1.007,1.007,0,1,1-2.015,0,6.8,6.8,0,0,0-6.8-6.8Z" transform="translate(-99.454 -323.401)"/>
    <path id="Path_8" data-name="Path 8" class="cls-1" d="M416.416,352.03a1.007,1.007,0,1,1,0,2.015,6.778,6.778,0,0,0-4.808,1.988l0,0a6.778,6.778,0,0,0-1.987,4.808,1.007,1.007,0,1,1-2.015,0,8.792,8.792,0,0,1,2.582-6.229l0,0A8.792,8.792,0,0,1,416.416,352.03Z" transform="translate(-364.66 -323.401)"/>
  </g>
</svg>
