<?xml version="1.0" encoding="utf-8"?>
<!-- Generator: Adobe Illustrator 21.1.0, SVG Export Plug-In . SVG Version: 6.00 Build 0)  -->
<svg version="1.1" id="Layer_1" xmlns="http://www.w3.org/2000/svg" xmlns:xlink="http://www.w3.org/1999/xlink" x="0px" y="0px"
	 viewBox="0 0 143 143" style="enable-background:new 0 0 143 143;" xml:space="preserve">
<style type="text/css">
	.st0{fill:#FFFFFF;}
	.st1{fill:#424242;}
</style>
<g>
	<g>
		<path class="st0" d="M71.5,142c-9.4,0-18.8-1.9-27.5-5.5c-4.2-1.8-8.2-3.9-12-6.5c-3.7-2.5-7.2-5.4-10.4-8.6
			c-3.2-3.2-6.1-6.7-8.6-10.4c-2.5-3.8-4.7-7.8-6.5-12C2.9,90.3,1,80.9,1,71.5C1,62.1,2.9,52.7,6.6,44c1.8-4.2,3.9-8.2,6.5-12
			c2.5-3.7,5.4-7.2,8.6-10.4c3.2-3.2,6.7-6.1,10.4-8.6c3.8-2.5,7.8-4.7,12-6.5C52.7,2.9,62.1,1,71.5,1c9.4,0,18.8,1.9,27.5,5.5
			c4.2,1.8,8.2,3.9,12,6.5c3.7,2.5,7.2,5.4,10.4,8.6c3.2,3.2,6.1,6.7,8.6,10.4c2.5,3.8,4.7,7.8,6.5,12c3.7,8.7,5.5,18,5.5,27.5
			c0,9.4-1.9,18.8-5.5,27.5c-1.8,4.2-3.9,8.2-6.5,12c-2.5,3.7-5.4,7.2-8.6,10.4c-3.2,3.2-6.7,6.1-10.4,8.6c-3.8,2.5-7.8,4.7-12,6.5
			C90.3,140.1,80.9,142,71.5,142z"/>
		<path class="st1" d="M71.5,140.9c9.3,0,18.5-1.9,27-5.4c4.1-1.8,8.1-3.9,11.8-6.4c3.7-2.5,7.1-5.3,10.2-8.5
			c3.1-3.1,6-6.6,8.5-10.2c2.5-3.7,4.6-7.7,6.4-11.8c3.6-8.5,5.5-17.7,5.4-27c0-9.3-1.9-18.5-5.4-27c-1.8-4.1-3.9-8.1-6.4-11.8
			c-2.5-3.7-5.3-7.1-8.5-10.2c-3.1-3.1-6.6-6-10.2-8.5c-3.7-2.5-7.7-4.6-11.8-6.4c-8.5-3.6-17.7-5.5-27-5.4c-9.3,0-18.5,1.9-27,5.4
			c-4.1,1.8-8.1,3.9-11.8,6.4c-3.7,2.5-7.1,5.3-10.2,8.5c-3.1,3.1-6,6.6-8.5,10.2c-2.5,3.7-4.6,7.7-6.4,11.8
			c-3.6,8.5-5.5,17.7-5.4,27c0,9.3,1.8,18.5,5.4,27c1.8,4.1,3.9,8.1,6.4,11.8c2.5,3.7,5.3,7.1,8.5,10.2c3.1,3.1,6.6,6,10.2,8.5
			c3.7,2.5,7.7,4.6,11.8,6.4C53,139.1,62.2,141,71.5,140.9 M71.5,143C32,143,0,111,0,71.5C0,32,32,0,71.5,0C111,0,143,32,143,71.5
			C143,111,111,143,71.5,143L71.5,143z"/>
	</g>
	<g>
		<path class="st1" d="M39.7,105.3l0.2,1.5l0,0l0.3-1.5l2.2-7.7h1.5l2.2,7.7l0.3,1.6l0,0l0.2-1.6l1.8-7.7h1.6l-2.8,11.9h-1.5
			l-2.3-8.2l-0.2-1l0,0l-0.2,1l-2.4,8.2H39l-2.8-11.9h1.6L39.7,105.3z M53.4,98.3h-1.6v-1.7h1.6V98.3z M53.4,109.4h-1.6v-8.9h1.6
			V109.4z M58,98.5v2.1h1.7v1.1H58v5.3c0,0.3,0.1,0.6,0.2,0.8c0.2,0.1,0.5,0.2,0.7,0.2h0.3c0.1,0,0.2,0,0.3-0.1l0.2,1.1
			c-0.1,0.1-0.3,0.2-0.5,0.2c-0.2,0.1-0.5,0.1-0.7,0.1c-0.6,0-1.2-0.2-1.6-0.6c-0.5-0.5-0.7-1.2-0.6-1.9v-5.1H55v-1.1h1.4v-2.1H58
			L58,98.5z M63.4,101.8c0.3-0.4,0.7-0.7,1.1-0.9c0.5-0.2,1-0.3,1.5-0.3c0.8,0,1.6,0.3,2.2,0.8c0.6,0.7,0.9,1.7,0.8,2.6v5.5h-1.6
			v-5.6c0.1-0.6-0.1-1.1-0.4-1.6c-0.4-0.4-0.9-0.5-1.4-0.5c-0.4,0-0.9,0.1-1.3,0.3c-0.3,0.2-0.7,0.5-0.9,0.8v6.5h-1.6V96.7h1.6v5.1
			H63.4z M70.9,105.1c-0.1-1.2,0.3-2.4,0.9-3.4c0.6-0.8,1.5-1.3,2.5-1.4c0.5,0,0.9,0.1,1.4,0.3c0.4,0.2,0.8,0.5,1,0.8v-4.8h1.6v12.7
			h-1.4l-0.2-1c-0.3,0.4-0.6,0.7-1,0.9c-0.5,0.2-1,0.3-1.5,0.3c-1,0-1.9-0.4-2.5-1.1c-0.7-0.9-1-1.9-0.9-3v-0.3L70.9,105.1z
			 M72.4,105.3c0,0.8,0.2,1.5,0.5,2.2c0.4,0.6,1,0.9,1.7,0.8c0.4,0,0.9-0.1,1.3-0.3c0.4-0.2,0.7-0.5,0.8-0.9V103
			c-0.2-0.3-0.5-0.6-0.8-0.8c-0.3-0.2-0.7-0.3-1.1-0.3c-0.7,0-1.3,0.3-1.7,0.9c-0.4,0.8-0.5,1.6-0.5,2.5l0,0L72.4,105.3z M84.9,102
			H84c-0.4,0-0.7,0.1-1,0.3c-0.3,0.2-0.5,0.5-0.6,0.8v6.3h-1.6v-8.9h1.5l0.1,1.3c0.2-0.4,0.5-0.8,0.9-1c0.4-0.2,0.8-0.4,1.3-0.4h0.3
			c0.1,0,0.2,0,0.3,0.1L84.9,102z M91.9,109.4c-0.1-0.2-0.1-0.5-0.1-0.7c0-0.2,0-0.4-0.1-0.6c-0.3,0.4-0.7,0.8-1.1,1
			c-0.5,0.3-1,0.4-1.6,0.4c-0.8,0.1-1.5-0.2-2.1-0.7c-0.5-0.6-0.7-1.3-0.7-2c0-0.8,0.4-1.6,1-2c0.8-0.5,1.8-0.8,2.8-0.7h1.8v-0.8
			c0-0.5-0.2-0.9-0.5-1.3c-0.4-0.3-0.9-0.5-1.4-0.4c-0.5,0-0.9,0.1-1.3,0.4c-0.3,0.2-0.5,0.6-0.5,0.9h-1.6c0-0.7,0.4-1.4,0.9-1.8
			c0.7-0.6,1.6-0.9,2.5-0.8c0.9-0.1,1.7,0.2,2.4,0.7c0.6,0.5,1,1.4,0.9,2.2v5.2c0,0.3,0.1,0.6,0.2,0.8h-1.7L91.9,109.4z M89.1,108.3
			c0.6,0,1.1-0.1,1.6-0.4c0.4-0.3,0.7-0.6,0.9-1v-1.5h-1.8c-0.6,0-1.1,0.2-1.6,0.5c-0.4,0.3-0.6,0.7-0.6,1.1c0,0.4,0.1,0.7,0.4,0.9
			C88.4,108.2,88.8,108.3,89.1,108.3L89.1,108.3z M97.9,106.2l0.2,1l0,0l0.2-1l1.8-5.6h1.3l1.8,5.6l0.2,1.1l0,0l0.2-1.1l1.4-5.6h1.6
			l-2.6,8.9h-1.3l-1.7-5.3l-0.4-1.5l0,0l-0.3,1.5l-1.7,5.3h-1.3l-2.6-8.9h1.6L97.9,106.2z"/>
	</g>
	<g>
		<path class="st1" d="M90.4,76.3H51.6c-0.6,0-1-0.5-1-1c0-0.5,0.4-1,0.9-1c0,0,0.1,0,0.1,0h38.8c0.6,0,1,0.5,1,1
			C91.4,75.9,91,76.3,90.4,76.3z M38.9,34.6v20.7c0,0.6,0.5,1,1,1h7.1c0.6,0,1-0.5,1-1c0-0.5-0.4-1-0.9-1c0,0-0.1,0-0.1,0h-6.2V35.6
			H101v14.5c0,0.6,0.5,1,1,1c0.6,0,1-0.5,1-1l0,0V34.6c0-0.6-0.5-1-1-1H40C39.4,33.6,39,34,38.9,34.6z M50.6,79.9c0,0.6,0.5,1,1,1
			h38.8c0.6,0,1-0.5,1-1c0-0.6-0.5-1-1-1H51.7c-0.5,0-1,0.4-1,0.9C50.6,79.8,50.6,79.8,50.6,79.9L50.6,79.9z M49.1,45.9H93
			c0.6,0,1-0.5,1-1c0-0.6-0.5-1-1-1H49.1c-0.6,0-1,0.5-1,1C48,45.5,48.5,45.9,49.1,45.9z M93.9,55.2c0,0.6,0.5,1,1,1h7.1
			c0.6,0,1-0.5,1-1c0-0.5-0.4-1-0.9-1c0,0-0.1,0-0.1,0H95C94.4,54.2,94,54.7,93.9,55.2z M91.4,50.1v20.7c0,0.6-0.5,1-1,1H51.7
			c-0.6,0-1-0.5-1-1v-7.7l0,0V50.1c0-0.6,0.5-1,1-1h9.1c0.6,0,1,0.5,1,1l0,0c0,5.2,4.2,9.3,9.4,9.3c0,0,0,0,0,0c2.5,0,4.8-1,6.6-2.7
			c1.5-1.5,2.5-3.5,2.7-5.6H65.3c-0.6,0-1-0.5-1-1c0-0.6,0.5-1,1-1h16.2c0.6,0,1,0.5,1,1l0,0c0,3-1.2,5.9-3.3,8
			c-4.5,4.4-11.6,4.4-16.1,0c-1.9-1.9-3-4.4-3.2-7h-7.1v11.1c4.1,0.5,7.3,3.7,7.7,7.7h21.4c0.2-2,1.1-3.8,2.5-5.2
			c1.4-1.4,3.2-2.3,5.2-2.5V51.1h-3.5c-0.6,0-1-0.5-1-1c0-0.6,0.5-1,1-1h4.5C91.1,49.2,91.4,49.6,91.4,50.1L91.4,50.1z M58.2,69.7
			c-0.4-2.9-2.7-5.2-5.6-5.6v5.6H58.2z M89.3,64.1c-1.4,0.2-2.7,0.9-3.8,1.9c-1,1-1.7,2.3-1.9,3.8h5.6L89.3,64.1L89.3,64.1z"/>
	</g>
</g>
</svg>
