<svg xmlns="http://www.w3.org/2000/svg" viewBox="2970 1510 143 143">
  <defs>
    <style>
      .cls-1 {
        fill: #fff;
      }

      .cls-2 {
        fill: #424242;
      }
    </style>
  </defs>
  <g id="Withdraw_button" data-name="Withdraw button" transform="translate(5627 1507.1)">
    <g id="Group_324" data-name="Group 324" transform="translate(-2657 2.9)">
      <g id="circel-2" transform="translate(0)">
        <path id="Path_738" data-name="Path 738" class="cls-1" d="M-2781.544-266.188A70.862,70.862,0,0,1-2809-271.72a73.842,73.842,0,0,1-12-6.472,74.653,74.653,0,0,1-10.438-8.559A67.956,67.956,0,0,1-2840-297.188a73.857,73.857,0,0,1-6.471-12A70.478,70.478,0,0,1-2852-336.644a70.861,70.861,0,0,1,5.532-27.452,73.857,73.857,0,0,1,6.471-12,74.662,74.662,0,0,1,8.559-10.438A67.957,67.957,0,0,1-2821-395.1a73.845,73.845,0,0,1,12-6.472,70.479,70.479,0,0,1,27.452-5.532,70.863,70.863,0,0,1,27.452,5.532,73.852,73.852,0,0,1,12,6.472,74.665,74.665,0,0,1,10.438,8.559,67.943,67.943,0,0,1,8.559,10.438,73.839,73.839,0,0,1,6.472,12,70.483,70.483,0,0,1,5.532,27.452,70.866,70.866,0,0,1-5.532,27.452,73.839,73.839,0,0,1-6.472,12,74.626,74.626,0,0,1-8.559,10.438,67.968,67.968,0,0,1-10.438,8.559,73.855,73.855,0,0,1-12,6.472A69.006,69.006,0,0,1-2781.544-266.188Z" transform="translate(2853.044 408.144)"/>
        <path id="Path_739" data-name="Path 739" class="cls-2" d="M-2781.5-267.188a70.234,70.234,0,0,0,27.034-5.428,75.822,75.822,0,0,0,11.795-6.367,72.16,72.16,0,0,0,10.229-8.455,72.189,72.189,0,0,0,8.455-10.229,67.981,67.981,0,0,0,6.367-11.795,68.354,68.354,0,0,0,5.428-27.034,70.236,70.236,0,0,0-5.428-27.034,75.8,75.8,0,0,0-6.367-11.795,72.187,72.187,0,0,0-8.455-10.229,72.159,72.159,0,0,0-10.229-8.455,67.946,67.946,0,0,0-11.795-6.367A68.354,68.354,0,0,0-2781.5-405.8a70.232,70.232,0,0,0-27.034,5.428,75.773,75.773,0,0,0-11.795,6.367,72.163,72.163,0,0,0-10.229,8.455,72.151,72.151,0,0,0-8.455,10.229,67.949,67.949,0,0,0-6.368,11.795,68.353,68.353,0,0,0-5.427,27.034,70.236,70.236,0,0,0,5.427,27.034,75.768,75.768,0,0,0,6.368,11.795,72.152,72.152,0,0,0,8.455,10.229,72.164,72.164,0,0,0,10.229,8.455,67.913,67.913,0,0,0,11.795,6.367,68.352,68.352,0,0,0,27.034,5.428m0,2.088a71.542,71.542,0,0,1-71.5-71.5,71.542,71.542,0,0,1,71.5-71.5,71.542,71.542,0,0,1,71.5,71.5A71.542,71.542,0,0,1-2781.5-265.1Z" transform="translate(2853 408.1)"/>
      </g>
    </g>
    <g id="Group_319" transform="translate(-2620.78 36.426)">
      <path id="Path_740" data-name="Path 740" class="cls-2" d="M-2618.856,103.764l.209,1.461h0l.313-1.461,2.192-7.724h1.461l2.192,7.724.313,1.566h0l.209-1.566,1.774-7.724h1.566l-2.818,11.9h-1.461l-2.3-8.246-.209-1.044h0l-.209,1.044-2.4,8.246h-1.461l-2.818-11.9h1.566Zm13.778-6.993h-1.566V95.1h1.566Zm0,11.064h-1.566V98.962h1.566Zm4.593-10.96v2.088h1.67v1.148h-1.67v5.323a1.35,1.35,0,0,0,.209.835,1.216,1.216,0,0,0,.731.209h.313a.384.384,0,0,0,.313-.1l.209,1.148a.8.8,0,0,1-.522.209,1.546,1.546,0,0,1-.73.1,2.124,2.124,0,0,1-1.566-.626,2.552,2.552,0,0,1-.626-1.879v-5.115h-1.357V99.066h1.357V96.979h1.67Zm5.323,3.34a2.553,2.553,0,0,1,1.148-.939,3.334,3.334,0,0,1,1.461-.313,2.99,2.99,0,0,1,2.192.835,3.717,3.717,0,0,1,.835,2.609v5.532h-1.566V102.3a2.167,2.167,0,0,0-.417-1.566,1.8,1.8,0,0,0-1.357-.522,2.78,2.78,0,0,0-1.253.313,6.752,6.752,0,0,0-.939.835v6.472h-1.566V95.1h1.566v5.115Zm7.515,3.34a5.625,5.625,0,0,1,.939-3.445,3.074,3.074,0,0,1,2.505-1.357,2.89,2.89,0,0,1,1.357.313,2.65,2.65,0,0,1,1.044.835V95.1h1.566v12.734h-1.357l-.209-1.044a2.962,2.962,0,0,1-1.044.939,3.334,3.334,0,0,1-1.461.313,3.176,3.176,0,0,1-2.505-1.148,4.565,4.565,0,0,1-.939-3.027v-.313Zm1.566.209a4.534,4.534,0,0,0,.522,2.192,1.9,1.9,0,0,0,1.67.835,2.48,2.48,0,0,0,1.253-.313,1.843,1.843,0,0,0,.835-.939v-4.071a3.175,3.175,0,0,0-.835-.835,2.1,2.1,0,0,0-1.148-.313,1.771,1.771,0,0,0-1.67.939,5.589,5.589,0,0,0-.522,2.505h0Zm12.421-3.34h-.835a1.763,1.763,0,0,0-1.044.313,1.624,1.624,0,0,0-.626.835v6.263h-1.566V98.962h1.461l.1,1.253a2.286,2.286,0,0,1,.939-1.044,2.968,2.968,0,0,1,1.253-.418h.313a.384.384,0,0,1,.313.1Zm6.993,7.411a2.036,2.036,0,0,1-.1-.731,1.323,1.323,0,0,0-.1-.626,5.462,5.462,0,0,1-1.148,1.044,2.718,2.718,0,0,1-1.566.418,2.551,2.551,0,0,1-2.088-.731,3.064,3.064,0,0,1-.73-1.983,2.26,2.26,0,0,1,1.044-1.983,4.521,4.521,0,0,1,2.818-.731h1.774v-.835a1.729,1.729,0,0,0-.522-1.253,1.772,1.772,0,0,0-1.357-.418,1.664,1.664,0,0,0-1.252.418,1.443,1.443,0,0,0-.522.939h-1.566a2.333,2.333,0,0,1,.939-1.774,3.808,3.808,0,0,1,2.5-.835,3.481,3.481,0,0,1,2.4.731,2.7,2.7,0,0,1,.939,2.192v5.219a1.968,1.968,0,0,0,.209.835h-1.669Zm-2.714-1.148a2.515,2.515,0,0,0,1.566-.418,2.958,2.958,0,0,0,.939-1.044v-1.461h-1.774a2.564,2.564,0,0,0-1.566.522,1.443,1.443,0,0,0-.626,1.148,1.018,1.018,0,0,0,.417.939A1.764,1.764,0,0,0-2569.38,106.686Zm8.768-2.088.209,1.044h0l.208-1.044,1.774-5.636h1.253l1.774,5.636.208,1.148h0l.209-1.148,1.357-5.636h1.566l-2.61,8.872h-1.252l-1.67-5.323-.417-1.461h0l-.313,1.461-1.67,5.323h-1.252l-2.609-8.872h1.566Z" transform="translate(2622.3 -31.95)"/>
      <path id="Path_741" data-name="Path 741" class="cls-2" d="M-2568.241,77.4h-38.829a1.046,1.046,0,0,1-1.044-1.044.986.986,0,0,1,1.044-1.044h38.829a1.046,1.046,0,0,1,1.044,1.044A1.046,1.046,0,0,1-2568.241,77.4ZM-2619.7,35.644V56.311a1.046,1.046,0,0,0,1.044,1.044h7.1a1.046,1.046,0,0,0,1.044-1.044.986.986,0,0,0-1.044-1.044h-6.158V36.688h60.123V51.2a1.046,1.046,0,0,0,1.044,1.044,1.046,1.046,0,0,0,1.044-1.044h0V35.644a1.046,1.046,0,0,0-1.044-1.044h-62.106A1.123,1.123,0,0,0-2619.7,35.644Zm11.691,45.3a1.046,1.046,0,0,0,1.044,1.044h38.829a1.046,1.046,0,0,0,1.044-1.044,1.046,1.046,0,0,0-1.044-1.044h-38.829A.986.986,0,0,0-2608.01,80.945Zm-1.566-33.923h43.944a1.046,1.046,0,0,0,1.044-1.044,1.046,1.046,0,0,0-1.044-1.044h-43.944a1.046,1.046,0,0,0-1.044,1.044A1.046,1.046,0,0,0-2609.575,47.021Zm44.883,9.29a1.046,1.046,0,0,0,1.044,1.044h7.1a1.046,1.046,0,0,0,1.044-1.044.986.986,0,0,0-1.044-1.044h-7.1A1.118,1.118,0,0,0-2564.692,56.311Zm-2.5-5.115V71.863a1.046,1.046,0,0,1-1.044,1.044h-38.725a1.046,1.046,0,0,1-1.044-1.044V64.139h0V51.2a1.046,1.046,0,0,1,1.044-1.044h9.081a1.046,1.046,0,0,1,1.044,1.044h0a9.333,9.333,0,0,0,9.394,9.29,9.151,9.151,0,0,0,6.576-2.714,9.274,9.274,0,0,0,2.714-5.636h-15.135a1.046,1.046,0,0,1-1.044-1.044,1.046,1.046,0,0,1,1.044-1.044h16.179a1.046,1.046,0,0,1,1.044,1.044h0a11.037,11.037,0,0,1-3.34,8.037,11.467,11.467,0,0,1-16.074,0,11.2,11.2,0,0,1-3.236-6.993h-7.1V63.2a8.765,8.765,0,0,1,7.724,7.724h21.4a9.1,9.1,0,0,1,2.505-5.219,8.8,8.8,0,0,1,5.219-2.505V52.136h-3.549a1.046,1.046,0,0,1-1.044-1.044,1.046,1.046,0,0,1,1.044-1.044h4.488A1.289,1.289,0,0,1-2567.2,51.2ZM-2600.39,70.82a6.643,6.643,0,0,0-5.636-5.636V70.82Zm31.105-5.636a6.477,6.477,0,0,0-3.758,1.879,6.8,6.8,0,0,0-1.879,3.758h5.636V65.183Z" transform="translate(2622.414 -34.6)"/>
    </g>
  </g>
</svg>
