<?xml version="1.0" encoding="utf-8"?>
<!-- Generator: Adobe Illustrator 21.1.0, SVG Export Plug-In . SVG Version: 6.00 Build 0)  -->
<svg version="1.1" id="Layer_1" xmlns="http://www.w3.org/2000/svg" xmlns:xlink="http://www.w3.org/1999/xlink" x="0px" y="0px"
	 viewBox="0 0 23 23" style="enable-background:new 0 0 23 23;" xml:space="preserve">
<style type="text/css">
	.st0{fill:#FBC02D;}
</style>
<g>
	<path class="st0" d="M12.9,11.3l-0.2,0.6c-0.7,2.4-1.8,3.5-3.1,3.5c-0.7,0-1.4-0.4-1.8-1.1c-0.4-0.9-0.7-1.8-0.6-2.8
		c0-1,0.2-2.1,0.7-3C8.3,7.7,9.1,7.3,10,7.3C11.4,7.4,12.4,8.7,12.9,11.3z"/>
	<path class="st0" d="M18.4,0H4.6C2.1,0,0,2.1,0,4.6v13.8C0,20.9,2.1,23,4.6,23h13.8c2.5,0,4.6-2.1,4.6-4.6V4.6
		C23,2.1,20.9,0,18.4,0z M18.4,17.3L18.4,17.3c-0.5,0.2-1.1,0.3-1.7,0.3c-1.6,0-2.6-0.9-3-2.7h-0.1c-0.7,1.7-2.4,2.9-4.3,2.9
		c-1.4,0.1-2.7-0.5-3.5-1.6C4.9,15,4.4,13.5,4.5,12C4.5,10.1,5,8.5,6,7.2C7,6,8.5,5.3,10,5.3c1.7-0.1,3.3,0.9,3.9,2.5H14l0.7-2.2
		h3.5l-2.5,6c0.2,0.9,0.5,1.7,0.9,2.5c0.2,0.4,0.6,0.7,1.1,0.7c0.3,0,0.6,0,0.9-0.2C18.5,15,18.4,15.9,18.4,17.3z"/>
</g>
</svg>
