<?xml version="1.0" encoding="utf-8"?>
<!-- Generator: Adobe Illustrator 21.1.0, SVG Export Plug-In . SVG Version: 6.00 Build 0)  -->
<svg version="1.1" id="Layer_1" xmlns="http://www.w3.org/2000/svg" xmlns:xlink="http://www.w3.org/1999/xlink" x="0px" y="0px"
	 viewBox="0 0 25 22.2" style="enable-background:new 0 0 25 22.2;" xml:space="preserve">
<style type="text/css">
	.st0{fill:#1B1B1B;}
</style>
<path class="st0" d="M23.5,16.9c-0.8-0.1-1.6-0.6-1.9-1.3c-0.7-1.4-1.3-2.9-1.6-4.4l4.5-10.7h-6.2l-1.2,4h-0.1
	C15.8,1.6,13-0.2,9.9,0C7.1-0.1,4.4,1.1,2.7,3.3C0.8,5.7-0.1,8.6,0,11.7c-0.1,2.7,0.7,5.4,2.3,7.6c1.5,1.9,3.8,3,6.3,2.9
	c3.4,0,6-1.7,7.8-5.1h0.1c0.8,3.2,2.6,4.9,5.4,4.9c1,0,2-0.2,3-0.5l0,0c0-2.5,0.1-4,0.1-4.8C24.5,16.8,24,16.9,23.5,16.9z
	 M14.6,11.9c-1.3,4.2-3.1,6.4-5.5,6.4c-1.3,0-2.6-0.7-3.1-1.9C4.4,13,4.5,9.2,6.2,6c0.7-1.4,2.2-2.2,3.7-2.2c2.4,0,4.1,2.3,5.1,7
	L14.6,11.9z"/>
</svg>
