<svg xmlns="http://www.w3.org/2000/svg" viewBox="2754.31 116.31 23.1 23.1">
  <defs>
    <style>
      .cls-1 {
        fill: #fbc02d;
      }
    </style>
  </defs>
  <g id="Group_283" data-name="Group 283" transform="translate(2754.31 116.31)">
    <path id="Path_77" data-name="Path 77" class="cls-1" d="M71.119,69.37A2.33,2.33,0,0,0,69.032,70.6a5.678,5.678,0,0,0-.752,3,5.49,5.49,0,0,0,.624,2.778,1.944,1.944,0,0,0,1.762,1.077q2,0,3.095-3.56l.191-.611Q73.162,69.37,71.119,69.37Z" transform="translate(-61.02 -61.902)"/>
    <path id="Path_78" data-name="Path 78" class="cls-1" d="M48.732,30.25H34.868a4.635,4.635,0,0,0-4.618,4.618V48.732a4.635,4.635,0,0,0,4.618,4.618H48.732a4.635,4.635,0,0,0,4.618-4.618V34.868A4.635,4.635,0,0,0,48.732,30.25Zm.021,17.338a4.549,4.549,0,0,1-1.669.288q-2.4,0-3.055-2.728h-.074a4.663,4.663,0,0,1-4.343,2.864,4.269,4.269,0,0,1-3.524-1.627,6.6,6.6,0,0,1-1.294-4.253,7.191,7.191,0,0,1,1.5-4.685A4.923,4.923,0,0,1,40.32,35.6a3.869,3.869,0,0,1,3.916,2.535h.053l.685-2.247h3.488l-2.5,5.981a9.241,9.241,0,0,0,.893,2.47,1.294,1.294,0,0,0,1.075.748,2.264,2.264,0,0,0,.876-.16q-.021.6-.052,2.665Z" transform="translate(-30.25 -30.25)"/>
  </g>
</svg>
