<svg xmlns="http://www.w3.org/2000/svg" viewBox="3266 167.884 25 22.156">
  <defs>
    <style>
      .cls-1 {
        fill: #1b1b1b;
      }
    </style>
  </defs>
  <path id="Alpha_wallet_symbol" data-name="Alpha wallet symbol" class="cls-1" d="M77.457,75.18a2.327,2.327,0,0,1-1.918-1.335,16.365,16.365,0,0,1-1.594-4.408l4.462-10.672H72.184l-1.223,4.009h-.1a6.9,6.9,0,0,0-6.987-4.524,8.772,8.772,0,0,0-7.181,3.3A12.912,12.912,0,0,0,54,69.914a11.825,11.825,0,0,0,2.31,7.59,7.606,7.606,0,0,0,6.288,2.9q5.134,0,7.75-5.11h.133q1.175,4.868,5.45,4.868a8.118,8.118,0,0,0,2.977-.514h0q.055-3.686.092-4.769A4.04,4.04,0,0,1,77.457,75.18Zm-8.809-5.062q-1.962,6.353-5.522,6.353a3.449,3.449,0,0,1-3.144-1.921,11.462,11.462,0,0,1,.225-10.318,4.163,4.163,0,0,1,3.723-2.194q3.645,0,5.055,6.99Z" transform="translate(3212 109.634)"/>
</svg>
