<?xml version="1.0" encoding="utf-8"?>
<!-- Generator: Adobe Illustrator 21.1.0, SVG Export Plug-In . SVG Version: 6.00 Build 0)  -->
<svg version="1.1" id="Layer_1" xmlns="http://www.w3.org/2000/svg" xmlns:xlink="http://www.w3.org/1999/xlink" x="0px" y="0px"
	 viewBox="0 0 21 14.2" style="enable-background:new 0 0 21 14.2;" xml:space="preserve">
<g id="Group_285" transform="translate(2296 180.993)">
	<path d="M-2280.4-181c-3,0-5.4,1.3-5.4,2.9v0.5c-0.6,0-1.3,0.2-1.9,0.5c-0.9-0.3-1.9-0.4-2.9-0.4c-3,0-5.4,1.3-5.4,2.9v5.1
		c0,1.6,2.4,2.9,5.4,2.9c1,0,2-0.1,2.9-0.4c1.4,0.6,2.9,0.6,4.3,0c0.9,0.3,1.9,0.5,2.9,0.4c3,0,5.4-1.3,5.4-2.9v-8.4
		C-2275-179.7-2277.4-181-2280.4-181z M-2283.9-179.6c1.1-0.5,2.3-0.7,3.5-0.7c1.2,0,2.4,0.2,3.5,0.7c0.8,0.4,1.3,1,1.3,1.5
		c0,0.5-0.5,1.1-1.3,1.5c-1.1,0.5-2.3,0.7-3.5,0.7c-0.4,0-0.8,0-1.2-0.1c-0.9-1-2.1-1.5-3.4-1.6c-0.1-0.2-0.1-0.3-0.1-0.5
		C-2285.2-178.7-2284.7-179.2-2283.9-179.6z M-2285.5-167.5c-1.2,0-2.3-0.4-3.2-1.2c-0.5-0.4-0.9-1-1.2-1.6
		c-0.2-0.5-0.4-1.1-0.4-1.7c0-0.1,0-0.2,0-0.4c0-0.1,0-0.2,0-0.3c0.1-2.4,2-4.3,4.4-4.5c0.1,0,0.2,0,0.3,0h0.1c0.1,0,0.2,0,0.2,0
		c0.8,0.1,1.6,0.3,2.2,0.7c0.8,0.5,1.4,1.2,1.8,2c0.3,0.5,0.4,1.1,0.4,1.7c0,0.1,0,0.2,0,0.3c0,0.1,0,0.2,0,0.3
		c0,0.6-0.2,1.1-0.4,1.7c-0.5,1-1.2,1.8-2.2,2.3C-2284-167.6-2284.8-167.5-2285.5-167.5L-2285.5-167.5z M-2294-176.3
		c1.1-0.5,2.3-0.7,3.5-0.7c0.7,0,1.4,0.1,2.1,0.2c-1.4,0.9-2.3,2.5-2.4,4.2c-1.1,0-2.2-0.3-3.1-0.7c-0.8-0.4-1.3-1-1.3-1.5
		S-2294.9-175.8-2294-176.3z M-2290.9-171.9c0,0.3,0.1,0.7,0.2,1c-1.1,0-2.3-0.2-3.3-0.7c-0.8-0.4-1.3-1-1.3-1.5v-0.3
		C-2294.1-172.4-2292.5-171.8-2290.9-171.9z M-2290.6-170.2L-2290.6-170.2c0.2,0.4,0.4,0.7,0.6,1c-0.2,0-0.4,0-0.6,0
		c-1.2,0-2.4-0.2-3.5-0.7c-0.8-0.4-1.3-1-1.3-1.5v-0.3C-2294-170.6-2292.3-170.1-2290.6-170.2z M-2290.6-167.5
		c-1.2,0-2.4-0.2-3.5-0.7c-0.8-0.4-1.3-1-1.3-1.5v-0.3c1.4,1.1,3,1.6,4.8,1.5c0.4,0,0.7,0,1.1-0.1c0.3,0.3,0.6,0.6,1,0.8
		C-2289.2-167.5-2289.9-167.5-2290.6-167.5L-2290.6-167.5z M-2275.6-169.7c0,0.5-0.5,1.1-1.3,1.5c-1.1,0.5-2.3,0.7-3.5,0.7
		c-0.7,0-1.4-0.1-2.1-0.2c0.4-0.2,0.7-0.5,1-0.8c0.4,0,0.7,0.1,1.1,0.1c1.7,0.1,3.4-0.4,4.8-1.5L-2275.6-169.7z M-2275.6-171.4
		c0,0.5-0.5,1.1-1.3,1.5c-1.1,0.5-2.3,0.7-3.5,0.7c-0.2,0-0.4,0-0.6,0c0.2-0.3,0.4-0.7,0.6-1h0.1c1.7,0.1,3.4-0.4,4.8-1.5V-171.4
		L-2275.6-171.4z M-2275.6-173.1c0,0.5-0.5,1.1-1.3,1.5c-1,0.5-2.2,0.7-3.3,0.7c0.1-0.3,0.1-0.7,0.2-1c1.6,0,3.2-0.5,4.5-1.5V-173.1
		z M-2275.6-174.7c0,0.5-0.5,1.1-1.3,1.5c-1,0.5-2.1,0.7-3.1,0.7c0-0.4-0.1-0.7-0.2-1.1c1.7,0.1,3.3-0.5,4.6-1.5V-174.7z
		 M-2275.6-176.4c0,0.5-0.5,1.1-1.3,1.5c-1.1,0.5-2.3,0.7-3.5,0.7h-0.1c-0.1-0.4-0.3-0.7-0.6-1c0.2,0,0.4,0,0.6,0
		c1.7,0.1,3.4-0.4,4.8-1.5V-176.4z"/>
	<path d="M-2283.4-170.8c0-0.2,0-0.4-0.1-0.6c-0.3-0.6-0.9-1-1.5-1.1c-0.1,0-0.1,0-0.2,0v-2.2c0.6,0,1.1,0.5,1.2,1.1
		c0,0.2,0.1,0.3,0.3,0.3s0.3-0.1,0.3-0.3c0,0,0,0,0,0c0-0.1,0-0.2,0-0.4c-0.3-0.8-1-1.3-1.8-1.4v-0.4c0-0.2-0.1-0.3-0.3-0.3
		c-0.1,0-0.2,0-0.3,0.1l0,0c0,0.1-0.1,0.1-0.1,0.2v0.4c-0.1,0-0.2,0-0.2,0c-0.9,0.1-1.5,0.8-1.6,1.7c0,0.2,0,0.4,0.1,0.6
		c0.1,0.2,0.2,0.4,0.4,0.5c0.2,0.2,0.5,0.4,0.7,0.5c0.2,0.1,0.4,0.1,0.5,0.1v2.2l0,0c-0.1,0-0.2,0-0.3-0.1c-0.2-0.1-0.4-0.2-0.6-0.4
		c-0.2-0.2-0.3-0.4-0.3-0.7c0-0.2-0.1-0.3-0.3-0.3s-0.3,0.1-0.3,0.3c0,0,0,0,0,0c0,0,0,0.1,0,0.1c0,0.3,0.2,0.6,0.4,0.9
		c0.2,0.2,0.3,0.3,0.5,0.5c0.2,0.1,0.5,0.2,0.7,0.3c0.1,0,0.1,0,0.2,0v0.4c0,0.2,0.1,0.3,0.3,0.3c0.2,0,0.3-0.1,0.3-0.3v-0.4
		c0.1,0,0.1,0,0.2,0c0.2-0.1,0.5-0.1,0.7-0.3c0.2-0.1,0.4-0.3,0.5-0.5c0.2-0.2,0.3-0.5,0.4-0.9
		C-2283.4-170.7-2283.4-170.7-2283.4-170.8z M-2285.9-172.6c-0.2,0-0.4-0.1-0.6-0.2c-0.2-0.1-0.3-0.3-0.4-0.5c0-0.1-0.1-0.2-0.1-0.3
		c0.1-0.6,0.6-1.1,1.2-1.1l0,0v2.2C-2285.9-172.6-2285.9-172.6-2285.9-172.6z M-2284-170.8c0,0.3-0.1,0.5-0.3,0.7
		c-0.2,0.2-0.4,0.3-0.6,0.4c-0.1,0-0.2,0.1-0.3,0.1l0,0v-2.2c0.6,0,1,0.4,1.2,1C-2284-170.9-2284-170.8-2284-170.8L-2284-170.8z"/>
</g>
</svg>
