<svg xmlns="http://www.w3.org/2000/svg" viewBox="2298 433 20 16">
  <path id="Chart" d="M19.56,59.446H16.9V48.423l1.041-1.012v1.574a.441.441,0,0,0,.881,0V46.321a.437.437,0,0,0-.44-.433h-2.71a.433.433,0,1,0,0,.866H17.36l-6.569,6.388L7.676,50.059a.444.444,0,0,0-.313-.128h0a.444.444,0,0,0-.313.128L1.113,55.943a.428.428,0,0,0,0,.612.446.446,0,0,0,.623,0l.528-.523v3.417H.881v-14.7a.437.437,0,0,0-.44-.433.437.437,0,0,0-.44.433V59.879a.437.437,0,0,0,.44.433H19.56a.433.433,0,1,0,0-.866Zm-3.545,0H11.229V53.934l4.786-4.654ZM7.8,51.415l2.544,2.518v5.514H7.8ZM3.148,55.156l3.776-3.741v8.031H3.148Z" transform="translate(2298 388.688)"/>
</svg>
