<?xml version="1.0" encoding="utf-8"?>
<!-- Generator: Adobe Illustrator 21.1.0, SVG Export Plug-In . SVG Version: 6.00 Build 0)  -->
<svg version="1.1" id="Layer_1" xmlns="http://www.w3.org/2000/svg" xmlns:xlink="http://www.w3.org/1999/xlink" x="0px" y="0px"
	 viewBox="0 0 20 16" style="enable-background:new 0 0 20 16;" xml:space="preserve">
<path d="M19.6,15.1h-2.7v-11l1-1v1.6c0,0.2,0.2,0.4,0.5,0.4c0.2,0,0.4-0.2,0.4-0.4V2c0-0.2-0.2-0.4-0.4-0.4h-2.7
	c-0.2,0-0.4,0.2-0.4,0.4c0,0.2,0.2,0.4,0.4,0.4l0,0h1.7l-6.6,6.4L7.7,5.7C7.6,5.7,7.5,5.6,7.4,5.6l0,0c-0.1,0-0.2,0-0.3,0.1
	l-5.9,5.9c-0.2,0.2-0.2,0.4,0,0.6c0,0,0,0,0,0c0.2,0.2,0.4,0.2,0.6,0l0.5-0.5v3.4H0.9V0.4C0.9,0.2,0.7,0,0.4,0C0.2,0,0,0.2,0,0.4
	v15.1C0,15.8,0.2,16,0.4,16h19.1c0.2,0,0.4-0.2,0.4-0.4C20,15.3,19.8,15.1,19.6,15.1z M16,15.1h-4.8V9.6L16,5V15.1z M7.8,7.1
	l2.5,2.5v5.5H7.8V7.1z M3.1,10.8l3.8-3.7v8H3.1V10.8z"/>
</svg>
