<svg xmlns="http://www.w3.org/2000/svg" viewBox="2298 242 21 14.173">
  <g id="Group_285" data-name="Group 285" transform="translate(2296 180.993)">
    <path id="Path_29" data-name="Path 29" d="M15.588,58.007c-3.035,0-5.412,1.26-5.412,2.868v.491a5.372,5.372,0,0,0-1.868.454,9.339,9.339,0,0,0-2.9-.432C2.377,61.388,0,62.648,0,64.256v5.056c0,1.608,2.377,2.868,5.412,2.868a9.307,9.307,0,0,0,2.938-.446,5.407,5.407,0,0,0,4.3,0,9.306,9.306,0,0,0,2.938.446c3.035,0,5.412-1.26,5.412-2.868V60.875C21,59.267,18.623,58.007,15.588,58.007Zm-3.453,1.358a7.913,7.913,0,0,1,3.453-.711,7.912,7.912,0,0,1,3.453.711c.833.417,1.311.967,1.311,1.509s-.478,1.093-1.311,1.509a7.91,7.91,0,0,1-3.453.711,9.737,9.737,0,0,1-1.184-.071,5.4,5.4,0,0,0-3.447-1.648,1.064,1.064,0,0,1-.134-.5C10.824,60.332,11.3,59.782,12.135,59.365ZM10.5,71.533a4.751,4.751,0,0,1-3.166-1.207,4.79,4.79,0,0,1-1.157-1.554,4.733,4.733,0,0,1-.429-1.653q-.013-.174-.013-.35c0-.1,0-.2.01-.3a4.76,4.76,0,0,1,4.431-4.456c.107-.007.215-.011.324-.011h.1q.114,0,.226.01a4.733,4.733,0,0,1,2.22.726,4.8,4.8,0,0,1,1.767,2,4.729,4.729,0,0,1,.445,1.732c.006.1.01.2.01.3q0,.177-.013.35a4.731,4.731,0,0,1-.429,1.653,4.794,4.794,0,0,1-2.2,2.263,4.735,4.735,0,0,1-2.12.5ZM1.959,62.747a7.913,7.913,0,0,1,3.453-.711,9.2,9.2,0,0,1,2.088.231,5.414,5.414,0,0,0-2.4,4.2,7.7,7.7,0,0,1-3.137-.706C1.126,65.349.648,64.8.648,64.256S1.126,63.164,1.959,62.747ZM5.1,67.12a5.391,5.391,0,0,0,.167,1.031,7.818,7.818,0,0,1-3.308-.71c-.833-.417-1.311-.967-1.311-1.509v-.293A6.814,6.814,0,0,0,5.1,67.12ZM5.412,68.8h.072a5.408,5.408,0,0,0,.562,1.039q-.312.02-.634.02a7.912,7.912,0,0,1-3.453-.711C1.126,68.73.648,68.18.648,67.638v-.325A7.022,7.022,0,0,0,5.412,68.8Zm0,2.734a7.911,7.911,0,0,1-3.453-.711C1.126,70.4.648,69.855.648,69.312v-.293a7.022,7.022,0,0,0,4.764,1.487,10.483,10.483,0,0,0,1.122-.059,5.447,5.447,0,0,0,1,.847A9.173,9.173,0,0,1,5.412,71.533Zm14.94-2.22c0,.542-.478,1.093-1.311,1.509a7.91,7.91,0,0,1-3.453.711,9.172,9.172,0,0,1-2.123-.239,5.457,5.457,0,0,0,1-.847,10.482,10.482,0,0,0,1.122.059,7.021,7.021,0,0,0,4.764-1.487Zm0-1.675c0,.542-.478,1.093-1.311,1.509a7.91,7.91,0,0,1-3.453.711q-.321,0-.634-.02a5.4,5.4,0,0,0,.562-1.039h.072a7.021,7.021,0,0,0,4.764-1.487v.325Zm0-1.707c0,.543-.478,1.093-1.311,1.509a7.815,7.815,0,0,1-3.308.71A5.385,5.385,0,0,0,15.9,67.12a6.812,6.812,0,0,0,4.452-1.482Zm0-1.675c0,.542-.478,1.093-1.311,1.509a7.7,7.7,0,0,1-3.137.706,5.382,5.382,0,0,0-.163-1.055,6.92,6.92,0,0,0,4.611-1.485Zm0-1.707c0,.542-.478,1.093-1.311,1.509a7.91,7.91,0,0,1-3.453.711h-.059a5.4,5.4,0,0,0-.556-1.044q.3.017.615.018a7.021,7.021,0,0,0,4.764-1.487Z" transform="translate(2 3)"/>
    <path id="Path_30" data-name="Path 30" d="M146.386,145.13a1.5,1.5,0,0,0-.131-.611,2.061,2.061,0,0,0-1.517-1.117c-.055-.011-.11-.02-.167-.027v-2.248a1.255,1.255,0,0,1,1.167,1.1.324.324,0,1,0,.648,0,1.487,1.487,0,0,0-.046-.365,2.02,2.02,0,0,0-1.769-1.39v-.422a.323.323,0,0,0-.581-.2l-.013.018a.323.323,0,0,0-.053.178v.422c-.077.01-.153.023-.228.04a1.871,1.871,0,0,0-1.586,1.715,1.5,1.5,0,0,0,.133.616,1.744,1.744,0,0,0,.386.541,2.166,2.166,0,0,0,.749.463,2.454,2.454,0,0,0,.546.134v2.249h0a1.85,1.85,0,0,1-.267-.066,1.508,1.508,0,0,1-.6-.361.957.957,0,0,1-.3-.673.324.324,0,1,0-.648,0c0,.043,0,.085.006.127a1.58,1.58,0,0,0,.361.866,2,2,0,0,0,.539.456,2.348,2.348,0,0,0,.7.27c.068.015.138.026.209.035v.423a.324.324,0,0,0,.648,0v-.423q.106-.013.209-.035a2.349,2.349,0,0,0,.7-.27,2,2,0,0,0,.539-.456,1.58,1.58,0,0,0,.361-.866C146.384,145.215,146.386,145.173,146.386,145.13ZM143.81,143.3a1.663,1.663,0,0,1-.56-.241,1.152,1.152,0,0,1-.425-.5.874.874,0,0,1-.067-.335,1.255,1.255,0,0,1,1.166-1.1h0v2.2C143.886,143.321,143.848,143.313,143.81,143.3Zm1.928,1.826a.957.957,0,0,1-.3.673,1.508,1.508,0,0,1-.6.361,1.831,1.831,0,0,1-.267.065h0v-2.2a1.311,1.311,0,0,1,1.156.967A.859.859,0,0,1,145.738,145.13Z" transform="translate(-131.748 -73.91)"/>
  </g>
</svg>
