<svg xmlns="http://www.w3.org/2000/svg" viewBox="2298 191 20 19.167">
  <defs>
    <style>
      .cls-1 {
        fill: #fbc02d;
      }
    </style>
  </defs>
  <path id="Path_16" data-name="Path 16" class="cls-1" d="M17.083,30.4h-5a.416.416,0,0,1-.417-.417V24.564H8.333v5.417a.416.416,0,0,1-.417.417h-5a.416.416,0,0,1-.417-.417V21.647a.417.417,0,1,1,.833,0v7.917H7.5V24.147a.416.416,0,0,1,.417-.417h4.167a.416.416,0,0,1,.417.417v5.417h4.167v-7.5a.417.417,0,0,1,.833,0v7.917A.417.417,0,0,1,17.083,30.4Zm2.5-8.75a.415.415,0,0,1-.295-.122L10,12.237.711,21.525a.417.417,0,0,1-.589-.589l9.583-9.583a.417.417,0,0,1,.589,0l9.583,9.583a.417.417,0,0,1-.295.711ZM16.25,15.814a.416.416,0,0,1-.417-.417V12.9h-2.5a.417.417,0,0,1,0-.833H16.25a.416.416,0,0,1,.417.417V15.4A.416.416,0,0,1,16.25,15.814Z" transform="translate(2298 179.769)"/>
</svg>
