<svg xmlns="http://www.w3.org/2000/svg" viewBox="2729.085 438.525 53.72 50.968">
  <defs>
    <style>
      .cls-1 {
        fill: #424242;
      }
    </style>
  </defs>
  <g id="Purchase_icon" data-name="Purchase icon" transform="translate(2729.085 438.525)">
    <path id="Path_9" data-name="Path 9" class="cls-1" d="M16.456,45.843H48.118l5.6-20H45.476L42.516,16.7l-12.345,4,1.688,5.142h-.581L28.23,16.7l-12.345,4,1.688,5.142h-6.6L9.6,20.364a6.082,6.082,0,0,0-5.833-4.681H0v2.291H3.771a3.785,3.785,0,0,1,3.662,2.861L13.5,44.56a4.967,4.967,0,0,0-2.072,4.045,5.082,5.082,0,0,0,5.032,5.032H47.318V51.347H16.456a2.752,2.752,0,0,1,0-5.5Zm24.58-26.29L43.1,25.725H34.184l-1.261-3.541Zm-14.285,0,2.061,6.172H19.9l-1.261-3.541Zm24,8.464L46.408,43.563H15.546l-4-15.546Z" transform="translate(0 -15.683)"/>
    <path id="Path_10" data-name="Path 10" class="cls-1" d="M374.819,487.171a4.8,4.8,0,0,0,0,9.6,4.759,4.759,0,0,0,4.8-4.8A4.829,4.829,0,0,0,374.819,487.171Zm0,7.433a2.631,2.631,0,0,1,0-5.262,2.584,2.584,0,0,1,2.631,2.631A2.66,2.66,0,0,1,374.819,494.6Z" transform="translate(-337.555 -445.806)"/>
    <path id="Path_11" data-name="Path 11" class="cls-1" d="M174.128,487.171a4.8,4.8,0,1,0,4.8,4.8A4.829,4.829,0,0,0,174.128,487.171Zm0,7.433a2.631,2.631,0,1,1,2.631-2.631A2.66,2.66,0,0,1,174.128,494.6Z" transform="translate(-154.471 -445.806)"/>
  </g>
</svg>
