<svg id="8484a344-ecb5-4603-9bae-f1ee6adfa230" data-name="Layer 1" xmlns="http://www.w3.org/2000/svg" viewBox="0 0 136.95 136.95"><title>Purchase button</title><g id="31ffd596-0240-49d8-a680-b65680a4166c" data-name="Purchase button"><g id="14af2de5-0f98-40b1-8979-03dd5ded7a06" data-name="circel-2"><path d="M71.47,138.95a67.15,67.15,0,0,1-37.72-11.52A67.67,67.67,0,0,1,9.3,97.74a67.38,67.38,0,0,1,6.22-64A67.67,67.67,0,0,1,45.21,9.3a67.38,67.38,0,0,1,64,6.22,67.67,67.67,0,0,1,24.45,29.69,67.38,67.38,0,0,1-6.22,64,67.67,67.67,0,0,1-29.69,24.45A67.05,67.05,0,0,1,71.47,138.95Z" transform="translate(-3 -3)" style="fill:#fff"/><path d="M71.47,137.95a66.15,66.15,0,0,0,37.17-11.35,66.67,66.67,0,0,0,24.09-29.25,66.38,66.38,0,0,0-6.13-63A66.67,66.67,0,0,0,97.35,10.22a66.38,66.38,0,0,0-63,6.13A66.67,66.67,0,0,0,10.22,45.6a66.38,66.38,0,0,0,6.13,63A66.67,66.67,0,0,0,45.6,132.73a66.06,66.06,0,0,0,25.87,5.22m0,2a68.47,68.47,0,1,1,68.47-68.47A68.47,68.47,0,0,1,71.47,139.95Z" transform="translate(-3 -3)" style="fill:#424242"/></g><g id="e8f2b61e-44bf-493b-bb55-59bd4f972c7a" data-name="Group 319"><path id="f03b0c34-6639-438f-88b8-3573c7138cf2" data-name="Purchase icon" d="M61.07,64.18H92.73l5.6-20H90.09l-3-9.14L74.79,39l1.69,5.14h-.58l-3-9.14L60.5,39l1.69,5.14h-6.6l-1.37-5.48A6.08,6.08,0,0,0,48.38,34H44.62v2.29h3.77A3.79,3.79,0,0,1,52,39.18L58.12,62.9a5,5,0,0,0-2.07,4,5.08,5.08,0,0,0,5,5H91.93V69.69H61.07a2.75,2.75,0,0,1,0-5.5ZM85.65,37.89l2.06,6.17H78.8l-1.26-3.54Zm-14.28,0,2.06,6.17H64.52l-1.26-3.54Zm24,8.46L91,61.9H60.16l-4-15.55Zm-13.49,29a4.8,4.8,0,1,0,0,9.6h0a4.76,4.76,0,0,0,4.8-4.72s0-.05,0-.08A4.83,4.83,0,0,0,81.88,75.39Zm0,7.43a2.63,2.63,0,0,1,0-5.26,2.58,2.58,0,0,1,2.63,2.54s0,.06,0,.09a2.66,2.66,0,0,1-2.63,2.63ZM64.27,75.39a4.8,4.8,0,1,0,4.8,4.8h0A4.83,4.83,0,0,0,64.27,75.39Zm0,7.43a2.63,2.63,0,1,1,2.63-2.63,2.66,2.66,0,0,1-2.63,2.63Z" transform="translate(-3 -3)" style="fill:#424242"/><path id="aac987fb-4f01-49d2-9c84-d72ccedc844e" data-name="Purchase" d="M40.08,104.2v4.56H38.54V97.39h4.35a4,4,0,0,1,2.83.94,3.54,3.54,0,0,1,0,4.95,4,4,0,0,1-2.83.93Zm0-1.21h2.81a2.2,2.2,0,1,0,0-4.39H40.08Zm13.79,4.52a2.87,2.87,0,0,1-1,1,2.8,2.8,0,0,1-1.45.37,2.71,2.71,0,0,1-2.16-.88,4.1,4.1,0,0,1-.77-2.75v-5H50v5a3.15,3.15,0,0,0,.4,1.86,1.48,1.48,0,0,0,1.24.51,2.53,2.53,0,0,0,1.36-.33,2.08,2.08,0,0,0,.81-.94v-6.09h1.54v8.45H54Zm7.73-5.84-.79,0a1.76,1.76,0,0,0-1,.29,1.85,1.85,0,0,0-.64.81v6H57.59v-8.45H59l.15,1.23a2.93,2.93,0,0,1,.89-1,2.07,2.07,0,0,1,1.21-.37l.33,0,.26.06Zm4.77,6a2.07,2.07,0,0,0,1.35-.47,1.44,1.44,0,0,0,.58-1.16h1.38l0,0a2.38,2.38,0,0,1-1,1.95,3.55,3.55,0,0,1-2.36.85,3.42,3.42,0,0,1-2.82-1.2,4.64,4.64,0,0,1-1-3v-.33a4.62,4.62,0,0,1,1-3,3.85,3.85,0,0,1,5.24-.33,2.72,2.72,0,0,1,.91,2.15l0,0H68.29a1.79,1.79,0,0,0-.55-1.32,1.88,1.88,0,0,0-1.38-.54,1.85,1.85,0,0,0-1.73.87,4.09,4.09,0,0,0-.52,2.13v.33a4.14,4.14,0,0,0,.52,2.16A1.86,1.86,0,0,0,66.37,107.71ZM73,101.44a3.11,3.11,0,0,1,1.07-.95,3,3,0,0,1,1.41-.34,2.73,2.73,0,0,1,2.11.81,3.58,3.58,0,0,1,.75,2.5v5.3H76.76v-5.31a2.26,2.26,0,0,0-.45-1.55,1.71,1.71,0,0,0-1.34-.5,2.27,2.27,0,0,0-1.16.3,2.5,2.5,0,0,0-.86.82v6.24H71.42V96.57H73Zm12.75,7.32q-.08-.38-.12-.68a4.76,4.76,0,0,1-.05-.59,3.6,3.6,0,0,1-1.12,1,2.87,2.87,0,0,1-1.49.41,2.76,2.76,0,0,1-2-.68,2.48,2.48,0,0,1-.69-1.86,2.18,2.18,0,0,1,1-1.89,4.58,4.58,0,0,1,2.66-.68h1.67V103a1.55,1.55,0,0,0-.45-1.18,1.78,1.78,0,0,0-1.28-.43,1.85,1.85,0,0,0-1.21.38,1.14,1.14,0,0,0-.46.91H80.66l0,0a2,2,0,0,1,.87-1.69,3.57,3.57,0,0,1,2.37-.77,3.49,3.49,0,0,1,2.31.73,2.59,2.59,0,0,1,.88,2.11v4.07a7.93,7.93,0,0,0,0,.88,4.44,4.44,0,0,0,.17.83Zm-2.55-1.13a2.74,2.74,0,0,0,1.51-.43,2,2,0,0,0,.88-1v-1.37H83.81a2.24,2.24,0,0,0-1.49.47,1.39,1.39,0,0,0-.56,1.1,1.15,1.15,0,0,0,.35.89A1.48,1.48,0,0,0,83.15,107.63Zm11.07-1.12a1,1,0,0,0-.39-.84,3.63,3.63,0,0,0-1.46-.57,6.16,6.16,0,0,1-2.32-.91,1.84,1.84,0,0,1-.78-1.56,2.2,2.2,0,0,1,.88-1.75,4,4,0,0,1,4.63,0,2.24,2.24,0,0,1,.83,1.84l0,0H94.13a1.34,1.34,0,0,0-.46-1,1.72,1.72,0,0,0-1.23-.44,1.78,1.78,0,0,0-1.22.36,1.13,1.13,0,0,0-.4.87,1,1,0,0,0,.35.79,3.66,3.66,0,0,0,1.43.52,6.16,6.16,0,0,1,2.38.93,1.88,1.88,0,0,1,.78,1.58,2.19,2.19,0,0,1-.91,1.82,3.81,3.81,0,0,1-2.38.7,3.71,3.71,0,0,1-2.55-.82,2.34,2.34,0,0,1-.88-1.91l0,0h1.47a1.41,1.41,0,0,0,.61,1.19,2.37,2.37,0,0,0,1.34.38,2.18,2.18,0,0,0,1.29-.33A1,1,0,0,0,94.22,106.51Zm7,2.41a3.56,3.56,0,0,1-2.81-1.18,4.43,4.43,0,0,1-1-3.05v-.34a4.33,4.33,0,0,1,1.07-3,3.31,3.31,0,0,1,2.54-1.2,3.2,3.2,0,0,1,2.59,1,4.11,4.11,0,0,1,.88,2.75v1H98.93l0,0a3.32,3.32,0,0,0,.62,2,2,2,0,0,0,1.66.78,3.87,3.87,0,0,0,1.37-.22,3.16,3.16,0,0,0,1-.61l.6,1a3.59,3.59,0,0,1-1.2.75A4.81,4.81,0,0,1,101.19,108.92Zm-.23-7.56a1.67,1.67,0,0,0-1.32.65,3.07,3.07,0,0,0-.67,1.63l0,0h3.9v-.2a2.35,2.35,0,0,0-.48-1.51A1.73,1.73,0,0,0,101,101.36Z" transform="translate(-3 -3)" style="fill:#424242;isolation:isolate"/></g></g></svg>