<svg xmlns="http://www.w3.org/2000/svg" xmlns:xlink="http://www.w3.org/1999/xlink" viewBox="2685 410 142.949 142.949">
  <defs>
    <style>
      .cls-1 {
        fill: #fff;
      }

      .cls-2, .cls-3, .cls-5 {
        fill: #424242;
      }

      .cls-3 {
        font-size: 16px;
        font-family: Roboto-Regular, Roboto;
      }

      .cls-4, .cls-5 {
        stroke: none;
      }

      .cls-6 {
        filter: url(#circel);
      }
    </style>
    <filter id="circel" x="2685" y="410" width="142.949" height="142.949" filterUnits="userSpaceOnUse">
      <feOffset dy="2" input="SourceAlpha"/>
      <feGaussianBlur stdDeviation="1" result="blur"/>
      <feFlood flood-opacity="0.239"/>
      <feComposite operator="in" in2="blur"/>
      <feComposite in="SourceGraphic"/>
    </filter>
  </defs>
  <g id="Purchase_button" data-name="Purchase button" transform="translate(2660)">
    <g class="cls-6" transform="matrix(1, 0, 0, 1, -2660, 0)">
      <g id="circel-2" data-name="circel" class="cls-1" transform="translate(2688 411)">
        <path class="cls-4" d="M 68.47451782226563 135.9490509033203 C 59.36508178710938 135.9490509033203 50.52866363525391 134.1651763916016 42.21070098876953 130.64697265625 C 38.21277236938477 128.9559936523438 34.3567008972168 126.8629760742188 30.74957275390625 124.4260482788086 C 27.17646408081055 122.0121002197266 23.81644439697266 119.2398300170898 20.76284599304199 116.1862106323242 C 17.70922660827637 113.1326065063477 14.93695449829102 109.772575378418 12.52300834655762 106.199462890625 C 10.08608150482178 102.5923538208008 7.993063449859619 98.73626708984375 6.30208158493042 94.73833465576172 C 2.783881425857544 86.42038726806641 1.000008702278137 77.58395385742188 1.000008702278137 68.47451782226563 C 1.000008702278137 59.36508178710938 2.783881425857544 50.52866363525391 6.30208158493042 42.21070098876953 C 7.993063449859619 38.21277236938477 10.08608150482178 34.3567008972168 12.52300834655762 30.74957275390625 C 14.93695449829102 27.17646408081055 17.70922660827637 23.81644439697266 20.76284599304199 20.76284599304199 C 23.81644439697266 17.70922660827637 27.17646408081055 14.93695449829102 30.74957275390625 12.52300834655762 C 34.3567008972168 10.08608150482178 38.21277236938477 7.993063449859619 42.21070098876953 6.30208158493042 C 50.52866363525391 2.783881425857544 59.36508178710938 1.000008702278137 68.47451782226563 1.000008702278137 C 77.58395385742188 1.000008702278137 86.42038726806641 2.783881425857544 94.73833465576172 6.30208158493042 C 98.73626708984375 7.993063449859619 102.5923538208008 10.08608150482178 106.199462890625 12.52300834655762 C 109.772575378418 14.93695449829102 113.1326065063477 17.70922660827637 116.1862106323242 20.76284599304199 C 119.2398300170898 23.81644439697266 122.0121002197266 27.17646408081055 124.4260482788086 30.74957275390625 C 126.8629760742188 34.3567008972168 128.9559936523438 38.21277236938477 130.64697265625 42.21070098876953 C 134.1651763916016 50.52866363525391 135.9490509033203 59.36508178710938 135.9490509033203 68.47451782226563 C 135.9490509033203 77.58395385742188 134.1651763916016 86.42038726806641 130.64697265625 94.73833465576172 C 128.9559936523438 98.73626708984375 126.8629760742188 102.5923538208008 124.4260482788086 106.199462890625 C 122.0121002197266 109.772575378418 119.2398300170898 113.1326065063477 116.1862106323242 116.1862106323242 C 113.1326065063477 119.2398300170898 109.772575378418 122.0121002197266 106.199462890625 124.4260482788086 C 102.5923538208008 126.8629760742188 98.73626708984375 128.9559936523438 94.73833465576172 130.64697265625 C 86.42038726806641 134.1651763916016 77.58395385742188 135.9490509033203 68.47451782226563 135.9490509033203 Z"/>
        <path class="cls-5" d="M 68.47451782226563 134.9490356445313 C 77.44939422607422 134.9490356445313 86.15475463867188 133.1917419433594 94.34877777099609 129.7259521484375 C 98.28723907470703 128.0601348876953 102.0860366821289 125.9981994628906 105.6396560668945 123.5974197387695 C 109.1600189208984 121.2191009521484 112.4704971313477 118.4877014160156 115.4790954589844 115.4790954589844 C 118.4877014160156 112.4704971313477 121.2191009521484 109.1600189208984 123.5974197387695 105.6396560668945 C 125.9981994628906 102.0860366821289 128.0601348876953 98.28723907470703 129.7259521484375 94.34877777099609 C 133.1917419433594 86.15475463867188 134.9490356445313 77.44939422607422 134.9490356445313 68.47451782226563 C 134.9490356445313 59.49963760375977 133.1917419433594 50.79427719116211 129.7259521484375 42.60025787353516 C 128.0601348876953 38.66179656982422 125.9981994628906 34.86299896240234 123.5974197387695 31.30937767028809 C 121.2191009521484 27.78901863098145 118.4877014160156 24.47853851318359 115.4790954589844 21.46993827819824 C 112.4704971313477 18.46133804321289 109.1600189208984 15.72993755340576 105.6396560668945 13.35161781311035 C 102.0860366821289 10.95083808898926 98.28723907470703 8.888897895812988 94.34877777099609 7.223077774047852 C 86.15475463867188 3.75729775428772 77.44939422607422 1.999997854232788 68.47451782226563 1.999997854232788 C 59.49963760375977 1.999997854232788 50.79427719116211 3.75729775428772 42.60025787353516 7.223077774047852 C 38.66179656982422 8.888897895812988 34.86299896240234 10.95083808898926 31.30937767028809 13.35161781311035 C 27.78901863098145 15.72993755340576 24.47853851318359 18.46133804321289 21.46993827819824 21.46993827819824 C 18.46133804321289 24.47853851318359 15.72993755340576 27.78901863098145 13.35161781311035 31.30937767028809 C 10.95083808898926 34.86299896240234 8.888897895812988 38.66179656982422 7.223077774047852 42.60025787353516 C 3.75729775428772 50.79427719116211 1.999997854232788 59.49963760375977 1.999997854232788 68.47451782226563 C 1.999997854232788 77.44939422607422 3.75729775428772 86.15475463867188 7.223077774047852 94.34877777099609 C 8.888897895812988 98.28723907470703 10.95083808898926 102.0860366821289 13.35161781311035 105.6396560668945 C 15.72993755340576 109.1600189208984 18.46133804321289 112.4704971313477 21.46993827819824 115.4790954589844 C 24.47853851318359 118.4877014160156 27.78901863098145 121.2191009521484 31.30937767028809 123.5974197387695 C 34.86299896240234 125.9981994628906 38.66179656982422 128.0601348876953 42.60025787353516 129.7259521484375 C 50.79427719116211 133.1917419433594 59.49963760375977 134.9490356445313 68.47451782226563 134.9490356445313 M 68.47451782226563 136.9490356445313 C 30.6570987701416 136.9490356445313 -2.177734359065653e-06 106.2919387817383 -2.177734359065653e-06 68.47451782226563 C -2.177734359065653e-06 30.6570987701416 30.6570987701416 -2.177734359065653e-06 68.47451782226563 -2.177734359065653e-06 C 106.2919387817383 -2.177734359065653e-06 136.9490356445313 30.6570987701416 136.9490356445313 68.47451782226563 C 136.9490356445313 106.2919387817383 106.2919387817383 136.9490356445313 68.47451782226563 136.9490356445313 Z"/>
      </g>
    </g>
    <g id="Group_319" data-name="Group 319" transform="translate(0 1.475)">
      <g id="Purchase_icon" data-name="Purchase icon" transform="translate(69 438.525)">
        <path id="Path_9" data-name="Path 9" class="cls-2" d="M16.456,45.843H48.118l5.6-20H45.476L42.516,16.7l-12.345,4,1.688,5.142h-.581L28.23,16.7l-12.345,4,1.688,5.142h-6.6L9.6,20.364a6.082,6.082,0,0,0-5.833-4.681H0v2.291H3.771a3.785,3.785,0,0,1,3.662,2.861L13.5,44.56a4.967,4.967,0,0,0-2.072,4.045,5.082,5.082,0,0,0,5.032,5.032H47.318V51.347H16.456a2.752,2.752,0,0,1,0-5.5Zm24.58-26.29L43.1,25.725H34.184l-1.261-3.541Zm-14.285,0,2.061,6.172H19.9l-1.261-3.541Zm24,8.464L46.408,43.563H15.546l-4-15.546Z" transform="translate(0 -15.683)"/>
        <path id="Path_10" data-name="Path 10" class="cls-2" d="M374.819,487.171a4.8,4.8,0,0,0,0,9.6,4.759,4.759,0,0,0,4.8-4.8A4.829,4.829,0,0,0,374.819,487.171Zm0,7.433a2.631,2.631,0,0,1,0-5.262,2.584,2.584,0,0,1,2.631,2.631A2.66,2.66,0,0,1,374.819,494.6Z" transform="translate(-337.555 -445.806)"/>
        <path id="Path_11" data-name="Path 11" class="cls-2" d="M174.128,487.171a4.8,4.8,0,1,0,4.8,4.8A4.829,4.829,0,0,0,174.128,487.171Zm0,7.433a2.631,2.631,0,1,1,2.631-2.631A2.66,2.66,0,0,1,174.128,494.6Z" transform="translate(-154.471 -445.806)"/>
      </g>
      <text id="Purchase" class="cls-3" transform="translate(62 513.261)"><tspan x="0" y="0">Purchase</tspan></text>
    </g>
  </g>
</svg>
