<?xml version="1.0" encoding="utf-8"?>
<!-- Generator: Adobe Illustrator 21.1.0, SVG Export Plug-In . SVG Version: 6.00 Build 0)  -->
<svg version="1.1" id="Layer_1" xmlns="http://www.w3.org/2000/svg" xmlns:xlink="http://www.w3.org/1999/xlink" x="0px" y="0px"
	 viewBox="0 0 53.7 51" style="enable-background:new 0 0 53.7 51;" xml:space="preserve">
<style type="text/css">
	.st0{fill:#424242;}
</style>
<g id="Purchase_icon" transform="translate(2729.085 438.525)">
	<path class="st0" d="M-2712.6-408.4h31.7l5.6-20h-8.2l-3-9.1l-12.3,4l1.7,5.1h-0.6l-3-9.1l-12.3,4l1.7,5.1h-6.6l-1.4-5.5
		c-0.6-2.7-3-4.6-5.8-4.7h-3.8v2.3h3.8c1.7,0,3.2,1.2,3.7,2.9l6.1,23.7c-1.3,0.9-2.1,2.4-2.1,4c0,2.8,2.3,5,5,5h30.9v-2.3h-30.9
		c-1.5-0.1-2.7-1.3-2.6-2.9C-2715.2-407.2-2714.1-408.3-2712.6-408.4L-2712.6-408.4z M-2688-434.7l2.1,6.2h-8.9l-1.3-3.5
		L-2688-434.7z M-2702.3-434.7l2.1,6.2h-8.9l-1.3-3.5L-2702.3-434.7z M-2678.3-426.2l-4.3,15.5h-30.9l-4-15.5L-2678.3-426.2z"/>
	<path class="st0" d="M-2691.8-397.2c-2.7,0-4.8,2.1-4.8,4.8c0,2.7,2.1,4.8,4.8,4.8l0,0c2.6,0,4.8-2.1,4.8-4.7c0,0,0-0.1,0-0.1
		C-2687-395-2689.2-397.1-2691.8-397.2z M-2691.8-389.7c-1.5,0-2.6-1.2-2.6-2.6c0-1.4,1.2-2.6,2.6-2.6c1.4,0,2.6,1.1,2.6,2.5
		c0,0,0,0.1,0,0.1C-2689.2-390.9-2690.4-389.7-2691.8-389.7L-2691.8-389.7z"/>
	<path class="st0" d="M-2709.4-397.2c-2.7,0-4.8,2.1-4.8,4.8c0,2.7,2.1,4.8,4.8,4.8s4.8-2.1,4.8-4.8l0,0
		C-2704.6-395-2706.8-397.1-2709.4-397.2z M-2709.4-389.7c-1.5,0-2.6-1.2-2.6-2.6c0-1.5,1.2-2.6,2.6-2.6s2.6,1.2,2.6,2.6
		C-2706.8-390.9-2708-389.7-2709.4-389.7L-2709.4-389.7z"/>
</g>
</svg>
