<?xml version="1.0" encoding="utf-8"?>
<!-- Generator: Adobe Illustrator 21.1.0, SVG Export Plug-In . SVG Version: 6.00 Build 0)  -->
<svg version="1.1" id="_x38_484a344-ecb5-4603-9bae-f1ee6adfa230"
	 xmlns="http://www.w3.org/2000/svg" xmlns:xlink="http://www.w3.org/1999/xlink" x="0px" y="0px" viewBox="0 0 136.9 136.9"
	 style="enable-background:new 0 0 136.9 136.9;" xml:space="preserve">
<style type="text/css">
	.st0{fill:#FFFFFF;}
	.st1{fill:#424242;}
</style>
<g id="_x33_1ffd596-0240-49d8-a680-b65680a4166c">
	<g id="Back">
		<path class="st0" d="M68.5,135.9c-13.4,0-26.6-4-37.7-11.5c-10.9-7.3-19.3-17.6-24.5-29.7c-8.9-21-6.6-45.1,6.2-64
			c7.3-10.8,17.6-19.3,29.7-24.4c21-8.9,45.1-6.6,64,6.2c10.9,7.3,19.3,17.6,24.5,29.7c8.9,21,6.6,45.1-6.2,64
			c-7.3,10.9-17.6,19.3-29.7,24.5C86.4,134.2,77.5,136,68.5,135.9z"/>
		<path class="st1" d="M68.5,134.9c13.2,0,26.2-3.9,37.2-11.4c10.7-7.2,19.1-17.4,24.1-29.3c8.7-20.7,6.4-44.4-6.1-63
			c-7.2-10.7-17.4-19.1-29.3-24.1c-20.7-8.7-44.4-6.4-63,6.1C20.7,20.6,12.3,30.7,7.2,42.6c-8.7,20.7-6.4,44.4,6.1,63
			c7.2,10.7,17.4,19.1,29.2,24.1C50.8,133.2,59.6,135,68.5,134.9 M68.5,136.9C30.7,136.9,0,106.3,0,68.5S30.7,0,68.5,0
			S137,30.7,137,68.5l0,0C136.9,106.3,106.3,136.9,68.5,136.9z"/>
	</g>
	<g id="e8f2b61e-44bf-493b-bb55-59bd4f972c7a">
		<path class="st1" d="M58,61.2h31.7l5.6-20H87L84,32l-12.3,4l1.7,5.1h-0.6l-3-9.1l-12.4,4l1.7,5.1h-6.6l-1.4-5.5
			c-0.6-2.6-3-4.6-5.8-4.6h-3.8v2.3h3.8c1.7,0,3.2,1.2,3.6,2.9L55,59.9c-1.3,0.9-2.1,2.4-2.1,4c0,2.7,2.3,5,5,5h30.9v-2.2H58
			c-1.5,0-2.8-1.2-2.8-2.7C55.3,62.4,56.5,61.2,58,61.2L58,61.2z M82.6,34.9l2.1,6.2h-8.9l-1.3-3.5L82.6,34.9z M68.3,34.9l2.1,6.2
			h-8.9l-1.3-3.5L68.3,34.9z M92.3,43.4L87.9,59H57.1l-4-15.5L92.3,43.4z M78.8,72.4c-2.7,0-4.8,2.1-4.8,4.8c0,2.7,2.1,4.8,4.8,4.8
			l0,0l0,0c2.6,0,4.8-2.1,4.8-4.7l0,0v-0.1C83.6,74.5,81.4,72.4,78.8,72.4L78.8,72.4z M78.8,79.8c-1.5,0-2.6-1.2-2.6-2.6
			c0-1.5,1.2-2.6,2.6-2.6s2.6,1.1,2.6,2.5l0,0v0.1C81.4,78.6,80.3,79.8,78.8,79.8z M61.2,72.4c-2.7,0-4.8,2.1-4.8,4.8
			c0,2.7,2.1,4.8,4.8,4.8s4.8-2.1,4.8-4.8l0,0C66,74.6,63.9,72.4,61.2,72.4z M61.2,79.8c-1.5,0-2.6-1.2-2.6-2.6
			c0-1.5,1.2-2.6,2.6-2.6c1.5,0,2.6,1.2,2.6,2.6l0,0C63.8,78.6,62.7,79.8,61.2,79.8z"/>
		<path class="st1" d="M37,101.2v4.6h-1.5V94.4h4.3c1-0.1,2,0.3,2.8,0.9c1.3,1.4,1.3,3.6,0,4.9c-0.8,0.7-1.8,1-2.8,0.9L37,101.2z
			 M37,100h2.8c1.2,0.1,2.3-0.8,2.3-2c0.1-1.2-0.8-2.3-2-2.3c-0.1,0-0.2,0-0.3,0H37V100z M50.8,104.5c-0.2,0.4-0.6,0.8-1,1
			c-0.4,0.3-0.9,0.4-1.5,0.4c-0.8,0-1.6-0.3-2.2-0.9c-0.6-0.8-0.9-1.8-0.8-2.8v-5h1.5v5c-0.1,0.6,0.1,1.3,0.4,1.9
			c0.3,0.4,0.8,0.5,1.2,0.5c0.5,0,0.9-0.1,1.4-0.3c0.4-0.2,0.6-0.6,0.8-0.9v-6.1h1.5v8.4h-1.4L50.8,104.5z M58.5,98.7h-0.8
			c-0.4,0-0.7,0.1-1,0.3c-0.3,0.2-0.5,0.5-0.6,0.8v6h-1.6v-8.4h1.4l0.2,1.2c0.2-0.4,0.5-0.7,0.9-1c0.4-0.2,0.8-0.4,1.2-0.4h0.3
			l0.3,0.1L58.5,98.7z M63.3,104.7c0.5,0,1-0.2,1.3-0.5c0.4-0.3,0.6-0.7,0.6-1.2h1.4l0,0c0,0.8-0.4,1.5-1,1.9
			c-0.7,0.6-1.5,0.9-2.4,0.8c-1.1,0.1-2.1-0.4-2.8-1.2c-0.7-0.9-1-1.9-1-3v-0.3c0-1.1,0.3-2.1,1-3c1.4-1.5,3.7-1.6,5.2-0.3
			c0.6,0.5,0.9,1.3,0.9,2.2l0,0h-1.4c0-0.5-0.2-1-0.6-1.3c-0.4-0.4-0.9-0.6-1.4-0.5c-0.7-0.1-1.4,0.3-1.7,0.9
			c-0.4,0.6-0.5,1.4-0.5,2.1v0.3c0,0.8,0.2,1.5,0.5,2.2C61.9,104.4,62.6,104.8,63.3,104.7L63.3,104.7z M69.9,98.4
			c0.3-0.4,0.6-0.7,1.1-0.9c0.4-0.2,0.9-0.3,1.4-0.3c0.8,0,1.6,0.2,2.1,0.8c0.6,0.7,0.8,1.6,0.8,2.5v5.3h-1.6v-5.3
			c0-0.6-0.1-1.1-0.4-1.6c-0.4-0.4-0.8-0.5-1.3-0.5c-0.4,0-0.8,0.1-1.2,0.3c-0.3,0.2-0.6,0.5-0.9,0.8v6.2h-1.5V93.6H70L69.9,98.4
			L69.9,98.4z M82.7,105.8c-0.1-0.3-0.1-0.5-0.1-0.7s0-0.4-0.1-0.6c-0.3,0.4-0.7,0.7-1.1,1s-1,0.4-1.5,0.4c-0.7,0-1.4-0.2-2-0.7
			c-0.5-0.5-0.7-1.2-0.7-1.9c0-0.8,0.4-1.5,1-1.9c0.8-0.5,1.7-0.7,2.7-0.7h1.7V100c0-0.4-0.1-0.9-0.4-1.2c-0.4-0.3-0.8-0.5-1.3-0.4
			c-0.4,0-0.9,0.1-1.2,0.4c-0.3,0.2-0.5,0.6-0.5,0.9h-1.5l0,0c0-0.7,0.3-1.3,0.9-1.7c0.7-0.5,1.5-0.8,2.4-0.8c0.8,0,1.7,0.2,2.3,0.7
			c0.6,0.5,0.9,1.3,0.9,2.1v4.1c0,0.3,0,0.6,0,0.9s0.1,0.6,0.2,0.8H82.7z M80.1,104.6c0.5,0,1.1-0.1,1.5-0.4c0.4-0.2,0.7-0.6,0.9-1
			v-1.4h-1.8c-0.5,0-1.1,0.1-1.5,0.5c-0.3,0.3-0.6,0.7-0.6,1.1c0,0.3,0.1,0.7,0.3,0.9C79.3,104.5,79.7,104.7,80.1,104.6L80.1,104.6z
			 M91.2,103.5c0-0.3-0.1-0.6-0.4-0.8c-0.4-0.3-0.9-0.5-1.5-0.6c-0.8-0.1-1.6-0.5-2.3-0.9c-0.5-0.4-0.8-0.9-0.8-1.6s0.3-1.3,0.9-1.8
			c1.4-1,3.2-1,4.6,0c0.6,0.4,0.9,1.1,0.8,1.8l0,0H91c0-0.4-0.2-0.7-0.5-1s-0.8-0.5-1.2-0.4c-0.4,0-0.9,0.1-1.2,0.4
			c-0.3,0.2-0.4,0.5-0.4,0.9c0,0.3,0.1,0.6,0.3,0.8c0.4,0.3,0.9,0.4,1.4,0.5c0.8,0.1,1.7,0.5,2.4,0.9c0.5,0.4,0.8,1,0.8,1.6
			c0,0.7-0.3,1.4-0.9,1.8c-0.7,0.5-1.5,0.7-2.4,0.7c-0.9,0.1-1.8-0.2-2.6-0.8c-0.6-0.5-0.9-1.2-0.9-1.9l0,0h1.5
			c0,0.5,0.2,0.9,0.6,1.2c0.4,0.3,0.9,0.4,1.3,0.4c0.5,0,0.9-0.1,1.3-0.3C91,104.2,91.2,103.9,91.2,103.5L91.2,103.5z M98.2,105.9
			c-1.1,0-2.1-0.4-2.8-1.2c-0.7-0.9-1.1-1.9-1-3.1v-0.3c0-1.1,0.3-2.2,1.1-3c0.6-0.8,1.6-1.2,2.5-1.2c1-0.1,1.9,0.3,2.6,1
			c0.6,0.8,0.9,1.8,0.9,2.8v1h-5.6l0,0c0,0.7,0.2,1.4,0.6,2c0.4,0.5,1,0.8,1.7,0.8c0.5,0,0.9-0.1,1.4-0.2c0.4-0.1,0.7-0.3,1-0.6
			l0.6,1c-0.3,0.3-0.8,0.6-1.2,0.8C99.3,105.8,98.7,105.9,98.2,105.9L98.2,105.9z M98,98.4c-0.5,0-1,0.2-1.3,0.7
			c-0.4,0.5-0.6,1-0.7,1.6l0,0h3.9v-0.2c0-0.5-0.2-1.1-0.5-1.5C99,98.5,98.5,98.3,98,98.4L98,98.4z"/>
	</g>
</g>
</svg>
