<?xml version="1.0" encoding="utf-8"?>
<!-- Generator: Adobe Illustrator 21.1.0, SVG Export Plug-In . SVG Version: 6.00 Build 0)  -->
<svg version="1.1" id="Layer_1" xmlns="http://www.w3.org/2000/svg" xmlns:xlink="http://www.w3.org/1999/xlink" x="0px" y="0px"
	 viewBox="0 0 21 21" style="enable-background:new 0 0 21 21;" xml:space="preserve">
<g id="Group_287" transform="translate(2298 268.375)">
	<path d="M-2277.9-252.8c-0.3-0.2-0.6-0.4-1-0.3c-0.6,0.1-1.4,0.2-2.2,0.4c-1,0.2-2.1,0.4-3.1,0.5c-0.9,0-1.7-0.1-2.6-0.4
		c-0.2-0.1-0.4-0.3-0.5-0.5h1.7c0.7,0,1.3-0.6,1.3-1.3v-1c0-0.7-0.6-1.3-1.3-1.3h-4.7c-1.5,0-3,0.5-4.2,1.4
		c-0.3,0.2-0.5,0.5-0.7,0.7c-0.2-0.3-0.5-0.4-0.8-0.4h-1.5c-0.3,0-0.5,0.2-0.5,0.5v6.7c0,0.1,0,0.2,0.1,0.3c0.1,0.1,0.2,0.1,0.3,0.1
		h1.5c0.6,0,1.1-0.5,1.1-1.1v-0.4c1.2,0.1,2.5,0.3,3.7,0.6c1.8,0.4,3.6,0.6,5.5,0.7c0.8,0,1.6-0.1,2.4-0.2c1.1-0.2,2.2-0.5,3.3-0.8
		c0.5-0.1,1-0.3,1.4-0.4c1.1-0.3,1.3-1,1.3-1.4v-1.2C-2277.4-252.1-2277.6-252.5-2277.9-252.8z M-2295.9-248.5
		c0,0.1-0.1,0.2-0.2,0.2c0,0,0,0,0,0h-1.1v-5.7h1.1c0.1,0,0.2,0.1,0.2,0.2l0,0L-2295.9-248.5L-2295.9-248.5z M-2278.3-250.4
		c0,0.1,0,0.4-0.6,0.5c-0.4,0.1-0.9,0.3-1.4,0.4c-1,0.3-2.1,0.6-3.2,0.8c-1.8,0.3-3.3,0.4-7.6-0.5c-1.3-0.3-2.5-0.5-3.8-0.6v-3.5
		c0,0,0,0,0-0.1c0.3-0.5,0.6-0.9,1-1.2c1-0.8,2.3-1.2,3.6-1.2h4.7c0.2,0,0.4,0.2,0.4,0.4v1c0,0.2-0.2,0.4-0.4,0.4h-4.7
		c-0.3,0-0.5,0.2-0.4,0.5c0,0.2,0.2,0.4,0.4,0.4h2c0.1,0.6,0.5,1.1,1.1,1.3c1,0.4,2,0.5,3,0.5c1.1-0.1,2.2-0.3,3.3-0.6
		c0.8-0.2,1.6-0.3,2.1-0.4c0.1,0,0.2,0,0.3,0.1c0.1,0.1,0.2,0.3,0.2,0.4L-2278.3-250.4L-2278.3-250.4z"/>
	<g id="Group_286" transform="translate(2.589 18.625)">
		<path d="M-2280.8-287h-16.1c-0.7,0-1.2,0.6-1.2,1.3v8.2c0,0.7,0.5,1.2,1.2,1.3h16.1c0.7,0,1.2-0.6,1.2-1.3v-8.2
			C-2279.6-286.4-2280.1-287-2280.8-287z M-2283-277.3h-11.5c-0.1-1.4-1.1-2.6-2.5-2.9v-3.1c1.4-0.2,2.4-1.4,2.5-2.7h11.6
			c0.1,1.4,1.2,2.5,2.5,2.7v3.1C-2281.9-279.9-2283-278.7-2283-277.3z M-2280.5-285.7v1.4c-0.8-0.2-1.5-0.9-1.6-1.7h1.3
			C-2280.6-286-2280.5-285.9-2280.5-285.7C-2280.5-285.7-2280.5-285.7-2280.5-285.7z M-2296.8-286h1.3c-0.1,0.8-0.8,1.5-1.6,1.7
			v-1.4C-2297.1-285.9-2297-286-2296.8-286C-2296.8-286-2296.8-286-2296.8-286L-2296.8-286z M-2297.1-277.6v-1.6
			c0.9,0.2,1.5,1,1.6,1.9h-1.3C-2297-277.3-2297.1-277.4-2297.1-277.6L-2297.1-277.6z M-2280.8-277.3h-1.3c0.1-0.9,0.7-1.6,1.6-1.9
			v1.6C-2280.5-277.4-2280.6-277.3-2280.8-277.3L-2280.8-277.3z"/>
		<path d="M-2288.8-285.2c-2-0.2-3.7,1.3-3.8,3.3s1.3,3.7,3.3,3.8s3.7-1.3,3.8-3.3c0-0.1,0-0.2,0-0.3
			C-2285.4-283.5-2286.9-285.1-2288.8-285.2z M-2288.8-279.1c-1.4,0.1-2.7-0.9-2.8-2.3c-0.1-1.4,0.9-2.7,2.3-2.8
			c1.4-0.1,2.7,0.9,2.8,2.3c0,0.1,0,0.1,0,0.2C-2286.4-280.3-2287.4-279.1-2288.8-279.1z"/>
		<path d="M-2294-283.2c-0.8-0.1-1.6,0.6-1.7,1.4c-0.1,0.8,0.6,1.6,1.4,1.6s1.6-0.6,1.6-1.4c0,0,0-0.1,0-0.1
			C-2292.6-282.5-2293.2-283.1-2294-283.2z M-2294-281.1c-0.3,0-0.6-0.2-0.6-0.5c0-0.3,0.2-0.6,0.5-0.6s0.6,0.2,0.6,0.5c0,0,0,0,0,0
			C-2293.5-281.4-2293.8-281.1-2294-281.1z"/>
		<path d="M-2283.5-283.2c-0.8-0.1-1.6,0.6-1.7,1.4c-0.1,0.8,0.6,1.6,1.4,1.6s1.6-0.6,1.6-1.4c0,0,0-0.1,0-0.1
			C-2282.1-282.5-2282.7-283.1-2283.5-283.2z M-2283.5-281.1c-0.3,0-0.6-0.2-0.6-0.5c0-0.3,0.2-0.6,0.5-0.6c0.3,0,0.6,0.2,0.6,0.5
			c0,0,0,0,0,0C-2283-281.4-2283.2-281.1-2283.5-281.1z"/>
	</g>
</g>
</svg>
