<svg xmlns="http://www.w3.org/2000/svg" viewBox="2298 287 21 21">
  <g id="Group_287" data-name="Group 287" transform="translate(2298 268.375)">
    <path id="Path_33" data-name="Path 33" d="M20.093,260.063a1.217,1.217,0,0,0-.976-.329c-.593.07-1.369.235-2.191.41a24.429,24.429,0,0,1-3.137.536,6.976,6.976,0,0,1-2.551-.376,1.222,1.222,0,0,1-.517-.494h1.7A1.3,1.3,0,0,0,13.7,258.5v-1.032a1.3,1.3,0,0,0-1.275-1.313H7.755a6.663,6.663,0,0,0-4.231,1.4,6.7,6.7,0,0,0-.71.72,1.055,1.055,0,0,0-.834-.414H.457a.465.465,0,0,0-.457.471v6.659a.479.479,0,0,0,.134.333.451.451,0,0,0,.323.138H1.98a1.086,1.086,0,0,0,1.068-1.1v-.362a32.343,32.343,0,0,1,3.67.568,29,29,0,0,0,5.455.668,16,16,0,0,0,2.431-.2,26.649,26.649,0,0,0,3.284-.814c.5-.146.974-.284,1.393-.393,1.128-.293,1.3-1.026,1.3-1.437v-1.2A1.543,1.543,0,0,0,20.093,260.063Zm-17.96,4.293a.156.156,0,0,1-.154.158H.915V258.8H1.98a.156.156,0,0,1,.154.158v5.4Zm17.53-1.972c0,.1,0,.366-.606.523-.431.112-.911.252-1.418.4a26.084,26.084,0,0,1-3.162.788c-1.8.261-3.3.37-7.59-.46a31.712,31.712,0,0,0-3.839-.585v-3.5a.472.472,0,0,0,.044-.068,4.506,4.506,0,0,1,1.025-1.215,5.853,5.853,0,0,1,3.612-1.173h4.7a.366.366,0,0,1,.36.371V258.5a.366.366,0,0,1-.36.371H7.747a.472.472,0,0,0,0,.943h2a2.039,2.039,0,0,0,1.064,1.329,7.656,7.656,0,0,0,3.033.482,24.951,24.951,0,0,0,3.264-.554c.8-.17,1.558-.331,2.111-.4a.332.332,0,0,1,.263.1.581.581,0,0,1,.179.416v1.2Z" transform="translate(0 -225.832)"/>
    <g id="Group_286" data-name="Group 286" transform="translate(2.589 18.625)">
      <path id="Path_34" data-name="Path 34" d="M76.672,18.625H60.607A1.227,1.227,0,0,0,59.434,19.9v8.171a1.227,1.227,0,0,0,1.173,1.273H76.672a1.227,1.227,0,0,0,1.173-1.273V19.9A1.227,1.227,0,0,0,76.672,18.625ZM74.4,28.349H62.877a3.078,3.078,0,0,0-2.528-2.863v-3.14a3.065,3.065,0,0,0,2.514-2.728H74.417a3.065,3.065,0,0,0,2.513,2.728v3.141A3.078,3.078,0,0,0,74.4,28.349ZM76.93,19.9V21.34a2.109,2.109,0,0,1-1.587-1.723h1.329A.27.27,0,0,1,76.93,19.9Zm-16.323-.28h1.33a2.109,2.109,0,0,1-1.588,1.723V19.9A.27.27,0,0,1,60.607,19.617Zm-.258,8.451V26.49a2.122,2.122,0,0,1,1.608,1.858h-1.35A.27.27,0,0,1,60.349,28.068Zm16.323.28H75.323A2.122,2.122,0,0,1,76.93,26.49v1.578A.27.27,0,0,1,76.672,28.349Z" transform="translate(-59.434 -18.625)"/>
      <path id="Path_35" data-name="Path 35" d="M199.478,56.884a3.562,3.562,0,1,0,3.272,3.55A3.423,3.423,0,0,0,199.478,56.884Zm0,6.107a2.566,2.566,0,1,1,2.357-2.558A2.466,2.466,0,0,1,199.478,62.991Z" transform="translate(-190.248 -55.076)"/>
      <path id="Path_36" data-name="Path 36" d="M119.548,99.705a1.531,1.531,0,1,0,1.407,1.526A1.472,1.472,0,0,0,119.548,99.705Zm0,2.06a.536.536,0,1,1,.492-.534A.515.515,0,0,1,119.548,101.765Z" transform="translate(-115.584 -95.873)"/>
      <path id="Path_37" data-name="Path 37" d="M361.319,99.705a1.531,1.531,0,1,0,1.407,1.526A1.472,1.472,0,0,0,361.319,99.705Zm0,2.06a.536.536,0,1,1,.492-.534A.515.515,0,0,1,361.319,101.765Z" transform="translate(-346.823 -95.873)"/>
    </g>
  </g>
</svg>
