<svg xmlns="http://www.w3.org/2000/svg" viewBox="2298 479 20 20">
  <g id="Group_288" data-name="Group 288" transform="translate(2298 479)">
    <path id="Path_14" data-name="Path 14" d="M109.073,106.148A2.924,2.924,0,1,0,112,109.072,2.9,2.9,0,0,0,109.073,106.148Zm0,4.678a1.754,1.754,0,1,1,1.754-1.754A1.8,1.8,0,0,1,109.073,110.826Z" transform="translate(-99.014 -99.013)"/>
    <path id="Path_15" data-name="Path 15" d="M18.6,7.836H17.544c-.117,0-.234,0-.234-.117a4.888,4.888,0,0,0-.468-1.17.162.162,0,0,1,0-.234l.819-.819a1.346,1.346,0,0,0,0-1.988l-1.17-1.17a1.582,1.582,0,0,0-1.988,0l-.819.819h-.234c-.351-.117-.819-.351-1.17-.468,0-.117-.117-.117-.117-.234V1.4A1.422,1.422,0,0,0,10.76,0H9.24a1.422,1.422,0,0,0-1.4,1.4V2.456c0,.117,0,.234-.117.234a4.888,4.888,0,0,0-1.17.468c-.117.117-.117.117-.234,0L5.5,2.339a1.582,1.582,0,0,0-1.988,0l-1.17,1.17a1.346,1.346,0,0,0,0,1.988l.819.819V6.55a12.135,12.135,0,0,0-.468,1.17c-.117,0-.117.117-.234.117H1.4A1.422,1.422,0,0,0,0,9.24v1.52a1.422,1.422,0,0,0,1.4,1.4H2.456c.117,0,.234,0,.234.117a4.888,4.888,0,0,0,.468,1.17.162.162,0,0,1,0,.234l-.819.819a1.346,1.346,0,0,0,0,1.988l1.17,1.17a1.582,1.582,0,0,0,1.988,0l.819-.819H6.55a7.158,7.158,0,0,0,1.4.585V18.6a1.422,1.422,0,0,0,1.4,1.4h1.52a1.327,1.327,0,0,0,1.287-1.4V17.544c0-.117,0-.234.117-.234a4.888,4.888,0,0,0,1.17-.468c.117-.117.117-.117.234,0l.819.819a1.582,1.582,0,0,0,1.988,0l1.17-1.17a1.346,1.346,0,0,0,0-1.988l-.819-.819v-.234a12.135,12.135,0,0,0,.468-1.17c.117,0,.117-.117.234-.117H18.6a1.422,1.422,0,0,0,1.4-1.4V9.24a1.422,1.422,0,0,0-1.4-1.4Zm.351,2.924a.252.252,0,0,1-.234.234H17.661a1.368,1.368,0,0,0-1.287.936c-.117.351-.351.7-.468,1.053a1.416,1.416,0,0,0,.234,1.637l.819.819c.117,0,.117.117,0,.234l-1.17,1.17c0,.117-.117.117-.234,0l-.819-.819A1.416,1.416,0,0,0,13.1,15.79a4.155,4.155,0,0,1-1.053.468,1.268,1.268,0,0,0-.936,1.287V18.6a.252.252,0,0,1-.234.234H9.357a.252.252,0,0,1-.234-.234V16.959a.777.777,0,0,0-.468-.585,8.117,8.117,0,0,1-1.52-.585,1.483,1.483,0,0,0-.7-.117,1.328,1.328,0,0,0-.936.351l-.819.819c0,.117-.117.117-.234,0l-1.17-1.17c-.117,0-.117-.117,0-.234l.819-.819a1.416,1.416,0,0,0,.234-1.637A4.155,4.155,0,0,1,3.86,11.93a1.268,1.268,0,0,0-1.287-.936H1.521a.252.252,0,0,1-.234-.234V9.24a.252.252,0,0,1,.234-.234H2.573A1.368,1.368,0,0,0,3.86,8.07c.117-.351.351-.7.468-1.053A1.416,1.416,0,0,0,4.094,5.38l-.819-.819c-.117,0-.117-.117,0-.234l1.17-1.17c0-.117.117-.117.234,0l.819.819a1.416,1.416,0,0,0,1.637.234,4.155,4.155,0,0,1,1.053-.468,1.268,1.268,0,0,0,.936-1.287V1.4a.252.252,0,0,1,.234-.234h1.52a.252.252,0,0,1,.234.234V2.456a1.368,1.368,0,0,0,.936,1.287c.351.117.7.351,1.053.468a1.643,1.643,0,0,0,1.637-.234l.819-.819c0-.117.117-.117.234,0l1.17,1.17c.117,0,.117.117,0,.234l-.819.819a1.416,1.416,0,0,0-.234,1.637,4.155,4.155,0,0,1,.468,1.053,1.268,1.268,0,0,0,1.287.936h1.053a.252.252,0,0,1,.234.234V10.76Z" transform="translate(0 0)"/>
  </g>
</svg>
