<?xml version="1.0" encoding="utf-8"?>
<!-- Generator: Adobe Illustrator 21.1.0, SVG Export Plug-In . SVG Version: 6.00 Build 0)  -->
<svg version="1.1" id="Layer_1" xmlns="http://www.w3.org/2000/svg" xmlns:xlink="http://www.w3.org/1999/xlink" x="0px" y="0px"
	 viewBox="0 0 20 20" style="enable-background:new 0 0 20 20;" xml:space="preserve">
<g id="Group_288" transform="translate(2298 479)">
	<path d="M-2287.9-471.9c-1.6,0-2.9,1.3-2.9,2.9c0,1.6,1.3,2.9,2.9,2.9c1.6,0,2.9-1.3,2.9-2.9
		C-2285-470.5-2286.3-471.9-2287.9-471.9C-2287.9-471.9-2287.9-471.9-2287.9-471.9z M-2287.9-467.2c-1,0-1.8-0.8-1.8-1.8
		c0-1,0.8-1.8,1.8-1.8c1,0,1.8,0.8,1.8,1.8c0,0,0,0,0,0C-2286.2-468-2287-467.2-2287.9-467.2z"/>
	<path d="M-2279.4-471.2h-1.1c-0.1,0-0.2,0-0.2-0.1c-0.1-0.4-0.3-0.8-0.5-1.2c-0.1-0.1-0.1-0.2,0-0.2c0,0,0,0,0,0l0.8-0.8
		c0.5-0.5,0.6-1.4,0.1-1.9c0,0-0.1-0.1-0.1-0.1l-1.2-1.2c-0.6-0.5-1.4-0.5-2,0l-0.8,0.8h-0.2c-0.4-0.1-0.8-0.4-1.2-0.5
		c0-0.1-0.1-0.1-0.1-0.2v-1.1c0-0.8-0.6-1.4-1.4-1.4h-1.5c-0.8,0-1.4,0.6-1.4,1.4v1.1c0,0.1,0,0.2-0.1,0.2c-0.4,0.1-0.8,0.3-1.2,0.5
		c-0.1,0.1-0.1,0.1-0.2,0l-0.8-0.8c-0.6-0.5-1.4-0.5-2,0l-1.2,1.2c-0.5,0.5-0.6,1.4-0.1,1.9c0,0,0.1,0.1,0.1,0.1l0.8,0.8v0.2
		c-0.2,0.4-0.3,0.8-0.5,1.2c-0.1,0-0.1,0.1-0.2,0.1h-1.1c-0.8,0-1.4,0.6-1.4,1.4v1.5c0,0.8,0.6,1.4,1.4,1.4h1.1c0.1,0,0.2,0,0.2,0.1
		c0.1,0.4,0.3,0.8,0.5,1.2c0.1,0.1,0.1,0.2,0,0.2c0,0,0,0,0,0l-0.8,0.8c-0.5,0.5-0.6,1.4-0.1,1.9c0,0,0.1,0.1,0.1,0.1l1.2,1.2
		c0.6,0.5,1.4,0.5,2,0l0.8-0.8h0.2c0.4,0.2,0.9,0.4,1.4,0.6v1.2c0,0.8,0.6,1.4,1.4,1.4h1.5c0.7,0,1.3-0.6,1.3-1.4c0,0,0,0,0,0v-1.1
		c0-0.1,0-0.2,0.1-0.2c0.4-0.1,0.8-0.3,1.2-0.5c0.1-0.1,0.1-0.1,0.2,0l0.8,0.8c0.6,0.5,1.4,0.5,2,0l1.2-1.2c0.5-0.5,0.6-1.4,0.1-1.9
		c0,0-0.1-0.1-0.1-0.1l-0.8-0.8v-0.2c0.2-0.4,0.3-0.8,0.5-1.2c0.1,0,0.1-0.1,0.2-0.1h1.1c0.8,0,1.4-0.6,1.4-1.4v-1.5
		C-2278-470.5-2278.6-471.1-2279.4-471.2L-2279.4-471.2z M-2279-468.2c0,0.1-0.1,0.2-0.2,0.2h-1.1c-0.6,0-1.1,0.4-1.3,0.9
		c-0.1,0.4-0.4,0.7-0.5,1.1c-0.3,0.5-0.2,1.2,0.2,1.6l0.8,0.8c0.1,0,0.1,0.1,0,0.2l-1.2,1.2c0,0.1-0.1,0.1-0.2,0l-0.8-0.8
		c-0.4-0.4-1.1-0.5-1.6-0.2c-0.3,0.2-0.7,0.4-1.1,0.5c-0.6,0.2-1,0.7-0.9,1.3v1.1c0,0.1-0.1,0.2-0.2,0.2h-1.5
		c-0.1,0-0.2-0.1-0.2-0.2v-1.6c0-0.3-0.2-0.5-0.5-0.6c-0.5-0.1-1-0.3-1.5-0.6c-0.2-0.1-0.5-0.1-0.7-0.1c-0.3,0-0.7,0.1-0.9,0.4
		l-0.8,0.8c0,0.1-0.1,0.1-0.2,0l-1.2-1.2c-0.1,0-0.1-0.1,0-0.2l0.8-0.8c0.4-0.4,0.5-1.1,0.2-1.6c-0.2-0.3-0.4-0.7-0.5-1.1
		c-0.2-0.6-0.7-1-1.3-0.9h-1.1c-0.1,0-0.2-0.1-0.2-0.2v-1.5c0-0.1,0.1-0.2,0.2-0.2h1.1c0.6,0,1.1-0.4,1.3-0.9
		c0.1-0.4,0.4-0.7,0.5-1.1c0.3-0.5,0.2-1.2-0.2-1.6l-0.8-0.8c-0.1,0-0.1-0.1,0-0.2l1.2-1.2c0-0.1,0.1-0.1,0.2,0l0.8,0.8
		c0.4,0.4,1.1,0.5,1.6,0.2c0.3-0.2,0.7-0.4,1.1-0.5c0.6-0.2,1-0.7,0.9-1.3v-1.1c0-0.1,0.1-0.2,0.2-0.2h1.5c0.1,0,0.2,0.1,0.2,0.2
		v1.1c0,0.6,0.4,1.1,0.9,1.3c0.4,0.1,0.7,0.4,1.1,0.5c0.5,0.2,1.2,0.1,1.6-0.2l0.8-0.8c0-0.1,0.1-0.1,0.2,0l1.2,1.2
		c0.1,0,0.1,0.1,0,0.2l-0.8,0.8c-0.4,0.4-0.5,1.1-0.2,1.6c0.2,0.3,0.4,0.7,0.5,1.1c0.2,0.6,0.7,1,1.3,0.9h1.1c0.1,0,0.2,0.1,0.2,0.2
		L-2279-468.2L-2279-468.2z"/>
</g>
</svg>
