<svg id="Layer_1" data-name="Layer 1" xmlns="http://www.w3.org/2000/svg" viewBox="0 0 2815.07 958.43"><defs><style>.cls-1{fill:#fbc02d;}.cls-2{fill:#f9a825;}.cls-3{fill:#fff263;}.cls-4{fill:#f57f17;}.cls-5{fill:#fff;}</style></defs><title>Splash Alpha logo</title><path class="cls-1" d="M1109.6,736.86,789.89,417.16,310.67,896.37l479.21,479.21L1269.1,896.37l160.22-160.22v-319ZM789.89,1056.58,629.68,896.37,789.89,736.15,950.11,896.37,789.9,1056.58Z" transform="translate(-310.67 -417.16)"/><path class="cls-2" d="M1429.32,1056.58v319L1109.6,1055.86l159.5-159.5L1320,947.24Z" transform="translate(-310.67 -417.16)"/><path class="cls-3" d="M1429.32,417.16V423L792.8,1059.48l-2.9-2.9Z" transform="translate(-310.67 -417.16)"/><path class="cls-4" d="M1109.6,1055.88l159.52-159.52,36.5,36.5L1146.1,1092.38Z" transform="translate(-310.67 -417.16)"/><path class="cls-5" d="M1849.2,979.43H1584.67V535.26h100v363H1849.2Zm143.34-153v153h-100V535.26h156.73q167.88,0,167.88,141.55,0,66.91-48.17,108.26t-128.7,41.35Zm0-214.34V750.53h39.34q79.91,0,79.91-70,0-68.45-79.91-68.45ZM2650,979.43H2549.69V798.54h-184V979.43h-100V535.26h100V712.43h184V535.26H2650Zm475.69,0h-109l-31.59-98.81h-158l-31.28,98.81H2687.45l161.69-444.18h118.63ZM2962.2,803.81l-47.7-149.3q-5.27-16.73-7.43-40h-2.48a169.65,169.65,0,0,1-7.74,38.72l-48.32,150.54Z" transform="translate(-310.67 -417.16)"/><path class="cls-5" d="M1770,1114.71l-40.32,142.77h-19.61l-29.37-104.34a65.22,65.22,0,0,1-2.29-14.54h-.4a73.76,73.76,0,0,1-2.59,14.34l-29.57,104.54h-19.42l-41.82-142.77H1603l30.37,109.52a72,72,0,0,1,2.39,14.34h.5a84.52,84.52,0,0,1,3.09-14.34l31.56-109.52h16L1717.22,1225a80.88,80.88,0,0,1,2.39,13.34h.4a79.77,79.77,0,0,1,2.69-13.74l29.17-109.92Zm289.73,142.77H2041.2l-15.13-40h-60.53l-14.24,40h-18.62l54.76-142.77h17.32Zm-39.13-55.06-22.4-60.83A58,58,0,0,1,1996,1132h-.4a53.37,53.37,0,0,1-2.29,9.56l-22.2,60.83Zm300.18,55.06h-74.07V1114.71h16.73v127.64h57.35Zm262,0h-74.07V1114.71h16.73v127.64h57.35Zm263.55,0h-75.67V1114.71h72.48v15.13h-55.75v47.49h51.57v15h-51.57v50h58.94Zm277.88-127.64h-41.22v127.64h-16.73V1129.85H3025.1v-15.13h99.06Z" transform="translate(-310.67 -417.16)"/></svg>