<?xml version="1.0" encoding="utf-8"?>
<!-- Generator: Adobe Illustrator 21.1.0, SVG Export Plug-In . SVG Version: 6.00 Build 0)  -->
<svg version="1.1" id="Layer_1" xmlns="http://www.w3.org/2000/svg" xmlns:xlink="http://www.w3.org/1999/xlink" x="0px" y="0px"
	 viewBox="0 0 20 18" style="enable-background:new 0 0 20 18;" xml:space="preserve">
<style type="text/css">
	.st0{fill:#1D1D1B;}
</style>
<g id="Group_289" transform="translate(2298 384)">
	<path class="st0" d="M-2287.1-384c-5,0-9,4-9.1,9c0,0.9,0.1,1.9,0.3,2.8l-1.2-0.7c-0.3-0.2-0.7-0.1-0.9,0.2
		c-0.2,0.3-0.1,0.7,0.2,0.9c0,0,0,0,0,0l2.9,1.7l0,0c0,0,0.1,0,0.1,0c0,0,0,0,0.1,0c0,0,0.1,0,0.1,0c0,0,0,0,0.1,0s0,0,0,0s0,0,0,0
		s0,0,0,0c0,0,0.1,0,0.1,0c0,0,0,0,0.1,0c0,0,0.1,0,0.1,0c0,0,0.1-0.1,0.1-0.1c0,0,0,0,0-0.1c0,0,0,0,0,0s0,0,0,0c0,0,0,0,0-0.1
		l1.1-2.8c0.1-0.3,0-0.7-0.3-0.8c0,0,0,0,0,0c-0.3-0.1-0.7,0-0.8,0.3l-0.6,1.4c-0.2-0.9-0.4-1.8-0.3-2.7c0-4.3,3.4-7.8,7.7-7.9
		c4.3,0,7.8,3.4,7.9,7.7c0,4.3-3.4,7.8-7.7,7.9c0,0,0,0-0.1,0c-0.3,0-0.6,0.3-0.6,0.6c0,0.3,0.3,0.6,0.6,0.6c5,0,9-4,9-9
		C-2278.1-380-2282.1-384-2287.1-384L-2287.1-384z"/>
	<path class="st0" d="M-2287.3-373.8c0.1,0,0.1,0,0.2,0c0,0,0,0,0,0c0.1,0,0.1,0,0.2,0c0,0,0,0,0.1,0c0.1,0,0.1-0.1,0.1-0.1
		c0,0,0,0,0,0l4-3.9c0.2-0.2,0.2-0.6,0-0.9c0,0,0,0,0,0c-0.2-0.2-0.7-0.2-0.9,0l-3.7,3.6l-3.3-1.4c-0.3-0.1-0.7,0-0.8,0.3
		c-0.1,0.3,0,0.7,0.3,0.8c0,0,0,0,0,0L-2287.3-373.8L-2287.3-373.8z"/>
</g>
</svg>
