<svg xmlns="http://www.w3.org/2000/svg" viewBox="2298 384 20 18">
  <defs>
    <style>
      .cls-1 {
        fill: #1d1d1b;
      }
    </style>
  </defs>
  <g id="Group_289" data-name="Group 289" transform="translate(2298 384)">
    <path id="Path_31" data-name="Path 31" class="cls-1" d="M10.925,3.315a9.041,9.041,0,0,0-9.074,8.974,10.336,10.336,0,0,0,.326,2.793L.955,14.376a.639.639,0,0,0-.869.227.627.627,0,0,0,.229.861L3.179,17.12l.018.007a.63.63,0,0,0,.095.039.682.682,0,0,0,.066.021.661.661,0,0,0,.083.01c.02,0,.039.008.059.008s.021,0,.033,0,.02,0,.031,0,.03-.008.045-.011A.656.656,0,0,0,3.7,17.17a.625.625,0,0,0,.072-.029.6.6,0,0,0,.076-.042.579.579,0,0,0,.126-.108.576.576,0,0,0,.05-.064c.009-.012.02-.022.027-.034s.006-.021.01-.031.022-.032.029-.051l1.14-2.8a.628.628,0,0,0-.35-.82.637.637,0,0,0-.826.348l-.585,1.437a9.255,9.255,0,0,1-.345-2.663,7.8,7.8,0,1,1,7.8,7.74.63.63,0,1,0,0,1.26,9,9,0,1,0,0-18Z" transform="translate(0 -3.315)"/>
    <path id="Path_32" data-name="Path 32" class="cls-1" d="M25.054,24.68a.633.633,0,0,0,.2.04c.014,0,.028.008.042.008a.633.633,0,0,0,.215-.042.562.562,0,0,0,.056-.026.635.635,0,0,0,.146-.1c.01-.008.023-.012.032-.021l3.964-3.932a.626.626,0,0,0,0-.891.638.638,0,0,0-.9,0l-3.664,3.633L21.86,21.989a.636.636,0,0,0-.831.338.628.628,0,0,0,.34.824L25.05,24.68Z" transform="translate(-14.372 -14.47)"/>
  </g>
</svg>
