<svg xmlns="http://www.w3.org/2000/svg" viewBox="2298 335 21 21">
  <path id="Path_28" data-name="Path 28" d="M22.681,9.783H21.663V5.148a2.028,2.028,0,0,0-2.036-2.015H18.249L16.839.622A1.223,1.223,0,0,0,15.771,0a1.236,1.236,0,0,0-.593.152L9.764,3.133H3.717A2.028,2.028,0,0,0,1.681,5.148V18.985A2.028,2.028,0,0,0,3.717,21H19.628a2.028,2.028,0,0,0,2.036-2.015V14.921h1.018V9.783ZM19.628,3.939a1.214,1.214,0,0,1,1.208,1.075h-1.53l-.6-1.075ZM15.574.857a.417.417,0,0,1,.553.156l2.247,4H8.023Zm5.275,18.128a1.217,1.217,0,0,1-1.221,1.209H3.717A1.217,1.217,0,0,1,2.5,18.985V5.148A1.217,1.217,0,0,1,3.717,3.939H8.3L6.347,5.014H3.971a.4.4,0,1,0,0,.806H20.849V9.783H17.872a2.5,2.5,0,0,0-2.508,2.483v.173a2.5,2.5,0,0,0,2.508,2.483h2.977v4.063Zm1.018-4.87H17.872a1.687,1.687,0,0,1-1.694-1.677v-.173a1.687,1.687,0,0,1,1.694-1.677h3.995Zm-2.748-1.73a.9.9,0,1,1-.9-.89A.894.894,0,0,1,19.119,12.385Z" transform="translate(2296.319 335)"/>
</svg>
