<?xml version="1.0" encoding="utf-8"?>
<!-- Generator: Adobe Illustrator 21.1.0, SVG Export Plug-In . SVG Version: 6.00 Build 0)  -->
<svg version="1.1" id="Layer_1" xmlns="http://www.w3.org/2000/svg" xmlns:xlink="http://www.w3.org/1999/xlink" x="0px" y="0px"
	 viewBox="0 0 21 21" style="enable-background:new 0 0 21 21;" xml:space="preserve">
<path d="M21,9.8h-1V5.1c0-1.1-0.9-2-2-2h-1.4l-1.4-2.5C14.9,0.2,14.5,0,14.1,0c-0.2,0-0.4,0.1-0.6,0.2l-5.4,3H2c-1.1,0-2,0.9-2,2V19
	c0,1.1,0.9,2,2,2h15.9c1.1,0,2-0.9,2-2v-4.1h1L21,9.8L21,9.8z M17.9,3.9c0.6,0,1.1,0.5,1.2,1.1h-1.5L17,3.9H17.9z M13.9,0.9
	c0.2-0.1,0.4,0,0.6,0.2l2.2,4H6.3L13.9,0.9z M19.2,19c0,0.7-0.6,1.2-1.2,1.2H2c-0.7,0-1.2-0.5-1.2-1.2V5.1c0-0.7,0.5-1.2,1.2-1.2
	h4.6L4.7,5H2.3C2.1,5,1.9,5.2,1.9,5.4s0.2,0.4,0.4,0.4h16.9v4h-3c-1.4,0-2.5,1.1-2.5,2.5v0.2c0,1.4,1.1,2.5,2.5,2.5h3
	C19.2,14.9,19.2,19,19.2,19z M20.2,14.1h-4c-0.9,0-1.7-0.7-1.7-1.7v-0.2c0-0.9,0.8-1.7,1.7-1.7h4V14.1z M17.4,12.4
	c0,0.5-0.4,0.9-0.9,0.9c-0.5,0-0.9-0.4-0.9-0.9c0-0.5,0.4-0.9,0.9-0.9c0,0,0,0,0,0C17,11.5,17.4,11.9,17.4,12.4
	C17.4,12.4,17.4,12.4,17.4,12.4z"/>
</svg>
