<?xml version="1.0" encoding="utf-8"?>
<!-- Generator: Adobe Illustrator 21.1.0, SVG Export Plug-In . SVG Version: 6.00 Build 0)  -->
<svg version="1.1" id="Layer_1" xmlns="http://www.w3.org/2000/svg" xmlns:xlink="http://www.w3.org/1999/xlink" x="0px" y="0px"
	 viewBox="0 0 142.9 142.9" style="enable-background:new 0 0 142.9 142.9;" xml:space="preserve">
<style type="text/css">
	.st0{fill:#FFFFFF;}
	.st1{fill:#424242;}
	.st2{fill:#424242;enable-background:new    ;}
</style>
<g id="Withdraw_button" transform="translate(2660)">
	<g transform="matrix(1, 0, 0, 1, -2660, 0)">
		<g id="circel-2" transform="translate(2856 411)">
			<path class="st0" d="M-2784.5-272.1c-9.1,0-17.9-1.8-26.3-5.3c-4-1.7-7.9-3.8-11.5-6.2c-3.6-2.4-6.9-5.2-10-8.2
				c-3.1-3.1-5.8-6.4-8.2-10c-2.4-3.6-4.5-7.5-6.2-11.5c-3.5-8.3-5.3-17.2-5.3-26.3s1.8-17.9,5.3-26.3c1.7-4,3.8-7.9,6.2-11.5
				c2.4-3.6,5.2-6.9,8.2-10c3.1-3.1,6.4-5.8,10-8.2c3.6-2.4,7.5-4.5,11.5-6.2c8.3-3.5,17.2-5.3,26.3-5.3c9.1,0,17.9,1.8,26.3,5.3
				c4,1.7,7.9,3.8,11.5,6.2c3.6,2.4,6.9,5.2,10,8.2c3.1,3.1,5.8,6.4,8.2,10c2.4,3.6,4.5,7.5,6.2,11.5c3.5,8.3,5.3,17.2,5.3,26.3
				s-1.8,17.9-5.3,26.3c-1.7,4-3.8,7.9-6.2,11.5c-2.4,3.6-5.2,6.9-8.2,10c-3.1,3.1-6.4,5.8-10,8.2c-3.6,2.4-7.5,4.5-11.5,6.2
				C-2766.6-273.8-2775.4-272.1-2784.5-272.1z"/>
			<path class="st1" d="M-2784.5-273.1c9,0,17.7-1.8,25.9-5.2c3.9-1.7,7.7-3.7,11.3-6.1c3.5-2.4,6.8-5.1,9.8-8.1
				c3-3,5.7-6.3,8.1-9.8c2.4-3.6,4.5-7.4,6.1-11.3c3.5-8.2,5.2-16.9,5.2-25.9c0-9-1.8-17.7-5.2-25.9c-1.7-3.9-3.7-7.7-6.1-11.3
				c-2.4-3.5-5.1-6.8-8.1-9.8c-3-3-6.3-5.7-9.8-8.1c-3.6-2.4-7.4-4.5-11.3-6.1c-8.2-3.5-16.9-5.2-25.9-5.2c-9,0-17.7,1.8-25.9,5.2
				c-3.9,1.7-7.7,3.7-11.3,6.1c-3.5,2.4-6.8,5.1-9.8,8.1c-3,3-5.7,6.3-8.1,9.8c-2.4,3.6-4.5,7.4-6.1,11.3
				c-3.5,8.2-5.2,16.9-5.2,25.9c0,9,1.8,17.7,5.2,25.9c1.7,3.9,3.7,7.7,6.1,11.3c2.4,3.5,5.1,6.8,8.1,9.8s6.3,5.7,9.8,8.1
				c3.6,2.4,7.4,4.5,11.3,6.1C-2802.2-274.8-2793.5-273.1-2784.5-273.1 M-2784.5-271.1c-37.8,0-68.5-30.7-68.5-68.5
				s30.7-68.5,68.5-68.5c37.8,0,68.5,30.7,68.5,68.5S-2746.7-271.1-2784.5-271.1z"/>
		</g>
	</g>
	<g id="Group_319" transform="translate(0 0.419)">
		<path class="st2" d="M-2619,103.4l0.2,1.4l0,0l0.3-1.4l2.1-7.4h1.4l2.1,7.4l0.3,1.5h0l0.2-1.5l1.7-7.4h1.5l-2.7,11.4h-1.4
			l-2.2-7.9l-0.2-1h0l-0.2,1l-2.3,7.9h-1.4l-2.7-11.4h1.5L-2619,103.4z M-2605.8,96.7h-1.5v-1.6h1.5V96.7z M-2605.8,107.3h-1.5v-8.5
			h1.5V107.3z M-2601.4,96.8v2h1.6v1.1h-1.6v5.1c0,0.4,0.1,0.7,0.2,0.8s0.4,0.2,0.7,0.2c0.1,0,0.2,0,0.3,0c0.1,0,0.2,0,0.3-0.1
			l0.2,1.1c-0.1,0.1-0.3,0.2-0.5,0.2c-0.2,0.1-0.4,0.1-0.7,0.1c-0.6,0-1.1-0.2-1.5-0.6c-0.4-0.4-0.6-1-0.6-1.8V100h-1.3v-1.1h1.3v-2
			H-2601.4z M-2596.3,100c0.3-0.4,0.6-0.7,1.1-0.9c0.4-0.2,0.9-0.3,1.4-0.3c0.9,0,1.6,0.3,2.1,0.8c0.5,0.5,0.8,1.4,0.8,2.5v5.3h-1.5
			V102c0-0.7-0.1-1.2-0.4-1.5c-0.3-0.3-0.7-0.5-1.3-0.5c-0.4,0-0.8,0.1-1.2,0.3c-0.3,0.2-0.6,0.5-0.9,0.8v6.2h-1.5V95.1h1.5V100z
			 M-2589.1,103.2c0-1.4,0.3-2.5,0.9-3.3c0.6-0.8,1.4-1.3,2.4-1.3c0.5,0,0.9,0.1,1.3,0.3s0.7,0.4,1,0.8v-4.6h1.5v12.2h-1.3l-0.2-1
			c-0.3,0.4-0.6,0.7-1,0.9c-0.4,0.2-0.9,0.3-1.4,0.3c-1,0-1.8-0.4-2.4-1.1c-0.6-0.7-0.9-1.7-0.9-2.9V103.2z M-2587.6,103.4
			c0,0.9,0.2,1.5,0.5,2.1c0.3,0.5,0.9,0.8,1.6,0.8c0.5,0,0.8-0.1,1.2-0.3s0.6-0.5,0.8-0.9v-3.9c-0.2-0.3-0.5-0.6-0.8-0.8
			c-0.3-0.2-0.7-0.3-1.1-0.3c-0.7,0-1.3,0.3-1.6,0.9s-0.5,1.4-0.5,2.4V103.4z M-2575.7,100.2l-0.8,0c-0.4,0-0.7,0.1-1,0.3
			c-0.3,0.2-0.5,0.5-0.6,0.8v6h-1.5v-8.5h1.4l0.1,1.2c0.2-0.4,0.5-0.8,0.9-1s0.8-0.4,1.2-0.4c0.1,0,0.2,0,0.3,0c0.1,0,0.2,0,0.3,0.1
			L-2575.7,100.2z M-2569,107.3c-0.1-0.3-0.1-0.5-0.1-0.7c0-0.2,0-0.4-0.1-0.6c-0.3,0.4-0.7,0.7-1.1,1s-1,0.4-1.5,0.4
			c-0.9,0-1.6-0.2-2-0.7s-0.7-1.1-0.7-1.9c0-0.8,0.3-1.4,1-1.9c0.7-0.5,1.5-0.7,2.7-0.7h1.7v-0.8c0-0.5-0.2-0.9-0.5-1.2
			c-0.3-0.3-0.7-0.4-1.3-0.4c-0.5,0-0.9,0.1-1.2,0.4c-0.3,0.3-0.5,0.6-0.5,0.9h-1.5l0,0c0-0.6,0.3-1.2,0.9-1.7
			c0.6-0.5,1.4-0.8,2.4-0.8c1,0,1.7,0.2,2.3,0.7c0.6,0.5,0.9,1.2,0.9,2.1v4.1c0,0.3,0,0.6,0,0.9s0.1,0.6,0.2,0.8H-2569z
			 M-2571.6,106.2c0.6,0,1.1-0.1,1.5-0.4c0.4-0.3,0.7-0.6,0.9-1v-1.4h-1.7c-0.6,0-1.1,0.2-1.5,0.5c-0.4,0.3-0.6,0.7-0.6,1.1
			c0,0.4,0.1,0.7,0.4,0.9S-2572,106.2-2571.6,106.2z M-2563.2,104.2l0.2,1h0l0.2-1l1.7-5.4h1.2l1.7,5.4l0.2,1.1h0l0.2-1.1l1.3-5.4
			h1.5l-2.5,8.5h-1.2l-1.6-5.1l-0.4-1.4l0,0l-0.3,1.4l-1.6,5.1h-1.2l-2.5-8.5h1.5L-2563.2,104.2z"/>
		<path class="st1" d="M-2570.4,75.6h-37.2c-0.5,0-1-0.4-1-1s0.4-1,1-1h37.2c0.5,0,1,0.4,1,1S-2569.9,75.6-2570.4,75.6z
			 M-2619.7,35.6v19.8c0,0.5,0.4,1,1,1h6.8c0.5,0,1-0.4,1-1s-0.4-1-1-1h-5.9V36.6h57.6v13.9c0,0.5,0.4,1,1,1c0.5,0,1-0.4,1-1h0V35.6
			c0-0.5-0.4-1-1-1h-59.5C-2619.2,34.6-2619.7,35.1-2619.7,35.6z M-2608.5,79c0,0.5,0.4,1,1,1h37.2c0.5,0,1-0.4,1-1c0-0.5-0.4-1-1-1
			h-37.2C-2608.1,78-2608.5,78.4-2608.5,79z M-2610,46.5h42.1c0.5,0,1-0.4,1-1c0-0.5-0.4-1-1-1h-42.1c-0.5,0-1,0.4-1,1
			C-2611,46-2610.6,46.5-2610,46.5z M-2567,55.4c0,0.5,0.4,1,1,1h6.8c0.5,0,1-0.4,1-1s-0.4-1-1-1h-6.8
			C-2566.6,54.5-2567,54.9-2567,55.4z M-2569.4,50.5v19.8c0,0.5-0.4,1-1,1h-7.4c0,0,0,0,0,0s0,0,0,0h-22.3c0,0,0,0,0,0c0,0,0,0,0,0
			h-7.4c-0.5,0-1-0.4-1-1v-7.4c0,0,0,0,0,0s0,0,0,0V50.5c0-0.5,0.4-1,1-1h8.7c0,0,0,0,0,0c0,0,0,0,0,0c0.5,0,1,0.4,1,1c0,0,0,0,0,0
			c0,4.9,4,8.9,9,8.9c2.4,0,4.6-0.9,6.3-2.6c1.5-1.5,2.4-3.4,2.6-5.4h-14.5c-0.5,0-1-0.4-1-1c0-0.5,0.4-1,1-1h15.5c0.5,0,1,0.4,1,1
			c0,0,0,0,0,0c0,0,0,0,0,0c0,2.9-1.1,5.7-3.2,7.7c-4.2,4.2-11.1,4.2-15.4,0c-1.8-1.8-2.9-4.2-3.1-6.7h-6.8V62
			c3.9,0.4,6.9,3.5,7.4,7.4h20.5c0.2-1.9,1.1-3.6,2.4-5c1.3-1.3,3.1-2.2,5-2.4V51.4h-3.4c-0.5,0-1-0.4-1-1c0-0.5,0.4-1,1-1h4.3
			C-2569.9,49.5-2569.4,49.9-2569.4,50.5z M-2601.2,69.3c-0.4-2.8-2.6-5-5.4-5.4v5.4H-2601.2z M-2571.4,63.9
			c-1.4,0.2-2.6,0.8-3.6,1.8c-1,1-1.6,2.3-1.8,3.6h5.4V63.9z"/>
	</g>
</g>
</svg>
