<?xml version="1.0" encoding="utf-8"?>
<!-- Generator: Adobe Illustrator 21.1.0, SVG Export Plug-In . SVG Version: 6.00 Build 0)  -->
<svg version="1.1" id="Layer_1" xmlns="http://www.w3.org/2000/svg" xmlns:xlink="http://www.w3.org/1999/xlink" x="0px" y="0px"
	 viewBox="0 0 61.4 45.3" style="enable-background:new 0 0 61.4 45.3;" xml:space="preserve">
<style type="text/css">
	.st0{fill:#424242;}
</style>
<g id="Withdraw_icon" transform="translate(2892.946 440.581)">
	<path class="st0" d="M-2831.6-424.8c0,0.5-0.4,1-1,1c-0.5,0-1-0.4-1-1v-13.9h-57.6v17.9h5.9c0.5,0,1,0.4,1,1c0,0.5-0.4,1-1,1h-6.8
		c-0.5,0-1-0.4-1-1v-19.8c0-0.5,0.4-1,1-1h59.5c0.5,0,1,0.4,1,1L-2831.6-424.8L-2831.6-424.8z M-2839.3-418.8h6.8c0.5,0,1-0.4,1-1
		c0-0.5-0.4-1-1-1h-6.8c-0.5,0-1,0.4-1,1C-2840.3-419.3-2839.9-418.8-2839.3-418.8z"/>
	<path class="st0" d="M-2883.3-428.7c-0.5,0-1-0.4-1-1c0-0.5,0.4-1,1-1h42.1c0.5,0,1,0.4,1,1c0,0.5-0.4,1-1,1H-2883.3z"/>
	<path class="st0" d="M-2880.8-399.6c-0.5,0-1-0.4-1-1s0.4-1,1-1h37.2c0.5,0,1,0.4,1,1s-0.4,1-1,1H-2880.8z"/>
	<path class="st0" d="M-2880.8-395.3c-0.5,0-1-0.4-1-1c0-0.5,0.4-1,1-1h37.2c0.5,0,1,0.4,1,1c0,0.5-0.4,1-1,1H-2880.8z"/>
	<path class="st0" d="M-2843.7-425.7h-4.3c-0.5,0-1,0.4-1,1c0,0.5,0.4,1,1,1h3.4v10.5c-1.9,0.2-3.6,1.1-5,2.4
		c-1.3,1.3-2.2,3.1-2.4,5h-20.5c-0.4-3.9-3.5-6.9-7.4-7.4v-10.5h6.8c0.2,2.5,1.3,4.9,3.1,6.7c4.2,4.2,11.1,4.2,15.4,0
		c2-2,3.2-4.8,3.2-7.7c0,0,0,0,0,0c0,0,0,0,0,0c0-0.5-0.4-1-1-1h-15.5c-0.5,0-1,0.4-1,1c0,0.5,0.4,1,1,1h14.5
		c-0.2,2-1.1,3.9-2.6,5.4c-1.7,1.7-4,2.6-6.3,2.6c-4.9,0-9-4-9-8.9c0,0,0,0,0,0c0-0.5-0.4-1-1-1l0,0c0,0,0,0,0,0c0,0,0,0,0,0h-8.7
		c-0.5,0-1,0.4-1,1v12.4c0,0,0,0,0,0s0,0,0,0v7.4c0,0.5,0.4,1,1,1h7.4c0,0,0,0,0,0c0,0,0,0,0,0h22.3c0,0,0,0,0,0s0,0,0,0h7.4
		c0.5,0,1-0.4,1-1v-19.8C-2842.7-425.3-2843.1-425.7-2843.7-425.7z M-2879.9-411.3c2.8,0.4,5,2.6,5.4,5.4h-5.4V-411.3z
		 M-2850.1-405.9c0.2-1.4,0.8-2.6,1.8-3.6c1-1,2.3-1.6,3.6-1.8v5.4H-2850.1z"/>
</g>
</svg>
