<svg xmlns="http://www.w3.org/2000/svg" viewBox="2892.946 440.581 61.395 45.288">
  <defs>
    <style>
      .cls-1 {
        fill: #424242;
      }
    </style>
  </defs>
  <g id="Withdraw_icon" data-name="Withdraw icon" transform="translate(2892.946 440.581)">
    <path id="Path_1" data-name="Path 1" class="cls-1" d="M61.394,96.1a.959.959,0,0,1-1.919,0V82.195H1.919V100.1H7.774a.959.959,0,1,1,0,1.919H.959A.96.96,0,0,1,0,101.061V81.235a.96.96,0,0,1,.959-.959H60.433a.96.96,0,0,1,.959.959V96.1Zm-7.776,5.916h6.815a.959.959,0,0,0,0-1.919H53.618a.959.959,0,0,0,0,1.919Z" transform="translate(0 -80.276)"/>
    <path id="Path_2" data-name="Path 2" class="cls-1" d="M87.42,181.007a.959.959,0,1,1,0-1.919h42.129a.959.959,0,1,1,0,1.919Z" transform="translate(-77.787 -169.175)"/>
    <path id="Path_3" data-name="Path 3" class="cls-1" d="M120.8,228.494a.959.959,0,1,1,0,1.919h-7.714v17.907h35.252V230.413h-3.378a.959.959,0,1,1,0-1.919h4.337a.96.96,0,0,1,.959.959v19.825a.961.961,0,0,1-.959.959h-37.17a.96.96,0,0,1-.959-.959V229.453a.96.96,0,0,1,.959-.959Zm19.823,0H125.133a.959.959,0,1,0,0,1.919h15.489a.959.959,0,1,0,0-1.919Z" transform="translate(-100.013 -213.625)"/>
    <path id="Path_4" data-name="Path 4" class="cls-1" d="M112.124,471.289a.959.959,0,1,1,0-1.919H149.3a.959.959,0,0,1,0,1.919Z" transform="translate(-100.013 -430.337)"/>
    <path id="Path_5" data-name="Path 5" class="cls-1" d="M112.124,514.518a.959.959,0,1,1,0-1.919H149.3a.959.959,0,0,1,0,1.919Z" transform="translate(-100.013 -469.23)"/>
    <path id="Path_6" data-name="Path 6" class="cls-1" d="M197.626,229.453a.959.959,0,0,1,1.919,0,8.955,8.955,0,0,0,15.283,6.333l0,0,0,0a8.925,8.925,0,0,0,2.622-6.329.959.959,0,1,1,1.919,0,10.843,10.843,0,0,1-3.184,7.688l0,0a10.869,10.869,0,0,1-18.556-7.686Z" transform="translate(-177.801 -213.625)"/>
    <path id="Path_7" data-name="Path 7" class="cls-1" d="M112.124,353.949a.959.959,0,1,1,0-1.919,8.393,8.393,0,0,1,8.394,8.394.959.959,0,1,1-1.919,0,6.475,6.475,0,0,0-6.475-6.475Z" transform="translate(-100.013 -324.768)"/>
    <path id="Path_8" data-name="Path 8" class="cls-1" d="M415.995,352.03a.959.959,0,1,1,0,1.919,6.454,6.454,0,0,0-4.579,1.893l0,0a6.454,6.454,0,0,0-1.893,4.579.959.959,0,1,1-1.919,0,8.372,8.372,0,0,1,2.458-5.932l0,0A8.372,8.372,0,0,1,415.995,352.03Z" transform="translate(-366.712 -324.768)"/>
  </g>
</svg>
