<svg xmlns="http://www.w3.org/2000/svg" xmlns:xlink="http://www.w3.org/1999/xlink" viewBox="2852.513 410.049 142.949 142.949">
  <defs>
    <style>
      .cls-1 {
        fill: #fff;
      }

      .cls-2, .cls-3, .cls-5 {
        fill: #424242;
      }

      .cls-2 {
        font-size: 16px;
        font-family: Roboto-Regular, Roboto;
      }

      .cls-4, .cls-5 {
        stroke: none;
      }

      .cls-6 {
        filter: url(#circel);
      }
    </style>
    <filter id="circel" x="2852.513" y="410.049" width="142.949" height="142.949" filterUnits="userSpaceOnUse">
      <feOffset dy="2" input="SourceAlpha"/>
      <feGaussianBlur stdDeviation="1" result="blur"/>
      <feFlood flood-opacity="0.239"/>
      <feComposite operator="in" in2="blur"/>
      <feComposite in="SourceGraphic"/>
    </filter>
  </defs>
  <g id="Withdraw" transform="translate(2855.513 411.049)">
    <g class="cls-6" transform="matrix(1, 0, 0, 1, -2855.51, -411.05)">
      <g id="circel-2" data-name="circel" class="cls-1" transform="translate(2855.51 411.05)">
        <path class="cls-4" d="M 68.47451782226563 135.9490509033203 C 59.36508178710938 135.9490509033203 50.52866363525391 134.1651763916016 42.21070098876953 130.64697265625 C 38.21277236938477 128.9559936523438 34.3567008972168 126.8629760742188 30.74957275390625 124.4260482788086 C 27.17646408081055 122.0121002197266 23.81644439697266 119.2398300170898 20.76284599304199 116.1862106323242 C 17.70922660827637 113.1326065063477 14.93695449829102 109.772575378418 12.52300834655762 106.199462890625 C 10.08608150482178 102.5923538208008 7.993063449859619 98.73626708984375 6.30208158493042 94.73833465576172 C 2.783881425857544 86.42038726806641 1.000008702278137 77.58395385742188 1.000008702278137 68.47451782226563 C 1.000008702278137 59.36508178710938 2.783881425857544 50.52866363525391 6.30208158493042 42.21070098876953 C 7.993063449859619 38.21277236938477 10.08608150482178 34.3567008972168 12.52300834655762 30.74957275390625 C 14.93695449829102 27.17646408081055 17.70922660827637 23.81644439697266 20.76284599304199 20.76284599304199 C 23.81644439697266 17.70922660827637 27.17646408081055 14.93695449829102 30.74957275390625 12.52300834655762 C 34.3567008972168 10.08608150482178 38.21277236938477 7.993063449859619 42.21070098876953 6.30208158493042 C 50.52866363525391 2.783881425857544 59.36508178710938 1.000008702278137 68.47451782226563 1.000008702278137 C 77.58395385742188 1.000008702278137 86.42038726806641 2.783881425857544 94.73833465576172 6.30208158493042 C 98.73626708984375 7.993063449859619 102.5923538208008 10.08608150482178 106.199462890625 12.52300834655762 C 109.772575378418 14.93695449829102 113.1326065063477 17.70922660827637 116.1862106323242 20.76284599304199 C 119.2398300170898 23.81644439697266 122.0121002197266 27.17646408081055 124.4260482788086 30.74957275390625 C 126.8629760742188 34.3567008972168 128.9559936523438 38.21277236938477 130.64697265625 42.21070098876953 C 134.1651763916016 50.52866363525391 135.9490509033203 59.36508178710938 135.9490509033203 68.47451782226563 C 135.9490509033203 77.58395385742188 134.1651763916016 86.42038726806641 130.64697265625 94.73833465576172 C 128.9559936523438 98.73626708984375 126.8629760742188 102.5923538208008 124.4260482788086 106.199462890625 C 122.0121002197266 109.772575378418 119.2398300170898 113.1326065063477 116.1862106323242 116.1862106323242 C 113.1326065063477 119.2398300170898 109.772575378418 122.0121002197266 106.199462890625 124.4260482788086 C 102.5923538208008 126.8629760742188 98.73626708984375 128.9559936523438 94.73833465576172 130.64697265625 C 86.42038726806641 134.1651763916016 77.58395385742188 135.9490509033203 68.47451782226563 135.9490509033203 Z"/>
        <path class="cls-5" d="M 68.47451782226563 134.9490356445313 C 77.44939422607422 134.9490356445313 86.15475463867188 133.1917419433594 94.34880065917969 129.7259521484375 C 98.28725433349609 128.0601348876953 102.0860366821289 125.9981994628906 105.6396560668945 123.5974197387695 C 109.1600341796875 121.2191009521484 112.4704971313477 118.4877166748047 115.4790954589844 115.4790954589844 C 118.4877166748047 112.4704971313477 121.2191009521484 109.1600341796875 123.5974197387695 105.6396560668945 C 125.9981994628906 102.0860366821289 128.0601348876953 98.28725433349609 129.7259521484375 94.34880065917969 C 133.1917419433594 86.15475463867188 134.9490356445313 77.44939422607422 134.9490356445313 68.47451782226563 C 134.9490356445313 59.49963760375977 133.1917419433594 50.79427719116211 129.7259521484375 42.60025787353516 C 128.0601348876953 38.66179656982422 125.9981994628906 34.86299896240234 123.5974197387695 31.30937767028809 C 121.2191009521484 27.78901863098145 118.4877166748047 24.47853851318359 115.4790954589844 21.46993827819824 C 112.4704971313477 18.46133804321289 109.1600341796875 15.72993755340576 105.6396560668945 13.35161781311035 C 102.0860366821289 10.95083808898926 98.28725433349609 8.888897895812988 94.34880065917969 7.223077774047852 C 86.15475463867188 3.75729775428772 77.44939422607422 1.999997854232788 68.47451782226563 1.999997854232788 C 59.49963760375977 1.999997854232788 50.79427719116211 3.75729775428772 42.60025787353516 7.223077774047852 C 38.66179656982422 8.888897895812988 34.86299896240234 10.95083808898926 31.30937767028809 13.35161781311035 C 27.78901863098145 15.72993755340576 24.47853851318359 18.46133804321289 21.46993827819824 21.46993827819824 C 18.46133804321289 24.47853851318359 15.72993755340576 27.78901863098145 13.35161781311035 31.30937767028809 C 10.95083808898926 34.86299896240234 8.888897895812988 38.66179656982422 7.223077774047852 42.60025787353516 C 3.75729775428772 50.79427719116211 1.999997854232788 59.49963760375977 1.999997854232788 68.47451782226563 C 1.999997854232788 77.44939422607422 3.75729775428772 86.15475463867188 7.223077774047852 94.34880065917969 C 8.888897895812988 98.28725433349609 10.95083808898926 102.0860366821289 13.35161781311035 105.6396560668945 C 15.72993755340576 109.1600341796875 18.46133804321289 112.4704971313477 21.46993827819824 115.4790954589844 C 24.47853851318359 118.4877166748047 27.78901863098145 121.2191009521484 31.30937767028809 123.5974197387695 C 34.86299896240234 125.9981994628906 38.66179656982422 128.0601348876953 42.60025787353516 129.7259521484375 C 50.79427719116211 133.1917419433594 59.49963760375977 134.9490356445313 68.47451782226563 134.9490356445313 M 68.47451782226563 136.9490356445313 C 30.6570987701416 136.9490356445313 -2.177734359065653e-06 106.2919540405273 -2.177734359065653e-06 68.47451782226563 C -2.177734359065653e-06 30.6570987701416 30.6570987701416 -2.177734359065653e-06 68.47451782226563 -2.177734359065653e-06 C 106.2919540405273 -2.177734359065653e-06 136.9490356445313 30.6570987701416 136.9490356445313 68.47451782226563 C 136.9490356445313 106.2919540405273 106.2919540405273 136.9490356445313 68.47451782226563 136.9490356445313 Z"/>
      </g>
    </g>
    <text id="Withdraw-2" data-name="Withdraw" class="cls-2" transform="translate(32.868 102.213)"><tspan x="0" y="0">Withdraw</tspan></text>
    <g id="Icon" transform="translate(37.433 29.532)">
      <path id="Path_1" data-name="Path 1" class="cls-3" d="M61.394,96.1a.959.959,0,0,1-1.919,0V82.195H1.919V100.1H7.774a.959.959,0,1,1,0,1.919H.959A.96.96,0,0,1,0,101.061V81.235a.96.96,0,0,1,.959-.959H60.433a.96.96,0,0,1,.959.959V96.1Zm-7.776,5.916h6.815a.959.959,0,0,0,0-1.919H53.618a.959.959,0,0,0,0,1.919Z" transform="translate(0 -80.276)"/>
      <path id="Path_2" data-name="Path 2" class="cls-3" d="M87.42,181.007a.959.959,0,1,1,0-1.919h42.129a.959.959,0,1,1,0,1.919Z" transform="translate(-77.787 -169.175)"/>
      <path id="Path_3" data-name="Path 3" class="cls-3" d="M120.8,228.494a.959.959,0,1,1,0,1.919h-7.714v17.907h35.252V230.413h-3.378a.959.959,0,1,1,0-1.919h4.337a.96.96,0,0,1,.959.959v19.825a.961.961,0,0,1-.959.959h-37.17a.96.96,0,0,1-.959-.959V229.453a.96.96,0,0,1,.959-.959Zm19.823,0H125.133a.959.959,0,1,0,0,1.919h15.489a.959.959,0,1,0,0-1.919Z" transform="translate(-100.013 -213.625)"/>
      <path id="Path_4" data-name="Path 4" class="cls-3" d="M112.124,471.289a.959.959,0,1,1,0-1.919H149.3a.959.959,0,0,1,0,1.919Z" transform="translate(-100.013 -430.337)"/>
      <path id="Path_5" data-name="Path 5" class="cls-3" d="M112.124,514.518a.959.959,0,1,1,0-1.919H149.3a.959.959,0,0,1,0,1.919Z" transform="translate(-100.013 -469.23)"/>
      <path id="Path_6" data-name="Path 6" class="cls-3" d="M197.626,229.453a.959.959,0,0,1,1.919,0,8.955,8.955,0,0,0,15.283,6.333l0,0,0,0a8.925,8.925,0,0,0,2.622-6.329.959.959,0,1,1,1.919,0,10.843,10.843,0,0,1-3.184,7.688l0,0a10.869,10.869,0,0,1-18.556-7.686Z" transform="translate(-177.801 -213.625)"/>
      <path id="Path_7" data-name="Path 7" class="cls-3" d="M112.124,353.949a.959.959,0,1,1,0-1.919,8.393,8.393,0,0,1,8.394,8.394.959.959,0,1,1-1.919,0,6.475,6.475,0,0,0-6.475-6.475Z" transform="translate(-100.013 -324.768)"/>
      <path id="Path_8" data-name="Path 8" class="cls-3" d="M415.995,352.03a.959.959,0,1,1,0,1.919,6.454,6.454,0,0,0-4.579,1.893l0,0a6.454,6.454,0,0,0-1.893,4.579.959.959,0,1,1-1.919,0,8.372,8.372,0,0,1,2.458-5.932l0,0A8.372,8.372,0,0,1,415.995,352.03Z" transform="translate(-366.712 -324.768)"/>
    </g>
  </g>
</svg>
