<svg id="Layer_1" data-name="Layer 1" xmlns="http://www.w3.org/2000/svg" viewBox="0 0 137 137"><defs><style>.cls-1{fill:#fff;}.cls-2{fill:#424242;}</style></defs><title>Withdraw button</title><g id="Withdraw_button" data-name="Withdraw button"><path class="cls-1" d="M71.5,138.9a67.89,67.89,0,0,1-26.3-5.3,70.75,70.75,0,0,1-11.5-6.2,71.52,71.52,0,0,1-10-8.2,65.1,65.1,0,0,1-8.2-10A70.75,70.75,0,0,1,9.3,97.7a67.9,67.9,0,0,1,0-52.6,70.75,70.75,0,0,1,6.2-11.5,71.52,71.52,0,0,1,8.2-10,65.11,65.11,0,0,1,10-8.2A70.75,70.75,0,0,1,45.2,9.2a67.9,67.9,0,0,1,52.6,0,70.75,70.75,0,0,1,11.5,6.2,71.52,71.52,0,0,1,10,8.2,65.1,65.1,0,0,1,8.2,10,70.75,70.75,0,0,1,6.2,11.5,67.9,67.9,0,0,1,0,52.6,70.75,70.75,0,0,1-6.2,11.5,71.52,71.52,0,0,1-8.2,10,65.11,65.11,0,0,1-10,8.2,70.75,70.75,0,0,1-11.5,6.2A66.11,66.11,0,0,1,71.5,138.9Z" transform="translate(-3 -2.9)"/><path class="cls-2" d="M71.5,137.9a67.29,67.29,0,0,0,25.9-5.2,72.62,72.62,0,0,0,11.3-6.1,67.24,67.24,0,0,0,17.9-17.9,66.45,66.45,0,0,0,11.3-37.2,67.29,67.29,0,0,0-5.2-25.9,72.59,72.59,0,0,0-6.1-11.3,67.24,67.24,0,0,0-17.9-17.9A66.46,66.46,0,0,0,71.5,5.1a67.29,67.29,0,0,0-25.9,5.2,72.62,72.62,0,0,0-11.3,6.1A67.24,67.24,0,0,0,16.4,34.3,66.45,66.45,0,0,0,5.1,71.5a67.29,67.29,0,0,0,5.2,25.9,72.59,72.59,0,0,0,6.1,11.3,67.24,67.24,0,0,0,17.9,17.9,66.46,66.46,0,0,0,37.2,11.3m0,2A68.5,68.5,0,1,1,140,71.4,68.54,68.54,0,0,1,71.5,139.9Z" transform="translate(-3 -2.9)"/><path class="cls-2" d="M41,103.82l.2,1.4h0l.3-1.4,2.1-7.4H45l2.1,7.4.3,1.5h0l.2-1.5,1.7-7.4h1.5l-2.7,11.4H46.7l-2.2-7.9-.2-1h0l-.2,1-2.3,7.9H40.4l-2.7-11.4h1.5Zm13.2-6.7H52.7v-1.6h1.5Zm0,10.6H52.7v-8.5h1.5Zm4.4-10.5v2h1.6v1.1H58.6v5.1a1.29,1.29,0,0,0,.2.8,1.16,1.16,0,0,0,.7.2h.3a.37.37,0,0,0,.3-.1l.2,1.1a.76.76,0,0,1-.5.2,1.48,1.48,0,0,1-.7.1,2,2,0,0,1-1.5-.6,2.45,2.45,0,0,1-.6-1.8v-4.9H55.7v-1.1H57v-2h1.6Zm5.1,3.2a2.45,2.45,0,0,1,1.1-.9,3.19,3.19,0,0,1,1.4-.3,2.87,2.87,0,0,1,2.1.8,3.56,3.56,0,0,1,.8,2.5v5.3H67.6v-5.4a2.08,2.08,0,0,0-.4-1.5,1.73,1.73,0,0,0-1.3-.5,2.66,2.66,0,0,0-1.2.3,6.46,6.46,0,0,0-.9.8v6.2H62.3V95.52h1.5v4.9Zm7.2,3.2a5.39,5.39,0,0,1,.9-3.3A3,3,0,0,1,74.2,99a2.77,2.77,0,0,1,1.3.3,2.54,2.54,0,0,1,1,.8v-4.6H78v12.2H76.7l-.2-1a2.84,2.84,0,0,1-1,.9,3.19,3.19,0,0,1-1.4.3,3,3,0,0,1-2.4-1.1,4.37,4.37,0,0,1-.9-2.9v-.3Zm1.5.2a4.34,4.34,0,0,0,.5,2.1,1.82,1.82,0,0,0,1.6.8,2.37,2.37,0,0,0,1.2-.3,1.76,1.76,0,0,0,.8-.9v-3.9a3,3,0,0,0-.8-.8,2,2,0,0,0-1.1-.3,1.7,1.7,0,0,0-1.6.9,5.35,5.35,0,0,0-.5,2.4h-.1Zm11.9-3.2h-.8a1.69,1.69,0,0,0-1,.3,1.56,1.56,0,0,0-.6.8v6H80.4v-8.5h1.4l.1,1.2a2.19,2.19,0,0,1,.9-1A2.84,2.84,0,0,1,84,99h.3a.37.37,0,0,1,.3.1Zm6.7,7.1a2,2,0,0,1-.1-.7,1.27,1.27,0,0,0-.1-.6,5.24,5.24,0,0,1-1.1,1,2.6,2.6,0,0,1-1.5.4,2.44,2.44,0,0,1-2-.7,2.94,2.94,0,0,1-.7-1.9,2.17,2.17,0,0,1,1-1.9,4.33,4.33,0,0,1,2.7-.7h1.7v-.8a1.66,1.66,0,0,0-.5-1.2,1.7,1.7,0,0,0-1.3-.4,1.59,1.59,0,0,0-1.2.4,1.38,1.38,0,0,0-.5.9H85.9a2.23,2.23,0,0,1,.9-1.7,3.65,3.65,0,0,1,2.4-.8,3.33,3.33,0,0,1,2.3.7,2.58,2.58,0,0,1,.9,2.1v5a1.89,1.89,0,0,0,.2.8H91Zm-2.6-1.1a2.41,2.41,0,0,0,1.5-.4,2.84,2.84,0,0,0,.9-1v-1.4H89.1a2.46,2.46,0,0,0-1.5.5,1.38,1.38,0,0,0-.6,1.1,1,1,0,0,0,.4.9A1.69,1.69,0,0,0,88.4,106.62Zm8.4-2,.2,1h0l.2-1,1.7-5.4h1.2l1.7,5.4.2,1.1h0l.2-1.1,1.3-5.4H105l-2.5,8.5h-1.2l-1.6-5.1-.4-1.4h0l-.3,1.4-1.6,5.1H96.2l-2.5-8.5h1.5Z" transform="translate(-3 -2.9)"/><path class="cls-2" d="M89.6,76H52.4a1,1,0,0,1-1-1,.94.94,0,0,1,1-1H89.6a1,1,0,0,1,0,2ZM40.3,36v19.8a1,1,0,0,0,1,1h6.8a1,1,0,0,0,1-1,.94.94,0,0,0-1-1H42.2V37H99.8v13.9a1,1,0,0,0,2,0h0V36a1,1,0,0,0-1-1H41.3A1.08,1.08,0,0,0,40.3,36Zm11.2,43.4a1,1,0,0,0,1,1H89.7a1,1,0,0,0,0-2H52.5A.94.94,0,0,0,51.5,79.42ZM50,46.92H92.1a1,1,0,0,0,0-2H50a1,1,0,0,0,0,2Zm43,8.9a1,1,0,0,0,1,1h6.8a1,1,0,0,0,1-1,.94.94,0,0,0-1-1H94A1.07,1.07,0,0,0,93,55.82Zm-2.4-4.9v19.8a1,1,0,0,1-1,1H52.5a1,1,0,0,1-1-1v-7.4h0V50.92a1,1,0,0,1,1-1h8.7a1,1,0,0,1,1,1h0a8.94,8.94,0,0,0,9,8.9,8.77,8.77,0,0,0,6.3-2.6,8.88,8.88,0,0,0,2.6-5.4H65.6a1,1,0,0,1,0-2H81.1a1,1,0,0,1,1,1h0a10.57,10.57,0,0,1-3.2,7.7,11,11,0,0,1-15.4,0,10.73,10.73,0,0,1-3.1-6.7H53.6v10.6a8.4,8.4,0,0,1,7.4,7.4H81.5a8.71,8.71,0,0,1,2.4-5,8.43,8.43,0,0,1,5-2.4V51.82H85.5a1,1,0,0,1,0-2h4.3A1.23,1.23,0,0,1,90.6,50.92ZM58.8,69.72a6.36,6.36,0,0,0-5.4-5.4v5.4Zm29.8-5.4a6.21,6.21,0,0,0-3.6,1.8,6.51,6.51,0,0,0-1.8,3.6h5.4v-5.4Z" transform="translate(-3 -2.9)"/></g></svg>