<?xml version="1.0" encoding="utf-8"?>
<!-- Generator: Adobe Illustrator 21.1.0, SVG Export Plug-In . SVG Version: 6.00 Build 0)  -->
<svg version="1.1" id="Layer_1" xmlns="http://www.w3.org/2000/svg" xmlns:xlink="http://www.w3.org/1999/xlink" x="0px" y="0px"
	 viewBox="0 0 22.8 20.2" style="enable-background:new 0 0 22.8 20.2;" xml:space="preserve">
<style type="text/css">
	.st0{fill:#1B1B1B;}
</style>
<g>
	<path class="st0" d="M21.4,15.4c-0.8-0.1-1.4-0.5-1.8-1.2c-0.7-1.3-1.2-2.6-1.5-4l4.1-9.7h-5.7l-1.1,3.7h-0.1
		C14.4,1.5,11.8-0.2,9,0C6.5-0.1,4,1,2.5,3C0.8,5.2-0.1,7.9,0,10.6c-0.1,2.5,0.6,4.9,2.1,6.9c1.4,1.8,3.5,2.7,5.7,2.6
		c3.1,0,5.5-1.6,7.1-4.7H15c0.7,3,2.4,4.4,5,4.4c0.9,0,1.8-0.1,2.7-0.5l0,0c0-2.2,0.1-3.7,0.1-4.4C22.4,15.4,21.9,15.5,21.4,15.4z
		 M13.4,10.8c-1.2,3.9-2.9,5.8-5,5.8c-1.2,0-2.3-0.7-2.9-1.8c-1.4-3-1.4-6.5,0.2-9.4c0.7-1.2,2-2,3.4-2c2.2,0,3.8,2.1,4.6,6.4
		L13.4,10.8z"/>
</g>
</svg>
