<?xml version="1.0" encoding="utf-8"?>
<!-- Generator: Adobe Illustrator 21.1.0, SVG Export Plug-In . SVG Version: 6.00 Build 0)  -->
<svg version="1.1" id="Layer_1" xmlns="http://www.w3.org/2000/svg" xmlns:xlink="http://www.w3.org/1999/xlink" x="0px" y="0px"
	 viewBox="0 0 20 20" style="enable-background:new 0 0 20 20;" xml:space="preserve">
<g id="Group_290" transform="translate(2298 527)">
	<path d="M-2288-527c-5.5,0-10,4.5-10,10c0,5.5,4.5,10,10,10s10-4.5,10-10C-2278-522.5-2282.5-527-2288-527z M-2288-508.3
		c-4.8,0-8.7-3.9-8.7-8.7c0-4.8,3.9-8.7,8.7-8.7c4.8,0,8.7,3.9,8.7,8.7C-2279.3-512.2-2283.2-508.3-2288-508.3z"/>
	<path d="M-2288-522.4c-1.8,0-3.2,1.4-3.2,3.2c0,0.4,0.3,0.7,0.6,0.7c0.4,0,0.7-0.3,0.7-0.6c0,0,0,0,0-0.1c0-1,0.8-1.9,1.9-1.9
		c1,0,1.9,0.8,1.9,1.9s-0.8,1.9-1.9,1.9l0,0c-0.4,0-0.7,0.3-0.7,0.7c0,0,0,0,0,0v2.3c0,0.4,0.3,0.7,0.6,0.7c0.4,0,0.7-0.3,0.7-0.6
		c0,0,0,0,0-0.1v-1.7c1.7-0.4,2.8-2.1,2.5-3.8C-2285.2-521.4-2286.5-522.4-2288-522.4L-2288-522.4z"/>
	<path d="M-2288-513.3c-0.5,0-0.8,0.4-0.8,0.8s0.4,0.8,0.8,0.8s0.8-0.4,0.8-0.8l0,0C-2287.2-512.9-2287.5-513.3-2288-513.3z"/>
</g>
</svg>
