<?xml version="1.0" encoding="utf-8"?>
<!-- Generator: Adobe Illustrator 21.1.0, SVG Export Plug-In . SVG Version: 6.00 Build 0)  -->
<svg version="1.1" id="Layer_1" xmlns="http://www.w3.org/2000/svg" xmlns:xlink="http://www.w3.org/1999/xlink" x="0px" y="0px"
	 viewBox="0 0 23 23" style="enable-background:new 0 0 23 23;" xml:space="preserve">
<style type="text/css">
	.st0{fill:#FFFFFF;}
</style>
<g id="Group_351" transform="translate(4187 -5)">
	<path d="M-4183,5h15c2.2,0,4,1.8,4,4v15c0,2.2-1.8,4-4,4h-15c-2.2,0-4-1.8-4-4V9C-4187,6.8-4185.2,5-4183,5z"/>
	<path class="st0" d="M-4171.3,20c-0.6,0-1.1,0.2-1.5,0.6l-5.6-3.2c0.1-0.4,0.1-0.7,0-1.1l5.5-3.2c1,0.9,2.5,0.9,3.4-0.1
		s0.9-2.5-0.1-3.4c-1-0.9-2.5-0.9-3.4,0.1c-0.6,0.6-0.8,1.4-0.6,2.2l-5.5,3.2c-0.9-0.9-2.4-0.8-3.3,0.1c-0.9,0.9-0.8,2.4,0.1,3.3
		c0.9,0.8,2.3,0.8,3.2,0l5.5,3.2c0,0.2-0.1,0.3-0.1,0.5c0,1.3,1,2.3,2.3,2.3c1.3,0,2.3-1,2.3-2.3C-4169.1,21-4170.1,20-4171.3,20
		L-4171.3,20z"/>
</g>
</svg>
