<?xml version="1.0" encoding="utf-8"?>
<!-- Generator: Adobe Illustrator 21.1.0, SVG Export Plug-In . SVG Version: 6.00 Build 0)  -->
<svg version="1.1" id="Layer_1" xmlns="http://www.w3.org/2000/svg" xmlns:xlink="http://www.w3.org/1999/xlink" x="0px" y="0px"
	 viewBox="0 0 137 137" style="enable-background:new 0 0 137 137;" xml:space="preserve">
<style type="text/css">
	.st0{fill:#FFFFFF;}
	.st1{fill:#424242;}
</style>
<g id="Withdraw_button">
	<path class="st0" d="M68.5,136c-9,0-18-1.8-26.3-5.3c-4-1.7-7.9-3.8-11.5-6.2c-3.6-2.4-6.9-5.2-10-8.2c-3.1-3.1-5.8-6.4-8.2-10
		c-2.4-3.6-4.5-7.5-6.2-11.5C-0.8,78-0.8,59,6.3,42.2c1.7-4,3.8-7.9,6.2-11.5c2.4-3.6,5.2-6.9,8.2-10c3.1-3.1,6.4-5.8,10-8.2
		c3.6-2.4,7.5-4.5,11.5-6.2C59-0.8,78-0.8,94.8,6.3c4,1.7,7.9,3.8,11.5,6.2c3.6,2.4,6.9,5.2,10,8.2c3.1,3.1,5.8,6.4,8.2,10
		c2.4,3.6,4.5,7.5,6.2,11.5c7.1,16.8,7.1,35.8,0,52.6c-1.7,4-3.8,7.9-6.2,11.5c-2.4,3.6-5.2,6.9-8.2,10c-3.1,3.1-6.4,5.8-10,8.2
		c-3.6,2.4-7.5,4.5-11.5,6.2C86.5,134.2,77.5,136,68.5,136z"/>
	<path class="st1" d="M68.5,135c8.9,0,17.7-1.8,25.9-5.2c3.9-1.7,7.7-3.7,11.3-6.1c7-4.8,13.1-10.9,17.9-17.9
		c7.4-11,11.3-24,11.3-37.2c0-8.9-1.8-17.7-5.2-25.9c-1.7-3.9-3.7-7.7-6.1-11.3c-4.8-7-10.9-13.1-17.9-17.9
		c-11-7.4-24-11.3-37.2-11.3c-8.9,0-17.7,1.8-25.9,5.2c-3.9,1.7-7.7,3.7-11.3,6.1c-7,4.8-13.1,10.9-17.9,17.9
		C6,42.4,2.1,55.4,2.1,68.6c0,8.9,1.8,17.7,5.2,25.9c1.7,3.9,3.7,7.7,6.1,11.3c4.8,7,10.9,13.1,17.9,17.9
		C42.3,131.1,55.3,135,68.5,135 M68.5,137C30.7,137,0,106.3,0,68.5S30.7,0,68.5,0S137,30.7,137,68.5C137,106.3,106.3,137,68.5,137
		L68.5,137z"/>
	<path class="st1" d="M38,100.9l0.2,1.4l0,0l0.3-1.4l2.1-7.4H42l2.1,7.4l0.3,1.5l0,0l0.2-1.5l1.7-7.4h1.5l-2.7,11.4h-1.4L41.5,97
		l-0.2-1l0,0l-0.2,1l-2.3,7.9h-1.4l-2.7-11.4h1.5L38,100.9z M51.2,94.2h-1.5v-1.6h1.5V94.2z M51.2,104.8h-1.5v-8.5h1.5V104.8z
		 M55.6,94.3v2h1.6v1.1h-1.6v5.1c0,0.3,0,0.6,0.2,0.8c0.2,0.1,0.5,0.2,0.7,0.2h0.3c0.1,0,0.2,0,0.3-0.1l0.2,1.1
		c-0.1,0.1-0.3,0.2-0.5,0.2c-0.2,0.1-0.5,0.1-0.7,0.1c-0.6,0-1.1-0.2-1.5-0.6c-0.4-0.5-0.6-1.1-0.6-1.8v-4.9h-1.3v-1.1H54v-2
		L55.6,94.3L55.6,94.3z M60.7,97.5c0.3-0.4,0.7-0.7,1.1-0.9c0.4-0.2,0.9-0.3,1.4-0.3c0.8,0,1.5,0.3,2.1,0.8c0.6,0.7,0.9,1.6,0.8,2.5
		v5.3h-1.5v-5.4c0.1-0.5-0.1-1.1-0.4-1.5c-0.3-0.3-0.8-0.5-1.3-0.5c-0.4,0-0.8,0.1-1.2,0.3c-0.3,0.2-0.6,0.5-0.9,0.8v6.2h-1.5V92.6
		h1.5L60.7,97.5L60.7,97.5z M67.9,100.7c-0.1-1.2,0.2-2.3,0.9-3.3c0.5-0.8,1.4-1.3,2.4-1.3c0.5,0,0.9,0.1,1.3,0.3
		c0.4,0.2,0.7,0.5,1,0.8v-4.6H75v12.2h-1.3l-0.2-1c-0.3,0.4-0.6,0.7-1,0.9c-0.4,0.2-0.9,0.3-1.4,0.3c-0.9,0-1.8-0.4-2.4-1.1
		c-0.6-0.8-1-1.9-0.9-2.9v-0.3L67.9,100.7z M69.4,100.9c0,0.7,0.2,1.5,0.5,2.1c0.4,0.5,1,0.8,1.6,0.8c0.4,0,0.8-0.1,1.2-0.3
		c0.4-0.2,0.6-0.5,0.8-0.9v-3.9c-0.2-0.3-0.5-0.6-0.8-0.8c-0.3-0.2-0.7-0.3-1.1-0.3c-0.7,0-1.3,0.3-1.6,0.9
		C69.6,99.3,69.5,100.1,69.4,100.9C69.5,100.9,69.4,100.9,69.4,100.9z M81.3,97.7h-0.8c-0.4,0-0.7,0.1-1,0.3
		c-0.3,0.2-0.5,0.5-0.6,0.8v6h-1.5v-8.5h1.4l0.1,1.2c0.2-0.4,0.5-0.8,0.9-1c0.4-0.2,0.8-0.4,1.2-0.4h0.3c0.1,0,0.2,0,0.3,0.1
		L81.3,97.7z M88,104.8c-0.1-0.2-0.1-0.5-0.1-0.7c0-0.2,0-0.4-0.1-0.6c-0.3,0.4-0.7,0.7-1.1,1c-0.4,0.3-1,0.4-1.5,0.4
		c-0.7,0.1-1.5-0.2-2-0.7c-0.5-0.5-0.7-1.2-0.7-1.9c0-0.8,0.4-1.5,1-1.9c0.8-0.5,1.7-0.8,2.7-0.7h1.7v-0.8c0-0.5-0.2-0.9-0.5-1.2
		c-0.4-0.3-0.8-0.5-1.3-0.4c-0.4,0-0.9,0.1-1.2,0.4c-0.3,0.2-0.5,0.5-0.5,0.9h-1.5c0-0.7,0.4-1.3,0.9-1.7c0.7-0.5,1.5-0.8,2.4-0.8
		c0.8-0.1,1.6,0.2,2.3,0.7c0.6,0.5,0.9,1.3,0.9,2.1v5c0,0.3,0.1,0.6,0.2,0.8L88,104.8L88,104.8z M85.4,103.7c0.5,0,1.1-0.1,1.5-0.4
		c0.4-0.3,0.7-0.6,0.9-1v-1.4h-1.7c-0.5,0-1.1,0.2-1.5,0.5c-0.4,0.2-0.6,0.7-0.6,1.1c0,0.3,0.1,0.7,0.4,0.9
		C84.7,103.6,85,103.7,85.4,103.7z M93.8,101.7l0.2,1l0,0l0.2-1l1.7-5.4h1.2l1.7,5.4l0.2,1.1l0,0l0.2-1.1l1.3-5.4h1.5l-2.5,8.5h-1.2
		l-1.6-5.1l-0.4-1.4l0,0L96,99.7l-1.6,5.1h-1.2l-2.5-8.5h1.5L93.8,101.7z"/>
	<path class="st1" d="M86.6,73.1H49.4c-0.6,0-1-0.4-1-1c0-0.5,0.4-1,0.9-1c0,0,0.1,0,0.1,0h37.2c0.6,0,1,0.4,1,1
		S87.2,73.1,86.6,73.1z M37.3,33.1v19.8c0,0.6,0.4,1,1,1h6.8c0.6,0,1-0.4,1-1c0-0.5-0.4-1-0.9-1c0,0-0.1,0-0.1,0h-5.9V34.1h57.6V48
		c0,0.6,0.4,1,1,1s1-0.4,1-1l0,0V33.1c0-0.6-0.4-1-1-1H38.3C37.8,32.1,37.3,32.6,37.3,33.1z M48.5,76.5c0,0.6,0.4,1,1,1h37.2
		c0.6,0,1-0.4,1-1s-0.4-1-1-1H49.5c-0.5,0-1,0.4-1,0.9C48.5,76.4,48.5,76.5,48.5,76.5L48.5,76.5z M47,44h42.1c0.6,0,1-0.4,1-1
		s-0.4-1-1-1H47c-0.6,0-1,0.4-1,1S46.4,44,47,44z M90,52.9c0,0.6,0.4,1,1,1h6.8c0.6,0,1-0.4,1-1c0-0.5-0.4-1-0.9-1c0,0-0.1,0-0.1,0
		H91C90.5,52,90,52.4,90,52.9z M87.6,48v19.8c0,0.6-0.4,1-1,1H49.5c-0.6,0-1-0.4-1-1v-7.4l0,0V48c0-0.6,0.4-1,1-1h8.7
		c0.6,0,1,0.4,1,1l0,0c0,4.9,4,8.9,9,8.9c0,0,0,0,0,0c2.4,0,4.6-0.9,6.3-2.6c1.5-1.4,2.4-3.4,2.6-5.4H62.6c-0.6,0-1-0.4-1-1
		s0.4-1,1-1h15.5c0.6,0,1,0.4,1,1l0,0c0,2.9-1.1,5.7-3.2,7.7c-4.3,4.2-11.1,4.2-15.4,0c-1.8-1.8-2.9-4.2-3.1-6.7h-6.8v10.6
		c3.9,0.4,7,3.5,7.4,7.4h20.5c0.2-1.9,1.1-3.6,2.4-5c1.3-1.3,3.1-2.2,5-2.4V48.9h-3.4c-0.6,0-1-0.4-1-1s0.4-1,1-1h4.3
		C87.3,47.1,87.6,47.5,87.6,48z M55.8,66.8c-0.4-2.8-2.6-5-5.4-5.4v5.4H55.8z M85.6,61.4c-1.4,0.2-2.6,0.8-3.6,1.8
		c-1,1-1.6,2.2-1.8,3.6h5.4V61.4z"/>
</g>
</svg>
