<?xml version="1.0" encoding="utf-8"?>
<!-- Generator: Adobe Illustrator 21.1.0, SVG Export Plug-In . SVG Version: 6.00 Build 0)  -->
<svg version="1.1" id="Layer_1" xmlns="http://www.w3.org/2000/svg" xmlns:xlink="http://www.w3.org/1999/xlink" x="0px" y="0px"
	 viewBox="0 0 250 222.8" style="enable-background:new 0 0 250 222.8;" xml:space="preserve">
<style type="text/css">
	.st0{opacity:0.2;fill:#424242;enable-background:new    ;}
	.st1{fill:#424242;}
	.st2{fill:#FF9800;}
	.st3{fill:none;}
	.st4{fill:none;stroke:#FFFFFF;stroke-width:2;}
	.st5{fill:#FFFFFF;}
</style>
<g id="Human_computer" transform="translate(2844.406 -3672)">
	<ellipse id="Ellipse_24" class="st0" cx="-2716.4" cy="3888.3" rx="122" ry="6.6"/>
	<path id="Path_865" class="st1" d="M-2729.5,3793.8v5.2h10.5v10.5h5.2v78.7h5.2v-13.1h91.8v13.1h5.2v-78.7h5.2v-10.5h10.5v-5.2
		H-2729.5z"/>
	<path id="Path_866" class="st1" d="M-2646.1,3788.6l-0.3,0.5c-0.5,0.7-1.3,1.1-2.1,1h-35.4v-2.6h32c1.6,0,2.9-1.8,2.1-3.1l-15.7-38
		c-0.3-0.3-0.8-0.3-0.8,0l-5.2,36.2c-0.2,1.3-1.3,2.2-2.6,2.1h-0.5c-1.3-0.2-2.2-1.3-2.1-2.6l12.3-83.7c0.2-1.3,1.3-2.2,2.6-2.1h0.5
		c1.3,0.2,2.2,1.3,2.1,2.6l-6,40.4c0,0.5,0.1,0.9,0.3,1.3l19.1,45.9C-2645.5,3787.2-2645.6,3788-2646.1,3788.6z"/>
	<path id="Path_867" class="st1" d="M-2791.1,3839.7v28.3l26,10.2c0.6,0.3,1.1,0.6,1.6,1c0.4,0.5,0.7,1.2,0.8,1.8
		c0.5,2.2-0.9,4.3-3.1,4.8s-4.3-0.9-4.8-3.1c0,0,0-0.1,0-0.1c-0.3-1.2,0-2.5,0.8-3.4l-21.5-8.7v10c1.5,0.4,2.6,1.6,2.9,3.1
		c0.3,2.1-1.1,4.1-3.2,4.4c-2.1,0.3-4-1-4.4-3.1c-0.2-1.7,0.6-3.3,2.1-4.2v-10l-22,8.4c0.8,0.9,1.1,2.2,0.8,3.4
		c-0.5,2.2-2.6,3.5-4.8,3.1c-2.1-0.5-3.5-2.5-3.1-4.6c0.2-0.6,0.5-1.2,0.8-1.8c0.4-0.5,1-0.9,1.6-1l26.5-10.2V3840
		c-16-0.3-28.6-2.4-29.9-5.2l0,0l-18.4-54.8l2.1-0.8c-4.5-15.5-5.2-28.6-1.8-29.6c3.7-1,10.8,11.3,16,28.1c5.2,16.5,6.3,31,2.6,32.3
		c-2.4,0.8-6.6-4.5-10.2-13.1l12.3,35.4c4.5-2.1,16-3.7,29.4-3.7c17.3,0,31.5,2.6,31.5,5.8
		C-2760.7,3837.1-2774.4,3839.7-2791.1,3839.7z"/>
	<circle id="Ellipse_26" class="st2" cx="-2757" cy="3711.7" r="23.6"/>
	<path id="Path_870" class="st2" d="M-2705.9,3783.9c0,3.5-2.8,6.3-6.3,6.3h-43.8c-1.7,0-3.3-0.6-4.5-1.8l-30.4-30.4
		c-2.4-2.5-2.4-6.4,0-8.9c2.5-2.4,6.4-2.4,8.9,0l28.6,28.6h41.2c1.7,0,3.3,0.7,4.5,1.8C-2706.6,3780.6-2706,3782.2-2705.9,3783.9z"
		/>
	<path id="Path_871" class="st2" d="M-2742.1,3803.5c0,0-22,0.5-30.7,0c-2.6,0-3.9-0.5-3.9-9.2c0-3.9,0.8-10.8,1.6-17.8l-17.1-17.1
		c-3.1-3.2-3.1-8.3,0-11.5c3.2-3.1,8.3-3.1,11.5,0l8.7,8.7c0.5-2.4,1-4.7,1.8-7.3c4.2-16-15.2-22-27.3-9.7
		c-13.1,13.1-16.3,48.8-14.2,67.2c1.6,13.6,12.6,16.8,19.4,16.8h31.7c7.9,0,7.9,7.9,7.9,7.9l2.4,49.1l0,0
		c0.3,6.5,5.8,11.6,12.3,11.3c6.3-0.3,11.3-5.5,11.3-11.8c0-0.8-3.9-49.8-3.9-63S-2742.1,3803.5-2742.1,3803.5z"/>
	<path id="Path_872" class="st1" d="M-2704.1,3790.2h10.8c0.7,0,1.3-0.5,1.3-1.2c0-0.1,0-0.1,0-0.2l0,0c0-0.7-0.5-1.3-1.2-1.3
		c-0.1,0-0.1,0-0.2,0h-10.8c-0.7,0-1.3,0.5-1.3,1.2c0,0.1,0,0.1,0,0.2l0,0C-2705.3,3789.5-2704.8,3790.1-2704.1,3790.2z"/>
	<path id="Path_863" class="st1" d="M-2727.8,3690.4c0.6-0.7,1.3-1.3,2.1-1.8c0.8-0.3,1.7-0.4,2.6-0.3c1-0.1,2-0.3,3-0.5
		c0.7-0.2,1.3-0.6,1.8-1.1c0.6-0.6,0.9-1.3,0.9-2.1c-0.1-0.8-0.5-1.5-1.1-2c-0.5-0.5-1.3-0.8-2-0.9c-0.8,0-1.5,0.3-2,0.9l-1.9-1.7
		l0-0.1c0.8-1,2.1-1.6,3.5-1.6c1.4,0.1,2.8,0.7,3.8,1.7c1.2,0.9,2,2.3,2.2,3.8c0.1,1.4-0.4,2.8-1.4,3.8c-0.8,0.8-1.7,1.5-2.8,1.7
		c-1.3,0.3-2.6,0.5-3.8,0.5c-0.5,0-1.1,0.1-1.5,0.4c-0.5,0.4-0.9,0.8-1.3,1.2L-2727.8,3690.4z M-2729.4,3696.4l-2.1-1.9l1.9-2.1
		l2.1,1.9L-2729.4,3696.4z"/>
	<path id="Path_864" class="st1" d="M-2732.4,3685.4l-2.5-0.8l3.9-12.6l2.5,0.8L-2732.4,3685.4z M-2734.3,3691.6l-2.6-0.8l0.8-2.6
		l2.6,0.8L-2734.3,3691.6z"/>
	<g id="Ellipse_28" transform="translate(137.097 151.711)">
		<ellipse class="st3" cx="-2877.3" cy="3562.8" rx="6.7" ry="6.7"/>
		<ellipse class="st4" cx="-2877.3" cy="3562.8" rx="5.7" ry="5.7"/>
	</g>
	<g id="Ellipse_29" transform="translate(123.708 148.06)">
		<ellipse class="st3" cx="-2877.3" cy="3562.8" rx="6.7" ry="6.7"/>
		<ellipse class="st4" cx="-2877.3" cy="3562.8" rx="5.7" ry="5.7"/>
	</g>
	<rect id="Rectangle_1506" x="-2767.5" y="3722.6" class="st5" width="17.6" height="2.5"/>
	
		<rect id="Rectangle_1507" x="-2770.5" y="3694.3" transform="matrix(0.3908 -0.9205 0.9205 0.3908 -5097.1934 -292.1048)" class="st5" width="2.4" height="20.7"/>
</g>
</svg>
