<?xml version="1.0" encoding="utf-8"?>
<!-- Generator: Adobe Illustrator 21.1.0, SVG Export Plug-In . SVG Version: 6.00 Build 0)  -->
<svg version="1.1" id="Layer_1" xmlns="http://www.w3.org/2000/svg" xmlns:xlink="http://www.w3.org/1999/xlink" x="0px" y="0px"
	 viewBox="0 0 50 50" style="enable-background:new 0 0 50 50;" xml:space="preserve">
<path d="M46.8,7.9L44.2,1c-0.1-0.4-0.5-0.7-0.8-0.9C43,0,42.5,0,42.1,0.1L25.8,7.7H15.6c-2.3,0-4.2,1.9-4.2,4.2v9.8
	c0.9-0.2,1.8-0.3,2.8-0.3c8.1,0,14.6,6.6,14.6,14.6c0,1-0.1,1.9-0.3,2.8h17c2.3,0,4.2-1.9,4.2-4.2V31H35.6c-2.3,0-4.1-2.2-4.1-4.9
	v-5.6c0-2.7,1.8-4.9,4.1-4.9h14.2v-3.7C49.7,10,48.5,8.4,46.8,7.9z M33,7.7l8.9-4.1l1.6,4.1H33z M34.5,20.5v5.6c0,1,0.6,1.9,1.1,1.9
	h14.2v-9.4H35.6C35.1,18.6,34.5,19.4,34.5,20.5z M40.4,21.1c1.2,0,2.2,1,2.2,2.2c0,1.2-1,2.2-2.2,2.2c-1.2,0-2.2-1-2.2-2.2
	C38.2,22.1,39.2,21.1,40.4,21.1z M13.1,24.4C6,24.4,0.3,30.1,0.3,37.2C0.3,44.3,6,50,13.1,50c7.1,0,12.8-5.7,12.8-12.8
	C25.9,30.1,20.1,24.4,13.1,24.4z M20.9,38.5h-7v7.1h-1.7v-7.1h-7v-1.8h7v-7.1h1.7v7.1h7V38.5z"/>
</svg>
