<svg xmlns="http://www.w3.org/2000/svg" viewBox="4029 4006 23.775 24">
  <defs>
    <style>
      .cls-1 {
        fill: #fff;
      }
    </style>
  </defs>
  <path id="ADD_WALLET" data-name="ADD WALLET" class="cls-1" d="M22.346,3.829,21.079.52a.674.674,0,0,0-.409-.409.7.7,0,0,0-.572,0L12.255,3.706H7.394a2,2,0,0,0-2,2v4.7a7.027,7.027,0,0,1,8.334,6.9,7.522,7.522,0,0,1-.123,1.348h8.17a2,2,0,0,0,2-2V14.9H16.953a2.167,2.167,0,0,1-1.961-2.329V9.834a2.169,2.169,0,0,1,1.961-2.329h6.781V5.749A1.938,1.938,0,0,0,22.346,3.829Zm-6.618-.123,4.289-1.961.735,1.961Zm.735,6.128v2.7c0,.49.286.9.531.9h6.781V8.935H16.953C16.708,8.976,16.463,9.344,16.463,9.834Zm2.778.327a1.062,1.062,0,1,1-1.062,1.062A1.081,1.081,0,0,1,19.241,10.161ZM6.169,11.713a6.169,6.169,0,1,0,6.169,6.169A6.216,6.216,0,0,0,6.169,11.713Zm3.758,6.781H6.577v3.431H5.76V18.494H2.41v-.858H5.719V14.2h.817v3.431h3.35v.858Z" transform="translate(4029 4005.95)"/>
</svg>
