<?xml version="1.0" encoding="utf-8"?>
<!-- Generator: Adobe Illustrator 21.1.0, SVG Export Plug-In . SVG Version: 6.00 Build 0)  -->
<svg version="1.1" id="Layer_1" xmlns="http://www.w3.org/2000/svg" xmlns:xlink="http://www.w3.org/1999/xlink" x="0px" y="0px"
	 viewBox="0 0 331.9 396" style="enable-background:new 0 0 331.9 396;" xml:space="preserve">
<path d="M328.9,312.2V264l-24-24v-60.5c0-62.7-42.3-117.2-102-133.2v-6.5c0-19.9-16.1-36-36-36s-36,16.1-36,36v6.5
	c-59.7,16.1-102,70.6-102,133.2V240l-24,24v48.2v24H100c5.7,31.8,33.5,56,66.9,56s61.2-24.2,66.9-56h95.1L328.9,312.2z M27.9,274
	l24-24v-70.4c0-54.5,38.8-101.6,92.3-111.9l9.7-1.9V39.8c0-6.6,5.4-12,12-12c6.6,0,12,5.4,12,12v25.9l9.7,1.9
	c53.5,10.3,92.3,57.4,92.3,111.9V250l24,24v38.2h-276V274z M165.9,368.2c-20.1,0-37.1-13.6-42.3-32h84.6
	C203,354.6,186,368.2,165.9,368.2L165.9,368.2z M165.9,368.2"/>
</svg>
