<?xml version="1.0" encoding="utf-8"?>
<!-- Generator: Adobe Illustrator 21.1.0, SVG Export Plug-In . SVG Version: 6.00 Build 0)  -->
<svg version="1.1" id="Layer_1" xmlns="http://www.w3.org/2000/svg" xmlns:xlink="http://www.w3.org/1999/xlink" x="0px" y="0px"
	 viewBox="0 0 23.1 23.1" style="enable-background:new 0 0 23.1 23.1;" xml:space="preserve">
<g>
	<path d="M12.9,11.4L12.7,12c-0.7,2.4-1.8,3.6-3.1,3.6c-0.7,0-1.4-0.4-1.8-1.1c-0.4-0.9-0.7-1.8-0.6-2.8c0-1.1,0.2-2.1,0.8-3
		c0.4-0.8,1.2-1.2,2.1-1.2C11.5,7.5,12.4,8.8,12.9,11.4z"/>
	<path d="M18.5,0H4.6C2.1,0,0,2.1,0,4.6v13.9c0,2.5,2.1,4.6,4.6,4.6h13.9c2.5,0,4.6-2.1,4.6-4.6V4.6C23.1,2.1,21,0,18.5,0z
		 M18.5,17.3L18.5,17.3c-0.5,0.2-1.1,0.3-1.7,0.3c-1.6,0-2.6-0.9-3.1-2.7h-0.1c-0.7,1.7-2.4,2.9-4.3,2.9c-1.4,0.1-2.7-0.6-3.5-1.6
		c-0.9-1.2-1.4-2.7-1.3-4.3C4.5,10.2,5,8.5,6,7.2c1-1.2,2.5-1.9,4-1.8c1.7-0.1,3.3,0.9,3.9,2.5H14l0.7-2.2h3.5l-2.5,6
		c0.2,0.9,0.5,1.7,0.9,2.5c0.2,0.4,0.6,0.7,1.1,0.7c0.3,0,0.6,0,0.9-0.2C18.5,15.1,18.5,16,18.5,17.3z"/>
</g>
</svg>
