<svg xmlns="http://www.w3.org/2000/svg" viewBox="0 0 480.22 338.49"><defs><style>.cls-1{fill:#050606;}</style></defs><title>Alpha symbol</title><g id="Layer_2" data-name="Layer 2"><g id="Layer_1-2" data-name="Layer 1"><path class="cls-1" d="M465.6,303.28c-58.26,4.16-71.26-24.45-82.71-57.74-8.28-24.09-17.69-54.44-21.92-69.07C387.75,135.36,418.79,86,465,13H378.54C363.16,37.12,348,61.53,333,85.4a191.37,191.37,0,0,0-17.07-36C296,18.62,264.69-2.6,218.05.26,156.4,4,109.83,33.58,72.24,71.17,37.77,105.63,4.15,156,.33,213-4.79,289.32,51,333,114.18,337.83c50,3.79,87.36-9.49,118.85-26,21.37-11.18,66.85-49.08,80.46-66,10.1,46.84,36.17,91.72,94.89,91.72,36.39,0,59.44-20,71.84-35.42C475.77,302.54,470.93,302.9,465.6,303.28ZM185.1,274.91c-13.49,9.77-30.78,20.15-48.94,23-45.15,7-65.06-28-61.92-74.91,2.45-36.59,17-70.49,34-99.87C125.61,93,145.94,66.29,169.12,50.19a75.94,75.94,0,0,1,38-14c41.5-3.33,56.77,41.56,67.33,79.18,4.93,17.66,8.25,35.62,9.85,45.06C272.41,177.83,235.68,238.26,185.1,274.91Z"/></g></g></svg>