<?xml version="1.0" encoding="utf-8"?>
<!-- Generator: Adobe Illustrator 21.1.0, SVG Export Plug-In . SVG Version: 6.00 Build 0)  -->
<svg version="1.1" id="Layer_1" xmlns="http://www.w3.org/2000/svg" xmlns:xlink="http://www.w3.org/1999/xlink" x="0px" y="0px"
	 viewBox="0 0 40.2 35.6" style="enable-background:new 0 0 40.2 35.6;" xml:space="preserve">
<style type="text/css">
	.st0{fill:#FFFFFF;}
</style>
<g>
	<path class="st0" d="M37.7,27.2c-1.2,0-2.2-0.7-3.1-2.1c-1.2-2.2-2.1-4.6-2.6-7.1l7.2-17.1h-10l-2,6.4h-0.2C25.1,2.4,21.4,0,15.9,0
		C11.4-0.2,7.1,1.8,4.3,5.3C1.5,8.8,0,13.3,0,18.7c0,5,1.2,9.1,3.7,12.2c2.4,3.1,6.2,4.8,10.1,4.7c5.5,0,9.7-2.7,12.5-8.2h0.2
		c1.3,5.2,4.2,7.8,8.8,7.8c1.6,0,3.3-0.3,4.8-0.8l0,0c0.1-3.9,0.1-6.5,0.1-7.7C39.4,27,38.5,27.2,37.7,27.2z M23.5,19.1
		c-2.1,6.8-5.1,10.2-8.9,10.2c-2.1,0-4.1-1.2-5.1-3.1c-1.3-2.5-1.9-5.2-1.8-8c-0.1-3,0.7-6,2.2-8.6c1.2-2.2,3.5-3.6,6-3.5
		c3.9,0,6.6,3.7,8.1,11.2L23.5,19.1z"/>
</g>
</svg>
