<svg xmlns="http://www.w3.org/2000/svg" viewBox="2117.5 694.75 45 54.25">
  <defs>
    <style>
      .cls-1, .cls-2, .cls-3 {
        fill: #fff;
      }

      .cls-1 {
        stroke: #fff;
        stroke-width: 0.5px;
      }

      .cls-3 {
        font-size: 14px;
        font-family: Roboto-Medium, Roboto;
        font-weight: 500;
      }
    </style>
  </defs>
  <g id="Charge" transform="translate(1901.5 185)">
    <g id="Charge-2" data-name="Charge" transform="translate(-10 11)">
      <g id="Charge-3" data-name="Charge" transform="translate(228.157 493.885)">
        <path id="piggy-bank" class="cls-1" d="M33.532,21.274,32.1,20.867a.567.567,0,0,1-.385-.348,7.89,7.89,0,0,0-1.349-2.376,9.07,9.07,0,0,0-.9-.947,10.021,10.021,0,0,0,.31-2.557c-.021-1.15-.279-1.825-.789-2.063-.275-.128-1.11-.518-5.634,1.326a1.7,1.7,0,0,0-.3.159c-.3-.073-.617-.14-.93-.2l-.115-.021a5.605,5.605,0,0,0,.621-2.286.476.476,0,0,0-.484-.471.487.487,0,0,0-.529.431A5,5,0,0,1,19.894,15a6,6,0,0,1-2.136,1.215,16.5,16.5,0,0,0-4.082,0A6,6,0,0,1,11.54,15a4.861,4.861,0,0,1,0-7.437,6.434,6.434,0,0,1,8.354,0A5.327,5.327,0,0,1,21,8.912a.538.538,0,0,0,.681.2.429.429,0,0,0,.225-.606,6.238,6.238,0,0,0-1.29-1.586,7.539,7.539,0,0,0-9.789,0,5.7,5.7,0,0,0,0,8.714,6.85,6.85,0,0,0,1.221.866h0q-.473.109-.938.247a.442.442,0,0,0-.32.571.524.524,0,0,0,.642.285,15.207,15.207,0,0,1,8.578,0,.564.564,0,0,0,.161.023.506.506,0,0,0,.481-.308.442.442,0,0,0-.32-.571q-.464-.138-.938-.247h0a6.848,6.848,0,0,0,1.221-.866,6.388,6.388,0,0,0,.884-.966c.14.024.279.049.415.076q.273.053.543.113c-.006.02-.011.039-.016.059a4.814,4.814,0,0,0,.048,2.746,3.308,3.308,0,0,0,1.345,1.683,4.639,4.639,0,0,0,2.5.705,3.686,3.686,0,0,0,1.618-.333,2.791,2.791,0,0,0,1.192-1.507q.219.228.415.467a7.021,7.021,0,0,1,1.2,2.114,1.533,1.533,0,0,0,1.043.937l1.427.407a.815.815,0,0,1,.626.764V25a.815.815,0,0,1-.626.764l-2.3.656a1.544,1.544,0,0,0-.877.634,9.769,9.769,0,0,1-4.222,3.419.721.721,0,0,0-.417.5l-.737,3.472a.223.223,0,0,1-.224.165H22.052a.223.223,0,0,1-.224-.165l-.408-1.919a.793.793,0,0,0-.906-.571,23.766,23.766,0,0,1-3.159.209,22.686,22.686,0,0,1-2.324-.117.8.8,0,0,0-.879.574l-.388,1.823a.223.223,0,0,1-.224.165H11.146a.223.223,0,0,1-.224-.166l-.709-3.279a.722.722,0,0,0-.409-.493,7.9,7.9,0,0,1-4.946-7.429,7.937,7.937,0,0,1,1.226-4.412,8.458,8.458,0,0,1,3.3-2.865.426.426,0,0,0,.185-.617.543.543,0,0,0-.693-.165,8.647,8.647,0,0,0-4.9,6.419h0a12.913,12.913,0,0,0-.13,1.64,8.54,8.54,0,0,0,1.5,4.982,9.894,9.894,0,0,0,3.9,3.2l.689,3.188a1.214,1.214,0,0,0,1.22.9h2.395a1.214,1.214,0,0,0,1.22-.9l.351-1.648c.728.069,1.482.1,2.244.1a24.983,24.983,0,0,0,3.107-.193l.369,1.738a1.214,1.214,0,0,0,1.22.9h2.395a1.214,1.214,0,0,0,1.22-.9l.717-3.38a10.665,10.665,0,0,0,4.54-3.725.545.545,0,0,1,.308-.226l2.3-.656A1.733,1.733,0,0,0,34.863,25V22.9A1.732,1.732,0,0,0,33.532,21.274Zm-4.843-5.365c-.2,1.486-.719,2.757-1.245,3.022a3.43,3.43,0,0,1-3.015-.315c-1.038-.676-1.383-1.891-1-3.514a48.941,48.941,0,0,1,4.894-1.75A3.886,3.886,0,0,1,28.689,15.909Z"/>
        <path id="Path_787" data-name="Path 787" class="cls-2" d="M384.037,270.613a.482.482,0,0,0-.507.451.648.648,0,0,1-1.288,0,.511.511,0,0,0-1.014,0,1.669,1.669,0,0,0,3.316,0A.482.482,0,0,0,384.037,270.613Z" transform="translate(-355.265 -249.413)"/>
      </g>
      <text id="Charge-4" data-name="Charge" class="cls-3" transform="translate(226 549)"><tspan x="0" y="0">Charge</tspan></text>
    </g>
  </g>
</svg>
