<?xml version="1.0" encoding="utf-8"?>
<!-- Generator: Adobe Illustrator 21.1.0, SVG Export Plug-In . SVG Version: 6.00 Build 0)  -->
<svg version="1.1" id="Layer_1" xmlns="http://www.w3.org/2000/svg" xmlns:xlink="http://www.w3.org/1999/xlink" x="0px" y="0px"
	 viewBox="0 0 16 16" style="enable-background:new 0 0 16 16;" xml:space="preserve">
<style type="text/css">
	.st0{fill:#009688;}
	.st1{fill:#FFFFFF;}
</style>
<g id="Checked_password" transform="translate(4590 335)">
	<path class="st0" d="M-4582-335c4.4,0,8,3.6,8,8c0,0,0,0,0,0c0,4.4-3.6,8-8,8c0,0,0,0,0,0c-4.4,0-8-3.6-8-8c0,0,0,0,0,0
		C-4590-331.4-4586.4-335-4582-335C-4582-335-4582-335-4582-335z"/>
	<path class="st1" d="M-4584-325l-2.2-2.2l-0.7,0.7l3,3l6.4-6.4l-0.7-0.7L-4584-325z"/>
</g>
</svg>
