<?xml version="1.0" encoding="utf-8"?>
<!-- Generator: Adobe Illustrator 21.1.0, SVG Export Plug-In . SVG Version: 6.00 Build 0)  -->
<svg version="1.1" id="Layer_1" xmlns="http://www.w3.org/2000/svg" xmlns:xlink="http://www.w3.org/1999/xlink" x="0px" y="0px"
	 viewBox="0 0 150.5 56" style="enable-background:new 0 0 150.5 56;" xml:space="preserve">
<style type="text/css">
	.st0{fill:#E4E4E4;}
	.st1{enable-background:new    ;}
	.st2{fill:none;}
	.st3{fill:#1B1B1B;}
</style>
<path id="line" class="st0" d="M0,55h150.5v1H0V55z"/>
<path id="Choose_currency" class="st1" d="M17.5,38.7L17.5,38.7c0,1-0.3,1.8-1,2.4s-1.6,0.9-2.7,0.9c-1.1,0-2-0.4-2.8-1.2
	s-1.1-1.8-1.1-3v-1.8c0-1.2,0.4-2.2,1.1-3c0.7-0.8,1.6-1.2,2.8-1.2s2,0.3,2.7,0.9c0.7,0.6,1,1.4,1,2.4l0,0h-1.3
	c0-0.7-0.2-1.2-0.6-1.7s-1-0.6-1.7-0.6c-0.8,0-1.4,0.3-1.8,0.9s-0.7,1.4-0.7,2.3v1.8c0,0.9,0.2,1.7,0.7,2.3s1,0.9,1.8,0.9
	c0.7,0,1.3-0.2,1.7-0.6c0.4-0.4,0.6-1,0.6-1.7H17.5z M20.4,35.5c0.3-0.4,0.6-0.6,0.9-0.8c0.4-0.2,0.8-0.3,1.2-0.3
	c0.8,0,1.4,0.2,1.8,0.7s0.7,1.2,0.7,2.2v4.6h-1.3v-4.6c0-0.6-0.1-1.1-0.4-1.4s-0.7-0.4-1.2-0.4c-0.4,0-0.7,0.1-1,0.2
	c-0.3,0.2-0.5,0.4-0.7,0.7v5.5H19V31.3h1.3V35.5z M26.7,38.2c0-1.1,0.3-2,0.9-2.7c0.6-0.7,1.4-1.1,2.4-1.1c1,0,1.8,0.4,2.4,1.1
	s0.9,1.6,0.9,2.7v0.2c0,1.1-0.3,2-0.9,2.7S31,42.1,30,42.1s-1.8-0.4-2.4-1.1c-0.6-0.7-0.9-1.6-0.9-2.7V38.2z M28,38.3
	c0,0.8,0.2,1.4,0.5,1.9S29.3,41,30,41c0.6,0,1.1-0.3,1.5-0.8s0.5-1.2,0.5-1.9v-0.2c0-0.8-0.2-1.4-0.5-1.9s-0.8-0.8-1.5-0.8
	c-0.6,0-1.1,0.3-1.5,0.8S28,37.4,28,38.2V38.3z M34.6,38.2c0-1.1,0.3-2,0.9-2.7c0.6-0.7,1.4-1.1,2.4-1.1c1,0,1.8,0.4,2.4,1.1
	c0.6,0.7,0.9,1.6,0.9,2.7v0.2c0,1.1-0.3,2-0.9,2.7S39,42.1,38,42.1s-1.8-0.4-2.4-1.1c-0.6-0.7-0.9-1.6-0.9-2.7V38.2z M36,38.3
	c0,0.8,0.2,1.4,0.5,1.9c0.3,0.5,0.8,0.8,1.5,0.8c0.6,0,1.1-0.3,1.5-0.8s0.5-1.2,0.5-1.9v-0.2c0-0.8-0.2-1.4-0.5-1.9
	c-0.3-0.5-0.8-0.8-1.5-0.8c-0.6,0-1.1,0.3-1.5,0.8c-0.3,0.5-0.5,1.2-0.5,1.9V38.3z M47.2,39.9c0-0.3-0.1-0.5-0.3-0.7
	c-0.2-0.2-0.7-0.4-1.3-0.5c-0.9-0.2-1.5-0.4-2-0.8c-0.5-0.3-0.7-0.8-0.7-1.4c0-0.6,0.3-1.1,0.8-1.5c0.5-0.4,1.2-0.6,2-0.6
	c0.8,0,1.5,0.2,2,0.7s0.8,1,0.7,1.6l0,0h-1.3c0-0.3-0.1-0.6-0.4-0.9c-0.3-0.3-0.6-0.4-1.1-0.4c-0.5,0-0.8,0.1-1.1,0.3
	c-0.2,0.2-0.4,0.5-0.4,0.8c0,0.3,0.1,0.5,0.3,0.7c0.2,0.2,0.6,0.3,1.3,0.4c0.9,0.2,1.6,0.5,2.1,0.8s0.7,0.8,0.7,1.4
	c0,0.7-0.3,1.2-0.8,1.6c-0.5,0.4-1.2,0.6-2.1,0.6c-0.9,0-1.7-0.2-2.2-0.7s-0.8-1-0.8-1.7l0,0H44c0,0.5,0.2,0.8,0.5,1
	c0.3,0.2,0.7,0.3,1.2,0.3c0.5,0,0.9-0.1,1.1-0.3C47.1,40.5,47.2,40.2,47.2,39.9z M53.3,42.1c-1.1,0-1.9-0.3-2.5-1
	c-0.6-0.7-0.9-1.6-0.9-2.7v-0.3c0-1.1,0.3-1.9,0.9-2.6c0.6-0.7,1.4-1,2.2-1c1,0,1.7,0.3,2.2,0.9c0.5,0.6,0.7,1.4,0.7,2.5v0.7h-4.7
	l0,0c0,0.7,0.2,1.3,0.5,1.8c0.3,0.5,0.8,0.7,1.5,0.7c0.5,0,0.9-0.1,1.2-0.2c0.3-0.1,0.6-0.3,0.9-0.5l0.5,0.9c-0.3,0.3-0.6,0.5-1,0.6
	C54.4,42,53.9,42.1,53.3,42.1z M53.1,35.4c-0.5,0-0.9,0.2-1.2,0.5c-0.3,0.4-0.5,0.8-0.6,1.4l0,0h3.3v-0.1c0-0.5-0.1-1-0.4-1.3
	S53.6,35.4,53.1,35.4z M64,41c0.4,0,0.8-0.1,1.1-0.4c0.3-0.3,0.5-0.6,0.5-1h1.2l0,0c0,0.6-0.3,1.2-0.8,1.7c-0.6,0.5-1.2,0.7-2,0.7
	c-1,0-1.8-0.4-2.4-1.1s-0.8-1.6-0.8-2.6v-0.3c0-1,0.3-1.9,0.9-2.6c0.6-0.7,1.4-1.1,2.4-1.1c0.8,0,1.5,0.3,2,0.8
	c0.5,0.5,0.8,1.1,0.8,1.9l0,0h-1.2c0-0.5-0.1-0.8-0.4-1.2c-0.3-0.3-0.7-0.5-1.1-0.5c-0.7,0-1.1,0.3-1.4,0.8
	c-0.3,0.5-0.5,1.1-0.5,1.9v0.3c0,0.7,0.1,1.4,0.4,1.9C62.8,40.8,63.3,41,64,41z M73.1,40.8c-0.2,0.4-0.5,0.7-0.9,0.9
	s-0.8,0.3-1.3,0.3c-0.8,0-1.4-0.3-1.9-0.8s-0.7-1.3-0.7-2.4v-4.4h1.3v4.4c0,0.8,0.1,1.3,0.3,1.6s0.6,0.4,1.1,0.4
	c0.5,0,0.9-0.1,1.2-0.3c0.3-0.2,0.5-0.5,0.7-0.8v-5.3h1.3v7.4h-1.2L73.1,40.8z M79.8,35.7l-0.7,0c-0.4,0-0.7,0.1-0.9,0.3
	c-0.2,0.2-0.4,0.4-0.6,0.7v5.3h-1.3v-7.4h1.2l0.1,1.1c0.2-0.4,0.5-0.7,0.8-0.9c0.3-0.2,0.7-0.3,1.1-0.3c0.1,0,0.2,0,0.3,0
	c0.1,0,0.2,0,0.2,0.1L79.8,35.7z M84.7,35.7l-0.7,0c-0.4,0-0.7,0.1-0.9,0.3c-0.2,0.2-0.4,0.4-0.6,0.7v5.3h-1.3v-7.4h1.2l0.1,1.1
	c0.2-0.4,0.5-0.7,0.8-0.9c0.3-0.2,0.7-0.3,1.1-0.3c0.1,0,0.2,0,0.3,0c0.1,0,0.2,0,0.2,0.1L84.7,35.7z M89.1,42.1
	c-1.1,0-1.9-0.3-2.5-1c-0.6-0.7-0.9-1.6-0.9-2.7v-0.3c0-1.1,0.3-1.9,0.9-2.6c0.6-0.7,1.4-1,2.2-1c1,0,1.7,0.3,2.2,0.9
	c0.5,0.6,0.7,1.4,0.7,2.5v0.7h-4.7l0,0c0,0.7,0.2,1.3,0.5,1.8c0.3,0.5,0.8,0.7,1.5,0.7c0.5,0,0.9-0.1,1.2-0.2
	c0.3-0.1,0.6-0.3,0.9-0.5l0.5,0.9c-0.3,0.3-0.6,0.5-1,0.6C90.2,42,89.7,42.1,89.1,42.1z M88.8,35.4c-0.5,0-0.9,0.2-1.2,0.5
	c-0.3,0.4-0.5,0.8-0.6,1.4l0,0h3.3v-0.1c0-0.5-0.1-1-0.4-1.3S89.4,35.4,88.8,35.4z M94.5,34.5l0.1,1.1c0.2-0.4,0.6-0.7,0.9-0.9
	c0.4-0.2,0.8-0.3,1.3-0.3c0.8,0,1.4,0.2,1.9,0.7c0.4,0.5,0.7,1.2,0.7,2.2v4.7H98v-4.6c0-0.7-0.1-1.1-0.4-1.4
	c-0.3-0.3-0.7-0.4-1.2-0.4c-0.4,0-0.8,0.1-1.1,0.3c-0.3,0.2-0.5,0.4-0.7,0.7v5.5h-1.3v-7.4H94.5z M104.2,41c0.4,0,0.8-0.1,1.1-0.4
	c0.3-0.3,0.5-0.6,0.5-1h1.2l0,0c0,0.6-0.3,1.2-0.8,1.7c-0.6,0.5-1.2,0.7-2,0.7c-1,0-1.8-0.4-2.4-1.1s-0.8-1.6-0.8-2.6v-0.3
	c0-1,0.3-1.9,0.9-2.6c0.6-0.7,1.4-1.1,2.4-1.1c0.8,0,1.5,0.3,2,0.8c0.5,0.5,0.8,1.1,0.8,1.9l0,0h-1.2c0-0.5-0.1-0.8-0.4-1.2
	c-0.3-0.3-0.7-0.5-1.1-0.5c-0.7,0-1.1,0.3-1.4,0.8c-0.3,0.5-0.5,1.1-0.5,1.9v0.3c0,0.7,0.1,1.4,0.4,1.9
	C103.1,40.8,103.5,41,104.2,41z M110.9,39.2l0.2,0.9h0l1.8-5.6h1.5l-3.1,8.5c-0.2,0.5-0.5,0.9-0.8,1.3c-0.3,0.4-0.8,0.6-1.4,0.6
	c-0.1,0-0.2,0-0.4,0c-0.2,0-0.3,0-0.4-0.1l0.1-1.1c0,0,0.1,0,0.2,0c0.2,0,0.3,0,0.4,0c0.3,0,0.5-0.1,0.7-0.4s0.3-0.5,0.5-0.8
	l0.3-0.8l-2.7-7.2h1.5L110.9,39.2z"/>
<rect id="Boundary" class="st2" width="150" height="56"/>
<path id="_x3E_" class="st3" d="M134.5,33.5l4.6,4.6l-4.6,4.6l1.4,1.4l6-6l-6-6L134.5,33.5z"/>
</svg>
