<svg xmlns="http://www.w3.org/2000/svg" width="20.5" height="22.767" viewBox="0 0 20.5 22.767">
  <g id="contacts" transform="translate(-10.848 0.25)">
    <path id="Path_920" data-name="Path 920" d="M30.332,0H13.592a.766.766,0,0,0-.766.766V5.184h-.962a.766.766,0,0,0,0,1.532h.962v3.652h-.962a.766.766,0,1,0,0,1.532h.962v3.652h-.962a.766.766,0,0,0,0,1.532h.962V21.5a.766.766,0,0,0,.766.766h16.74A.766.766,0,0,0,31.1,21.5V.766A.766.766,0,0,0,30.332,0Zm-.766,20.735H14.358V17.083h.962a.766.766,0,1,0,0-1.532h-.962V11.9h.962a.766.766,0,1,0,0-1.532h-.962V6.716h.962a.766.766,0,1,0,0-1.532h-.962V1.532H29.566v19.2Z" transform="translate(0 0)" fill="#212121" stroke="#fff" stroke-width="0.5"/>
    <path id="Path_921" data-name="Path 921" d="M95.126,57.05A3.151,3.151,0,1,0,91.975,53.9,3.154,3.154,0,0,0,95.126,57.05Zm0-4.77A1.619,1.619,0,1,1,93.507,53.9,1.62,1.62,0,0,1,95.126,52.28Z" transform="translate(-72.616 -45.564)" fill="#212121" stroke="#fff" stroke-width="0.5"/>
    <path id="Path_922" data-name="Path 922" d="M81.75,123.154a.766.766,0,0,0,.766-.766v-1.324a1.543,1.543,0,0,1,1.541-1.541h2.419a1.543,1.543,0,0,1,1.541,1.541v1.324a.766.766,0,0,0,1.532,0v-1.324a3.077,3.077,0,0,0-3.074-3.073H84.058a3.077,3.077,0,0,0-3.074,3.073v1.324A.766.766,0,0,0,81.75,123.154Z" transform="translate(-62.748 -105.939)" fill="#212121" stroke="#fff" stroke-width="0.5"/>
  </g>
</svg>
