<?xml version="1.0" encoding="utf-8"?>
<!-- Generator: Adobe Illustrator 21.1.0, SVG Export Plug-In . SVG Version: 6.00 Build 0)  -->
<svg version="1.1" id="Layer_1" xmlns="http://www.w3.org/2000/svg" xmlns:xlink="http://www.w3.org/1999/xlink" x="0px" y="0px"
	 viewBox="0 0 20 20" style="enable-background:new 0 0 20 20;" xml:space="preserve">
<path d="M17.5,0H6.3C4.9,0,3.8,1.1,3.8,2.5H5c0-0.7,0.6-1.2,1.3-1.3h11.3c0.7,0,1.2,0.6,1.3,1.3v11.3c0,0.7-0.6,1.2-1.3,1.3v1.3
	c1.4,0,2.5-1.1,2.5-2.5V2.5C20,1.1,18.9,0,17.5,0z M13.8,3.8H2.5C1.1,3.8,0,4.9,0,6.3v11.3C0,18.9,1.1,20,2.5,20h11.3
	c1.4,0,2.5-1.1,2.5-2.5V6.3C16.3,4.9,15.1,3.8,13.8,3.8z M15,17.5c0,0.7-0.6,1.2-1.3,1.3H2.5c-0.7,0-1.2-0.6-1.3-1.3V6.3
	C1.3,5.6,1.8,5,2.5,5h11.3C14.4,5,15,5.6,15,6.3V17.5z M3.8,9.6h8.8V8.3H3.8V9.6z M3.8,12.9h8.8v-1.3H3.8V12.9z M3.8,16.2h5V15h-5
	V16.2z"/>
</svg>
