<?xml version="1.0" encoding="utf-8"?>
<!-- Generator: Adobe Illustrator 21.1.0, SVG Export Plug-In . SVG Version: 6.00 Build 0)  -->
<svg version="1.1" id="Layer_1" xmlns="http://www.w3.org/2000/svg" xmlns:xlink="http://www.w3.org/1999/xlink" x="0px" y="0px"
	 viewBox="0 0 22 22" style="enable-background:new 0 0 22 22;" xml:space="preserve">
<style type="text/css">
	.st0{fill:#1B1B1B;}
</style>
<path class="st0" d="M18.8,22h-5.5c-0.3,0-0.5-0.2-0.5-0.5c0,0,0,0,0,0v-6.2H9.2v6.2C9.2,21.8,9,22,8.7,22c0,0,0,0,0,0H3.2
	c-0.3,0-0.5-0.2-0.5-0.5c0,0,0,0,0,0V12c0-0.3,0.2-0.5,0.4-0.5s0.5,0.2,0.5,0.4c0,0,0,0,0,0V21h4.6v-6.2c0-0.3,0.2-0.5,0.5-0.5
	c0,0,0,0,0,0h4.6c0.3,0,0.5,0.2,0.5,0.5c0,0,0,0,0,0V21h4.6v-8.6c0-0.3,0.2-0.5,0.4-0.5c0.3,0,0.5,0.2,0.5,0.4c0,0,0,0,0,0v9.1
	C19.3,21.8,19,22,18.8,22C18.8,22,18.8,22,18.8,22z M21.5,12c-0.1,0-0.2-0.1-0.3-0.1L11,1.2L0.8,11.8c-0.2,0.2-0.5,0.2-0.6,0
	c0,0,0,0,0,0c-0.2-0.2-0.2-0.5,0-0.7l10.5-11c0.2-0.2,0.5-0.2,0.6,0c0,0,0,0,0,0l10.5,11c0.2,0.2,0.2,0.5,0,0.7
	C21.8,11.9,21.7,12,21.5,12L21.5,12z M17.9,5.3c-0.3,0-0.5-0.2-0.5-0.5c0,0,0,0,0,0V1.9h-2.8c-0.3,0-0.5-0.2-0.5-0.5
	c0-0.2,0.2-0.4,0.5-0.5h3.2c0.3,0,0.5,0.2,0.5,0.5c0,0,0,0,0,0v3.3C18.3,5,18.1,5.3,17.9,5.3C17.9,5.3,17.9,5.3,17.9,5.3L17.9,5.3z"
	/>
</svg>
