<?xml version="1.0" encoding="utf-8"?>
<!-- Generator: Adobe Illustrator 21.1.0, SVG Export Plug-In . SVG Version: 6.00 Build 0)  -->
<svg version="1.1" id="Layer_1" xmlns="http://www.w3.org/2000/svg" xmlns:xlink="http://www.w3.org/1999/xlink" x="0px" y="0px"
	 viewBox="0 0 59 59" style="enable-background:new 0 0 59 59;" xml:space="preserve">
<style type="text/css">
	.st0{fill:#FFFFFF;}
	.st1{fill:#424242;}
</style>
<g>
	<path class="st0" d="M59,29.5c0,7.7-3,14.8-7.9,20c-1,1.1-2,2.1-3.2,3c-5,4.1-11.5,6.5-18.5,6.5S16.1,56.6,11,52.5
		c-1.1-0.9-2.2-1.9-3.2-3C3,44.3,0,37.2,0,29.5C0,13.2,13.2,0,29.5,0S59,13.2,59,29.5z"/>
	<path class="st1" d="M45,37.3c-2.4-2.4-5.2-4.1-8.3-5.2c3.3-2.3,5.5-6.1,5.5-10.4c0-7-5.7-12.7-12.7-12.7s-12.7,5.7-12.7,12.7
		c0,4.3,2.2,8.1,5.5,10.4c-3.1,1.1-5.9,2.8-8.3,5.2c-3.4,3.4-5.5,7.6-6.2,12.3c1,1.1,2,2.1,3.2,3c0.1-10.1,8.4-18.2,18.5-18.2
		S47.8,42.4,48,52.5c1.1-0.9,2.2-1.9,3.2-3C50.5,44.9,48.3,40.6,45,37.3z M29.5,30.9c-5.1,0-9.2-4.1-9.2-9.2c0-5.1,4.1-9.2,9.2-9.2
		s9.2,4.1,9.2,9.2C38.7,26.7,34.6,30.9,29.5,30.9z"/>
</g>
</svg>
