<?xml version="1.0" encoding="utf-8"?>
<!-- Generator: Adobe Illustrator 21.1.0, SVG Export Plug-In . SVG Version: 6.00 Build 0)  -->
<svg version="1.1" id="Layer_1" xmlns="http://www.w3.org/2000/svg" xmlns:xlink="http://www.w3.org/1999/xlink" x="0px" y="0px"
	 viewBox="0 0 61.2 56.8" style="enable-background:new 0 0 61.2 56.8;" xml:space="preserve">
<g id="Exchange" transform="translate(1997.5 600)">
	<path id="Path_792" d="M-1967.9-588.9v1.3c-0.5,0.1-0.9,0.3-1.3,0.6c-1,0.6-1.5,1.8-1.3,3c0.3,1.1,1.3,1.8,2.4,1.9
		c2.8,0.4,3.2,0.8,3.1,1.8c-0.1,0.5-0.4,0.9-0.9,1.1c-1.4,0.4-2.8,0-3.9-0.9l-1,1.3c0.8,0.7,1.8,1.1,2.8,1.4v1.4h1.6v-1.4
		c0.4,0,0.7-0.1,1.1-0.3c1-0.4,1.8-1.3,1.9-2.4c0.2-1.1-0.4-2.3-1.4-2.8c-1-0.4-2-0.7-3.1-0.8c-0.5,0-0.9-0.3-1.1-0.7
		c-0.1-0.4,0.2-0.9,0.7-1.3c0.6-0.4,1.4-0.5,2-0.2c0.4,0.2,0.8,0.4,1.2,0.7l0.5-0.6l0.5-0.6c-0.5-0.4-1-0.7-1.6-0.9
		c-0.2-0.1-0.5-0.2-0.7-0.2v-1.3L-1967.9-588.9z"/>
	<path id="Path_793" d="M-1967.1-598.4c3.4,0,6.8,1.1,9.5,3.2h-2.1v1.6h5.2v-5.2h-1.6v2.7c-7.5-6.1-18.5-4.9-24.6,2.7
		c-2.5,3.1-3.9,7-3.9,11h1.6C-1983-591.3-1975.9-598.4-1967.1-598.4z"/>
	<path id="Path_794" d="M-1951.3-582.5c0,8.8-7.1,15.9-15.9,15.9c-3.3,0-6.6-1.1-9.3-3h2.1v-1.6h-5.2v5.2h1.6v-2.7
		c7.6,5.9,18.6,4.6,24.6-3c2.4-3.1,3.7-6.9,3.7-10.8L-1951.3-582.5z"/>
</g>
<path d="M6.6,48.9H2.7V52h4.6v1.3H1v-10h6.2v1.3H2.7v2.8h3.9V48.9z M11.3,48.5l1.4-2.5h1.9l-2.3,3.7l2.4,3.7h-1.9l-1.4-2.6l-1.4,2.6
	H8l2.4-3.7L8,45.9h1.9L11.3,48.5z M18.6,52.2c0.4,0,0.7-0.1,1-0.4c0.3-0.2,0.4-0.5,0.4-0.9h1.5l0,0c0,0.7-0.3,1.3-0.8,1.8
	c-0.6,0.5-1.3,0.8-2,0.8c-1.1,0-1.9-0.4-2.5-1.1c-0.6-0.7-0.9-1.6-0.9-2.7v-0.2c0-1.1,0.3-2,0.9-2.7s1.4-1.1,2.5-1.1
	c0.9,0,1.6,0.3,2.1,0.8c0.5,0.5,0.8,1.2,0.8,2l0,0H20c0-0.4-0.1-0.8-0.4-1s-0.6-0.4-1-0.4c-0.6,0-1,0.2-1.3,0.7
	c-0.3,0.5-0.4,1-0.4,1.7v0.2c0,0.7,0.1,1.3,0.4,1.7C17.6,51.9,18,52.2,18.6,52.2z M24.5,46.9c0.2-0.3,0.5-0.6,0.9-0.8
	c0.4-0.2,0.7-0.3,1.2-0.3c0.8,0,1.4,0.2,1.8,0.7c0.4,0.5,0.7,1.3,0.7,2.3v4.5h-1.7v-4.5c0-0.6-0.1-1-0.3-1.3c-0.2-0.3-0.6-0.4-1-0.4
	c-0.4,0-0.7,0.1-0.9,0.2c-0.3,0.1-0.5,0.3-0.6,0.5v5.5h-1.7V42.7h1.7V46.9z M35.3,53.3c-0.1-0.2-0.1-0.4-0.1-0.5
	c0-0.2-0.1-0.4-0.1-0.5c-0.2,0.3-0.5,0.6-0.9,0.9c-0.4,0.2-0.8,0.4-1.3,0.4c-0.8,0-1.4-0.2-1.8-0.6c-0.4-0.4-0.6-0.9-0.6-1.6
	c0-0.7,0.3-1.3,0.8-1.7c0.6-0.4,1.4-0.6,2.4-0.6H35v-0.6c0-0.4-0.1-0.7-0.3-0.9c-0.2-0.2-0.6-0.3-1-0.3c-0.4,0-0.7,0.1-0.9,0.3
	c-0.2,0.2-0.3,0.4-0.3,0.7l-1.6,0l0,0c0-0.6,0.2-1.1,0.8-1.6c0.6-0.5,1.3-0.7,2.2-0.7c0.9,0,1.6,0.2,2.1,0.7s0.8,1.1,0.8,1.9v3.3
	c0,0.3,0,0.6,0.1,0.9c0,0.3,0.1,0.6,0.2,0.8H35.3z M33.2,52.1c0.4,0,0.8-0.1,1.1-0.3c0.3-0.2,0.6-0.4,0.7-0.7V50h-1.3
	c-0.5,0-0.9,0.1-1.1,0.4c-0.3,0.2-0.4,0.5-0.4,0.8c0,0.3,0.1,0.5,0.3,0.7C32.6,52.1,32.9,52.1,33.2,52.1z M39.9,45.9L40,47
	c0.2-0.4,0.5-0.7,0.9-0.9c0.4-0.2,0.8-0.3,1.2-0.3c0.8,0,1.4,0.2,1.8,0.7c0.4,0.5,0.6,1.2,0.6,2.2v4.6H43v-4.6c0-0.6-0.1-1-0.3-1.2
	s-0.6-0.4-1-0.4c-0.4,0-0.7,0.1-0.9,0.2c-0.3,0.1-0.5,0.3-0.6,0.6v5.4h-1.7v-7.4H39.9z M46.1,49.7c0-1.2,0.3-2.1,0.8-2.9
	c0.5-0.7,1.2-1.1,2.1-1.1c0.4,0,0.8,0.1,1.2,0.3c0.3,0.2,0.6,0.5,0.9,0.8l0.2-1h1.4v7.4c0,1-0.3,1.7-0.9,2.2s-1.4,0.8-2.5,0.8
	c-0.4,0-0.7-0.1-1.2-0.2c-0.4-0.1-0.8-0.2-1.1-0.4l0.3-1.3c0.3,0.1,0.6,0.3,0.9,0.3c0.3,0.1,0.7,0.1,1.1,0.1c0.6,0,1-0.1,1.3-0.4
	c0.3-0.3,0.4-0.7,0.4-1.2v-0.8c-0.2,0.3-0.5,0.5-0.8,0.7c-0.3,0.2-0.7,0.2-1.1,0.2c-0.9,0-1.6-0.3-2.1-1s-0.8-1.5-0.8-2.6V49.7z
	 M47.7,49.9c0,0.7,0.1,1.2,0.4,1.6s0.7,0.6,1.3,0.6c0.4,0,0.7-0.1,0.9-0.2c0.2-0.1,0.4-0.4,0.6-0.6V48c-0.2-0.3-0.4-0.5-0.6-0.6
	c-0.2-0.2-0.5-0.2-0.9-0.2c-0.6,0-1,0.2-1.3,0.7c-0.3,0.5-0.4,1.1-0.4,1.9V49.9z M57.4,53.5c-1.1,0-1.9-0.3-2.5-1
	c-0.6-0.7-0.9-1.6-0.9-2.6v-0.3c0-1.1,0.3-2,0.9-2.7c0.6-0.7,1.4-1.1,2.4-1c1,0,1.7,0.3,2.3,0.9c0.5,0.6,0.8,1.4,0.8,2.5v0.9h-4.6
	l0,0c0,0.6,0.2,1.1,0.5,1.5s0.8,0.6,1.4,0.6c0.5,0,0.8-0.1,1.2-0.2c0.3-0.1,0.6-0.3,0.9-0.5l0.5,1.1c-0.3,0.2-0.7,0.5-1.1,0.6
	S58,53.5,57.4,53.5z M57.2,47.1c-0.4,0-0.8,0.2-1,0.5c-0.3,0.3-0.4,0.7-0.5,1.2l0,0h2.9v-0.1c0-0.5-0.1-0.9-0.3-1.2
	C58.1,47.3,57.7,47.1,57.2,47.1z"/>
</svg>
