<svg xmlns="http://www.w3.org/2000/svg" viewBox="1984.5 600 61 57">
  <defs>
    <style>
      .cls-1, .cls-2 {
        fill: #fff;
      }

      .cls-1 {
        font-size: 14px;
        font-family: Roboto-Medium, Roboto;
        font-weight: 500;
      }
    </style>
  </defs>
  <g id="Exchange" transform="translate(1933.5 168.2)">
    <g id="Exchange-2" data-name="Exchange" transform="translate(1 2)">
      <text id="Exchange-3" data-name="Exchange" class="cls-1" transform="translate(50 482.8)"><tspan x="0" y="0">Exchange</tspan></text>
      <g id="Exchange-4" data-name="Exchange" transform="translate(63 429.8)">
        <path id="Path_792" data-name="Path 792" class="cls-2" d="M132.315,103.325v1.266a3.445,3.445,0,0,0-1.279.594,2.84,2.84,0,0,0-1.3,2.957,2.733,2.733,0,0,0,2.406,1.922c2.783.39,3.236.805,3.117,1.78a1.316,1.316,0,0,1-.887,1.1,4.087,4.087,0,0,1-3.866-.948l-1.012,1.26a6.756,6.756,0,0,0,2.82,1.363v1.435h1.616v-1.35a4,4,0,0,0,1.05-.263,2.94,2.94,0,0,0,1.883-2.406,2.59,2.59,0,0,0-1.412-2.786,9.531,9.531,0,0,0-3.084-.791,1.16,1.16,0,0,1-1.064-.719c-.1-.395.159-.865.692-1.259a2.048,2.048,0,0,1,2.036-.188,4.478,4.478,0,0,1,1.191.663l.518-.621.52-.619a5.964,5.964,0,0,0-1.626-.925,4.9,4.9,0,0,0-.7-.205v-1.267Z" transform="translate(-115.542 -92.192)"/>
        <path id="Path_793" data-name="Path 793" class="cls-2" d="M17.5,1.616a15.767,15.767,0,0,1,9.514,3.162H24.889V6.394h5.2v-5.2H28.473V3.866A17.5,17.5,0,0,0,0,17.5H1.616A15.9,15.9,0,0,1,17.5,1.616Z"/>
        <path id="Path_794" data-name="Path 794" class="cls-2" d="M75.751,162.421a15.887,15.887,0,0,1-25.177,12.884h2.11v-1.616h-5.2v5.2H49.1v-2.672a17.5,17.5,0,0,0,28.268-13.8Z" transform="translate(-42.367 -144.921)"/>
      </g>
    </g>
  </g>
</svg>
