<?xml version="1.0" encoding="utf-8"?>
<!-- Generator: Adobe Illustrator 21.1.0, SVG Export Plug-In . SVG Version: 6.00 Build 0)  -->
<svg version="1.1" id="Layer_1" xmlns="http://www.w3.org/2000/svg" xmlns:xlink="http://www.w3.org/1999/xlink" x="0px" y="0px"
	 viewBox="0 0 18 15.5" style="enable-background:new 0 0 18 15.5;" xml:space="preserve">
<style type="text/css">
	.st0{fill:#424242;}
</style>
<g>
	<path class="st0" d="M8.9,4.9l2.6,2.6V7.4c0-1.4-1.1-2.5-2.5-2.5H8.9 M5.3,5.6l1.3,1.3c0,0.2-0.1,0.4-0.1,0.5
		c0,1.4,1.1,2.5,2.5,2.5c0.2,0,0.4,0,0.5-0.1l1.3,1.3c-2,1-4.4,0.2-5.5-1.8C4.8,8.1,4.8,6.7,5.3,5.6 M0.8,1l1.9,1.9l0.4,0.4
		C1.7,4.3,0.6,5.8,0,7.4c2,5,7.6,7.4,12.5,5.5c0,0,0,0,0,0l0.4,0.3l2.4,2.4l1-1L1.9,0 M9,3.3c2.3,0,4.1,1.8,4.1,4.1
		c0,0.5-0.1,1-0.3,1.5l2.4,2.4c1.2-1,2.2-2.4,2.8-3.9C16.1,2.5,10.6,0,5.7,1.8l1.8,1.8C8,3.4,8.5,3.3,9,3.3z"/>
</g>
</svg>
