<?xml version="1.0" encoding="utf-8"?>
<!-- Generator: Adobe Illustrator 21.1.0, SVG Export Plug-In . SVG Version: 6.00 Build 0)  -->
<svg version="1.1" id="Layer_1" xmlns="http://www.w3.org/2000/svg" xmlns:xlink="http://www.w3.org/1999/xlink" x="0px" y="0px"
	 viewBox="0 0 18 12.3" style="enable-background:new 0 0 18 12.3;" xml:space="preserve">
<style type="text/css">
	.st0{fill:#424242;}
</style>
<g>
	<path class="st0" d="M9,3.7c-1.4,0-2.5,1.1-2.5,2.5S7.6,8.6,9,8.6s2.5-1.1,2.5-2.5l0,0C11.5,4.8,10.4,3.7,9,3.7 M9,10.2
		c-2.3,0-4.1-1.8-4.1-4.1C4.9,3.9,6.7,2,9,2c2.3,0,4.1,1.8,4.1,4.1l0,0C13.1,8.4,11.3,10.2,9,10.2 M9,0C5,0,1.5,2.4,0,6.1
		c2,5,7.6,7.4,12.5,5.5c2.5-1,4.5-3,5.5-5.5C16.5,2.4,13,0,9,0z"/>
</g>
</svg>
