<?xml version="1.0" encoding="utf-8"?>
<!-- Generator: Adobe Illustrator 21.1.0, SVG Export Plug-In . SVG Version: 6.00 Build 0)  -->
<svg version="1.1" id="Layer_1" xmlns="http://www.w3.org/2000/svg" xmlns:xlink="http://www.w3.org/1999/xlink" x="0px" y="0px"
	 viewBox="0 0 24 24" style="enable-background:new 0 0 24 24;" xml:space="preserve">
<style type="text/css">
	.st0{fill:none;}
	.st1{fill:#020202;}
</style>
<rect id="Boundry" class="st0" width="24" height="24"/>
<path class="st1" d="M1,10v13.2h13.2V10H1z M11.8,17.5H8.2v3.6c0,0.3-0.3,0.6-0.6,0.6c-0.3,0-0.6-0.3-0.6-0.6v-3.6H3.4
	c-0.3,0-0.6-0.3-0.6-0.6c0-0.3,0.3-0.6,0.6-0.6H7v-3.6c0-0.3,0.3-0.6,0.6-0.6c0.3,0,0.6,0.3,0.6,0.6v3.6h3.6c0.3,0,0.6,0.3,0.6,0.6
	C12.4,17.2,12.2,17.5,11.8,17.5z M13.2,3h2v3.9h-2V3 M17.1,8.8h2v2h2v-2h2v2h-2v2h2v3.9h-2v2h-2v-2h-3v-2h1.1v-2h2v-2h-2V8.8
	 M21,16.6v-3.9h-2v3.9H21 M17.1,1H23v5.9h-5.9V1 M19.1,3v2h2V3H19.1 M5.4,1h5.9v5.9H5.4V1 M7.4,3v2h2V3H7.4"/>
</svg>
