<?xml version="1.0" encoding="utf-8"?>
<!-- Generator: Adobe Illustrator 21.1.0, SVG Export Plug-In . SVG Version: 6.00 Build 0)  -->
<svg version="1.1" id="Layer_1" xmlns="http://www.w3.org/2000/svg" xmlns:xlink="http://www.w3.org/1999/xlink" x="0px" y="0px"
	 viewBox="0 0 20 20" style="enable-background:new 0 0 20 20;" xml:space="preserve">
<path d="M10,0C4.5,0,0,4.5,0,10s4.5,10,10,10s10-4.5,10-10C20,4.5,15.5,0,10,0z M10,18.8c-4.8,0-8.8-3.9-8.8-8.8
	c0-4.8,3.9-8.8,8.8-8.8c4.8,0,8.8,3.9,8.8,8.8c0,0,0,0,0,0C18.8,14.8,14.8,18.8,10,18.8z M10.2,5c0.6,0,1,0.5,1,1s-0.5,1-1,1
	c-0.6,0-1-0.5-1-1C9.1,5.4,9.6,5,10.2,5L10.2,5z M9.9,8.7C9.5,8.7,9.3,9,9.3,9.3v5.2c0,0.3,0.3,0.6,0.6,0.6c0.3,0,0.6-0.3,0.6-0.6
	V9.3C10.5,9,10.2,8.7,9.9,8.7z"/>
</svg>
