<?xml version="1.0" encoding="utf-8"?>
<!-- Generator: Adobe Illustrator 21.1.0, SVG Export Plug-In . SVG Version: 6.00 Build 0)  -->
<svg version="1.1" id="Layer_1" xmlns="http://www.w3.org/2000/svg" xmlns:xlink="http://www.w3.org/1999/xlink" x="0px" y="0px"
	 viewBox="0 0 32 55" style="enable-background:new 0 0 32 55;" xml:space="preserve">
<style type="text/css">
	.st0{fill:#001B1B;enable-background:new    ;}
</style>
<g id="Charge" transform="translate(3755 -1932)">
	<path class="st0" d="M-3752.3,1981.7h4.7v1.3h-6.3v-10h1.7V1981.7z M-3746.7,1979.2c0-1.1,0.3-2,0.9-2.7c0.6-0.7,1.4-1.1,2.5-1.1
		c1.1,0,1.9,0.4,2.5,1.1c0.6,0.7,0.9,1.6,0.9,2.7v0.1c0,1.1-0.3,2-0.9,2.7c-0.6,0.7-1.4,1-2.5,1c-1.1,0-1.9-0.4-2.5-1.1
		s-0.9-1.6-0.9-2.7V1979.2z M-3745,1979.4c0,0.7,0.1,1.3,0.4,1.8s0.7,0.7,1.3,0.7c0.6,0,1-0.2,1.3-0.7c0.3-0.5,0.4-1,0.4-1.8v-0.1
		c0-0.7-0.1-1.3-0.4-1.7c-0.3-0.5-0.7-0.7-1.3-0.7c-0.6,0-1,0.2-1.3,0.7c-0.3,0.5-0.4,1-0.4,1.7V1979.4z M-3734,1983
		c-0.1-0.2-0.1-0.4-0.1-0.5c0-0.2-0.1-0.4-0.1-0.5c-0.2,0.3-0.5,0.6-0.9,0.9c-0.4,0.2-0.8,0.4-1.3,0.4c-0.8,0-1.4-0.2-1.8-0.6
		s-0.6-0.9-0.6-1.6c0-0.7,0.3-1.3,0.8-1.7c0.6-0.4,1.4-0.6,2.4-0.6h1.3v-0.6c0-0.4-0.1-0.7-0.3-0.9c-0.2-0.2-0.6-0.3-1-0.3
		c-0.4,0-0.7,0.1-0.9,0.3c-0.2,0.2-0.3,0.4-0.3,0.7l-1.6,0l0,0c0-0.6,0.2-1.1,0.8-1.6c0.6-0.5,1.3-0.7,2.2-0.7
		c0.9,0,1.6,0.2,2.1,0.7s0.8,1.1,0.8,1.9v3.3c0,0.3,0,0.6,0.1,0.9c0,0.3,0.1,0.6,0.2,0.8H-3734z M-3736,1981.8
		c0.4,0,0.8-0.1,1.1-0.3c0.3-0.2,0.6-0.4,0.7-0.7v-1.1h-1.3c-0.5,0-0.9,0.1-1.1,0.4c-0.3,0.2-0.4,0.5-0.4,0.8c0,0.3,0.1,0.5,0.3,0.7
		C-3736.6,1981.7-3736.4,1981.8-3736,1981.8z M-3731.2,1979.4c0-1.2,0.3-2.1,0.8-2.9c0.5-0.7,1.2-1.1,2.1-1.1c0.4,0,0.8,0.1,1.1,0.2
		c0.3,0.2,0.6,0.4,0.8,0.7v-4.1h1.7v10.7h-1.3l-0.2-0.9c-0.2,0.4-0.5,0.6-0.9,0.8c-0.3,0.2-0.7,0.3-1.2,0.3c-0.9,0-1.6-0.3-2.1-1
		s-0.8-1.5-0.8-2.6V1979.4z M-3729.5,1979.5c0,0.7,0.1,1.2,0.4,1.6c0.3,0.4,0.7,0.6,1.2,0.6c0.4,0,0.6-0.1,0.9-0.2
		c0.2-0.2,0.4-0.4,0.6-0.6v-3.2c-0.2-0.3-0.4-0.5-0.6-0.6c-0.2-0.2-0.5-0.2-0.9-0.2c-0.6,0-1,0.2-1.3,0.7c-0.3,0.5-0.4,1.1-0.4,1.9
		V1979.5z M-3749,1943.6c-0.6-1.1-1-2.3-1-3.5c0.1-3.9,3.2-7,7.1-7c0.3,0,0.7,0,1,0.1l0,0c-2.5,1.5-4,4.2-4.1,7.1
		c0,1.2,0.2,2.4,0.8,3.5h1.5c-0.6-1.1-1-2.3-1-3.5c0-3.9,3.2-7.1,7.1-7.1c3.9,0,7.1,3.1,7.1,7.1c0,0,0,0,0,0.1c0,1.2-0.4,2.4-1,3.5
		h1.4c0.5-1.1,0.8-2.3,0.8-3.5c0-4.6-3.7-8.3-8.3-8.4c0,0,0,0,0,0c-1,0-1.9,0.1-2.8,0.5l0,0c-0.8-0.3-1.7-0.5-2.6-0.5
		c-4.6,0-8.3,3.7-8.4,8.3c0,0,0,0,0,0c0,1.2,0.2,2.4,0.8,3.5h1.7V1943.6z M-3736.1,1943.6h-2.6c-0.5-0.4-0.8-1.1-0.8-1.8
		c0-0.3,0.2-0.5,0.5-0.6c0,0,0.1,0,0.1,0c0.5,0,0.6,0.1,0.6,0.6c0,0.6,0.5,1.1,1.1,1.1c0.6,0,1.1-0.5,1.1-1.1c0-0.2-0.1-0.8-1.4-1.1
		c-1.4-0.6-2.3-1.1-2.3-2.3c0-1.1,0.7-2,1.7-2.3l0,0c0-0.3,0.2-0.6,0.5-0.6c0.3,0,0.6,0.2,0.6,0.5c0,0,0,0,0,0v0.1
		c1.1,0.2,1.8,1.2,1.7,2.3c0,0.3-0.2,0.5-0.5,0.6c0,0-0.1,0-0.1,0c-0.5,0-0.6-0.1-0.6-0.6c0-0.6-0.5-1.1-1.1-1.1
		c-0.6,0-1.1,0.5-1.1,1.1c0,0,0,0,0,0c0,0.2,0.1,0.8,1.4,1.1c0.6,0.1,2.3,0.7,2.3,2.3C-3735.2,1942.6-3735.6,1943.2-3736.1,1943.6z
		 M-3725.9,1950.6v-6.8c0-1.5-1.1-2.8-2.6-2.9v1.1c1.4,0.1,1.4,1.7,1.4,1.7h-24.5c-0.3,0-0.6,0.2-0.6,0.5c0,0.3,0.2,0.6,0.5,0.6
		c0,0,0,0,0,0h24.6v5.9h-4.3c-2,0.1-3.6,1.6-3.6,3.6v0.2c0.1,2,1.6,3.6,3.6,3.6h4.3v6c0.1,0.9-0.6,1.6-1.5,1.7c-0.1,0-0.1,0-0.2,0
		h-23.4c-1,0-1.8-0.8-1.8-1.8c0,0,0,0,0,0v-20.2c0-1,0.8-1.8,1.8-1.8c0,0,0,0,0,0h0.1v-1.1h-0.1c-1.6,0-2.9,1.3-2.9,2.9c0,0,0,0,0,0
		v20.3c0,1.6,1.3,2.8,2.9,2.8h23.1c1.6,0,2.9-1.2,2.9-2.8c0-0.1,0-0.1,0-0.2v-6h1.6v-7.5H-3725.9z M-3725.5,1956.8h-5.9
		c-1.4,0-2.5-1.1-2.5-2.5v-0.2c0-1.4,1.1-2.5,2.5-2.5h5.9L-3725.5,1956.8L-3725.5,1956.8z M-3730.8,1953.1c0.7,0,1.2,0.6,1.2,1.2
		s-0.6,1.2-1.2,1.2c-0.7,0-1.2-0.6-1.2-1.2C-3732.1,1953.7-3731.5,1953.1-3730.8,1953.1L-3730.8,1953.1z"/>
</g>
</svg>
