<?xml version="1.0" encoding="utf-8"?>
<!-- Generator: Adobe Illustrator 21.1.0, SVG Export Plug-In . SVG Version: 6.00 Build 0)  -->
<svg version="1.1" id="Layer_1" xmlns="http://www.w3.org/2000/svg" xmlns:xlink="http://www.w3.org/1999/xlink" x="0px" y="0px"
	 viewBox="0 0 176 114" style="enable-background:new 0 0 176 114;" xml:space="preserve">
<style type="text/css">
	.st0{opacity:0.8;fill:#1B1B1B;}
	.st1{fill:#1B1B1B;}
</style>
<g>
	<path class="st0" d="M176,2.7v108.6c0,1.5-1.3,2.7-3,2.7H11.1c-1.7,0-3-1.2-3-2.7V65.1L0,57l8.1-8.1V2.7C8,1.2,9.4,0,11.1,0H173
		C174.7,0,176,1.2,176,2.7z"/>
	<path class="st1" d="M173,114.5H11.1c-2,0-3.5-1.4-3.5-3.2v-46L-0.7,57l8.3-8.3v-46C7.5,2,7.8,1.2,8.4,0.6C9-0.1,10-0.5,11.1-0.5
		H173c2,0,3.5,1.4,3.5,3.2v108.6C176.5,113.1,175,114.5,173,114.5z M0.7,57l7.9,7.9v46.4c0,1.2,1.1,2.2,2.5,2.2H173
		c1.4,0,2.5-1,2.5-2.2V2.7c0-1.2-1.1-2.2-2.5-2.2H11.1c-0.8,0-1.5,0.3-2,0.8C8.9,1.6,8.6,2,8.6,2.7l0,46.4L0.7,57z"/>
</g>
</svg>
