<?xml version="1.0" encoding="utf-8"?>
<!-- Generator: Adobe Illustrator 21.1.0, SVG Export Plug-In . SVG Version: 6.00 Build 0)  -->
<svg version="1.1" id="Layer_1" xmlns="http://www.w3.org/2000/svg" xmlns:xlink="http://www.w3.org/1999/xlink" x="0px" y="0px"
	 viewBox="0 0 60 4" style="enable-background:new 0 0 60 4;" xml:space="preserve">
<style type="text/css">
	.st0{fill:#424242;}
</style>
<g>
	<path class="st0" d="M2,0c1.1,0,2,0.9,2,2S3.1,4,2,4S0,3.1,0,2S0.9,0,2,0z M10,0c1.1,0,2,0.9,2,2s-0.9,2-2,2S8,3.1,8,2S8.9,0,10,0z
		 M18,0c1.1,0,2,0.9,2,2s-0.9,2-2,2c-1.1,0-2-0.9-2-2S16.9,0,18,0z M26,0c1.1,0,2,0.9,2,2s-0.9,2-2,2c-1.1,0-2-0.9-2-2S24.9,0,26,0z
		 M34,0c1.1,0,2,0.9,2,2s-0.9,2-2,2s-2-0.9-2-2S32.9,0,34,0z M42,0c1.1,0,2,0.9,2,2s-0.9,2-2,2s-2-0.9-2-2S40.9,0,42,0z M50,0
		c1.1,0,2,0.9,2,2s-0.9,2-2,2s-2-0.9-2-2S48.9,0,50,0z M58,0c1.1,0,2,0.9,2,2s-0.9,2-2,2s-2-0.9-2-2S56.9,0,58,0z"/>
</g>
</svg>
