<?xml version="1.0" encoding="utf-8"?>
<!-- Generator: Adobe Illustrator 21.1.0, SVG Export Plug-In . SVG Version: 6.00 Build 0)  -->
<svg version="1.1" id="Layer_1" xmlns="http://www.w3.org/2000/svg" xmlns:xlink="http://www.w3.org/1999/xlink" x="0px" y="0px"
	 viewBox="0 0 40 40" style="enable-background:new 0 0 40 40;" xml:space="preserve">
<path d="M20,0C9,0,0,9,0,20c0,4.8,1.7,9.2,4.5,12.7c0.4-3.5,3.9-6.5,8.8-7.9c1.8,1.7,4.1,2.7,6.6,2.7c2.5,0,4.7-1,6.5-2.6
	c4.9,1.5,8.4,4.7,8.5,8.3c3.1-3.5,5-8.2,5-13.2C40,9,31,0,20,0L20,0z M20,25.1c-1.3,0-2.5-0.4-3.5-1c-2.6-1.5-4.3-4.5-4.3-7.9
	c0-4.9,3.5-8.9,7.9-8.9c4.4,0,7.9,4,7.9,8.9c0,3.5-1.8,6.6-4.5,8C22.4,24.8,21.2,25.1,20,25.1L20,25.1z M20,25.1"/>
</svg>
