<?xml version="1.0" encoding="utf-8"?>
<!-- Generator: Adobe Illustrator 21.1.0, SVG Export Plug-In . SVG Version: 6.00 Build 0)  -->
<svg version="1.1" id="Layer_1" xmlns="http://www.w3.org/2000/svg" xmlns:xlink="http://www.w3.org/1999/xlink" x="0px" y="0px"
	 viewBox="0 0 135 135" style="enable-background:new 0 0 135 135;" xml:space="preserve">
<style type="text/css">
	.st0{fill:#FFFFFF;}
	.st1{fill:#3366CC;}
</style>
<circle class="st0" cx="67.5" cy="67.5" r="66.5"/>
<path class="st1" d="M67.5,133c8.8,0,17.4-1.7,25.5-5.1c3.9-1.6,7.6-3.7,11.1-6c3.5-2.3,6.7-5,9.7-8c3-3,5.7-6.2,8-9.7
	c2.4-3.5,4.4-7.2,6-11.1c3.4-8.1,5.1-16.7,5.1-25.5s-1.7-17.4-5.1-25.5c-1.6-3.9-3.7-7.6-6-11.1c-2.3-3.5-5-6.7-8-9.7
	c-3-3-6.2-5.7-9.7-8c-3.5-2.4-7.2-4.4-11.1-6C84.9,3.7,76.3,2,67.5,2S50.1,3.7,42,7.1c-3.9,1.6-7.6,3.7-11.1,6c-3.5,2.3-6.7,5-9.7,8
	c-3,3-5.7,6.2-8,9.7c-2.4,3.5-4.4,7.2-6,11.1C3.7,50.1,2,58.7,2,67.5S3.7,84.9,7.1,93c1.6,3.9,3.7,7.6,6,11.1c2.3,3.5,5,6.7,8,9.7
	c3,3,6.2,5.7,9.7,8c3.5,2.4,7.2,4.4,11.1,6C50.1,131.3,58.7,133,67.5,133 M67.5,135C30.2,135,0,104.8,0,67.5S30.2,0,67.5,0
	S135,30.2,135,67.5S104.8,135,67.5,135z"/>
<g id="Icon" transform="translate(2343 431.317)">
	<path id="Path_9" class="st1" d="M-2289.1-357.7h41.3l7.3-26.1h-10.7l-3.9-11.9l-16.1,5.2l2.2,6.7h-0.8l-4-11.9l-16.1,5.2l2.2,6.7
		h-8.6l-1.8-7.1c-0.8-3.5-4-6-7.6-6.1h-4.9v3h4.9c2.3,0,4.2,1.5,4.8,3.7l7.9,30.9c-1.7,1.2-2.7,3.2-2.7,5.3c0,3.6,3,6.5,6.6,6.6
		h40.2v-3h-40.2c-2,0-3.6-1.7-3.5-3.6C-2292.6-356.1-2291-357.7-2289.1-357.7L-2289.1-357.7z M-2257-392l2.7,8h-11.6l-1.6-4.6
		L-2257-392z M-2275.6-392l2.7,8h-11.6l-1.6-4.6L-2275.6-392z M-2244.4-381l-5.7,20.3h-40.2l-5.2-20.3L-2244.4-381z"/>
	<path id="Path_10" class="st1" d="M-2261.9-343.1c-3.5,0-6.3,2.8-6.3,6.3c0,3.5,2.8,6.3,6.3,6.3c3.4,0,6.2-2.7,6.3-6.1
		c0,0,0-0.1,0-0.1C-2255.7-340.3-2258.5-343.1-2261.9-343.1z M-2261.9-333.4c-1.9,0-3.4-1.6-3.4-3.5c0-1.8,1.5-3.3,3.4-3.4
		c1.9,0,3.4,1.4,3.4,3.3c0,0,0,0.1,0,0.1C-2258.5-335-2260.1-333.5-2261.9-333.4z"/>
	<path id="Path_11" class="st1" d="M-2284.9-343.1c-3.5,0-6.3,2.8-6.3,6.3c0,3.5,2.8,6.3,6.3,6.3s6.3-2.8,6.3-6.3l0,0
		C-2278.6-340.3-2281.4-343.1-2284.9-343.1z M-2284.9-333.4c-1.9,0-3.4-1.5-3.4-3.4c0-1.9,1.5-3.4,3.4-3.4s3.4,1.5,3.4,3.4l0,0
		C-2281.5-335-2283-333.5-2284.9-333.4z"/>
</g>
</svg>
