<svg xmlns="http://www.w3.org/2000/svg" viewBox="2047 825 22 22">
  <defs>
    <style>
      .cls-1 {
        fill: #424242;
      }
    </style>
  </defs>
  <g id="qr-code" transform="translate(2047 825)">
    <g id="Group_509" data-name="Group 509" transform="translate(0 0)">
      <g id="Group_508" data-name="Group 508">
        <path id="Path_834" data-name="Path 834" class="cls-1" d="M9.238,0H.645A.645.645,0,0,0,0,.645V9.238a.645.645,0,0,0,.645.645H9.238a.645.645,0,0,0,.645-.645V.645A.645.645,0,0,0,9.238,0ZM8.594,8.594h-7.3v-7.3h7.3Z" transform="translate(0 0)"/>
      </g>
    </g>
    <g id="Group_511" data-name="Group 511" transform="translate(3.008 3.008)">
      <g id="Group_510" data-name="Group 510">
        <path id="Path_835" data-name="Path 835" class="cls-1" d="M73.223,70H70.645a.645.645,0,0,0-.645.645v2.578a.645.645,0,0,0,.645.645h2.578a.645.645,0,0,0,.645-.645V70.645A.645.645,0,0,0,73.223,70Zm-.645,2.578H71.289V71.289h1.289Z" transform="translate(-70 -70)"/>
      </g>
    </g>
    <g id="Group_513" data-name="Group 513" transform="translate(12.117 0)">
      <g id="Group_512" data-name="Group 512">
        <path id="Path_836" data-name="Path 836" class="cls-1" d="M291.238,0h-8.594A.645.645,0,0,0,282,.645V9.238a.645.645,0,0,0,.645.645h8.594a.645.645,0,0,0,.645-.645V.645A.645.645,0,0,0,291.238,0Zm-.645,8.594h-7.3v-7.3h7.3Z" transform="translate(-282 0)"/>
      </g>
    </g>
    <g id="Group_515" data-name="Group 515" transform="translate(15.125 3.008)">
      <g id="Group_514" data-name="Group 514">
        <path id="Path_837" data-name="Path 837" class="cls-1" d="M355.223,70h-2.578a.645.645,0,0,0-.645.645v2.578a.645.645,0,0,0,.645.645h2.578a.645.645,0,0,0,.645-.645V70.645A.645.645,0,0,0,355.223,70Zm-.645,2.578h-1.289V71.289h1.289Z" transform="translate(-352 -70)"/>
      </g>
    </g>
    <g id="Group_517" data-name="Group 517" transform="translate(0 12.117)">
      <g id="Group_516" data-name="Group 516">
        <path id="Path_838" data-name="Path 838" class="cls-1" d="M9.238,282H.645a.645.645,0,0,0-.645.645v8.594a.645.645,0,0,0,.645.645H9.238a.645.645,0,0,0,.645-.645v-8.594A.645.645,0,0,0,9.238,282Zm-.645,8.594h-7.3v-7.3h7.3Z" transform="translate(0 -282)"/>
      </g>
    </g>
    <g id="Group_519" data-name="Group 519" transform="translate(3.008 15.125)">
      <g id="Group_518" data-name="Group 518">
        <path id="Path_839" data-name="Path 839" class="cls-1" d="M73.223,352H70.645a.645.645,0,0,0-.645.645v2.578a.645.645,0,0,0,.645.645h2.578a.645.645,0,0,0,.645-.645v-2.578A.645.645,0,0,0,73.223,352Zm-.645,2.578H71.289v-1.289h1.289Z" transform="translate(-70 -352)"/>
      </g>
    </g>
    <g id="Group_521" data-name="Group 521" transform="translate(16.414 15.125)">
      <g id="Group_520" data-name="Group 520">
        <path id="Path_840" data-name="Path 840" class="cls-1" d="M386.941,355.035h-3.652v-2.391a.645.645,0,0,0-1.289,0v3.035a.645.645,0,0,0,.645.645H386.3v1.262h-3.652a.645.645,0,0,0,0,1.289h4.3a.645.645,0,0,0,.645-.645V355.68A.645.645,0,0,0,386.941,355.035Z" transform="translate(-382 -352)"/>
      </g>
    </g>
    <g id="Group_523" data-name="Group 523" transform="translate(20.711 12.117)">
      <g id="Group_522" data-name="Group 522">
        <path id="Path_841" data-name="Path 841" class="cls-1" d="M482.645,282a.645.645,0,0,0-.645.645v3.008a.645.645,0,0,0,1.289,0v-3.008A.645.645,0,0,0,482.645,282Z" transform="translate(-482 -282)"/>
      </g>
    </g>
    <g id="Group_525" data-name="Group 525" transform="translate(12.117 12.117)">
      <g id="Group_524" data-name="Group 524">
        <path id="Path_842" data-name="Path 842" class="cls-1" d="M285.652,282h-3.008a.645.645,0,0,0-.645.645v3.008a.645.645,0,0,0,1.289,0v-2.363h2.363a.645.645,0,0,0,0-1.289Z" transform="translate(-282 -282)"/>
      </g>
    </g>
    <g id="Group_527" data-name="Group 527" transform="translate(12.117 18.16)">
      <g id="Group_526" data-name="Group 526">
        <path id="Path_843" data-name="Path 843" class="cls-1" d="M282.645,422.637a.645.645,0,0,0-.645.645v2.551a.645.645,0,0,0,1.289,0v-2.551A.645.645,0,0,0,282.645,422.637Z" transform="translate(-282 -422.637)"/>
      </g>
    </g>
  </g>
</svg>
