<?xml version="1.0" encoding="utf-8"?>
<!-- Generator: Adobe Illustrator 21.1.0, SVG Export Plug-In . SVG Version: 6.00 Build 0)  -->
<svg version="1.1" id="Layer_1" xmlns="http://www.w3.org/2000/svg" xmlns:xlink="http://www.w3.org/1999/xlink" x="0px" y="0px"
	 viewBox="0 0 22.3 22.3" style="enable-background:new 0 0 22.3 22.3;" xml:space="preserve">
<style type="text/css">
	.st0{fill:#1B1B1B;stroke:#FFFFFF;stroke-width:0.25;}
</style>
<path class="st0" d="M9.4,0.1H0.8c-0.4,0-0.6,0.3-0.6,0.6v8.6c0,0.4,0.3,0.6,0.6,0.6h8.6C9.7,10,10,9.7,10,9.4V0.8
	C10,0.4,9.7,0.1,9.4,0.1z M8.7,8.7H1.4V1.4h7.3V8.7z M6.4,3.1H3.8c-0.4,0-0.6,0.3-0.6,0.6v2.6C3.1,6.7,3.4,7,3.8,7h2.6
	C6.7,7,7,6.7,7,6.4V3.8C7,3.4,6.7,3.1,6.4,3.1z M5.7,5.7H4.4V4.4h1.3V5.7z M21.5,0.1h-8.6c-0.4,0-0.6,0.3-0.6,0.6v8.6
	c0,0.4,0.3,0.6,0.6,0.6h8.6c0.4,0,0.6-0.3,0.6-0.6V0.8C22.1,0.4,21.8,0.1,21.5,0.1C21.5,0.1,21.5,0.1,21.5,0.1z M20.8,8.7h-7.3V1.4
	h7.3V8.7z M18.5,3.1h-2.6c-0.4,0-0.6,0.3-0.6,0.6v2.6c0,0.4,0.3,0.6,0.6,0.6h2.6c0.4,0,0.6-0.3,0.6-0.6V3.8
	C19.1,3.4,18.8,3.1,18.5,3.1z M17.8,5.7h-1.3V4.4h1.3V5.7z M9.4,12.2H0.8c-0.4,0-0.6,0.3-0.6,0.6v8.6c0,0.4,0.3,0.6,0.6,0.6h8.6
	c0.4,0,0.6-0.3,0.6-0.6v-8.6C10,12.5,9.7,12.2,9.4,12.2z M8.7,20.8H1.4v-7.3h7.3V20.8z M6.4,15.3H3.8c-0.4,0-0.6,0.3-0.6,0.6v2.6
	c0,0.4,0.3,0.6,0.6,0.6h2.6c0.4,0,0.6-0.3,0.6-0.6v-2.6C7,15.5,6.7,15.3,6.4,15.3z M5.7,17.8H4.4v-1.3h1.3V17.8z M21.5,18.3h-3.7
	v-2.4c0-0.4-0.3-0.6-0.7-0.6c-0.3,0-0.6,0.3-0.6,0.6v3c0,0.4,0.3,0.6,0.6,0.6h3.7v1.3h-3.7c-0.4,0-0.6,0.3-0.6,0.7
	c0,0.3,0.3,0.6,0.6,0.6h4.3c0.4,0,0.6-0.3,0.6-0.6v-2.6C22.1,18.6,21.8,18.3,21.5,18.3C21.5,18.3,21.5,18.3,21.5,18.3z M21.5,12.2
	c-0.4,0-0.6,0.3-0.6,0.6v3c0,0.4,0.3,0.6,0.7,0.6c0.3,0,0.6-0.3,0.6-0.6v-3C22.1,12.5,21.8,12.2,21.5,12.2z M15.9,12.2h-3
	c-0.4,0-0.6,0.3-0.6,0.6v3c0,0.4,0.3,0.6,0.7,0.6c0.3,0,0.6-0.3,0.6-0.6v-2.4h2.4c0.4,0,0.6-0.3,0.6-0.7
	C16.5,12.5,16.2,12.3,15.9,12.2L15.9,12.2z M12.9,18.3c-0.4,0-0.6,0.3-0.6,0.6v2.6c0,0.4,0.3,0.6,0.7,0.6c0.3,0,0.6-0.3,0.6-0.6
	v-2.6C13.5,18.6,13.2,18.3,12.9,18.3z"/>
</svg>
