<svg xmlns="http://www.w3.org/2000/svg" viewBox="15752 1202 20 20">
  <path id="qrcode" d="M3,11.889H5.222v2.222H3V11.889m8.889-6.667h2.222V9.667H11.889V5.222M9.667,11.889h4.444v4.444H11.889V14.111H9.667V11.889m6.667,0h2.222v2.222h2.222V11.889H23v2.222H20.778v2.222H23v4.444H20.778V23H18.556V20.778H14.111V23H11.889V18.556h4.444V16.333h2.222V14.111H16.333V11.889m4.444,8.889V16.333H18.556v4.444h2.222M16.333,3H23V9.667H16.333V3m2.222,2.222V7.444h2.222V5.222H18.556M3,3H9.667V9.667H3V3M5.222,5.222V7.444H7.444V5.222H5.222M3,16.333H9.667V23H3V16.333m2.222,2.222v2.222H7.444V18.556Z" transform="translate(15749 1199)"/>
</svg>
