<?xml version="1.0" encoding="utf-8"?>
<!-- Generator: Adobe Illustrator 21.1.0, SVG Export Plug-In . SVG Version: 6.00 Build 0)  -->
<svg version="1.1" id="Layer_1" xmlns="http://www.w3.org/2000/svg" xmlns:xlink="http://www.w3.org/1999/xlink" x="0px" y="0px"
	 viewBox="0 0 218 218" style="enable-background:new 0 0 218 218;" xml:space="preserve">
<path d="M0,96.9h24.2v24.2H0V96.9 M96.9,24.2h24.2v48.4H96.9V24.2 M72.7,96.9h48.4v48.4H96.9v-24.2H72.7V96.9 M145.3,96.9h24.2v24.2
	h24.2V96.9H218v24.2h-24.2v24.2H218v48.4h-24.2V218h-24.2v-24.2h-48.4V218H96.9v-48.4h48.4v-24.2h24.2v-24.2h-24.2V96.9
	 M193.8,193.8v-48.4h-24.2v48.4H193.8 M145.3,0H218v72.7h-72.7V0 M169.6,24.2v24.2h24.2V24.2H169.6 M0,0h72.7v72.7H0V0 M24.2,24.2
	v24.2h24.2V24.2H24.2 M0,145.3h72.7V218H0V145.3 M24.2,169.6v24.2h24.2v-24.2H24.2z"/>
</svg>
