<?xml version="1.0" encoding="utf-8"?>
<!-- Generator: Adobe Illustrator 21.1.0, SVG Export Plug-In . SVG Version: 6.00 Build 0)  -->
<svg version="1.1" id="Layer_1" xmlns="http://www.w3.org/2000/svg" xmlns:xlink="http://www.w3.org/1999/xlink" x="0px" y="0px"
	 viewBox="0 0 45.7 18.5" style="enable-background:new 0 0 45.7 18.5;" xml:space="preserve">
<path d="M2.4,8.3v5.9H0V0h4.9c1.6,0,2.8,0.4,3.7,1.1s1.3,1.7,1.3,3.1c0,0.7-0.2,1.4-0.6,1.9S8.4,7,7.6,7.3C8.4,7.6,9,8,9.4,8.6
	s0.5,1.3,0.5,2.1v1.2c0,0.4,0.1,0.8,0.2,1.2c0.1,0.4,0.3,0.7,0.5,0.9v0.2H8.1c-0.3-0.2-0.4-0.6-0.5-1c-0.1-0.5-0.1-0.9-0.1-1.4v-1.1
	C7.5,10,7.3,9.4,6.9,9s-1-0.6-1.7-0.6H2.4z M2.4,6.4h2.4c1,0,1.6-0.2,2.1-0.5s0.7-0.9,0.7-1.7c0-0.7-0.2-1.3-0.6-1.7s-1.1-0.6-2-0.6
	H2.4V6.4z M17,14.4c-1.5,0-2.7-0.5-3.6-1.5c-0.9-1-1.3-2.2-1.3-3.8V8.8C12,7.2,12.5,6,13.3,5s2-1.5,3.4-1.5c1.4,0,2.5,0.4,3.2,1.3
	s1.1,2,1.1,3.5v1.3h-6.5l0,0c0,0.9,0.3,1.6,0.7,2.1c0.4,0.5,1.1,0.8,1.9,0.8c0.6,0,1.2-0.1,1.7-0.2s0.9-0.4,1.3-0.7l0.8,1.6
	c-0.4,0.4-0.9,0.6-1.6,0.9C18.6,14.3,17.8,14.4,17,14.4z M16.7,5.4c-0.6,0-1.1,0.2-1.5,0.7s-0.6,1-0.7,1.7l0,0h4.1V7.6
	c0-0.7-0.2-1.2-0.5-1.6S17.4,5.4,16.7,5.4z M26,1.1v2.6h1.9v1.8H26v5.8c0,0.4,0.1,0.7,0.3,0.9s0.4,0.3,0.8,0.3c0.1,0,0.3,0,0.4,0
	c0.1,0,0.2-0.1,0.4-0.1l0.3,1.7c-0.2,0.1-0.4,0.2-0.7,0.3c-0.3,0.1-0.6,0.1-0.9,0.1c-0.9,0-1.6-0.3-2.1-0.8
	c-0.5-0.5-0.7-1.3-0.7-2.4V5.4H22V3.7h1.6V1.1H26z M35.1,5.8l-1,0c-0.5,0-0.8,0.1-1.2,0.3s-0.5,0.5-0.7,0.8v7.3h-2.4V3.7H32l0.2,1.5
	c0.3-0.5,0.6-1,1-1.3s0.9-0.5,1.5-0.5c0.1,0,0.3,0,0.4,0s0.2,0.1,0.3,0.1L35.1,5.8z M40.5,10l0.2,1.1h0.1l2.3-7.4h2.6l-4.4,12.2
	c-0.3,0.7-0.7,1.4-1.2,1.9c-0.5,0.5-1.2,0.8-2.2,0.8c-0.2,0-0.4,0-0.6-0.1s-0.4-0.1-0.6-0.1l0.3-1.8c0.1,0,0.2,0,0.4,0
	c0.2,0,0.3,0,0.4,0c0.4,0,0.8-0.1,1-0.4s0.5-0.6,0.6-1l0.4-1L35.9,3.7h2.6L40.5,10z"/>
</svg>
