<?xml version="1.0" encoding="utf-8"?>
<!-- Generator: Adobe Illustrator 21.1.0, SVG Export Plug-In . SVG Version: 6.00 Build 0)  -->
<svg version="1.1" id="Layer_1" xmlns="http://www.w3.org/2000/svg" xmlns:xlink="http://www.w3.org/1999/xlink" x="0px" y="0px"
	 viewBox="0 0 14 9" style="enable-background:new 0 0 14 9;" xml:space="preserve">
<g>
	<path d="M4.8,0.1v6.6c0,0.6-0.2,1.2-0.6,1.6c-0.4,0.4-1,0.6-1.7,0.6H2.3c-0.6,0-1.2-0.2-1.7-0.6C0.2,7.9,0,7.3,0,6.7V4.9
		c0-0.1,0.1-0.1,0.1-0.1h1.1c0.1,0,0.1,0.1,0.1,0.1v1.8c0,0.7,0.3,1,1,1c0.5,0.1,0.9-0.3,1-0.7c0-0.1,0-0.2,0-0.2V0.1
		C3.4,0.1,3.5,0,3.6,0h1.2C4.8,0,4.8,0.1,4.8,0.1z M8.8,7.7h-1c-0.1,0-0.1,0.1-0.1,0.1v1c0,0.1,0.1,0.1,0.1,0.1h1
		C8.9,8.9,9,8.9,9,8.8v-1C9,7.7,8.9,7.7,8.8,7.7z M10.9,1.9H9.7C9.7,1.9,9.6,2,9.6,2.1v2.7c0,0.6-0.4,0.9-1.1,1
		c-0.8-0.1-1.1-0.4-1.1-1V0.1C7.3,0.1,7.3,0,7.2,0H6C6,0,5.9,0.1,5.9,0.1v4.7c0,1.4,0.8,2.1,2.4,2.2h0.3C10.2,6.9,11,6.2,11,4.9V2.1
		C11,2,11,1.9,10.9,1.9z M10.7,7.7h-1c-0.1,0-0.1,0.1-0.1,0.1v1c0,0.1,0.1,0.1,0.1,0.1h1c0.1,0,0.1-0.1,0.1-0.1v-1
		C10.8,7.7,10.8,7.7,10.7,7.7L10.7,7.7z M14,2.1c0-0.1-0.1-0.1-0.1-0.1h-1.1c-0.1,0-0.1,0.1-0.1,0.1v4.6c0,0.2,0,0.4-0.1,0.5
		c-0.1,0.4-0.4,0.5-0.9,0.5c-0.1,0-0.1,0.1-0.1,0.1v1c0,0.1,0.1,0.1,0.1,0.1c0.7,0,1.3-0.2,1.8-0.7c0.4-0.4,0.6-1,0.6-1.6V2.1z"/>
</g>
</svg>
