<svg xmlns="http://www.w3.org/2000/svg" viewBox="11729 267 160 160">
  <defs>
    <style>
      .cls-1 {
        fill: rgba(255,255,255,0.3);
      }
    </style>
  </defs>
  <path id="Scan_icon" data-name="Scan icon" class="cls-1" d="M13.285,13.285V39.971H0V13.285A13.279,13.279,0,0,1,13.285,0H39.971V13.285H13.285M146.715,0A13.279,13.279,0,0,1,160,13.285V39.971H146.715V13.285H120.029V0h26.686M13.285,120.029v26.686H39.971V160H13.285A13.279,13.279,0,0,1,0,146.715V120.029H13.285m133.43,26.686V120.029H160v26.686A13.279,13.279,0,0,1,146.715,160H120.029V146.715Z" transform="translate(11729 267)"/>
</svg>
