<svg xmlns="http://www.w3.org/2000/svg" viewBox="1871.5 601 35 56">
  <defs>
    <style>
      .cls-1, .cls-2 {
        fill: #fff;
      }

      .cls-1 {
        font-size: 14px;
        font-family: Roboto-Medium, Roboto;
        font-weight: 500;
      }

      .cls-3 {
        fill: none;
      }
    </style>
  </defs>
  <g id="Send" transform="translate(1804.5 168.2)">
    <g id="Send-2" data-name="Send" transform="translate(4 2)">
      <text id="Send-3" data-name="Send" class="cls-1" transform="translate(65 482.8)"><tspan x="0" y="0">Send</tspan></text>
      <g id="Send_icon" data-name="Send icon" transform="translate(66 428.94)">
        <path id="Path_788" data-name="Path 788" class="cls-2" d="M29.211,293.493H24.474a.746.746,0,0,0-.789.789,2.428,2.428,0,0,1-2.368,2.368H8.684a2.428,2.428,0,0,1-2.368-2.368.746.746,0,0,0-.789-.789H.789a.746.746,0,0,0-.789.789v11.474a.746.746,0,0,0,.789.789H29.211a.746.746,0,0,0,.789-.789V294.283A.746.746,0,0,0,29.211,293.493Zm-.789,11.474H1.579v-9.895H4.895a3.9,3.9,0,0,0,3.789,3.158H21.316a3.9,3.9,0,0,0,3.789-3.158h3.316v9.895Z" transform="translate(0 -270.303)"/>
        <path id="Path_789" data-name="Path 789" class="cls-2" d="M10.756,5.033A.78.78,0,0,0,9.65,5.19L3.966,12.138a.592.592,0,0,0,0,.947L9.65,20.191a.82.82,0,0,0,.632.316.58.58,0,0,0,.474-.158.972.972,0,0,0,.158-1.105L6.492,13.717H17.545a2,2,0,0,1,1.263.474,1.793,1.793,0,0,1,.474,1.263v7.737a.789.789,0,1,0,1.579,0V15.454a3.334,3.334,0,0,0-.947-2.526,3.162,3.162,0,0,0-2.368-.789H6.019l4.895-6A.78.78,0,0,0,10.756,5.033Z" transform="translate(-3.492 -1)"/>
        <path id="Path_790" data-name="Path 790" class="cls-2" d="M126.883,392.945H112.672a.789.789,0,0,0,0,1.579h14.211a.789.789,0,0,0,0-1.579Z" transform="translate(-104.778 -362.439)"/>
      </g>
      <rect id="Icon_boundary" data-name="Icon boundary" class="cls-3" width="35" height="35" transform="translate(63 430.8)"/>
    </g>
  </g>
</svg>
