<?xml version="1.0" encoding="utf-8"?>
<!-- Generator: Adobe Illustrator 21.1.0, SVG Export Plug-In . SVG Version: 6.00 Build 0)  -->
<svg version="1.1" id="Layer_1" xmlns="http://www.w3.org/2000/svg" xmlns:xlink="http://www.w3.org/1999/xlink" x="0px" y="0px"
	 viewBox="0 0 31.9 50.6" style="enable-background:new 0 0 31.9 50.6;" xml:space="preserve">
<style type="text/css">
	.st0{fill:#1B1B1B;}
</style>
<path class="st0" d="M30.1,19.3h-4.7c-0.4,0-0.8,0.3-0.8,0.7c0,0,0,0.1,0,0.1c0,1.3-1.1,2.3-2.4,2.4H9.6c-1.3,0-2.3-1.1-2.4-2.4
	c0-0.4-0.3-0.8-0.7-0.8c0,0-0.1,0-0.1,0H1.7c-0.4,0-0.8,0.3-0.8,0.7c0,0,0,0.1,0,0.1v11.5c0,0.4,0.3,0.8,0.7,0.8c0,0,0.1,0,0.1,0
	h28.4c0.4,0,0.8-0.3,0.8-0.7c0,0,0-0.1,0-0.1V20.1C30.9,19.7,30.6,19.4,30.1,19.3C30.1,19.3,30.1,19.3,30.1,19.3z M29.3,30.8H2.5
	v-9.9h3.3c0.4,1.8,1.9,3.1,3.8,3.2h12.6c1.9,0,3.4-1.3,3.8-3.2h3.3L29.3,30.8L29.3,30.8z M8.1,0.2C7.8-0.1,7.3,0,7,0.3c0,0,0,0,0,0
	L1.3,7.3C1.1,7.5,1,7.8,1.2,8.1c0,0,0.1,0.1,0.1,0.1L7,15.3c0.2,0.2,0.4,0.3,0.6,0.3c0.2,0,0.3,0,0.5-0.2c0.3-0.3,0.3-0.7,0.2-1.1
	L3.9,8.9h11.1c0.5,0,0.9,0.2,1.3,0.5c0.3,0.3,0.5,0.8,0.5,1.3v7.7c0,0.4,0.4,0.8,0.8,0.8c0.4,0,0.8-0.4,0.8-0.8v-7.7
	c0.1-0.9-0.3-1.9-0.9-2.5c-0.6-0.6-1.5-0.9-2.4-0.8H3.4l4.9-6C8.6,0.9,8.5,0.4,8.1,0.2C8.1,0.2,8.1,0.2,8.1,0.2z M23,26.6H8.8
	C8.3,26.6,8,27,8,27.4c0,0.4,0.4,0.8,0.8,0.8H23c0.4,0,0.8-0.4,0.8-0.8C23.8,27,23.4,26.6,23,26.6z"/>
<path d="M6.5,47.4c0-0.4-0.1-0.8-0.4-1s-0.8-0.5-1.6-0.7c-1.1-0.3-1.9-0.7-2.5-1.2c-0.6-0.5-0.9-1.1-0.9-1.9c0-0.8,0.3-1.5,1-2
	s1.5-0.8,2.5-0.8c1.1,0,1.9,0.3,2.6,0.9c0.6,0.6,1,1.3,0.9,2.1l0,0H6.5c0-0.5-0.2-0.9-0.5-1.3s-0.8-0.5-1.4-0.5
	c-0.6,0-1,0.1-1.3,0.4s-0.5,0.6-0.5,1c0,0.4,0.2,0.7,0.5,0.9c0.3,0.2,0.9,0.5,1.7,0.7c1,0.3,1.8,0.7,2.4,1.2
	c0.5,0.5,0.8,1.1,0.8,1.9c0,0.8-0.3,1.5-1,2s-1.5,0.7-2.5,0.7c-1,0-1.9-0.3-2.6-0.8S0.9,48,0.9,47.1l0,0h1.6c0,0.6,0.2,1,0.6,1.3
	c0.4,0.3,0.9,0.5,1.5,0.5c0.6,0,1-0.1,1.4-0.4C6.4,48.2,6.5,47.9,6.5,47.4z M12.9,50.1c-1.1,0-1.9-0.3-2.5-1
	c-0.6-0.7-0.9-1.6-0.9-2.6v-0.3c0-1.1,0.3-2,0.9-2.7c0.6-0.7,1.4-1.1,2.4-1c1,0,1.7,0.3,2.3,0.9c0.5,0.6,0.8,1.4,0.8,2.5v0.9h-4.6
	l0,0c0,0.6,0.2,1.1,0.5,1.5s0.8,0.6,1.4,0.6c0.5,0,0.8-0.1,1.2-0.2c0.3-0.1,0.6-0.3,0.9-0.5l0.5,1.1c-0.3,0.2-0.7,0.5-1.1,0.6
	S13.5,50.1,12.9,50.1z M12.7,43.8c-0.4,0-0.8,0.2-1,0.5c-0.3,0.3-0.4,0.7-0.5,1.2l0,0h2.9v-0.1c0-0.5-0.1-0.9-0.3-1.2
	C13.5,43.9,13.2,43.8,12.7,43.8z M18.6,42.6l0.1,1.1c0.2-0.4,0.5-0.7,0.9-0.9c0.4-0.2,0.8-0.3,1.2-0.3c0.8,0,1.4,0.2,1.8,0.7
	c0.4,0.5,0.6,1.2,0.6,2.2V50h-1.7v-4.6c0-0.6-0.1-1-0.3-1.2s-0.6-0.4-1-0.4c-0.4,0-0.7,0.1-0.9,0.2c-0.3,0.1-0.5,0.3-0.6,0.6V50H17
	v-7.4H18.6z M24.7,46.4c0-1.2,0.3-2.1,0.8-2.9c0.5-0.7,1.2-1.1,2.1-1.1c0.4,0,0.8,0.1,1.1,0.2c0.3,0.2,0.6,0.4,0.8,0.7v-4.1h1.7V50
	h-1.3l-0.2-0.9c-0.2,0.4-0.5,0.6-0.9,0.8c-0.3,0.2-0.7,0.3-1.2,0.3c-0.9,0-1.6-0.3-2.1-1s-0.8-1.5-0.8-2.6V46.4z M26.3,46.5
	c0,0.7,0.1,1.2,0.4,1.6c0.3,0.4,0.7,0.6,1.2,0.6c0.4,0,0.6-0.1,0.9-0.2c0.2-0.2,0.4-0.4,0.6-0.6v-3.2c-0.2-0.3-0.4-0.5-0.6-0.6
	c-0.2-0.2-0.5-0.2-0.9-0.2c-0.6,0-1,0.2-1.3,0.7c-0.3,0.5-0.4,1.1-0.4,1.9V46.5z"/>
</svg>
