<?xml version="1.0" encoding="utf-8"?>
<!-- Generator: Adobe Illustrator 21.1.0, SVG Export Plug-In . SVG Version: 6.00 Build 0)  -->
<svg version="1.1" id="Layer_1" xmlns="http://www.w3.org/2000/svg" xmlns:xlink="http://www.w3.org/1999/xlink" x="0px" y="0px"
	 viewBox="0 0 24.3 24.3" style="enable-background:new 0 0 24.3 24.3;" xml:space="preserve">
<style type="text/css">
	.st0{fill:#1B1B1B;stroke:#FFFFFF;stroke-width:0.25;}
</style>
<path class="st0" d="M12.2,8.7c-1.9,0-3.5,1.6-3.5,3.5c0,1.9,1.6,3.5,3.5,3.5c1.9,0,3.5-1.6,3.5-3.5C15.7,10.3,14.2,8.7,12.2,8.7
	C12.2,8.7,12.2,8.7,12.2,8.7z M12.2,14.3c-1.2,0-2.1-0.9-2.1-2.1s0.9-2.1,2.1-2.1s2.1,0.9,2.1,2.1C14.3,13.3,13.3,14.3,12.2,14.3z
	 M22.4,9.5h-1.3c-0.1,0-0.3,0-0.3-0.1c-0.1-0.5-0.3-1-0.6-1.4c-0.1-0.1-0.1-0.2,0-0.3c0,0,0,0,0,0l1-1C22,6.1,22,5.1,21.4,4.4
	c0,0-0.1-0.1-0.1-0.1l-1.4-1.4c-0.7-0.6-1.7-0.6-2.4,0l-1,1h-0.3c-0.4-0.1-1-0.4-1.4-0.6c0-0.1-0.1-0.1-0.1-0.3V1.8
	c0-0.9-0.8-1.7-1.7-1.7h-1.8c-0.9,0-1.7,0.8-1.7,1.7v1.3c0,0.1,0,0.3-0.1,0.3C8.9,3.5,8.4,3.7,8,3.9c-0.1,0.1-0.1,0.1-0.3,0l-1-1
	C6,2.4,5,2.4,4.3,2.9L2.9,4.3C2.3,4.9,2.2,6,2.8,6.6c0,0,0.1,0.1,0.1,0.1l1,1V8C3.7,8.4,3.5,8.9,3.4,9.4c-0.1,0-0.1,0.1-0.3,0.1H1.8
	c-0.9,0-1.7,0.8-1.7,1.7V13c0,0.9,0.8,1.7,1.7,1.7h1.3c0.1,0,0.3,0,0.3,0.1c0.1,0.5,0.3,1,0.6,1.4c0.1,0.1,0.1,0.2,0,0.3
	c0,0,0,0,0,0l-1,1c-0.7,0.6-0.7,1.6-0.1,2.3c0,0,0.1,0.1,0.1,0.1l1.4,1.4c0.7,0.6,1.7,0.6,2.4,0l1-1H8c0.5,0.3,1.1,0.5,1.7,0.7v1.4
	c0,0.9,0.8,1.7,1.7,1.7h1.8c0.9,0,1.6-0.8,1.5-1.6c0,0,0,0,0,0v-1.3c0-0.1,0-0.3,0.1-0.3c0.5-0.1,1-0.3,1.4-0.6
	c0.1-0.1,0.1-0.1,0.3,0l1,1c0.7,0.6,1.7,0.6,2.4,0l1.4-1.4c0.7-0.6,0.7-1.6,0.1-2.3c0,0-0.1-0.1-0.1-0.1l-1-1v-0.3
	c0.2-0.5,0.4-0.9,0.6-1.4c0.1,0,0.1-0.1,0.3-0.1h1.3c0.9,0,1.7-0.8,1.7-1.7v-1.8C24.1,10.3,23.4,9.5,22.4,9.5z M22.9,13
	c0,0.2-0.1,0.3-0.3,0.3h-1.3c-0.7,0-1.3,0.5-1.5,1.1c-0.1,0.4-0.4,0.8-0.6,1.3c-0.3,0.6-0.2,1.4,0.3,2l1,1c0.1,0,0.1,0.1,0,0.3
	l-1.4,1.4c0,0.1-0.1,0.1-0.3,0l-1-1c-0.5-0.5-1.3-0.6-2-0.3c-0.4,0.2-0.8,0.4-1.3,0.6c-0.7,0.2-1.2,0.8-1.1,1.5v1.3
	c0,0.2-0.1,0.3-0.3,0.3h-1.8c-0.2,0-0.3-0.1-0.3-0.3v-2c-0.1-0.3-0.3-0.6-0.6-0.7c-0.6-0.2-1.2-0.4-1.8-0.7
	c-0.3-0.1-0.6-0.2-0.8-0.1c-0.4,0-0.8,0.1-1.1,0.4l-1,1c0,0.1-0.1,0.1-0.3,0l-1.4-1.4c-0.1,0-0.1-0.1,0-0.3l1-1
	c0.5-0.5,0.6-1.3,0.3-2c-0.2-0.4-0.4-0.8-0.6-1.3c-0.2-0.7-0.8-1.2-1.5-1.1H2c-0.2,0-0.3-0.1-0.3-0.3v-1.8c0-0.2,0.1-0.3,0.3-0.3
	h1.3c0.7,0,1.3-0.5,1.5-1.1C4.9,9.4,5.2,9,5.3,8.5c0.3-0.6,0.2-1.4-0.3-2l-1-1c-0.1,0-0.1-0.1,0-0.3l1.4-1.4c0-0.1,0.1-0.1,0.3,0
	l1,1c0.5,0.5,1.3,0.6,2,0.3c0.4-0.2,0.8-0.4,1.3-0.6c0.7-0.2,1.2-0.8,1.1-1.5V1.8c0-0.2,0.1-0.3,0.3-0.3h1.8c0.2,0,0.3,0.1,0.3,0.3
	v1.3c0,0.7,0.5,1.3,1.1,1.5C15,4.8,15.4,5,15.8,5.2c0.7,0.3,1.4,0.2,2-0.3l1-1c0-0.1,0.1-0.1,0.3,0l1.4,1.4c0.1,0,0.1,0.1,0,0.3
	l-1,1c-0.5,0.5-0.6,1.3-0.3,2c0.2,0.4,0.4,0.8,0.6,1.3c0.2,0.7,0.8,1.2,1.5,1.1h1.3c0.2,0,0.3,0.1,0.3,0.3L22.9,13L22.9,13z"/>
</svg>
