<?xml version="1.0" encoding="utf-8"?>
<!-- Generator: Adobe Illustrator 21.1.0, SVG Export Plug-In . SVG Version: 6.00 Build 0)  -->
<svg version="1.1" id="Layer_1" xmlns="http://www.w3.org/2000/svg" xmlns:xlink="http://www.w3.org/1999/xlink" x="0px" y="0px"
	 viewBox="0 0 24 24" style="enable-background:new 0 0 24 24;" xml:space="preserve">
<style type="text/css">
	.st0{fill:#1B1B1B;}
</style>
<path class="st0" d="M19.2,17c-0.9,0-1.7,0.3-2.4,0.9l-8.6-5c0.1-0.3,0.1-0.6,0.1-0.8c0-0.3,0-0.6-0.1-0.8l8.5-5
	c1.5,1.4,3.7,1.3,5.1-0.2c1.4-1.5,1.3-3.7-0.2-5.1s-3.7-1.3-5.1,0.2c-0.6,0.7-1,1.5-1,2.5c0,0.3,0,0.6,0.1,0.8l-8.5,5
	C5.8,8,3.5,8.1,2.1,9.6c-1.4,1.5-1.3,3.7,0.2,5.1c1.4,1.3,3.6,1.3,4.9,0l8.5,5c-0.1,0.3-0.1,0.5-0.1,0.8c0,1.9,1.6,3.5,3.5,3.5
	s3.5-1.6,3.5-3.5C22.7,18.5,21.1,17,19.2,17z"/>
</svg>
