<?xml version="1.0" encoding="utf-8"?>
<!-- Generator: Adobe Illustrator 21.1.0, SVG Export Plug-In . SVG Version: 6.00 Build 0)  -->
<svg version="1.1" id="Layer_1" xmlns="http://www.w3.org/2000/svg" xmlns:xlink="http://www.w3.org/1999/xlink" x="0px" y="0px"
	 viewBox="0 0 103.8 103.8" style="enable-background:new 0 0 103.8 103.8;" xml:space="preserve">
<style type="text/css">
	.st0{clip-path:url(#SVGID_2_);}
</style>
<g>
	<g>
		<defs>
			<rect id="SVGID_1_" x="26.9" y="24.9" width="49.9" height="54.7"/>
		</defs>
		<clipPath id="SVGID_2_">
			<use xlink:href="#SVGID_1_"  style="overflow:visible;"/>
		</clipPath>
		<path class="st0" d="M40.2,53.1h31.9l-8.2,8.4c-0.6,0.6-0.6,1.7,0,2.3c0.3,0.3,0.7,0.5,1.1,0.5c0.4,0,0.8-0.1,1.1-0.4l10.3-10.2
			c0.3-0.3,0.5-0.7,0.5-1.1c0-0.4-0.2-0.8-0.5-1.1l-0.5-0.5c-0.1-0.2-0.3-0.3-0.4-0.4l-9.4-9.4c-0.6-0.6-1.6-0.6-2.3,0
			c-0.6,0.6-0.6,1.5,0,2.1l6.8,6.7H40.2c-0.9,0-1.6,0.7-1.6,1.6C38.6,52.3,39.3,53.1,40.2,53.1L40.2,53.1z M40.2,53.1"/>
		<path class="st0" d="M26.8,72.5c0,3.6,2.8,6.2,7,6.2h16.8c4.1,0,7.4-2.4,7.4-6.2V63c0-0.9-0.7-1.6-1.6-1.6c-0.9,0-1.6,0.7-1.6,1.6
			v9.5c0,2.3-2.3,3-4.2,3H33.8c-2,0-3.8-0.8-3.8-3V32.7c0-2.1,1.7-4.4,3.8-4.4h17.8c2,0,4.2,2.2,4.2,4.4v9.5c0,0.9,0.7,1.6,1.6,1.6
			c0.9,0,1.6-0.7,1.6-1.6v-9.5c0-4-3.6-7.6-7.4-7.6H33.8c-3.9,0-7,3.8-7,7.6V72.5L26.8,72.5z M26.8,72.5"/>
	</g>
</g>
</svg>
