<?xml version="1.0" encoding="utf-8"?>
<!-- Generator: Adobe Illustrator 21.1.0, SVG Export Plug-In . SVG Version: 6.00 Build 0)  -->
<svg version="1.1" id="Layer_1" xmlns="http://www.w3.org/2000/svg" xmlns:xlink="http://www.w3.org/1999/xlink" x="0px" y="0px"
	 viewBox="0 0 95 99.5" style="enable-background:new 0 0 95 99.5;" xml:space="preserve">
<style type="text/css">
	.st0{fill:none;}
</style>
<rect x="1.1" y="-0.4" class="st0" width="92.8" height="99.7"/>
<path d="M0.9,88c0,6.7,5.2,11.5,13,11.5H45c7.6,0,13.7-4.5,13.7-11.5V70.3c0-1.7-1.3-3-3-3c-1.7,0-3,1.3-3,3V88
	c0,4.3-4.3,5.6-7.8,5.6H13.9c-3.7,0-7.1-1.5-7.1-5.6V14.1c0-3.9,3.2-8.2,7.1-8.2h33c3.7,0,7.8,4.1,7.8,8.2v17.6c0,1.7,1.3,3,3,3
	c1.7,0,3-1.3,3-3V14.1C60.6,6.7,53.9,0,46.9,0h-33c-7.2,0-13,7.1-13,14.1V88L0.9,88z"/>
<path d="M25.7,52h59.2L69.7,67.5c-1.1,1.1-1.1,3.2,0,4.3c0.6,0.6,1.3,0.9,2,0.9s1.5-0.2,2-0.7l19.1-18.9c0.6-0.6,0.9-1.3,0.9-2
	c0-0.7-0.4-1.5-0.9-2L73.8,29.9c-1.1-1.1-3-1.1-4.3,0c-1.1,1.1-1.1,2.8,0,3.9l12.6,12.4H25.7c-1.7,0-3,1.3-3,3
	C22.8,50.5,24.1,52,25.7,52L25.7,52z"/>
</svg>
