<svg xmlns="http://www.w3.org/2000/svg" width="22.167" height="24" viewBox="0 0 22.167 24">
  <g id="Support_icon" data-name="Support icon" transform="translate(-17.439)">
    <path id="Path_912" data-name="Path 912" d="M23.27,24a4.054,4.054,0,0,1-1.239-.167.706.706,0,0,1-.445-.871l1.106-3.671a10.306,10.306,0,0,1-5.253-8.867C17.439,4.677,22.411,0,28.522,0S39.605,4.677,39.605,10.425c0,5.622-4.642,10.17-10.594,10.412a.675.675,0,0,1-.284,0l-.035-.008a.706.706,0,0,1,.134-1.394c5.253-.151,9.367-4.107,9.367-9.006,0-4.97-4.339-9.013-9.671-9.013s-9.671,4.043-9.671,9.013a8.946,8.946,0,0,0,5.006,7.9.706.706,0,0,1,.363.794.734.734,0,0,1-.024.078l-1.024,3.4a5.589,5.589,0,0,0,3.459-1.269.706.706,0,0,1,.845,1.131A7,7,0,0,1,23.27,24Z" transform="translate(0)" fill="#222"/>
    <path id="Path_913" data-name="Path 913" d="M105.267,123.431h-6.26a.565.565,0,1,1,0-1.129h6.26a.565.565,0,1,1,0,1.129Z" transform="translate(-76.745 -115.872)" fill="#222"/>
    <path id="Path_914" data-name="Path 914" d="M105.267,189.843h-6.26a.565.565,0,0,1,0-1.129h6.26a.565.565,0,0,1,0,1.129Z" transform="translate(-76.745 -178.793)" fill="#222"/>
    <path id="Path_915" data-name="Path 915" d="M105.267,256.257h-6.26a.565.565,0,1,1,0-1.129h6.26a.565.565,0,1,1,0,1.129Z" transform="translate(-76.745 -241.716)" fill="#222"/>
    <g id="Group_620" data-name="Group 620" transform="translate(30.781 6.075)">
      <path id="Path_916" data-name="Path 916" d="M272.36,118.178a.538.538,0,0,1-.046.221.626.626,0,0,1-.122.181.533.533,0,0,1-.178.122.563.563,0,0,1-.221.043.541.541,0,0,1-.4-.162.555.555,0,0,1-.159-.4,2.5,2.5,0,0,1,.208-1.015,2.686,2.686,0,0,1,.564-.831,2.651,2.651,0,0,1,.831-.561,2.52,2.52,0,0,1,1.01-.205,2.464,2.464,0,0,1,1.01.211,2.728,2.728,0,0,1,.831.567,2.685,2.685,0,0,1,.564.831,2.476,2.476,0,0,1,.208,1,2.567,2.567,0,0,1-.772,1.857l-.848.783a1.315,1.315,0,0,0-.432.945.545.545,0,0,1-.561.561.554.554,0,0,1-.4-.159.54.54,0,0,1-.162-.4,2.406,2.406,0,0,1,.772-1.744l.848-.788a1.468,1.468,0,0,0,.432-1.053,1.41,1.41,0,0,0-.119-.572,1.527,1.527,0,0,0-.794-.794,1.409,1.409,0,0,0-.572-.119,1.448,1.448,0,0,0-.578.116,1.529,1.529,0,0,0-.473.316,1.466,1.466,0,0,0-.434,1.053Z" transform="translate(-271.232 -115.565)" fill="#222"/>
      <path id="Path_917" data-name="Path 917" d="M307.884,253.154a.764.764,0,1,1-.224-.543A.74.74,0,0,1,307.884,253.154Z" transform="translate(-304.505 -245.194)" fill="#222"/>
    </g>
  </g>
</svg>
