<svg xmlns="http://www.w3.org/2000/svg" viewBox="1973.5 693 82 55">
  <defs>
    <style>
      .cls-1, .cls-3 {
        fill: #fff;
      }

      .cls-1 {
        font-size: 14px;
        font-family: Roboto-Medium, Roboto;
        font-weight: 500;
      }

      .cls-2 {
        fill: none;
      }

      .cls-3 {
        stroke: #424242;
      }
    </style>
  </defs>
  <g id="Transfer" transform="translate(1833.5 251)">
    <g id="Transfer-2" data-name="Transfer" transform="translate(1 10)">
      <text id="Transactions" class="cls-1" transform="translate(139 483)"><tspan x="0" y="0">Transactions</tspan></text>
      <g id="history" transform="translate(169 434)">
        <rect id="Rectangle_161" data-name="Rectangle 161" class="cls-2" width="35" height="35" transform="translate(-6 -2)"/>
        <g id="Group_289" data-name="Group 289" transform="translate(-6 -0.25)">
          <path id="Path_31" data-name="Path 31" class="cls-3" d="M19.119,3.315A15.822,15.822,0,0,0,3.24,19.02a18.089,18.089,0,0,0,.57,4.888L1.671,22.671a1.118,1.118,0,0,0-1.52.4,1.1,1.1,0,0,0,.4,1.506l5.013,2.9c.01.005.021.007.031.012a1.1,1.1,0,0,0,.166.069,1.193,1.193,0,0,0,.116.037,1.157,1.157,0,0,0,.144.018c.034,0,.068.014.1.014s.037-.007.057-.008.035,0,.053,0,.052-.014.079-.019a1.147,1.147,0,0,0,.155-.037,1.094,1.094,0,0,0,.127-.051,1.053,1.053,0,0,0,.133-.074,1.013,1.013,0,0,0,.22-.189,1.008,1.008,0,0,0,.088-.112c.015-.022.035-.038.048-.06s.01-.037.018-.054.038-.056.051-.089l1.994-4.9A1.1,1.1,0,0,0,8.536,20.6a1.115,1.115,0,0,0-1.446.609L6.066,23.726a16.2,16.2,0,0,1-.6-4.66A13.658,13.658,0,1,1,19.12,32.611a1.1,1.1,0,1,0,0,2.2,15.751,15.751,0,1,0,0-31.5Z" transform="translate(0 -3.315)"/>
          <path id="Path_32" data-name="Path 32" class="cls-3" d="M28.11,28.538a1.108,1.108,0,0,0,.349.071c.025,0,.049.015.074.015a1.108,1.108,0,0,0,.377-.073.984.984,0,0,0,.1-.045,1.111,1.111,0,0,0,.255-.168c.017-.015.04-.02.057-.037l6.938-6.881a1.1,1.1,0,0,0,0-1.559,1.117,1.117,0,0,0-1.571,0l-6.411,6.358-5.754-2.39a1.114,1.114,0,0,0-1.455.591,1.1,1.1,0,0,0,.6,1.442L28.1,28.537Z" transform="translate(-9.416 -10.669)"/>
        </g>
      </g>
    </g>
  </g>
</svg>
