<svg xmlns="http://www.w3.org/2000/svg" viewBox="2098 441 48 48">
  <defs>
    <style>
      .cls-1 {
        fill: #fff;
      }
    </style>
  </defs>
  <path id="qrcode" class="cls-1" d="M3,24.333H8.333v5.333H3V24.333m21.333-16h5.333V19H24.333V8.333M19,24.333H29.667V35H24.333V29.667H19V24.333m16,0h5.333v5.333h5.333V24.333H51v5.333H45.667V35H51V45.667H45.667V51H40.333V45.667H29.667V51H24.333V40.333H35V35h5.333V29.667H35V24.333M45.667,45.667V35H40.333V45.667h5.333M35,3H51V19H35V3m5.333,5.333v5.333h5.333V8.333H40.333M3,3H19V19H3V3M8.333,8.333v5.333h5.333V8.333H8.333M3,35H19V51H3V35m5.333,5.333v5.333h5.333V40.333Z" transform="translate(2095 438)"/>
</svg>
