<?xml version="1.0" encoding="utf-8"?>
<!-- Generator: Adobe Illustrator 21.1.0, SVG Export Plug-In . SVG Version: 6.00 Build 0)  -->
<svg version="1.1" id="Layer_1" xmlns="http://www.w3.org/2000/svg" xmlns:xlink="http://www.w3.org/1999/xlink" x="0px" y="0px"
	 viewBox="0 0 60.4 47.4" style="enable-background:new 0 0 60.4 47.4;" xml:space="preserve">
<style type="text/css">
	.st0{fill:#1B1B1B;}
</style>
<path class="st0" d="M47.7,9c0,0.3-0.2,0.5-0.5,0.5S46.6,9.3,46.6,9V1.1H13.8v10.2h3.3c0.3,0,0.5,0.2,0.5,0.5c0,0.3-0.2,0.5-0.5,0.5
	h-3.9c-0.3,0-0.5-0.2-0.5-0.5c0,0,0,0,0,0V0.5c0-0.3,0.2-0.5,0.5-0.5h33.9c0.3,0,0.5,0.2,0.5,0.5L47.7,9L47.7,9z M43.3,12.4h3.9
	c0.3,0,0.5-0.2,0.5-0.5c0-0.3-0.2-0.5-0.5-0.5h-3.9c-0.3,0-0.5,0.2-0.5,0.5C42.7,12.2,43,12.4,43.3,12.4L43.3,12.4z M19.6,25.8
	c-0.3,0-0.5-0.2-0.5-0.5c0-0.3,0.2-0.5,0.5-0.5c0,0,0,0,0,0h21.2c0.3,0,0.5,0.2,0.5,0.5c0,0.3-0.2,0.5-0.5,0.5H19.6z M18.2,6.7
	c-0.3,0-0.5-0.2-0.5-0.5c0-0.3,0.2-0.5,0.5-0.5c0,0,0,0,0,0h24c0.3,0,0.5,0.2,0.5,0.5c0,0.3-0.2,0.5-0.5,0.5c0,0,0,0,0,0H18.2z
	 M19.6,23L19.6,23c-0.3,0-0.6-0.3-0.6-0.6V9.1c0-0.3,0.2-0.6,0.5-0.6h4.9c0.3,0,0.5,0.2,0.5,0.5c0,1.4,0.5,2.7,1.5,3.6
	c2,2,5.2,2,7.2,0l0,0c0.8-0.8,1.3-1.8,1.4-2.9H27c-0.3,0-0.6-0.3-0.5-0.6c0-0.3,0.2-0.6,0.5-0.6h8.8c0.3,0,0.5,0.2,0.5,0.5
	c0,0,0,0,0,0c0,0,0,0,0,0.1c0,0,0,0,0,0c0,0,0,0,0,0c0,1.6-0.7,3.1-1.8,4.2l0,0c-2.4,2.4-6.3,2.4-8.8,0c0,0,0,0,0,0
	c-1-1-1.6-2.3-1.8-3.7h-3.9v7.5c2.3,0.3,4.1,2.1,4.2,4.4H36c0.1-1.1,0.6-2.2,1.4-3l0,0c0.8-0.8,1.8-1.2,2.8-1.4V9.8h-1.9
	c-0.3,0-0.6-0.3-0.5-0.6c0-0.3,0.2-0.6,0.5-0.6h2.5c0.3,0,0.6,0.3,0.5,0.6v8.7c0,0,0,0,0,0s0,0,0,0v4.5c0,0.3-0.2,0.6-0.5,0.6
	L19.6,23z M40.2,21.7v-3.3c-0.8,0.1-1.5,0.5-2.1,1l0,0c-0.6,0.6-1,1.4-1.1,2.3L40.2,21.7z M20.1,21.7h3.1c-0.1-0.9-0.5-1.7-1.1-2.3
	c-0.6-0.6-1.3-0.9-2.1-1L20.1,21.7z"/>
<path d="M9.2,43.8L9.2,43.8l1.5-7.2h1.8l-2.4,10H8.6l-2-7.1h0l-2,7.1H3.1l-2.4-10h1.7l1.5,7.2h0l1.9-7.2h1.5L9.2,43.8z M15.3,37.4
	h-1.7V36h1.7V37.4z M15.3,46.6h-1.7v-7.4h1.7V46.6z M19.3,37.4v1.8h1.3v1.2h-1.3v4.1c0,0.3,0.1,0.5,0.2,0.7c0.1,0.1,0.3,0.2,0.5,0.2
	c0.1,0,0.2,0,0.3,0c0.1,0,0.2,0,0.2-0.1l0.2,1.2c-0.1,0.1-0.3,0.1-0.5,0.2c-0.2,0-0.4,0.1-0.6,0.1c-0.6,0-1.1-0.2-1.4-0.5
	c-0.3-0.4-0.5-0.9-0.5-1.7v-4.1h-1.1v-1.2h1.1v-1.8H19.3z M23.6,40.2c0.2-0.3,0.5-0.6,0.9-0.8c0.4-0.2,0.7-0.3,1.2-0.3
	c0.8,0,1.4,0.2,1.8,0.7c0.4,0.5,0.7,1.3,0.7,2.3v4.5h-1.7v-4.5c0-0.6-0.1-1-0.3-1.3c-0.2-0.3-0.6-0.4-1-0.4c-0.4,0-0.7,0.1-0.9,0.2
	c-0.3,0.1-0.5,0.3-0.6,0.5v5.5H22V36h1.7V40.2z M29.6,43c0-1.2,0.3-2.1,0.8-2.9c0.5-0.7,1.2-1.1,2.1-1.1c0.4,0,0.8,0.1,1.1,0.2
	c0.3,0.2,0.6,0.4,0.8,0.7V36h1.7v10.7h-1.3l-0.2-0.9c-0.2,0.4-0.5,0.6-0.9,0.8c-0.3,0.2-0.7,0.3-1.2,0.3c-0.9,0-1.6-0.3-2.1-1
	s-0.8-1.5-0.8-2.6V43z M31.3,43.2c0,0.7,0.1,1.2,0.4,1.6c0.3,0.4,0.7,0.6,1.2,0.6c0.4,0,0.6-0.1,0.9-0.2c0.2-0.2,0.4-0.4,0.6-0.6
	v-3.2c-0.2-0.3-0.4-0.5-0.6-0.6c-0.2-0.2-0.5-0.2-0.9-0.2c-0.6,0-1,0.2-1.3,0.7c-0.3,0.5-0.4,1.1-0.4,1.9V43.2z M41.5,40.7l-0.7,0
	c-0.3,0-0.6,0.1-0.8,0.2c-0.2,0.1-0.4,0.3-0.5,0.6v5.1h-1.7v-7.4h1.5l0.1,1.1c0.2-0.4,0.4-0.7,0.7-0.9c0.3-0.2,0.6-0.3,1-0.3
	c0.1,0,0.2,0,0.3,0c0.1,0,0.2,0,0.2,0.1L41.5,40.7z M47.2,46.6c-0.1-0.2-0.1-0.4-0.1-0.5c0-0.2-0.1-0.4-0.1-0.5
	c-0.2,0.3-0.5,0.6-0.9,0.9c-0.4,0.2-0.8,0.4-1.3,0.4c-0.8,0-1.4-0.2-1.8-0.6c-0.4-0.4-0.6-0.9-0.6-1.6c0-0.7,0.3-1.3,0.8-1.7
	c0.6-0.4,1.4-0.6,2.4-0.6H47v-0.6c0-0.4-0.1-0.7-0.3-0.9c-0.2-0.2-0.6-0.3-1-0.3c-0.4,0-0.7,0.1-0.9,0.3c-0.2,0.2-0.3,0.4-0.3,0.7
	l-1.6,0l0,0c0-0.6,0.2-1.1,0.8-1.6c0.6-0.5,1.3-0.7,2.2-0.7c0.9,0,1.6,0.2,2.1,0.7s0.8,1.1,0.8,1.9v3.3c0,0.3,0,0.6,0.1,0.9
	c0,0.3,0.1,0.6,0.2,0.8H47.2z M45.2,45.4c0.4,0,0.8-0.1,1.1-0.3c0.3-0.2,0.6-0.4,0.7-0.7v-1.1h-1.3c-0.5,0-0.9,0.1-1.1,0.4
	c-0.3,0.2-0.4,0.5-0.4,0.8c0,0.3,0.1,0.5,0.3,0.7C44.6,45.4,44.8,45.4,45.2,45.4z M56.9,44.4L56.9,44.4l1.1-5.2h1.7l-2,7.4h-1.4
	l-1.6-4.9h0l-1.5,4.9h-1.4l-2-7.4h1.7l1.1,5.1h0l1.5-5.1h1.2L56.9,44.4z"/>
</svg>
