<?xml version="1.0" encoding="utf-8"?>
<!-- Generator: Adobe Illustrator 21.1.0, SVG Export Plug-In . SVG Version: 6.00 Build 0)  -->
<svg version="1.1" id="Layer_1" xmlns="http://www.w3.org/2000/svg" xmlns:xlink="http://www.w3.org/1999/xlink" x="0px" y="0px"
	 viewBox="0 0 135 135" style="enable-background:new 0 0 135 135;" xml:space="preserve">
<style type="text/css">
	.st0{fill:#FFFFFF;}
	.st1{fill:#3366CC;}
</style>
<circle class="st0" cx="67.5" cy="67.5" r="66.5"/>
<path class="st1" d="M67.5,133c8.8,0,17.4-1.7,25.5-5.1c3.9-1.6,7.6-3.7,11.1-6c3.5-2.3,6.7-5,9.7-8c3-3,5.7-6.2,8-9.7
	c2.4-3.5,4.4-7.2,6-11.1c3.4-8.1,5.1-16.7,5.1-25.5s-1.7-17.4-5.1-25.5c-1.6-3.9-3.7-7.6-6-11.1c-2.3-3.5-5-6.7-8-9.7
	c-3-3-6.2-5.7-9.7-8c-3.5-2.4-7.2-4.4-11.1-6C84.9,3.7,76.3,2,67.5,2S50.1,3.7,42,7.1c-3.9,1.6-7.6,3.7-11.1,6c-3.5,2.3-6.7,5-9.7,8
	c-3,3-5.7,6.2-8,9.7c-2.4,3.5-4.4,7.2-6,11.1C3.7,50.1,2,58.7,2,67.5S3.7,84.9,7.1,93c1.6,3.9,3.7,7.6,6,11.1c2.3,3.5,5,6.7,8,9.7
	c3,3,6.2,5.7,9.7,8c3.5,2.4,7.2,4.4,11.1,6C50.1,131.3,58.7,133,67.5,133 M67.5,135C30.2,135,0,104.8,0,67.5S30.2,0,67.5,0
	S135,30.2,135,67.5S104.8,135,67.5,135z"/>
<g id="Icon" transform="translate(2503 451)">
	<path id="Path_1" class="st1" d="M-2395.5-392.4c0,0.7-0.6,1.3-1.3,1.3s-1.3-0.6-1.3-1.3v-18.1h-75v23.3h7.6c0.7,0,1.3,0.6,1.3,1.3
		c0,0.7-0.6,1.3-1.3,1.3h-8.9c-0.7,0-1.3-0.6-1.3-1.3v-25.8c0-0.7,0.6-1.3,1.3-1.3h77.5c0.7,0,1.3,0.6,1.3,1.3V-392.4z
		 M-2405.6-384.7h8.9c0.7,0,1.3-0.6,1.3-1.3c0-0.7-0.6-1.3-1.3-1.3h-8.9c-0.7,0-1.3,0.6-1.3,1.3
		C-2406.9-385.2-2406.3-384.7-2405.6-384.7z"/>
	<path id="Path_2" class="st1" d="M-2462.9-397.6c-0.7,0-1.3-0.6-1.3-1.3c0-0.7,0.6-1.3,1.3-1.3h54.9c0.7,0,1.3,0.6,1.3,1.3
		c0,0.7-0.6,1.3-1.3,1.3H-2462.9z"/>
	<path id="Path_3" class="st1" d="M-2448.4-393.6c0.7,0,1.3,0.6,1.3,1.3c0,0.7-0.6,1.3-1.3,1.3h-10.1v23.3h45.9v-23.3h-4.4
		c-0.7,0-1.3-0.6-1.3-1.3c0-0.7,0.6-1.3,1.3-1.3h5.7c0.7,0,1.3,0.6,1.3,1.3v25.8c0,0.7-0.6,1.2-1.3,1.3h-48.4
		c-0.7,0-1.3-0.6-1.3-1.3v-25.8c0-0.7,0.6-1.3,1.3-1.3H-2448.4z M-2422.6-393.6h-20.2c-0.7,0-1.3,0.6-1.3,1.3c0,0.7,0.6,1.3,1.3,1.3
		h20.2c0.7,0,1.3-0.6,1.3-1.3C-2421.3-393.1-2421.9-393.6-2422.6-393.6z"/>
	<path id="Path_4" class="st1" d="M-2459.7-359.6c-0.7,0-1.3-0.6-1.3-1.3s0.6-1.3,1.3-1.3h48.4c0.7,0,1.3,0.6,1.3,1.3
		s-0.6,1.3-1.3,1.3H-2459.7z"/>
	<path id="Path_5" class="st1" d="M-2459.7-354c-0.7,0-1.3-0.6-1.3-1.3s0.6-1.3,1.3-1.3h48.4c0.7,0,1.3,0.6,1.3,1.3
		s-0.6,1.3-1.3,1.3H-2459.7z"/>
	<path id="Path_6" class="st1" d="M-2449.7-392.4c0-0.7,0.6-1.3,1.3-1.3s1.3,0.6,1.3,1.3c0,6.4,5.2,11.7,11.7,11.7
		c3.1,0,6.1-1.2,8.2-3.4l0,0l0,0c2.2-2.2,3.4-5.2,3.4-8.2c0-0.7,0.6-1.3,1.3-1.3c0.7,0,1.3,0.6,1.3,1.3c0,3.8-1.5,7.4-4.1,10l0,0
		c-5.5,5.5-14.5,5.5-20,0C-2448.2-385-2449.7-388.6-2449.7-392.4L-2449.7-392.4z"/>
	<path id="Path_7" class="st1" d="M-2459.7-375c-0.7,0-1.3-0.6-1.3-1.3s0.6-1.3,1.3-1.3c6,0,10.9,4.9,10.9,10.9c0,0,0,0,0,0
		c0,0.7-0.6,1.3-1.3,1.3s-1.3-0.6-1.3-1.3C-2451.3-371.2-2455.1-375-2459.7-375L-2459.7-375z"/>
	<path id="Path_8" class="st1" d="M-2411.3-377.5c0.7,0,1.3,0.6,1.3,1.3s-0.6,1.3-1.3,1.3c-2.2,0-4.4,0.9-6,2.5l0,0
		c-1.6,1.6-2.5,3.7-2.5,6c0,0.7-0.6,1.3-1.3,1.3s-1.3-0.6-1.3-1.3c0-2.9,1.1-5.7,3.2-7.7l0,0C-2417-376.3-2414.2-377.5-2411.3-377.5
		z"/>
</g>
</svg>
