<svg xmlns="http://www.w3.org/2000/svg" viewBox="1859.5 696.792 60 51.208">
  <defs>
    <style>
      .cls-1, .cls-2 {
        fill: #fff;
      }

      .cls-1 {
        font-size: 14px;
        font-family: Roboto-Medium, Roboto;
        font-weight: 500;
      }
    </style>
  </defs>
  <g id="Withdraw" transform="translate(1636.5 185)">
    <g id="Withdraw-2" data-name="Withdraw" transform="translate(5 10)">
      <text id="Withdraw-3" data-name="Withdraw" class="cls-1" transform="translate(218 549)"><tspan x="0" y="0">Withdraw</tspan></text>
      <g id="Withdraw_icon" data-name="Withdraw icon" transform="translate(230 501.792)">
        <path id="Path_1" data-name="Path 1" class="cls-2" d="M35,89.3a.547.547,0,0,1-1.094,0V81.37H1.094V91.578H4.432a.547.547,0,1,1,0,1.094H.547A.547.547,0,0,1,0,92.125v-11.3a.547.547,0,0,1,.547-.547H34.452a.547.547,0,0,1,.547.547V89.3Zm-4.433,3.372h3.885a.547.547,0,0,0,0-1.094H30.567a.547.547,0,0,0,0,1.094Z" transform="translate(0 -80.276)"/>
        <path id="Path_5" data-name="Path 5" class="cls-2" d="M111.712,513.694a.547.547,0,1,1,0-1.094H132.9a.547.547,0,0,1,0,1.094Z" transform="translate(-104.808 -487.876)"/>
        <path id="Path_2" data-name="Path 2" class="cls-2" d="M87.008,180.182a.547.547,0,1,1,0-1.094h24.017a.547.547,0,1,1,0,1.094Z" transform="translate(-81.516 -173.437)"/>
        <path id="Union_2" data-name="Union 2" class="cls-2" d="M.561,14.507H.547A.6.6,0,0,1,0,13.867V.64A.6.6,0,0,1,.547,0H5.492a.548.548,0,0,1,.547.547A5.087,5.087,0,0,0,7.533,4.155a5.106,5.106,0,0,0,7.218,0h0A5.091,5.091,0,0,0,16.193,1.28H7.963A.6.6,0,0,1,7.416.64.6.6,0,0,1,7.963,0h8.83a.547.547,0,0,1,.547.547c0,.023,0,.045,0,.068s0,.017,0,.025,0,.033,0,.05a6.18,6.18,0,0,1-1.813,4.24h0a6.193,6.193,0,0,1-8.764,0A6.18,6.18,0,0,1,4.987,1.28H1.094V8.818A4.785,4.785,0,0,1,5.32,13.227H16.965a4.773,4.773,0,0,1,1.389-3.036l0,0a4.775,4.775,0,0,1,2.833-1.37V1.28H19.265a.6.6,0,0,1-.547-.64A.6.6,0,0,1,19.265,0h2.472a.6.6,0,0,1,.547.64V9.3c0,.011,0,.022,0,.033s0,.022,0,.033v4.5a.6.6,0,0,1-.547.64Zm20.63-1.28V9.921a3.676,3.676,0,0,0-2.062,1.039l0,0a3.676,3.676,0,0,0-1.063,2.265Zm-20.1,0H4.222a3.681,3.681,0,0,0-1.065-2.265A3.681,3.681,0,0,0,1.094,9.921Z" transform="translate(6.358 8.476)"/>
      </g>
    </g>
  </g>
</svg>
