<svg xmlns="http://www.w3.org/2000/svg" viewBox="4853 -3543.888 332.011 209.969">
  <defs>
    <style>
      .cls-1 {
        opacity: 0.2;
      }

      .cls-2 {
        fill: #424242;
      }

      .cls-3 {
        fill: #ff9800;
      }
    </style>
  </defs>
  <g id="Human_computer" data-name="Human &amp; computer" transform="translate(4853.006 -3534.555)">
    <ellipse id="Ellipse_23" data-name="Ellipse 23" class="cls-1" cx="71.946" cy="6.541" rx="71.946" ry="6.541" transform="translate(188.114 187.555)"/>
    <ellipse id="Ellipse_25" data-name="Ellipse 25" class="cls-1" cx="71.946" cy="6.541" rx="71.946" ry="6.541" transform="translate(2.364 187.555)"/>
    <path id="Path_863" data-name="Path 863" class="cls-2" d="M73.4,37.3v5.232H83.865V53H89.1v78.486H94.33V118.4H185.9v13.081h5.232V53h5.232V42.532h10.465V37.3Z" transform="translate(118.639 62.285)"/>
    <path id="Path_864" data-name="Path 864" class="cls-2" d="M142.573,92.091l-.262.523a2.379,2.379,0,0,1-2.093,1.046H104.9V91.044h31.918c1.57,0,2.878-1.831,2.093-3.139l-15.7-37.935c-.262-.262-.785-.262-.785,0l-5.232,36.1a2.548,2.548,0,0,1-2.616,2.093h-.523a2.548,2.548,0,0,1-2.093-2.616l12.3-83.457A2.548,2.548,0,0,1,126.876,0h.523a2.548,2.548,0,0,1,2.093,2.616l-6.017,40.551a2.359,2.359,0,0,0,.262,1.308l19.1,45.784A4.453,4.453,0,0,1,142.573,92.091Z" transform="translate(169.549 2)"/>
    <path id="Path_868" data-name="Path 868" class="cls-2" d="M97.594,78.08l27.732,4.971,14.651-23.807a3.153,3.153,0,0,1,1.308-1.308,4.85,4.85,0,0,1,1.831-.523,3.924,3.924,0,1,1,0,7.849,3.729,3.729,0,0,1-3.139-1.57l-12.3,19.622,9.68,1.831a4.1,4.1,0,0,1,3.663-2.355,3.924,3.924,0,1,1,0,7.849,3.69,3.69,0,0,1-3.663-2.878l-9.942-1.831,4.448,23.023a3.882,3.882,0,0,1,5.494,4.971,3.743,3.743,0,0,1-4.971,2.093,8.142,8.142,0,0,1-1.57-1.046,2.261,2.261,0,0,1-.785-1.57l-5.494-27.732L96.809,80.7c-2.878,15.7-7.325,27.732-10.465,28.255h0l-56.772,8.9-.262-2.355c-15.959,1.831-28.778.262-29.3-3.4-.523-3.924,13.081-8.633,30.348-10.726s31.656-.785,31.918,3.139c.262,2.616-5.494,5.494-14.651,7.849L84.513,106.6c-1.308-4.709-.785-16.221,1.57-29.563,3.139-17.005,8.11-30.348,11.25-29.825C100.21,47.732,100.471,61.337,97.594,78.08Z" transform="translate(0 76.276)"/>
    <path id="Path_869" data-name="Path 869" class="cls-3" d="M196.344,17.421,191.635,43.06c-.523,2.616-1.046,8.971-6.017,6.878-5.756-2.355-24.275-11.3-30.9-11.452-2.774.308-8.863,1.772-8.863,14.853v23.47s1.308,10.465-14.389,10.465H68.673A11.724,11.724,0,0,1,56.9,75.5,11.571,11.571,0,0,1,66.58,63.99c.523,0,1.831-.262,2.093-.262h51.016a4.024,4.024,0,0,0,3.924-3.924V24.223c.262-9.68,4.186-33.4,68.021-11.951C195.723,13.367,196.606,15.328,196.344,17.421Z" transform="translate(91.971 8.648)"/>
    <path id="Path_875" data-name="Path 875" class="cls-2" d="M3.971,14.409a7.891,7.891,0,0,1,.338-2.714,6.856,6.856,0,0,1,1.7-2,29.645,29.645,0,0,0,1.9-2.431,3.615,3.615,0,0,0,.567-2.053,2.994,2.994,0,0,0-.763-2.2,2.936,2.936,0,0,0-2.181-.77,3.319,3.319,0,0,0-2.093.668A2.332,2.332,0,0,0,2.58,4.875H.042L0,4.794A4.2,4.2,0,0,1,1.534,1.31a6.046,6.046,0,0,1,4-1.31A5.87,5.87,0,0,1,9.67,1.357a4.9,4.9,0,0,1,1.472,3.788,5.671,5.671,0,0,1-.952,3.187,17.787,17.787,0,0,1-2.518,2.957,3.17,3.17,0,0,0-.885,1.31,7.638,7.638,0,0,0-.155,1.81Zm2.755,5.537H3.944V17.137H6.726Z" transform="translate(274.603 -6.637) rotate(-14)"/>
    <path id="Path_876" data-name="Path 876" class="cls-2" d="M2.66,13.207H0V0H2.66Zm.014,6.455H0V16.907H2.674Z" transform="matrix(0.777, -0.629, 0.629, 0.777, 264.849, -1.194)"/>
  </g>
</svg>
