<svg xmlns="http://www.w3.org/2000/svg" viewBox="-1181 -1143 32.147 32.236">
  <defs>
    <style>
      .cls-1 {
        fill: #fff;
      }
    </style>
  </defs>
  <g id="loading-circles" transform="translate(-1181.853 -1143)">
    <g id="Group_587" data-name="Group 587" transform="translate(0.853)">
      <path id="Path_897" data-name="Path 897" class="cls-1" d="M493.242,256.455a3.181,3.181,0,0,0-2.328-.989,3.139,3.139,0,0,0-2.31.971,3.28,3.28,0,1,0,4.638,4.639,3.236,3.236,0,0,0,0-4.62Z" transform="translate(-462.064 -242.047)"/>
      <path id="Path_898" data-name="Path 898" class="cls-1" d="M420.467,438.453a2.882,2.882,0,0,0-2.134.865,2.826,2.826,0,0,0-.864,2.1,2.924,2.924,0,0,0,.864,2.137,2.872,2.872,0,0,0,2.134.862,2.842,2.842,0,0,0,2.1-.862,2.912,2.912,0,0,0,.9-2.137,2.814,2.814,0,0,0-.9-2.1A2.853,2.853,0,0,0,420.467,438.453Z" transform="translate(-395.585 -415.422)"/>
      <path id="Path_899" data-name="Path 899" class="cls-1" d="M418.05,84.112a3.611,3.611,0,1,0-2.539-1.057A3.459,3.459,0,0,0,418.05,84.112Z" transform="translate(-392.728 -72.879)"/>
      <path id="Path_900" data-name="Path 900" class="cls-1" d="M248.943,511.289a2.569,2.569,0,0,0-1.9.794,2.632,2.632,0,0,0-.776,1.922,2.549,2.549,0,0,0,.776,1.885,2.718,2.718,0,0,0,3.809,0,2.547,2.547,0,0,0,.793-1.885,2.651,2.651,0,0,0-.793-1.941A2.59,2.59,0,0,0,248.943,511.289Z" transform="translate(-233.372 -484.432)"/>
      <path id="Path_901" data-name="Path 901" class="cls-1" d="M227.309,0a3.747,3.747,0,0,0-2.751,1.129,3.706,3.706,0,0,0-1.129,2.735,3.781,3.781,0,0,0,1.129,2.769,3.917,3.917,0,0,0,5.5,0,3.8,3.8,0,0,0,1.146-2.769,3.722,3.722,0,0,0-1.146-2.735A3.747,3.747,0,0,0,227.309,0Z" transform="translate(-211.739)"/>
      <path id="Path_902" data-name="Path 902" class="cls-1" d="M87.841,114.732a1.74,1.74,0,0,0,1.27-.512,1.805,1.805,0,0,0,0-2.554,1.795,1.795,0,1,0-1.27,3.066Z" transform="translate(-81.563 -105.315)"/>
      <path id="Path_903" data-name="Path 903" class="cls-1" d="M77.1,445.472a2.364,2.364,0,0,0-1.693.726,2.214,2.214,0,0,0-.705,1.655,2.4,2.4,0,0,0,4.8,0A2.214,2.214,0,0,0,78.8,446.2,2.363,2.363,0,0,0,77.1,445.472Z" transform="translate(-70.826 -422.072)"/>
      <path id="Path_904" data-name="Path 904" class="cls-1" d="M4.415,278.93a1.982,1.982,0,0,0-1.464-.617,2.06,2.06,0,0,0-1.5.617,2.01,2.01,0,0,0-.6,1.482,2.053,2.053,0,0,0,2.1,2.1,1.969,1.969,0,0,0,1.464-.6,2.066,2.066,0,0,0,.617-1.5A2.027,2.027,0,0,0,4.415,278.93Z" transform="translate(-0.853 -263.694)"/>
    </g>
  </g>
</svg>
