<?xml version="1.0" encoding="utf-8"?>
<!-- Generator: Adobe Illustrator 21.1.0, SVG Export Plug-In . SVG Version: 6.00 Build 0)  -->
<svg version="1.1" id="Layer_1" xmlns="http://www.w3.org/2000/svg" xmlns:xlink="http://www.w3.org/1999/xlink" x="0px" y="0px"
	 viewBox="0 0 159 200" style="enable-background:new 0 0 159 200;" xml:space="preserve">
<g id="you-are-here" transform="translate(-1224.105 -2523)">
	<path id="Path_861" d="M1303.6,2523.8c-43.1,0-78,35-78.1,78.1c0.3,15.4,4,30.6,10.8,44.5c6.3,13.2,14.2,25.7,23.4,37.1
		c10.1,12.9,21.5,24.7,33.9,35.3c5.8,4.5,14,4.5,19.8,0c12.4-10.6,23.8-22.5,33.9-35.3c9.2-11.4,17.1-23.9,23.4-37.1
		c6.8-13.9,10.5-29,10.8-44.5C1381.6,2558.7,1346.7,2523.8,1303.6,2523.8z M1340.5,2677.8c-9.8,12.4-20.7,23.8-32.7,34.1
		c-2.5,1.8-5.9,1.8-8.4,0c-0.6-0.5-64.9-53.9-64.9-110c0-38.2,30.9-69.1,69.1-69.1c38.2,0,69.1,30.9,69.1,69.1
		C1372.7,2630.9,1355.2,2659.2,1340.5,2677.8L1340.5,2677.8z"/>
	<path id="Path_862" d="M1303.6,2560.3c-22.9,0-41.5,18.6-41.5,41.5c0,22.9,18.6,41.5,41.5,41.5c22.9,0,41.5-18.6,41.5-41.5v0
		C1345.1,2578.9,1326.5,2560.4,1303.6,2560.3z M1303.6,2634.4c-18,0-32.5-14.6-32.5-32.5c0-18,14.6-32.5,32.5-32.5
		c18,0,32.5,14.6,32.5,32.5C1336.1,2619.8,1321.6,2634.4,1303.6,2634.4z"/>
</g>
</svg>
