<?xml version="1.0" encoding="utf-8"?>
<!-- Generator: Adobe Illustrator 21.1.0, SVG Export Plug-In . SVG Version: 6.00 Build 0)  -->
<svg version="1.1" id="Layer_1" xmlns="http://www.w3.org/2000/svg" xmlns:xlink="http://www.w3.org/1999/xlink" x="0px" y="0px"
	 viewBox="0 0 200 200" style="enable-background:new 0 0 200 200;" xml:space="preserve">
<path id="ADD_WALLET" d="M188,30.8L177.3,3c-0.6-1.6-1.8-2.9-3.4-3.4c-1.5-0.7-3.3-0.7-4.8,0l-66,30.2H62.2
	c-9.3,0-16.8,7.5-16.8,16.8v39.5c32.1-6.1,63,15,69.1,47.1c0.7,3.6,1,7.3,1,11c0,3.8-0.3,7.6-1,11.3h68.7c9.3,0,16.8-7.5,16.8-16.8
	V124h-57.4c-9.3,0-16.5-8.9-16.5-19.6v-23c0-11,7.6-19.6,16.5-19.6h57V47C199.9,39.6,195.1,32.9,188,30.8z M132.3,29.8l36.1-16.5
	l6.2,16.5H132.3z M138.5,81.4V104c0,4.1,2.4,7.6,4.5,7.6h57V73.8h-57.4C140.6,74.1,138.5,77.2,138.5,81.4L138.5,81.4z M161.9,84.1
	c4.9,0,8.9,4,8.9,8.9c0,4.9-4,8.9-8.9,8.9c-4.9,0-8.9-4-8.9-8.9C153,88.1,157,84.2,161.9,84.1L161.9,84.1z M51.9,97.2
	C23.2,97.2,0,120.4,0,149.1s23.2,51.9,51.9,51.9s51.9-23.2,51.9-51.9l0,0C103.6,120.5,80.4,97.4,51.9,97.2L51.9,97.2z M83.5,154.2
	H55.3v28.9h-6.9v-28.9H20.3V147h27.8v-28.9H55V147h28.2v7.2L83.5,154.2z"/>
</svg>
