<?xml version="1.0" encoding="utf-8"?>
<!-- Generator: Adobe Illustrator 21.1.0, SVG Export Plug-In . SVG Version: 6.00 Build 0)  -->
<svg version="1.1" id="Layer_1" xmlns="http://www.w3.org/2000/svg" xmlns:xlink="http://www.w3.org/1999/xlink" x="0px" y="0px"
	 viewBox="0 0 31 36" style="enable-background:new 0 0 31 36;" xml:space="preserve">
<style type="text/css">
	.st0{fill:#FFFFFF;}
</style>
<g>
	<path class="st0" d="M15.6,36c2,0,3.6-1.6,3.6-3.6c0,0,0,0,0,0h-7.5C11.9,34.4,13.6,36,15.6,36z M27.4,25.2v-10
		c0-5.4-3.8-10.2-9.1-11.4v-1c0.1-1.5-1.1-2.7-2.6-2.8c0,0,0,0,0,0c-1.5,0-2.8,1.1-2.8,2.7c0,0,0,0.1,0,0.1V4
		c-5.3,1.2-9.1,6-9.1,11.4v10L0,28.8v1.8h31v-1.8L27.4,25.2z"/>
</g>
</svg>
