<?xml version="1.0" encoding="utf-8"?>
<!-- Generator: Adobe Illustrator 21.1.0, SVG Export Plug-In . SVG Version: 6.00 Build 0)  -->
<svg version="1.1" id="Layer_1" xmlns="http://www.w3.org/2000/svg" xmlns:xlink="http://www.w3.org/1999/xlink" x="0px" y="0px"
	 viewBox="0 0 31 36" style="enable-background:new 0 0 31 36;" xml:space="preserve">
<style type="text/css">
	.st0{fill:#FFFFFF;}
	.st1{fill:#B71C1C;}
</style>
<g id="Alert_icon-notification" transform="translate(1323 -2389)">
	<path class="st0" d="M-1295.6,2414.2v-7.6c-0.7,0.2-1.3,0.2-2,0.2c-4.2,0-7.7-3.4-7.7-7.6c0,0,0,0,0,0c0-2.2,1-4.2,2.6-5.6
		c-0.6-0.4-1.3-0.7-2-0.8v-1c0.1-1.5-1.1-2.7-2.6-2.8c0,0,0,0,0,0c-1.5,0-2.8,1.1-2.8,2.7c0,0,0,0.1,0,0.1v1.2
		c-5.3,1.2-9.1,6-9.1,11.4v10l-3.6,3.4v1.8h31v-1.8L-1295.6,2414.2z M-1311.2,2421.4c0.2,2,1.8,3.6,3.8,3.6c2,0,3.6-1.6,3.6-3.6
		c0,0,0,0,0,0H-1311.2z"/>
	<path class="st1" d="M-1292,2399.2c0,2.3-1.5,4.4-3.6,5.2c-0.7,0.2-1.3,0.4-2,0.4c-3.1,0-5.6-2.5-5.7-5.6c0-1.9,1-3.7,2.6-4.6
		c0.9-0.6,1.9-1,3-1C-1294.6,2393.6-1292.1,2396.1-1292,2399.2z"/>
</g>
</svg>
