<?xml version="1.0" encoding="utf-8"?>
<!-- Generator: Adobe Illustrator 21.1.0, SVG Export Plug-In . SVG Version: 6.00 Build 0)  -->
<svg version="1.1" id="Layer_1" xmlns="http://www.w3.org/2000/svg" xmlns:xlink="http://www.w3.org/1999/xlink" x="0px" y="0px"
	 viewBox="0 0 26.8 20.9" style="enable-background:new 0 0 26.8 20.9;" xml:space="preserve">
<style type="text/css">
	.st0{fill:#FFFFFF;}
</style>
<g>
	<path class="st0" d="M25.2,16c-0.9,0-1.6-0.5-2.1-1.3c-0.8-1.3-1.4-2.7-1.7-4.2l4.8-10.1h-6.7l-1.3,3.8h-0.1
		C16.8,1.4,14.3,0,10.6,0C7.7-0.1,4.9,1,2.9,3.1C1,5.3-0.1,8.1,0,11c-0.1,2.6,0.8,5.2,2.5,7.2c1.7,1.9,4.2,2.9,6.7,2.7
		c3.5,0.1,6.7-1.8,8.3-4.8h0.1c0.8,3.1,2.8,4.6,5.8,4.6c1.1,0,2.2-0.1,3.2-0.5l0,0c0-2.3,0.1-3.8,0.1-4.5C26.3,15.9,25.7,16,25.2,16
		z M15.7,11.2c-1.4,4-3.4,6-5.9,6c-1.4,0-2.7-0.6-3.4-1.8c-0.8-1.4-1.3-3-1.2-4.7C5.2,8.9,5.7,7.1,6.7,5.7c0.9-1.3,2.4-2.1,4-2.1
		c2.6,0,4.4,2.2,5.4,6.6L15.7,11.2z"/>
</g>
</svg>
