<?xml version="1.0" encoding="utf-8"?>
<!-- Generator: Adobe Illustrator 21.1.0, SVG Export Plug-In . SVG Version: 6.00 Build 0)  -->
<svg version="1.1" id="Layer_1" xmlns="http://www.w3.org/2000/svg" xmlns:xlink="http://www.w3.org/1999/xlink" x="0px" y="0px"
	 viewBox="0 0 139.8 35.7" style="enable-background:new 0 0 139.8 35.7;" xml:space="preserve">
<style type="text/css">
	.st0{fill:#F58026;}
	.st1{fill:#102A40;}
</style>
<g>
	<g id="Group_130" transform="translate(0.1 0.3)">
		<path class="st0" d="M53.8,14.3c-1.4,0-2.6-1.2-2.6-2.6s1.2-2.6,2.6-2.6s2.6,1.2,2.6,2.6v0C56.4,13.1,55.2,14.3,53.8,14.3
			C53.8,14.3,53.8,14.3,53.8,14.3z"/>
		<path class="st1" d="M53.8-0.3c1.4,0,2.6,1.2,2.6,2.6s-1.2,2.6-2.6,2.6c-1.4,0-2.6-1.1-2.6-2.5c0-0.1,0-0.2,0-0.3
			C51.2,0.8,52.4-0.3,53.8-0.3z M61,6.9c0,1.4-1.2,2.6-2.6,2.6c-1.4,0-2.6-1.2-2.6-2.6c0-1.5,1.2-2.7,2.7-2.7c0,0,0,0,0,0
			C59.9,4.3,61,5.5,61,6.9z M51.7,7.1c0,1.4-1.1,2.6-2.5,2.7c-1.5,0-2.7-1.1-2.7-2.6c0-1.4,1.1-2.6,2.6-2.6c0,0,0,0,0,0
			c1.3-0.2,2.4,0.7,2.6,2C51.7,6.8,51.7,6.9,51.7,7.1z M80,34.2c-0.1,0.6-0.6,0.4-1,0.4h-6.4c-0.4,0-0.9,0.1-1-0.4
			c0-0.6,0.4-0.7,0.9-0.7c0.9,0,1.6-0.8,1.6-1.7c0,0,0-0.1,0-0.1c0-2.7,0.1-5.5,0-8.2c0-1.4-0.4-2.9-2-3.5c-1.6-0.6-3.3-0.4-4.8,0.4
			c-0.8,0.5-1.3,1.5-1.3,2.5v8.7c0,1.2,0.4,1.9,1.6,2c0.4,0,0.9,0.1,0.7,0.7c-0.1,0.6-0.4,0.4-0.9,0.4H61c-0.4,0-0.9,0.1-0.9-0.4
			c-0.1-0.6,0.4-0.7,0.7-0.7c1.4,0,1.9-1,1.9-2.2v-9.5c0-0.8-0.4-1.5-1.2-1.9c-0.7-0.4-0.6-0.9,0.1-1.3c1.2-0.6,2.2-1,3.2-1.6
			c0.7-0.3,1-0.3,1,0.6c0,2,0,2,1.7,1c1.2-0.7,2.6-1.2,4-1.3c3.2-0.3,5.3,1.6,5.3,4.8v4.3h0.1v4.9c-0.2,1,0.5,1.8,1.4,2
			c0.1,0,0.2,0,0.3,0C79.6,33.6,80.2,33.5,80,34.2z M31.1,18.6c0.2,0.7,0,1.5-0.6,2c-0.6,0.5-1.3,0.6-2,0.3l-0.9-0.4
			c-0.9-0.6-2.1-0.3-2.6,0.6c-0.2,0.2-0.2,0.5-0.3,0.8c-0.1,0.4-0.2,0.9-0.1,1.3v8.4c0,1.4,0.3,1.7,1.7,2c0.3,0,0.6,0.1,0.9,0.1
			c0.4,0,0.6,0.1,0.6,0.6c0,0.4-0.4,0.4-0.7,0.4h-7.4c-0.4,0-0.9,0.1-0.9-0.6c0-0.6,0.4-0.6,0.7-0.6c1.4-0.1,1.7-1,1.7-2.2v-9.2
			c0-0.8-0.3-1.6-1-2c-0.9-0.6-0.9-0.9,0.1-1.4c1-0.4,2-0.9,2.9-1.4c0.9-0.4,1.2-0.1,1,0.7v2c1-0.7,1.7-1.2,2.5-1.7
			c0.7-0.5,1.6-0.8,2.5-0.7C30.4,17.6,30.9,17.9,31.1,18.6z M58.1,34.2c-0.1,0.6-0.6,0.4-1,0.4h-6.6c-0.3,0-0.7,0-0.7-0.4
			c-0.1-0.6,0.3-0.6,0.7-0.7c1.9-0.6,1.9-0.6,1.9-2.6c0.1-3.5,0.1-7.1,0-10.5c0-0.7,0.1-1.6-1-1.7c-0.3,0-0.5-0.2-0.5-0.5
			c0-0.1,0-0.2,0.1-0.2c0-0.4,0.4-0.4,0.7-0.4h4.6c0.3,0,0.7,0,0.7,0.4c0,0.4-0.1,0.7-0.4,0.7c-0.9,0.1-0.9,0.9-1,1.6v11.3
			c0,1.2,0.4,2.2,1.9,2.2C57.7,33.6,58.2,33.6,58.1,34.2z M13.2,23.5c-0.3-0.1-0.9,0-1.2-0.4c0.4-0.2,0.8-0.4,1.2-0.6
			c1.9-1,2.5-2.3,2.2-4.5s-1.9-3.5-4.6-3.9C7.1,13.6,3.7,14,0,14.1c-0.3,0.5-0.2,1.1,0.3,1.4c0,0,0.1,0,0.1,0.1
			c0.9,0.5,1.5,1.5,1.3,2.6v11.3c0,1.4,0,2.9-1.6,3.6c-0.2,0.1-0.3,0.4-0.3,0.6v0.7c2.7,0,5.3,0.1,8.1,0.1c1.8,0.1,3.6-0.1,5.3-0.7
			c2.3-0.6,3.9-2.8,3.8-5.2C17.2,26.1,15.8,24.4,13.2,23.5z M7.3,15.3c1.4,0,2.9,0.1,3.9,1.6c0.9,1.3,1,3.1,0.1,4.5
			c-0.6,1.2-3.3,2-4.5,1.6c-0.4-0.1-0.4-0.4-0.4-0.9v-5.8C6.3,15.6,6.5,15.3,7.3,15.3L7.3,15.3z M13,30.5c-0.6,2.1-2.8,3.4-5,2.8
			c-0.2,0-0.3-0.1-0.5-0.2c-1-0.4-1.2-1.3-1.3-2.2v-3.2l0,0V26c0-1.9,0-1.9,2-1.9c2.8,0.1,5,2.3,4.9,5.1
			C13.2,29.6,13.1,30.1,13,30.5L13,30.5z M47.8,32.9c-2.2,0.6-2.9,0-3-2.2c-0.1-1.6,0-3.2,0-4.8c0-1.7,0.4-3.5,0.1-5.2
			c-0.1-1.7-1.4-3-3-3.2c-3.3-0.6-6.1,1-8.4,3.3c-0.5,0.4-0.7,1-0.7,1.6c0,0.4,0.1,0.6,0.6,0.7c1.3,0.2,2.5-0.6,2.9-1.9
			c0-0.7,0.4-1.4,1-1.7c1.4-0.9,3.2-0.5,4.2,0.8c0.2,0.4,0.4,0.8,0.5,1.2c0.1,0.8,0.1,1.6,0,2.5c0.1,1.2-0.4,1.6-1.4,2
			c-1.9,0.6-3.8,1.3-5.5,2c-1.9,0.9-2.6,2-2.2,3.9c0.3,1.8,1.8,3.1,3.6,3.2c1.5,0,2.9-0.4,4-1.3c0.7-0.4,1.2-0.6,1.9,0.3
			c1.5,1.5,3.9,1.5,5.5,0.1c0.1-0.1,0.2-0.2,0.3-0.3c0.2-0.2,0.3-0.5,0.1-0.7C48.4,32.8,48.1,32.9,47.8,32.9z M41.8,28.6v0.7
			c-0.1,2.9-1.2,4-3.3,3.9c-1.1,0-2-0.7-2.3-1.7c-0.3-1,0.1-2.1,1-2.6c1-0.6,2.1-1.1,3.3-1.3C41.6,27.1,41.8,27.4,41.8,28.6z"/>
	</g>
	<path id="Group_131" transform="translate(82.687 15.432)" class="st0" d="M5.2,5.6v9c0.1,2.9,1.9,3.9,4.6,2.7
		c0.3-0.1,0.6-0.4,0.9,0c0.1,0.3,0,0.6-0.3,0.9c-1.9,1.6-4.6,2-6.8,0.9c-1-0.7-1.6-1.9-1.6-3.2v-5.2l0,0v-5c0-0.9-0.3-1.3-1.2-1.3
		c-0.4,0-0.9,0-1-0.4c0-0.4,0.4-0.6,0.7-0.7c1.5-0.5,2.7-1.5,3.3-2.9C4.1,0,4.4-0.4,4.8-0.3c0.6,0.1,0.4,0.7,0.4,1
		c0,1.7,0,1.7,1.9,1.7h2.6c0.6,0,1.2,0.1,1.2,0.9c0,0.9-0.4,1-1.2,1H6.3C5.5,4.5,5.2,4.8,5.2,5.6z M24.9,3.2
		c0.3,0.6,0.1,1.4-0.4,1.9c-0.5,0.6-1.4,0.7-2,0.3c-0.4-0.1-0.9-0.4-1.3-0.6c-1-0.3-2.1,0.2-2.4,1.2c0,0,0,0.1,0,0.1
		c-0.2,0.6-0.3,1.2-0.3,1.9v7.6c0,1.9,0.3,2.2,2.2,2.3c0.4,0,1.2,0,1.2,0.7s-0.7,0.4-1.2,0.6h-6.8c-0.4,0-0.9,0.1-1-0.4
		c-0.1-0.7,0.4-0.7,0.9-0.7c0.9,0,1.6-0.8,1.6-1.7c0,0,0-0.1,0-0.1v-4.9l0,0V6.9c0.1-0.9-0.3-1.8-1-2.3c-0.7-0.4-0.6-1,0.1-1.3
		c1.1-0.5,2.1-1,3.2-1.6c0.6-0.3,0.9-0.1,0.9,0.6c0.1,2,0.1,2,1.9,0.9c0.8-0.7,1.8-1.1,2.9-1C23.9,2,24.7,2.4,24.9,3.2
		C24.9,3.2,24.9,3.2,24.9,3.2z M55.8,16c-0.9,0.9-2.2,1.5-3.5,1.4c-4.5-0.1-6.8-4-6.6-7.9c0-0.7,0.4-0.9,1-0.9h7.9
		c2.5,0,3-0.9,2-3.2c-0.2-0.6-0.6-1.1-1-1.4c-1.7-1.5-4-2.1-6.2-1.4c-6.1,1.3-9,9.7-5.1,14.7c2.9,3.8,9.5,3.8,12.1-0.1
		c0.3-0.4,0.9-0.9,0.3-1.3C56.4,15,56.1,15.8,55.8,16z M46.2,6.2c0.7-2.2,4.2-3.5,6.2-2.5c0.6,0.2,1,0.7,1.2,1.3
		c0.4,1.2,0.1,1.7-1.2,1.9c-1,0.1-2,0.1-3,0v0.1h-2.6C46.2,7.1,46.1,6.9,46.2,6.2L46.2,6.2z M30.2,8.5h8.1c2.2,0,2.7-0.7,2-2.9
		c-0.1-0.6-0.4-1.1-0.9-1.4c-1.7-1.9-4.4-2.6-6.8-1.9c-5.5,1.3-8.4,8.4-5.6,13.6c2.1,3.7,6.8,5.1,10.6,3c0.9-0.5,1.8-1.2,2.4-2.1
		c0.3-0.3,0.7-0.7,0.3-1.2s-0.9,0.1-1.2,0.4c-0.9,1-2.2,1.5-3.5,1.4c-4.8-0.1-6.9-4.3-6.6-7.9C29.2,8.7,29.6,8.5,30.2,8.5z
		 M29.8,6.1c1.1-2.1,3.5-3.2,5.8-2.6c0.7,0.2,1.2,0.7,1.6,1.3c0.6,1.2,0.1,1.9-1.2,2.2h-5.5C29.6,7.1,29.5,6.8,29.8,6.1L29.8,6.1z"
		/>
</g>
</svg>
