<?xml version="1.0" encoding="utf-8"?>
<!-- Generator: Adobe Illustrator 21.1.0, SVG Export Plug-In . SVG Version: 6.00 Build 0)  -->
<svg version="1.1" id="Layer_1" xmlns="http://www.w3.org/2000/svg" xmlns:xlink="http://www.w3.org/1999/xlink" x="0px" y="0px"
	 viewBox="0 0 214.2 149.3" style="enable-background:new 0 0 214.2 149.3;" xml:space="preserve">
<style type="text/css">
	.st0{fill:#FFFFFF;}
</style>
<g>
	<path class="st0" d="M207.3,16.1C197.8,6,179.6,0,158.8,0c-31.6,0-56.4,13.7-56.4,31.2v2.9c-5.9,0.5-11.7,2.1-17.1,4.8
		c-8.2-2.6-17.6-3.8-29-3.8C24.8,35.2,0,48.9,0,66.4v51.2c0,17.5,24.8,31.2,56.4,31.2c11.3,0,20.9-1.3,29-3.9
		c13.9,5.8,29.5,5.8,43.3,0c10.7,3.5,20.3,4.7,29.2,3.9c31.6,0,56.3-13.7,56.3-31.2V33.3C214.5,27.1,212.2,21.2,207.3,16.1z
		 M52.4,84.3c-9.7-0.4-19.2-2.7-28.1-6.8c-7-3.5-11.9-8.9-11.9-13.1c0-3,1.1-7.7,10.9-13.1c10-4.5,21.4-6.8,34.1-6.8
		c5.2,0.1,10.4,0.5,15.6,1.2C61.4,55,53.9,69.1,52.4,84.3z M52.4,101.4c-10.9-0.3-21.1-2.7-29.2-6.8c-6.1-3-10.7-7.6-11.6-11.5
		C23.1,91.5,37,96,51.3,95.8C51.6,97.7,51.9,99.5,52.4,101.4z M58.4,118.5h-2c-12.7,0-24.3-2.3-34.2-6.8
		c-6.2-3.2-10.8-7.7-11.6-11.6c13,9,28.7,13.5,44.5,12.8L58.4,118.5z M56.4,129.9c3.5,0.1,6.9-0.1,10.3-0.8c1.8,1.8,3.7,3.6,5.8,5.1
		c-5.2,1.4-10.6,1.4-16,1.4l0,0c-12.7,0-24.3-2.3-34.2-6.8c-6.2-3-10.7-7.7-11.6-11.6C24,126.5,40.2,131,56.4,129.9z M193,78.5
		c-8.8,4.2-18.4,6.5-28.1,6.8c-0.2-2.2-0.7-4.4-1.3-6.5c14.4,0.2,28.4-4.2,41.2-13.1C204.6,69.9,199.8,75.1,193,78.5z M193,61.4
		c-9.8,4.5-21.1,6.8-33.6,6.9c-0.7-2-1.6-3.9-2.8-5.7h1.2c16.4,1,32.6-3.6,46.1-13v0.9h0.7C203.2,54.3,198.8,58.6,193,61.4L193,61.4
		z M193,44.4c-10,4.6-21.4,6.9-34.3,6.9c-3.6,0.1-7.2-0.1-10.8-0.9c-8.6-9.3-20.3-14.8-33.8-16.1c-0.3-0.9-0.4-1.8-0.3-2.7v-0.7
		c-0.8-4.5,2.9-8.7,10.9-12.7c10-4.6,21.4-6.9,34.2-6.9s24.3,2.3,34.2,6.7c7,3.5,11.9,8.9,11.9,13.1C204.8,35.5,199.9,40.9,193,44.4
		L193,44.4z M148.6,129.9c1.5,0.1,2.8,0.2,4.4,0.4c1.9,0.3,3.8,0.5,5.8,0.5c16.1,1,32.1-3.4,45.5-12.5c-1.5,3.6-5.7,7.6-11.2,10.3
		c-10,4.6-21.4,6.9-34.2,6.9c-5.1-0.1-10.1-0.5-15.1-1.2C145.4,132.9,147.1,131.5,148.6,129.9L148.6,129.9z M193,111.6
		c-10,4.6-21.4,6.9-34.2,6.9h-2.2c0.3-0.5,0.7-1.2,1-1.7c0.8-1.3,1.5-2.7,2.3-3.9c15.7,0.9,31.3-3.3,44.4-12
		C203,104.6,198.8,108.8,193,111.6L193,111.6z M192.9,94.6c-8.1,4-18.4,6.4-29.4,6.8c0.1-0.8,0.2-1.7,0.4-2.5
		c0.1-1.1,0.3-2.1,0.5-3.2c14.2-0.2,28-4.4,40-12.1C203.2,87.4,198.8,91.7,192.9,94.6L192.9,94.6z M147.9,68.4l0.1,0.1
		c2.5,4.1,3.7,9.5,3.7,15.9v6c0,4.9-1.4,9.1-3.2,14.2c-0.2,0.7-0.5,1.4-0.8,2.1c-5.2,10.3-12.1,17.5-21,22l-0.4,0.2l-0.3,0.3
		c-4.6,5.6-12.3,6.2-18.4,6.2l0,0c-11.3,0.1-22.3-4-30.7-11.5l-0.1-0.1c-4.1-3.3-8.1-8.6-11.4-15.2c-1.7-4.5-3.8-10.3-3.8-16.2v-7
		c1-22.2,19.1-40.8,42.1-42.8h5.8c9,1.1,16.1,3.4,21,6.6C137.9,53.8,143.9,60.5,147.9,68.4z"/>
	<path class="st0" d="M107.9,85.4c-9.1-2.4-12.3-4.7-12.3-8.6c-0.2-4.5,3.9-7.3,11-7.3c7.3,0,9.9,3.4,10.1,8.4h9.1
		c-0.2-7.5-5.7-13.8-13.1-15.1v-8.8h-12.5v8.6c-7.8,1.9-14.4,6.8-14.4,14.4c0,9.1,7.8,13.8,19.3,16.4c10.1,2.4,12.3,6,12.3,9.7
		c0,2.8-2.1,7.1-11.2,7.1c-8.4,0-12-3.7-12.3-8.4h-8.8c0.5,8.8,7.3,13.6,15.1,15.4v8.6h12.3V117c8.1-1.5,14.4-6,14.4-14
		C127.2,91.3,116.9,87.8,107.9,85.4z"/>
</g>
</svg>
