<?xml version="1.0" encoding="utf-8"?>
<!-- Generator: Adobe Illustrator 21.1.0, SVG Export Plug-In . SVG Version: 6.00 Build 0)  -->
<svg version="1.1" id="Layer_1" xmlns="http://www.w3.org/2000/svg" xmlns:xlink="http://www.w3.org/1999/xlink" x="0px" y="0px"
	 viewBox="0 0 29 23.5" style="enable-background:new 0 0 29 23.5;" xml:space="preserve">
<style type="text/css">
	.st0{fill:#6D6D6D;}
</style>
<g>
	<path class="st0" d="M28.4,21.3c-0.1,0-0.2-0.1-0.4-0.1h-3.3V6.5l0.4-0.4l0,1.1c0.1,0.6,0.6,1.1,1.2,1c0.6,0,1-0.5,1-1.1V3.3
		c0-0.5-0.5-1-1.1-1h-3.8c-0.6,0-1,0.5-1,1.1c0,0.6,0.5,1,1.1,1h1.2l-8,7.8l-4-4L11.5,8h-0.2c-0.1,0-0.2-0.1-0.4-0.1
		c-0.3,0-0.6,0.1-0.8,0.3L2.3,16V1C2.2,0.4,1.6-0.1,1,0C0.5,0,0,0.5,0,1.1v21.2c-0.1,0.6,0.4,1.2,1.1,1.3h26.9c0.5,0,1-0.4,1-0.9
		C29.1,22.1,28.9,21.5,28.4,21.3z M3.2,21.2h-1l0-2.9c0.1,0,0.1,0,0.2,0c0.3,0,0.5,0,0.8-0.2c0,0,0,0,0,0V21.2z M9.7,21.2H5.4v-5.3
		l4.3-4.2V21.2z M14.5,21.2H12v-9.5l2.5,2.5V21.2z M22.5,21.2h-5.7v-7l5.7-5.5V21.2z"/>
</g>
</svg>
