<svg xmlns="http://www.w3.org/2000/svg" viewBox="-273 -1975 120.001 120">
  <defs>
    <style>
      .cls-1 {
        fill: rgba(109,109,109,0.2);
      }

      .cls-2, .cls-3 {
        stroke: none;
      }

      .cls-3 {
        fill: #6d6d6d;
      }
    </style>
  </defs>
  <g id="Charge_icon" data-name="Charge icon" class="cls-1" transform="translate(-1420 -4675)">
    <path class="cls-2" d="M 1206.999877929688 2819.749755859375 C 1198.933471679688 2819.749755859375 1191.108642578125 2818.170166015625 1183.742553710938 2815.0546875 C 1176.62744140625 2812.045166015625 1170.237426757813 2807.737060546875 1164.750122070313 2802.249755859375 C 1159.262573242188 2796.761962890625 1154.954345703125 2790.372314453125 1151.945068359375 2783.2578125 C 1148.829467773438 2775.8916015625 1147.249633789063 2768.066650390625 1147.249633789063 2760.00048828125 C 1147.249633789063 2751.93408203125 1148.829467773438 2744.109130859375 1151.945068359375 2736.742919921875 C 1154.95458984375 2729.6279296875 1159.262817382813 2723.238037109375 1164.750122070313 2717.75048828125 C 1170.237915039063 2712.262939453125 1176.6279296875 2707.95458984375 1183.742553710938 2704.9453125 C 1191.108764648438 2701.829833984375 1198.93359375 2700.25 1206.999877929688 2700.25 C 1215.066162109375 2700.25 1222.890991210938 2701.829833984375 1230.257202148438 2704.9453125 C 1237.3720703125 2707.95458984375 1243.762084960938 2712.262939453125 1249.249755859375 2717.75048828125 C 1254.73681640625 2723.237548828125 1259.045166015625 2729.627685546875 1262.054931640625 2736.742919921875 C 1265.170532226563 2744.109130859375 1266.750244140625 2751.934326171875 1266.750244140625 2760.00048828125 C 1266.750244140625 2768.066650390625 1265.170532226563 2775.8916015625 1262.054931640625 2783.2578125 C 1259.045532226563 2790.372314453125 1254.7373046875 2796.761962890625 1249.249755859375 2802.249755859375 C 1243.761962890625 2807.737060546875 1237.371948242188 2812.04541015625 1230.257202148438 2815.0546875 C 1222.89111328125 2818.170166015625 1215.066284179688 2819.749755859375 1206.999877929688 2819.749755859375 Z M 1197.866455078125 2790.140869140625 C 1200.777465820313 2791.342529296875 1203.846435546875 2791.951904296875 1206.989135742188 2791.951904296875 C 1210.131958007813 2791.951904296875 1213.18994140625 2791.3427734375 1216.079956054688 2790.141357421875 C 1219.646484375 2791.2998046875 1222.9208984375 2791.863037109375 1226.087646484375 2791.863037109375 C 1226.845336914063 2791.863037109375 1227.605712890625 2791.829345703125 1228.347412109375 2791.762939453125 C 1234.799438476563 2791.76123046875 1240.804809570313 2790.401611328125 1245.257690429688 2787.93408203125 C 1249.759765625 2785.439208984375 1252.239135742188 2782.05517578125 1252.239135742188 2778.4052734375 L 1252.239135742188 2742.99560546875 C 1252.367553710938 2740.30615234375 1251.341186523438 2737.74560546875 1249.2705078125 2735.59033203125 C 1245.241455078125 2731.3076171875 1237.556274414063 2728.749755859375 1228.714233398438 2728.749755859375 C 1222.246704101563 2728.749755859375 1216.226806640625 2730.109619140625 1211.763671875 2732.57861328125 C 1207.253662109375 2735.073486328125 1204.769897460938 2738.45751953125 1204.769897460938 2742.107421875 L 1204.769897460938 2743.09765625 C 1202.336303710938 2743.331298828125 1199.998046875 2743.995361328125 1197.815185546875 2745.0732421875 C 1194.422119140625 2744.01220703125 1190.4423828125 2743.496337890625 1185.65283203125 2743.496337890625 C 1179.19580078125 2743.5166015625 1173.1865234375 2744.8916015625 1168.731079101563 2747.368408203125 C 1164.229248046875 2749.87109375 1161.749877929688 2753.25439453125 1161.749877929688 2756.895263671875 L 1161.749877929688 2778.4052734375 C 1161.749877929688 2782.05517578125 1164.233642578125 2785.439208984375 1168.74365234375 2787.93408203125 C 1173.206787109375 2790.403076171875 1179.226684570313 2791.762939453125 1185.694213867188 2791.762939453125 C 1190.444458007813 2791.762939453125 1194.427490234375 2791.232177734375 1197.866455078125 2790.140869140625 Z M 1185.736572265625 2785.718017578125 C 1180.410766601563 2785.718017578125 1175.612426757813 2784.7646484375 1171.47509765625 2782.88427734375 C 1169.358154296875 2781.85986328125 1167.652954101563 2780.31640625 1166.98095703125 2778.87109375 C 1171.939697265625 2782.158203125 1177.695678710938 2783.8916015625 1183.67724609375 2783.8916015625 C 1184.3505859375 2783.8916015625 1185.03076171875 2783.86865234375 1185.69921875 2783.823486328125 C 1185.930541992188 2783.830078125 1186.16259765625 2783.83349609375 1186.38916015625 2783.83349609375 C 1187.666015625 2783.83349609375 1188.829223632813 2783.72705078125 1189.939697265625 2783.508056640625 C 1190.536010742188 2784.101806640625 1191.178833007813 2784.71337890625 1191.8857421875 2785.263671875 C 1189.882568359375 2785.718017578125 1187.777465820313 2785.718017578125 1185.736572265625 2785.718017578125 Z M 1228.759033203125 2785.67578125 C 1226.804443359375 2785.63720703125 1224.912841796875 2785.496826171875 1222.994140625 2785.248046875 C 1223.5107421875 2784.801025390625 1224.04296875 2784.33935546875 1224.529907226563 2783.83056640625 C 1225.060180664063 2783.866455078125 1225.597290039063 2783.907958984375 1226.243041992188 2783.989013671875 C 1227.158203125 2784.13330078125 1227.941284179688 2784.20068359375 1228.706298828125 2784.201171875 C 1229.333374023438 2784.239990234375 1229.971801757813 2784.259765625 1230.603759765625 2784.259765625 C 1236.475830078125 2784.259765625 1242.168701171875 2782.602294921875 1247.133056640625 2779.4560546875 C 1246.29833984375 2780.6962890625 1244.803466796875 2781.923583984375 1243.01708984375 2782.801025390625 C 1238.8701171875 2784.708251953125 1234.072998046875 2785.675537109375 1228.759033203125 2785.67578125 Z M 1207.033447265625 2785.63427734375 C 1202.380249023438 2785.634033203125 1197.921875 2783.942138671875 1194.478759765625 2780.8701171875 L 1194.44140625 2780.8330078125 L 1194.432006835938 2780.823486328125 L 1194.421630859375 2780.815185546875 C 1192.703979492188 2779.43310546875 1191.0732421875 2777.2578125 1189.705444335938 2774.524169921875 C 1188.9072265625 2772.412353515625 1188.12939453125 2770.155029296875 1188.12939453125 2767.818603515625 L 1188.12939453125 2764.88330078125 C 1188.331298828125 2760.4267578125 1190.215454101563 2756.1640625 1193.435180664063 2752.880126953125 C 1196.66552734375 2749.58544921875 1200.977416992188 2747.549560546875 1205.5771484375 2747.147216796875 L 1207.9873046875 2747.147216796875 C 1211.625244140625 2747.593017578125 1214.634033203125 2748.537353515625 1216.688720703125 2749.87841796875 L 1216.69091796875 2749.880126953125 L 1216.693237304688 2749.881591796875 C 1219.734741210938 2751.773193359375 1222.23095703125 2754.5283203125 1223.911987304688 2757.848876953125 L 1223.930053710938 2757.884765625 L 1223.95849609375 2757.9130859375 L 1223.979370117188 2757.93408203125 C 1224.976318359375 2759.58203125 1225.481689453125 2761.77685546875 1225.481689453125 2764.4580078125 L 1225.481689453125 2766.97802734375 C 1225.481689453125 2768.943115234375 1224.930297851563 2770.65576171875 1224.1513671875 2772.86083984375 L 1224.148803710938 2772.8681640625 L 1224.146606445313 2772.875732421875 C 1224.067993164063 2773.152099609375 1223.945190429688 2773.439208984375 1223.826293945313 2773.716796875 C 1221.669799804688 2777.986572265625 1218.820556640625 2780.972900390625 1215.115844726563 2782.845947265625 L 1214.948974609375 2782.928955078125 L 1214.912353515625 2782.947265625 L 1214.883544921875 2782.97607421875 L 1214.757568359375 2783.10205078125 L 1214.748901367188 2783.110595703125 L 1214.741088867188 2783.1201171875 C 1212.921997070313 2785.3349609375 1209.910400390625 2785.633544921875 1207.204223632813 2785.633544921875 C 1207.145751953125 2785.634033203125 1207.089721679688 2785.63427734375 1207.033447265625 2785.63427734375 L 1207.033447265625 2785.63427734375 Z M 1203.845581054688 2778.435302734375 L 1203.845581054688 2781.8505859375 L 1203.845581054688 2782.1005859375 L 1204.095581054688 2782.1005859375 L 1209.263427734375 2782.1005859375 L 1209.513427734375 2782.1005859375 L 1209.513427734375 2781.8505859375 L 1209.513427734375 2778.359619140625 C 1213.3603515625 2777.58642578125 1215.561645507813 2775.377197265625 1215.563232421875 2772.275390625 C 1215.621337890625 2769.979248046875 1214.760986328125 2768.223388671875 1212.933227539063 2766.906982421875 C 1211.395141601563 2765.79931640625 1209.3623046875 2765.160888671875 1207.394653320313 2764.635986328125 C 1203.716674804688 2763.665771484375 1202.413330078125 2762.78369140625 1202.413330078125 2761.264892578125 L 1202.413330078125 2761.25927734375 L 1202.4130859375 2761.253662109375 C 1202.384155273438 2760.60546875 1202.585571289063 2760.05078125 1203.01171875 2759.605224609375 C 1203.735717773438 2758.847900390625 1205.040405273438 2758.44775390625 1206.784790039063 2758.44775390625 C 1209.419555664063 2758.44775390625 1210.688232421875 2759.49267578125 1210.777709960938 2761.736572265625 L 1210.787231445313 2761.9765625 L 1211.027465820313 2761.9765625 L 1214.8505859375 2761.9765625 L 1215.107299804688 2761.9765625 L 1215.100463867188 2761.719970703125 C 1215.016235351563 2758.541748046875 1212.715209960938 2755.822509765625 1209.59716796875 2755.1767578125 L 1209.59716796875 2751.686279296875 L 1209.59716796875 2751.436279296875 L 1209.34716796875 2751.436279296875 L 1204.095581054688 2751.436279296875 L 1203.845581054688 2751.436279296875 L 1203.845581054688 2751.686279296875 L 1203.845581054688 2755.103759765625 C 1200.052734375 2756.085205078125 1197.795776367188 2758.409423828125 1197.795776367188 2761.3486328125 C 1197.795776367188 2763.263427734375 1198.560791015625 2764.789794921875 1200.134643554688 2766.01513671875 C 1201.497314453125 2767.076416015625 1203.4482421875 2767.883544921875 1206.098754882813 2768.48291015625 C 1210.506225585938 2769.530029296875 1211.07177734375 2771.08056640625 1211.07177734375 2772.314208984375 C 1211.07177734375 2772.69873046875 1210.963745117188 2773.4365234375 1210.240112304688 2774.056884765625 C 1209.473876953125 2774.7138671875 1208.254638671875 2775.046875 1206.616577148438 2775.046875 C 1205.004028320313 2775.046875 1203.75634765625 2774.719482421875 1202.907958984375 2774.07373046875 C 1202.178100585938 2773.5185546875 1201.759765625 2772.7158203125 1201.6982421875 2771.751953125 L 1201.683227539063 2771.517822265625 L 1201.44873046875 2771.517822265625 L 1197.751586914063 2771.517822265625 L 1197.486938476563 2771.517822265625 L 1197.501953125 2771.78173828125 C 1197.689208984375 2775.069091796875 1199.997680664063 2777.485595703125 1203.845581054688 2778.435302734375 Z M 1228.714233398438 2778.533447265625 L 1228.227172851563 2778.533447265625 C 1228.296264648438 2778.4150390625 1228.365112304688 2778.297119140625 1228.424560546875 2778.1982421875 C 1228.568359375 2777.96484375 1228.706176757813 2777.720703125 1228.839477539063 2777.484619140625 C 1228.991455078125 2777.21533203125 1229.146606445313 2776.9404296875 1229.307373046875 2776.688232421875 C 1229.845703125 2776.716552734375 1230.39111328125 2776.73095703125 1230.930908203125 2776.73095703125 C 1236.729248046875 2776.73095703125 1242.348022460938 2775.121826171875 1247.237182617188 2772.0693359375 C 1246.459350585938 2773.40380859375 1244.901977539063 2774.729248046875 1242.974243164063 2775.66015625 C 1238.830078125 2777.566162109375 1234.031005859375 2778.533447265625 1228.714233398438 2778.533447265625 Z M 1186.097412109375 2778.533447265625 L 1185.694213867188 2778.533447265625 C 1180.368530273438 2778.533447265625 1175.5712890625 2777.58056640625 1171.435913085938 2775.701904296875 C 1169.235229492188 2774.56494140625 1167.55419921875 2773.04638671875 1166.922973632813 2771.671875 C 1171.9375 2774.970703125 1177.757080078125 2776.71044921875 1183.801513671875 2776.71044921875 C 1184.203002929688 2776.71044921875 1184.608642578125 2776.702392578125 1185.009521484375 2776.686767578125 L 1186.097412109375 2778.533447265625 Z M 1183.690795898438 2771.339111328125 C 1179.271484375 2771.1767578125 1175.186767578125 2770.204345703125 1171.85986328125 2768.519775390625 C 1169.754638671875 2767.48486328125 1168.061645507813 2765.97412109375 1167.379516601563 2764.577392578125 C 1172.06005859375 2767.800537109375 1177.502197265625 2769.499755859375 1183.170532226563 2769.499755859375 C 1183.226806640625 2769.499755859375 1183.282958984375 2769.49951171875 1183.339111328125 2769.499267578125 C 1183.43994140625 2770.12939453125 1183.542602539063 2770.720947265625 1183.690795898438 2771.339111328125 Z M 1230.973754882813 2771.337890625 C 1231.005249023438 2771.093994140625 1231.043212890625 2770.8369140625 1231.099731445313 2770.609619140625 L 1231.104370117188 2770.591064453125 L 1231.106201171875 2770.572021484375 C 1231.140991210938 2770.189453125 1231.206420898438 2769.83056640625 1231.27587890625 2769.450927734375 C 1236.9267578125 2769.3349609375 1242.45361328125 2767.71728515625 1247.322143554688 2764.759521484375 C 1246.57470703125 2766.115234375 1244.940185546875 2767.530517578125 1242.930053710938 2768.5185546875 C 1239.640380859375 2770.14306640625 1235.40478515625 2771.140625 1230.973754882813 2771.337890625 Z M 1231.502197265625 2764.578125 C 1231.425537109375 2763.903076171875 1231.280151367188 2763.171875 1231.060668945313 2762.358154296875 C 1231.082885742188 2762.358154296875 1231.104125976563 2762.358154296875 1231.124267578125 2762.358154296875 C 1236.964599609375 2762.358154296875 1242.540161132813 2760.600830078125 1247.70458984375 2757.134033203125 C 1247.29345703125 2758.70654296875 1245.478881835938 2760.5009765625 1242.970947265625 2761.755859375 C 1239.4228515625 2763.44873046875 1235.460815429688 2764.42333984375 1231.502197265625 2764.578125 Z M 1183.78955078125 2764.155517578125 C 1179.82177734375 2763.961669921875 1175.963623046875 2763.012939453125 1172.31689453125 2761.333740234375 C 1170.921630859375 2760.635498046875 1169.669189453125 2759.718017578125 1168.7900390625 2758.750244140625 C 1167.931762695313 2757.805419921875 1167.459106445313 2756.848388671875 1167.459106445313 2756.0556640625 C 1167.459106445313 2754.84033203125 1167.919677734375 2752.971435546875 1171.900146484375 2750.776123046875 C 1176.078369140625 2748.897216796875 1180.860717773438 2747.944580078125 1186.114501953125 2747.944580078125 C 1188.0849609375 2747.98291015625 1190.084716796875 2748.126953125 1192.063842773438 2748.373291015625 C 1187.456787109375 2752.2666015625 1184.459716796875 2757.974853515625 1183.78955078125 2764.155517578125 Z M 1229.141723632813 2757.44189453125 C 1228.890258789063 2756.753662109375 1228.594604492188 2756.1298828125 1228.244506835938 2755.548828125 L 1228.287109375 2755.548828125 C 1228.904174804688 2755.58642578125 1229.530883789063 2755.60546875 1230.149780273438 2755.60546875 C 1236.315673828125 2755.60546875 1242.273681640625 2753.776611328125 1247.411987304688 2750.31201171875 L 1247.411987304688 2750.465576171875 L 1247.579711914063 2750.465576171875 C 1246.872802734375 2751.958251953125 1245.11181640625 2753.53759765625 1242.974243164063 2754.569580078125 C 1238.958251953125 2756.41357421875 1234.303588867188 2757.38037109375 1229.141723632813 2757.44189453125 Z M 1227.97607421875 2750.31201171875 C 1226.617065429688 2750.31201171875 1225.402099609375 2750.1923828125 1224.265014648438 2749.946533203125 C 1220.679931640625 2746.09765625 1215.7958984375 2743.759521484375 1210.126586914063 2743.177490234375 C 1210.048828125 2742.887451171875 1210.025512695313 2742.593994140625 1210.057373046875 2742.302978515625 L 1210.058837890625 2742.28955078125 L 1210.058837890625 2742.27587890625 L 1210.058837890625 2741.9814453125 L 1210.058837890625 2741.95947265625 L 1210.054931640625 2741.937744140625 C 1209.742919921875 2740.179931640625 1211.195922851563 2738.522705078125 1214.4970703125 2736.87158203125 C 1218.643798828125 2734.96435546875 1223.44140625 2733.997314453125 1228.756469726563 2733.997314453125 C 1234.05078125 2733.997314453125 1238.848876953125 2734.936279296875 1243.017333984375 2736.787841796875 C 1244.412109375 2737.48583984375 1245.663940429688 2738.40283203125 1246.542724609375 2739.370361328125 C 1247.399047851563 2740.312744140625 1247.871459960938 2741.267578125 1247.873657226563 2742.0595703125 C 1247.789428710938 2743.825927734375 1245.821899414063 2745.982177734375 1242.973999023438 2747.42822265625 C 1238.825317382813 2749.335205078125 1234.013549804688 2750.30224609375 1228.6728515625 2750.30224609375 L 1228.66943359375 2750.30224609375 L 1228.666015625 2750.30224609375 C 1228.430053710938 2750.308837890625 1228.197875976563 2750.31201171875 1227.97607421875 2750.31201171875 Z"/>
    <path class="cls-3" d="M 1206.999877929688 2819.499755859375 C 1215.032592773438 2819.499755859375 1222.82470703125 2817.9267578125 1230.159790039063 2814.824462890625 C 1237.244750976563 2811.82763671875 1243.608032226563 2807.53759765625 1249.072998046875 2802.072998046875 C 1254.53759765625 2796.608154296875 1258.827880859375 2790.2451171875 1261.82470703125 2783.160400390625 C 1264.927124023438 2775.8251953125 1266.500244140625 2768.032958984375 1266.500244140625 2760.00048828125 C 1266.500244140625 2751.9677734375 1264.927124023438 2744.175537109375 1261.82470703125 2736.84033203125 C 1258.827514648438 2729.7548828125 1254.537231445313 2723.3916015625 1249.072998046875 2717.92724609375 C 1243.608154296875 2712.462646484375 1237.244873046875 2708.17236328125 1230.159790039063 2705.175537109375 C 1222.824584960938 2702.072998046875 1215.032470703125 2700.5 1206.999877929688 2700.5 C 1198.96728515625 2700.5 1191.175170898438 2702.072998046875 1183.839965820313 2705.175537109375 C 1176.755004882813 2708.172119140625 1170.391845703125 2712.46240234375 1164.926879882813 2717.92724609375 C 1159.462524414063 2723.391845703125 1155.172241210938 2729.755126953125 1152.17529296875 2736.84033203125 C 1149.07275390625 2744.175537109375 1147.499633789063 2751.9677734375 1147.499633789063 2760.00048828125 C 1147.499633789063 2768.032958984375 1149.07275390625 2775.8251953125 1152.17529296875 2783.160400390625 C 1155.171997070313 2790.2451171875 1159.462158203125 2796.608154296875 1164.926879882813 2802.072998046875 C 1170.391357421875 2807.537353515625 1176.754516601563 2811.82763671875 1183.839965820313 2814.824462890625 C 1191.175048828125 2817.9267578125 1198.967163085938 2819.499755859375 1206.999877929688 2819.499755859375 M 1197.855224609375 2790.406494140625 C 1194.411376953125 2791.4873046875 1190.430908203125 2792.012939453125 1185.694213867188 2792.012939453125 C 1179.18505859375 2792.012939453125 1173.122192382813 2790.64208984375 1168.62255859375 2788.15283203125 C 1164.029418945313 2785.612060546875 1161.499877929688 2782.150146484375 1161.499877929688 2778.4052734375 L 1161.499877929688 2756.895263671875 C 1161.499877929688 2753.15966796875 1164.02490234375 2749.69873046875 1168.609619140625 2747.14990234375 C 1173.101318359375 2744.653076171875 1179.153442382813 2743.2666015625 1185.65283203125 2743.246337890625 C 1190.42333984375 2743.246337890625 1194.397705078125 2743.75634765625 1197.794311523438 2744.80517578125 C 1199.911010742188 2743.772705078125 1202.170532226563 2743.123291015625 1204.519897460938 2742.871826171875 L 1204.519897460938 2742.107421875 C 1204.519897460938 2738.362548828125 1207.049438476563 2734.900634765625 1211.642578125 2732.35986328125 C 1216.142211914063 2729.87060546875 1222.205078125 2728.499755859375 1228.714233398438 2728.499755859375 C 1237.622802734375 2728.499755859375 1245.375122070313 2731.086181640625 1249.45263671875 2735.4189453125 C 1251.569213867188 2737.623291015625 1252.619140625 2740.244873046875 1252.489135742188 2743.00146484375 L 1252.489135742188 2778.4052734375 C 1252.489135742188 2782.150146484375 1249.963989257813 2785.61181640625 1245.378784179688 2788.15283203125 C 1240.89208984375 2790.63916015625 1234.84814453125 2792.009765625 1228.358520507813 2792.012939453125 C 1227.612915039063 2792.079345703125 1226.848999023438 2792.113037109375 1226.087646484375 2792.113037109375 C 1222.92041015625 2792.113037109375 1219.648193359375 2791.554931640625 1216.090576171875 2790.40771484375 C 1213.195068359375 2791.598388671875 1210.134155273438 2792.201904296875 1206.989135742188 2792.201904296875 C 1203.843627929688 2792.201904296875 1200.771728515625 2791.59814453125 1197.855224609375 2790.406494140625 M 1185.736572265625 2785.468017578125 C 1187.588989257813 2785.468017578125 1189.494384765625 2785.468017578125 1191.317504882813 2785.1259765625 C 1190.797729492188 2784.69091796875 1190.313842773438 2784.23046875 1189.857299804688 2783.778564453125 C 1188.770263671875 2783.983642578125 1187.632568359375 2784.08349609375 1186.38916015625 2784.08349609375 C 1186.1640625 2784.08349609375 1185.933715820313 2784.080322265625 1185.7041015625 2784.07373046875 C 1185.033935546875 2784.11865234375 1184.352172851563 2784.1416015625 1183.67724609375 2784.1416015625 C 1178.011962890625 2784.1416015625 1172.547607421875 2782.599609375 1167.761596679688 2779.665283203125 C 1168.59619140625 2780.775390625 1169.981567382813 2781.88330078125 1171.581176757813 2782.657958984375 C 1175.685180664063 2784.5224609375 1180.447631835938 2785.468017578125 1185.736572265625 2785.468017578125 M 1228.76171875 2785.42578125 C 1234.036987304688 2785.42529296875 1238.796630859375 2784.466064453125 1242.909301757813 2782.575439453125 C 1244.108642578125 2781.986083984375 1245.171752929688 2781.23876953125 1245.982055664063 2780.439453125 C 1241.290649414063 2783.109375 1236.022827148438 2784.509765625 1230.603759765625 2784.509765625 C 1229.96923828125 2784.509765625 1229.328369140625 2784.489990234375 1228.698608398438 2784.451171875 C 1227.923706054688 2784.4501953125 1227.131469726563 2784.382080078125 1226.207763671875 2784.236572265625 C 1225.617065429688 2784.16259765625 1225.117065429688 2784.121826171875 1224.628784179688 2784.087890625 C 1224.291259765625 2784.433837890625 1223.935913085938 2784.757080078125 1223.580688476563 2785.069091796875 C 1225.300537109375 2785.27392578125 1227.005615234375 2785.390869140625 1228.76171875 2785.42578125 M 1207.033447265625 2785.38427734375 L 1207.033447265625 2785.38427734375 C 1207.088989257813 2785.38427734375 1207.144287109375 2785.384033203125 1207.204223632813 2785.383544921875 C 1209.851928710938 2785.383544921875 1212.794921875 2785.095703125 1214.547973632813 2782.96142578125 L 1214.5634765625 2782.942626953125 L 1214.580810546875 2782.92529296875 L 1214.706787109375 2782.79931640625 L 1214.764526367188 2782.741455078125 L 1214.837646484375 2782.705078125 L 1215.003051757813 2782.622802734375 C 1218.656372070313 2780.775634765625 1221.468383789063 2777.827880859375 1223.599487304688 2773.611328125 C 1223.714477539063 2773.343017578125 1223.83251953125 2773.06591796875 1223.90625 2772.80712890625 L 1223.910522460938 2772.792236328125 L 1223.915649414063 2772.777587890625 C 1224.686279296875 2770.59619140625 1225.231689453125 2768.903564453125 1225.231689453125 2766.97802734375 L 1225.231689453125 2764.4580078125 C 1225.231689453125 2761.837158203125 1224.74365234375 2759.69482421875 1223.781127929688 2758.08935546875 L 1223.72509765625 2758.033447265625 L 1223.68896484375 2757.9619140625 C 1222.028564453125 2754.681884765625 1219.563842773438 2751.961181640625 1216.561279296875 2750.09375 L 1216.556640625 2750.0908203125 L 1216.552001953125 2750.087890625 C 1214.531982421875 2748.76953125 1211.5654296875 2747.839111328125 1207.972045898438 2747.397216796875 L 1205.588134765625 2747.397216796875 C 1201.0517578125 2747.796630859375 1196.7998046875 2749.805419921875 1193.61376953125 2753.05517578125 C 1190.4384765625 2756.293701171875 1188.579956054688 2760.495849609375 1188.37939453125 2764.888671875 L 1188.37939453125 2767.818603515625 C 1188.37939453125 2770.108642578125 1189.146362304688 2772.3369140625 1189.934692382813 2774.423828125 C 1191.285400390625 2777.1201171875 1192.890869140625 2779.2626953125 1194.578369140625 2780.620361328125 L 1194.59912109375 2780.63720703125 L 1194.617919921875 2780.656005859375 L 1194.650512695313 2780.6884765625 C 1198.046997070313 2783.71630859375 1202.444213867188 2785.384033203125 1207.033447265625 2785.38427734375 M 1203.595581054688 2778.629638671875 C 1199.74755859375 2777.619873046875 1197.443237304688 2775.146240234375 1197.25244140625 2771.7958984375 L 1197.251586914063 2771.78173828125 L 1197.251586914063 2771.767578125 L 1197.751586914063 2771.767578125 L 1197.751586914063 2771.267822265625 L 1201.44873046875 2771.267822265625 L 1201.917846679688 2771.267822265625 L 1201.94775390625 2771.73583984375 C 1202.004516601563 2772.625244140625 1202.388916015625 2773.36474609375 1203.059448242188 2773.874755859375 C 1203.863159179688 2774.486572265625 1205.06005859375 2774.796875 1206.616577148438 2774.796875 C 1208.193359375 2774.796875 1209.357666015625 2774.484130859375 1210.077392578125 2773.866943359375 C 1210.72509765625 2773.311767578125 1210.82177734375 2772.65576171875 1210.82177734375 2772.314208984375 C 1210.82177734375 2771.82275390625 1210.739990234375 2771.177001953125 1210.1025390625 2770.541748046875 C 1209.359375 2769.801025390625 1207.993041992188 2769.190185546875 1206.041259765625 2768.72607421875 C 1203.355224609375 2768.11865234375 1201.372924804688 2767.29638671875 1199.981079101563 2766.21240234375 C 1198.342407226563 2764.9365234375 1197.545776367188 2763.345703125 1197.545776367188 2761.3486328125 C 1197.545776367188 2758.3369140625 1199.798461914063 2755.951416015625 1203.595581054688 2754.91162109375 L 1203.595581054688 2751.686279296875 L 1203.595581054688 2751.186279296875 L 1204.095581054688 2751.186279296875 L 1209.34716796875 2751.186279296875 L 1209.84716796875 2751.186279296875 L 1209.84716796875 2751.686279296875 L 1209.84716796875 2754.97607421875 C 1212.976196289063 2755.718017578125 1215.264892578125 2758.487548828125 1215.350463867188 2761.71337890625 L 1215.364013671875 2762.2265625 L 1214.8505859375 2762.2265625 L 1211.027465820313 2762.2265625 L 1210.546997070313 2762.2265625 L 1210.52783203125 2761.74658203125 C 1210.486083984375 2760.69775390625 1210.177978515625 2759.948486328125 1209.586059570313 2759.4560546875 C 1208.98095703125 2758.952880859375 1208.03857421875 2758.69775390625 1206.784790039063 2758.69775390625 C 1205.1103515625 2758.69775390625 1203.8681640625 2759.0712890625 1203.1923828125 2759.778076171875 C 1202.809936523438 2760.177734375 1202.63671875 2760.656982421875 1202.662841796875 2761.24267578125 L 1202.663330078125 2761.253662109375 L 1202.663330078125 2761.264892578125 C 1202.663330078125 2762.44580078125 1203.447875976563 2763.33642578125 1207.459106445313 2764.394287109375 C 1209.449829101563 2764.925537109375 1211.508422851563 2765.572998046875 1213.079345703125 2766.7041015625 C 1214.978271484375 2768.071533203125 1215.872680664063 2769.89501953125 1215.813232421875 2772.2783203125 C 1215.810424804688 2775.45458984375 1213.612670898438 2777.72802734375 1209.763427734375 2778.562744140625 L 1209.763427734375 2781.8505859375 L 1209.763427734375 2782.3505859375 L 1209.263427734375 2782.3505859375 L 1204.095581054688 2782.3505859375 L 1203.595581054688 2782.3505859375 L 1203.595581054688 2781.8505859375 L 1203.595581054688 2778.629638671875 M 1228.714233398438 2778.283447265625 C 1233.99267578125 2778.283447265625 1238.75537109375 2777.324462890625 1242.86962890625 2775.43310546875 C 1244.28076171875 2774.7509765625 1245.486450195313 2773.857177734375 1246.31787109375 2772.90966796875 C 1241.64208984375 2775.5791015625 1236.364868164063 2776.98095703125 1230.930908203125 2776.98095703125 C 1230.435913085938 2776.98095703125 1229.936157226563 2776.968994140625 1229.441528320313 2776.9453125 C 1229.310913085938 2777.157958984375 1229.182983398438 2777.384521484375 1229.057250976563 2777.607666015625 C 1228.931762695313 2777.82958984375 1228.802490234375 2778.058837890625 1228.66552734375 2778.283447265625 L 1228.714233398438 2778.283447265625 M 1185.659912109375 2778.283447265625 L 1184.869750976563 2776.942138671875 C 1184.514526367188 2776.954345703125 1184.156372070313 2776.96044921875 1183.801513671875 2776.96044921875 C 1178.075073242188 2776.96044921875 1172.548461914063 2775.4111328125 1167.707641601563 2772.464599609375 C 1168.523193359375 2773.52734375 1169.897094726563 2774.62451171875 1171.545043945313 2775.476806640625 C 1175.6376953125 2777.335205078125 1180.385986328125 2778.279296875 1185.659912109375 2778.283447265625 M 1183.373901367188 2771.075927734375 C 1183.27685546875 2770.633056640625 1183.199951171875 2770.199462890625 1183.126342773438 2769.749755859375 C 1177.8251953125 2769.74169921875 1172.7216796875 2768.26025390625 1168.245849609375 2765.44677734375 C 1169.0888671875 2766.4921875 1170.427856445313 2767.537353515625 1171.967529296875 2768.294189453125 L 1171.97021484375 2768.29541015625 L 1171.972778320313 2768.296875 C 1175.18603515625 2769.923583984375 1179.115600585938 2770.880126953125 1183.373901367188 2771.075927734375 M 1231.263549804688 2771.073486328125 C 1235.551147460938 2770.846923828125 1239.634521484375 2769.8671875 1242.81982421875 2768.294189453125 C 1244.308227539063 2767.5625 1245.610229492188 2766.565185546875 1246.462036132813 2765.55126953125 C 1241.862426757813 2768.131103515625 1236.729736328125 2769.55517578125 1231.4853515625 2769.696044921875 C 1231.43115234375 2769.997802734375 1231.382934570313 2770.290283203125 1231.355102539063 2770.5947265625 L 1231.351684570313 2770.6328125 L 1231.342407226563 2770.670166015625 C 1231.31103515625 2770.796142578125 1231.285522460938 2770.93359375 1231.263549804688 2771.073486328125 M 1231.722045898438 2764.318359375 C 1235.56884765625 2764.136962890625 1239.411499023438 2763.17626953125 1242.863647460938 2761.530029296875 C 1244.900512695313 2760.510009765625 1246.5 2759.089111328125 1247.182861328125 2757.774658203125 C 1242.239868164063 2760.933837890625 1236.932739257813 2762.557861328125 1231.384155273438 2762.60693359375 C 1231.538940429688 2763.21923828125 1231.650756835938 2763.785888671875 1231.722045898438 2764.318359375 M 1183.567626953125 2763.893310546875 C 1184.271484375 2757.93359375 1187.1181640625 2752.425048828125 1191.47314453125 2748.554443359375 C 1189.687377929688 2748.35009765625 1187.88818359375 2748.229248046875 1186.109497070313 2748.194580078125 C 1180.897094726563 2748.195068359375 1176.154418945313 2749.138916015625 1172.011962890625 2751 C 1168.15576171875 2753.129150390625 1167.709106445313 2754.90478515625 1167.709106445313 2756.0556640625 C 1167.709106445313 2757.615478515625 1169.692138671875 2759.739501953125 1172.42529296875 2761.1083984375 C 1175.969604492188 2762.739990234375 1179.7158203125 2763.676025390625 1183.567626953125 2763.893310546875 M 1229.314208984375 2757.189453125 C 1234.369384765625 2757.10888671875 1238.928588867188 2756.1513671875 1242.870483398438 2754.342041015625 C 1244.739624023438 2753.4384765625 1246.31005859375 2752.115234375 1247.106811523438 2750.81396484375 C 1242.029418945313 2754.11572265625 1236.188598632813 2755.85546875 1230.149780273438 2755.85546875 C 1229.66455078125 2755.85546875 1229.174682617188 2755.84375 1228.688232421875 2755.82080078125 C 1228.921875 2756.250732421875 1229.129272460938 2756.704345703125 1229.314208984375 2757.189453125 M 1227.97607421875 2750.06201171875 C 1228.195556640625 2750.06201171875 1228.425415039063 2750.058837890625 1228.659301757813 2750.052490234375 L 1228.666015625 2750.05224609375 L 1228.6728515625 2750.05224609375 C 1233.975341796875 2750.05224609375 1238.750244140625 2749.093505859375 1242.864990234375 2747.203125 C 1245.586547851563 2745.820068359375 1247.540405273438 2743.705322265625 1247.623657226563 2742.053955078125 C 1247.614013671875 2740.495361328125 1245.635498046875 2738.379150390625 1242.91064453125 2737.01416015625 C 1238.775634765625 2735.17822265625 1234.013427734375 2734.247314453125 1228.756469726563 2734.247314453125 C 1223.479248046875 2734.247314453125 1218.718383789063 2735.2060546875 1214.605590820313 2737.096923828125 C 1211.419189453125 2738.691162109375 1210.011108398438 2740.260498046875 1210.301147460938 2741.89404296875 L 1210.308837890625 2741.9375 L 1210.308837890625 2741.9814453125 L 1210.308837890625 2742.27587890625 L 1210.308837890625 2742.30322265625 L 1210.305908203125 2742.330322265625 C 1210.283447265625 2742.53515625 1210.291748046875 2742.741943359375 1210.330444335938 2742.94775390625 C 1215.95654296875 2743.5634765625 1220.81005859375 2745.8994140625 1224.393920898438 2749.718505859375 C 1225.49169921875 2749.949462890625 1226.665405273438 2750.06201171875 1227.97607421875 2750.06201171875 M 1206.999877929688 2819.999755859375 C 1198.900146484375 2819.999755859375 1191.04248046875 2818.41357421875 1183.645141601563 2815.284912109375 C 1176.500366210938 2812.262939453125 1170.083618164063 2807.936767578125 1164.573364257813 2802.426513671875 C 1159.06298828125 2796.916015625 1154.736694335938 2790.49951171875 1151.71484375 2783.355224609375 C 1148.586059570313 2775.9580078125 1146.999633789063 2768.100341796875 1146.999633789063 2760.00048828125 C 1146.999633789063 2751.900390625 1148.586059570313 2744.042724609375 1151.71484375 2736.6455078125 C 1154.736938476563 2729.500732421875 1159.063232421875 2723.083984375 1164.573364257813 2717.57373046875 C 1170.083740234375 2712.0634765625 1176.500366210938 2707.737060546875 1183.645141601563 2704.715087890625 C 1191.042236328125 2701.58642578125 1198.900024414063 2700 1206.999877929688 2700 C 1215.099731445313 2700 1222.95751953125 2701.58642578125 1230.354614257813 2704.715087890625 C 1237.499389648438 2707.737060546875 1243.916137695313 2712.0634765625 1249.426513671875 2717.57373046875 C 1254.936767578125 2723.083984375 1259.262939453125 2729.500732421875 1262.28515625 2736.6455078125 C 1265.413818359375 2744.042724609375 1267.000244140625 2751.900634765625 1267.000244140625 2760.00048828125 C 1267.000244140625 2768.100341796875 1265.413818359375 2775.9580078125 1262.28515625 2783.355224609375 C 1259.26318359375 2790.49951171875 1254.936889648438 2796.916015625 1249.426513671875 2802.426513671875 C 1243.915893554688 2807.936767578125 1237.499267578125 2812.262939453125 1230.354614257813 2815.284912109375 C 1222.957275390625 2818.41357421875 1215.099609375 2819.999755859375 1206.999877929688 2819.999755859375 Z M 1197.877319335938 2789.875 L 1197.877563476563 2789.875 L 1197.8779296875 2789.875 C 1200.783325195313 2791.087158203125 1203.848754882813 2791.701904296875 1206.989135742188 2791.701904296875 C 1210.130004882813 2791.701904296875 1213.184936523438 2791.087158203125 1216.069213867188 2789.875 C 1219.644287109375 2791.04443359375 1222.921142578125 2791.613037109375 1226.087646484375 2791.613037109375 C 1226.841796875 2791.613037109375 1227.598266601563 2791.579345703125 1228.336181640625 2791.512939453125 C 1241.599609375 2791.512939453125 1251.989135742188 2785.75537109375 1251.989135742188 2778.4052734375 L 1251.989135742188 2742.989501953125 C 1252.115966796875 2740.368408203125 1251.113525390625 2737.86962890625 1249.090209960938 2735.763427734375 C 1245.105834960938 2731.5283203125 1237.488647460938 2728.999755859375 1228.714233398438 2728.999755859375 C 1215.427734375 2728.999755859375 1205.019897460938 2734.75732421875 1205.019897460938 2742.107421875 L 1205.019897460938 2743.326171875 C 1202.502685546875 2743.539306640625 1200.0859375 2744.217041015625 1197.836181640625 2745.342041015625 C 1194.447021484375 2744.268310546875 1190.462036132813 2743.746337890625 1185.65283203125 2743.746337890625 C 1172.389526367188 2743.787841796875 1161.999877929688 2749.5634765625 1161.999877929688 2756.895263671875 L 1161.999877929688 2778.4052734375 C 1161.999877929688 2785.75537109375 1172.40771484375 2791.512939453125 1185.694213867188 2791.512939453125 C 1190.458862304688 2791.512939453125 1194.443969726563 2790.97705078125 1197.877319335938 2789.875 Z M 1185.736572265625 2785.968017578125 C 1180.373413085938 2785.968017578125 1175.539428710938 2785.006591796875 1171.368896484375 2783.110595703125 C 1168.8447265625 2781.889892578125 1166.88623046875 2779.931884765625 1166.495483398438 2778.238037109375 C 1171.550659179688 2781.772705078125 1177.491455078125 2783.6416015625 1183.67724609375 2783.6416015625 C 1184.348266601563 2783.6416015625 1185.026977539063 2783.61865234375 1185.6943359375 2783.5732421875 C 1185.928344726563 2783.580078125 1186.162109375 2783.58349609375 1186.38916015625 2783.58349609375 C 1187.699951171875 2783.58349609375 1188.888061523438 2783.469970703125 1190.021484375 2783.236572265625 C 1190.753173828125 2783.96826171875 1191.554077148438 2784.734130859375 1192.458618164063 2785.37939453125 C 1190.2734375 2785.968017578125 1187.967041015625 2785.968017578125 1185.736572265625 2785.968017578125 Z M 1228.756469726563 2785.92578125 C 1226.605834960938 2785.88330078125 1224.530639648438 2785.718505859375 1222.412475585938 2785.421875 C 1222.54150390625 2785.308837890625 1222.672119140625 2785.196044921875 1222.803344726563 2785.08251953125 C 1223.354125976563 2784.60595703125 1223.921020507813 2784.11572265625 1224.429321289063 2783.5732421875 C 1225.007202148438 2783.61181640625 1225.582763671875 2783.654052734375 1226.277954101563 2783.741455078125 C 1227.184692382813 2783.884521484375 1227.958862304688 2783.951171875 1228.714233398438 2783.951171875 C 1229.337524414063 2783.989990234375 1229.97314453125 2784.009765625 1230.603759765625 2784.009765625 C 1236.758422851563 2784.009765625 1242.715209960938 2782.173583984375 1247.830200195313 2778.69970703125 C 1247.17724609375 2780.265625 1245.373413085938 2781.923095703125 1243.124145507813 2783.02685546875 C 1238.94287109375 2784.950439453125 1234.109008789063 2785.92578125 1228.756469726563 2785.92578125 Z M 1207.033447265625 2785.88427734375 C 1202.316528320313 2785.884033203125 1197.796875 2784.16796875 1194.307250976563 2781.05224609375 L 1194.264892578125 2781.010009765625 C 1192.517211914063 2779.603759765625 1190.861206054688 2777.395751953125 1189.47607421875 2774.62451171875 C 1188.668090820313 2772.4873046875 1187.87939453125 2770.201416015625 1187.87939453125 2767.818603515625 L 1187.87939453125 2764.87744140625 C 1188.082763671875 2760.357177734375 1189.992431640625 2756.034423828125 1193.256713867188 2752.705078125 C 1196.531494140625 2749.364990234375 1200.903198242188 2747.302490234375 1205.566284179688 2746.897216796875 L 1208.002563476563 2746.897216796875 C 1211.68505859375 2747.346923828125 1214.73583984375 2748.305419921875 1216.825317382813 2749.669189453125 C 1219.905639648438 2751.5849609375 1222.433349609375 2754.37451171875 1224.135009765625 2757.736083984375 L 1224.177368164063 2757.7783203125 C 1225.208740234375 2759.468994140625 1225.731689453125 2761.71630859375 1225.731689453125 2764.4580078125 L 1225.731689453125 2766.97802734375 C 1225.731689453125 2768.982666015625 1225.174438476563 2770.71533203125 1224.387084960938 2772.944091796875 C 1224.303344726563 2773.23828125 1224.176025390625 2773.53515625 1224.052978515625 2773.822509765625 C 1221.871215820313 2778.145263671875 1218.984741210938 2781.169921875 1215.228637695313 2783.069091796875 L 1215.060302734375 2783.15283203125 L 1214.934326171875 2783.27880859375 C 1213.049194335938 2785.573974609375 1209.968872070313 2785.883544921875 1207.204223632813 2785.883544921875 C 1207.147216796875 2785.884033203125 1207.090454101563 2785.88427734375 1207.033447265625 2785.88427734375 Z M 1197.751586914063 2771.767578125 C 1197.935180664063 2774.99072265625 1200.247436523438 2777.34912109375 1204.095581054688 2778.238037109375 L 1204.095581054688 2781.8505859375 L 1209.263427734375 2781.8505859375 L 1209.263427734375 2778.1533203125 C 1213.1083984375 2777.441650390625 1215.313232421875 2775.29833984375 1215.313232421875 2772.27197265625 C 1215.369873046875 2770.0634765625 1214.543579101563 2768.374755859375 1212.787109375 2767.10986328125 C 1211.281494140625 2766.025634765625 1209.274658203125 2765.396240234375 1207.330200195313 2764.87744140625 C 1203.515380859375 2763.871337890625 1202.163330078125 2762.926025390625 1202.163330078125 2761.264892578125 C 1202.131225585938 2760.545654296875 1202.355834960938 2759.92919921875 1202.8310546875 2759.432373046875 C 1203.603271484375 2758.624755859375 1204.970458984375 2758.19775390625 1206.784790039063 2758.19775390625 C 1209.545043945313 2758.19775390625 1210.932861328125 2759.35205078125 1211.027465820313 2761.7265625 L 1214.8505859375 2761.7265625 C 1214.767578125 2758.597412109375 1212.453491210938 2755.92919921875 1209.34716796875 2755.38330078125 L 1209.34716796875 2751.686279296875 L 1204.095581054688 2751.686279296875 L 1204.095581054688 2755.298828125 C 1200.30712890625 2756.221923828125 1198.045776367188 2758.483154296875 1198.045776367188 2761.3486328125 C 1198.045776367188 2763.18115234375 1198.779296875 2764.64306640625 1200.288208007813 2765.81787109375 C 1201.621215820313 2766.85595703125 1203.539916992188 2767.64794921875 1206.153930664063 2768.239013671875 C 1210.734375 2769.3271484375 1211.32177734375 2770.988525390625 1211.32177734375 2772.314208984375 C 1211.32177734375 2772.74169921875 1211.202392578125 2773.561279296875 1210.40283203125 2774.24658203125 C 1209.58984375 2774.943603515625 1208.31591796875 2775.296875 1206.616577148438 2775.296875 C 1204.9482421875 2775.296875 1203.649536132813 2774.952392578125 1202.756591796875 2774.272705078125 C 1201.96728515625 2773.67236328125 1201.515014648438 2772.80615234375 1201.44873046875 2771.767822265625 L 1197.751586914063 2771.767822265625 C 1197.751586914063 2771.767578125 1197.751586914063 2771.767578125 1197.751586914063 2771.767578125 L 1197.751586914063 2771.767822265625 Z M 1228.714233398438 2778.783447265625 L 1227.789916992188 2778.783447265625 C 1227.8505859375 2778.682373046875 1227.922607421875 2778.55908203125 1227.9921875 2778.440185546875 L 1228.000122070313 2778.426513671875 C 1228.073608398438 2778.300537109375 1228.147216796875 2778.174560546875 1228.210205078125 2778.069580078125 C 1228.353637695313 2777.8369140625 1228.490844726563 2777.59375 1228.623413085938 2777.35888671875 C 1228.800537109375 2777.044921875 1228.983520507813 2776.720703125 1229.176879882813 2776.4306640625 C 1229.754272460938 2776.4638671875 1230.344116210938 2776.48095703125 1230.930908203125 2776.48095703125 C 1236.971435546875 2776.48095703125 1242.815063476563 2774.720458984375 1247.830322265625 2771.389892578125 C 1247.254638671875 2773.02734375 1245.434936523438 2774.74951171875 1243.082885742188 2775.88525390625 C 1238.901611328125 2777.808349609375 1234.0673828125 2778.783447265625 1228.714233398438 2778.783447265625 Z M 1186.534790039063 2778.783447265625 L 1186.533081054688 2778.783447265625 L 1185.694213867188 2778.783447265625 C 1180.329833984375 2778.783447265625 1175.495971679688 2777.822265625 1171.32666015625 2775.9267578125 C 1168.694091796875 2774.56787109375 1166.781127929688 2772.65478515625 1166.453125 2771.05322265625 C 1171.56103515625 2774.59033203125 1177.559448242188 2776.46044921875 1183.801513671875 2776.46044921875 C 1184.249145507813 2776.46044921875 1184.702392578125 2776.450439453125 1185.148803710938 2776.4306640625 L 1186.533935546875 2778.781982421875 L 1186.534790039063 2778.783447265625 Z M 1230.68994140625 2771.599609375 L 1230.688842773438 2771.599609375 L 1230.68896484375 2771.598388671875 L 1230.701416015625 2771.498779296875 C 1230.739379882813 2771.193603515625 1230.781982421875 2770.8515625 1230.857177734375 2770.54931640625 C 1230.893432617188 2770.152099609375 1230.960693359375 2769.78466796875 1231.031860351563 2769.3955078125 L 1231.066772460938 2769.20458984375 C 1237.009643554688 2769.12109375 1242.8203125 2767.363525390625 1247.87158203125 2764.12158203125 C 1247.361450195313 2765.73779296875 1245.464477539063 2767.55126953125 1243.040405273438 2768.742919921875 C 1239.64794921875 2770.418212890625 1235.261840820313 2771.432861328125 1230.68994140625 2771.599609375 Z M 1184.013916015625 2771.599609375 L 1184.012573242188 2771.599609375 C 1179.430419921875 2771.473388671875 1175.189086914063 2770.485595703125 1171.746948242188 2768.742919921875 C 1169.211181640625 2767.496337890625 1167.252563476563 2765.554931640625 1166.873413085938 2763.911865234375 C 1171.65380859375 2767.403564453125 1177.288696289063 2769.249755859375 1183.170532226563 2769.249755859375 C 1183.297973632813 2769.249755859375 1183.424682617188 2769.248779296875 1183.55224609375 2769.2470703125 C 1183.680297851563 2770.05859375 1183.802612304688 2770.794921875 1184.013549804688 2771.598388671875 L 1184.013916015625 2771.599609375 Z M 1231.2783203125 2764.836181640625 L 1231.277465820313 2764.836181640625 L 1231.27734375 2764.835205078125 C 1231.203125 2764.025146484375 1231.0244140625 2763.132080078125 1230.731079101563 2762.10546875 C 1230.874267578125 2762.107666015625 1231.016357421875 2762.108154296875 1231.124267578125 2762.108154296875 C 1237.093505859375 2762.108154296875 1242.78466796875 2760.255615234375 1248.039916992188 2756.60205078125 C 1247.955688476563 2758.377685546875 1245.962890625 2760.538330078125 1243.082763671875 2761.9794921875 C 1239.430053710938 2763.72216796875 1235.34814453125 2764.7099609375 1231.2783203125 2764.836181640625 Z M 1184.013916015625 2764.415771484375 L 1184.013061523438 2764.415771484375 C 1179.928955078125 2764.2470703125 1175.957397460938 2763.285888671875 1172.208618164063 2761.55908203125 C 1169.264892578125 2760.0869140625 1167.209106445313 2757.82373046875 1167.209106445313 2756.0556640625 C 1167.209106445313 2754.776123046875 1167.683837890625 2752.8134765625 1171.788330078125 2750.55224609375 C 1176.001342773438 2748.656005859375 1180.821411132813 2747.694580078125 1186.114501953125 2747.694580078125 C 1188.289672851563 2747.73681640625 1190.49462890625 2747.90673828125 1192.668334960938 2748.199462890625 C 1187.800659179688 2752.101806640625 1184.646118164063 2758.011474609375 1184.014038085938 2764.414794921875 L 1184.013916015625 2764.415771484375 Z M 1228.966918945313 2757.693603515625 L 1228.966186523438 2757.693603515625 L 1228.965942382813 2757.69287109375 C 1228.654174804688 2756.80078125 1228.269409179688 2756.017578125 1227.789916992188 2755.298828125 L 1228.294799804688 2755.298828125 C 1228.90966796875 2755.33642578125 1229.53369140625 2755.35546875 1230.149780273438 2755.35546875 C 1236.421997070313 2755.35546875 1242.477661132813 2753.447509765625 1247.661987304688 2749.837646484375 L 1247.661987304688 2750.215576171875 L 1247.956176757813 2750.215576171875 C 1247.349609375 2751.861572265625 1245.436279296875 2753.658447265625 1243.082885742188 2754.794677734375 C 1238.984375 2756.6767578125 1234.235107421875 2757.652099609375 1228.966918945313 2757.693603515625 Z M 1227.97607421875 2750.56201171875 C 1226.567993164063 2750.56201171875 1225.311645507813 2750.43505859375 1224.135009765625 2750.174072265625 C 1220.55224609375 2746.29833984375 1215.642456054688 2743.95947265625 1209.935668945313 2743.40966796875 C 1209.809814453125 2743.034912109375 1209.767456054688 2742.65380859375 1209.808837890625 2742.27587890625 L 1209.808837890625 2741.9814453125 C 1209.474731445313 2740.099365234375 1210.972900390625 2738.35400390625 1214.388916015625 2736.646240234375 C 1218.569458007813 2734.72265625 1223.4033203125 2733.747314453125 1228.756469726563 2733.747314453125 C 1234.08837890625 2733.747314453125 1238.922485351563 2734.6943359375 1243.124145507813 2736.561767578125 C 1246.06787109375 2738.033447265625 1248.123657226563 2740.296630859375 1248.123657226563 2742.065185546875 C 1248.03955078125 2743.920654296875 1246.013793945313 2746.166259765625 1243.082763671875 2747.6533203125 C 1238.900024414063 2749.576904296875 1234.051879882813 2750.55224609375 1228.6728515625 2750.55224609375 C 1228.430786132813 2750.558837890625 1228.196411132813 2750.56201171875 1227.97607421875 2750.56201171875 Z"/>
  </g>
</svg>
