<?xml version="1.0" encoding="utf-8"?>
<!-- Generator: Adobe Illustrator 21.1.0, SVG Export Plug-In . SVG Version: 6.00 Build 0)  -->
<svg version="1.1" id="Layer_1" xmlns="http://www.w3.org/2000/svg" xmlns:xlink="http://www.w3.org/1999/xlink" x="0px" y="0px"
	 viewBox="0 0 21 21" style="enable-background:new 0 0 21 21;" xml:space="preserve">
<style type="text/css">
	.st0{fill:#FBC02D;}
	.st1{fill:#1B1B1B;}
</style>
<g>
	<path class="st0" d="M10.5,1C5.3,1,1,5.3,1,10.5S5.3,20,10.5,20s9.5-4.3,9.5-9.5S15.7,1,10.5,1z M8.7,14.5l-3.4-3.4L6,10.3l2.6,2.5
		l6.5-6.4L16,7.2L8.7,14.5z"/>
	<path class="st1" d="M10.5,0C4.7,0,0,4.7,0,10.5S4.7,21,10.5,21S21,16.3,21,10.5S16.3,0,10.5,0z M10.5,20.5c-5.5,0-10-4.5-10-10
		s4.5-10,10-10s10,4.5,10,10S16,20.5,10.5,20.5z"/>
	<path class="st1" d="M10.5,0.5c-5.5,0-10,4.5-10,10s4.5,10,10,10s10-4.5,10-10S16,0.5,10.5,0.5z M10.5,20C5.3,20,1,15.7,1,10.5
		S5.3,1,10.5,1S20,5.3,20,10.5S15.7,20,10.5,20z"/>
	<path class="st1" d="M15.2,6.4L16,7.2l-7.3,7.3l-3.4-3.4L6,10.3l2.6,2.5L15.2,6.4z"/>
</g>
</svg>
