<?xml version="1.0" encoding="utf-8"?>
<!-- Generator: Adobe Illustrator 21.1.0, SVG Export Plug-In . SVG Version: 6.00 Build 0)  -->
<svg version="1.1" id="Layer_1" xmlns="http://www.w3.org/2000/svg" xmlns:xlink="http://www.w3.org/1999/xlink" x="0px" y="0px"
	 viewBox="0 0 83 83" style="enable-background:new 0 0 83 83;" xml:space="preserve">
<style type="text/css">
	.st0{fill:#FF9800;}
</style>
<g id="confirmation_icon" transform="translate(11414 -2002)">
	<path class="st0" d="M-11354.5,2032.3c-1.2-1.3-3.3-1.4-4.7-0.2c-0.1,0.1-0.1,0.1-0.2,0.2l-14.9,14.9l-6.3-6.3
		c-1.2-1.3-3.3-1.4-4.7-0.2c-0.1,0.1-0.1,0.1-0.2,0.2c-1.3,1.2-1.4,3.3-0.2,4.7c0.1,0.1,0.1,0.1,0.2,0.2l8.6,8.6
		c1.2,1.3,3.3,1.4,4.7,0.2c0.1-0.1,0.1-0.1,0.2-0.2l0,0l17.2-17.2c1.4-1,1.8-2.9,0.8-4.3
		C-11354.1,2032.7-11354.3,2032.5-11354.5,2032.3L-11354.5,2032.3z"/>
	<path class="st0" d="M-11334.4,2040.1c-1.8-0.1-3.4,1.3-3.4,3.2c0,0.1,0,0.2,0,0.3c0,19.2-15.5,34.7-34.6,34.7
		c-19.2,0-34.7-15.5-34.7-34.6s15.5-34.7,34.6-34.7c9.3,0,18.2,3.7,24.7,10.3c1.2,1.3,3.3,1.4,4.7,0.2c0.1-0.1,0.1-0.1,0.2-0.2
		c1.3-1.2,1.4-3.3,0.2-4.7c-0.1-0.1-0.1-0.1-0.2-0.2l0,0c-7.7-8-18.4-12.4-29.5-12.3c-22.9,0-41.5,18.6-41.5,41.5
		c0,22.9,18.6,41.5,41.5,41.5s41.5-18.6,41.5-41.5c0.1-1.8-1.3-3.4-3.2-3.4C-11334.3,2040.1-11334.3,2040.1-11334.4,2040.1z"/>
</g>
</svg>
