<?xml version="1.0" encoding="utf-8"?>
<!-- Generator: Adobe Illustrator 21.1.0, SVG Export Plug-In . SVG Version: 6.00 Build 0)  -->
<svg version="1.1" id="Layer_1" xmlns="http://www.w3.org/2000/svg" xmlns:xlink="http://www.w3.org/1999/xlink" x="0px" y="0px"
	 viewBox="0 0 29 29" style="enable-background:new 0 0 29 29;" xml:space="preserve">
<style type="text/css">
	.st0{fill:#FFFFFF;}
</style>
<g>
	<path class="st0" d="M20.8,10.6c-0.5-0.5-1.2-0.5-1.7,0l-5.2,5.2l-2.2-2.2c-0.5-0.5-1.2-0.5-1.7,0s-0.5,1.2,0,1.7l3,3
		c0.5,0.5,1.2,0.5,1.7,0c0,0,0,0,0,0l6-6C21.3,11.9,21.3,11.1,20.8,10.6C20.8,10.6,20.8,10.6,20.8,10.6z"/>
	<path class="st0" d="M27.8,13.3c-0.7,0-1.2,0.5-1.2,1.2c0,6.7-5.4,12.1-12.1,12.1S2.4,21.2,2.4,14.5S7.8,2.4,14.5,2.4
		c3.2,0,6.3,1.3,8.6,3.6c0.5,0.5,1.2,0.5,1.7,0s0.5-1.2,0-1.7l0,0C22.1,1.5,18.4,0,14.5,0C6.5,0,0,6.5,0,14.5S6.5,29,14.5,29
		S29,22.5,29,14.5C29,13.8,28.5,13.3,27.8,13.3z"/>
</g>
</svg>
