<svg xmlns="http://www.w3.org/2000/svg" viewBox="-992 5027 23.832 23.832">
  <defs>
    <style>
      .cls-1 {
        fill: none;
      }
    </style>
  </defs>
  <g id="Copy" transform="translate(-1606.89 5037)">
    <rect id="Boundry" class="cls-1" width="23.832" height="23.832" transform="translate(614.89 -10)"/>
    <path id="Copy-2" data-name="Copy" d="M17.377,0H6.206A2.483,2.483,0,0,0,3.724,2.482H4.965A1.242,1.242,0,0,1,6.206,1.241H17.377a1.242,1.242,0,0,1,1.241,1.241V13.654a1.242,1.242,0,0,1-1.241,1.241v1.241a2.483,2.483,0,0,0,2.482-2.482V2.482A2.483,2.483,0,0,0,17.377,0ZM13.654,3.724H2.482A2.483,2.483,0,0,0,0,6.206V17.377A2.483,2.483,0,0,0,2.482,19.86H13.654a2.483,2.483,0,0,0,2.482-2.482V6.206A2.483,2.483,0,0,0,13.654,3.724Zm1.241,13.654a1.242,1.242,0,0,1-1.241,1.241H2.482a1.242,1.242,0,0,1-1.241-1.241V6.206A1.242,1.242,0,0,1,2.482,4.965H13.654a1.242,1.242,0,0,1,1.241,1.241ZM3.724,9.516h8.689V8.275H3.724Zm0,3.31h8.689V11.585H3.724Zm0,3.31H8.689V14.895H3.724Z" transform="translate(616.876 -8.014)"/>
  </g>
</svg>
