<?xml version="1.0" encoding="utf-8"?>
<!-- Generator: Adobe Illustrator 21.1.0, SVG Export Plug-In . SVG Version: 6.00 Build 0)  -->
<svg version="1.1" id="Layer_1" xmlns="http://www.w3.org/2000/svg" xmlns:xlink="http://www.w3.org/1999/xlink" x="0px" y="0px"
	 viewBox="0 0 25 16.7" style="enable-background:new 0 0 25 16.7;" xml:space="preserve">
<style type="text/css">
	.st0{fill:#FFFFFF;}
</style>
<g>
	<path class="st0" d="M25,3.6L25,3.6v-1C25,1.2,23.8,0,22.4,0H2.6C1.2,0,0,1.2,0,2.6v11.5c0,1.4,1.2,2.6,2.6,2.6h19.8
		c1.4,0,2.6-1.2,2.6-2.6V6.8l0,0L25,3.6L25,3.6z M1,4.2H24v2.1H1L1,4.2z M2.6,1h19.8C23.3,1,24,1.7,24,2.6v0.5H1V2.6
		C1,1.7,1.7,1,2.6,1z M22.4,15.6H2.6c-0.9,0-1.6-0.7-1.6-1.6V7.3H24v6.8l0,0C24,14.9,23.3,15.6,22.4,15.6
		C22.4,15.6,22.4,15.6,22.4,15.6z"/>
	<path class="st0" d="M10.4,10.9c0,0.3-0.2,0.5-0.5,0.5H3.6c-0.3,0-0.5-0.2-0.5-0.5c0-0.3,0.2-0.5,0.5-0.5h6.3
		C10.2,10.4,10.4,10.6,10.4,10.9z"/>
	<path class="st0" d="M10.4,13c0,0.3-0.2,0.5-0.5,0.5H3.6c-0.3,0-0.5-0.2-0.5-0.5c0-0.3,0.2-0.5,0.5-0.5h6.3
		C10.2,12.5,10.4,12.7,10.4,13C10.4,13,10.4,13,10.4,13z"/>
	<path class="st0" d="M20.3,9.4h-1c-0.9,0-1.6,0.7-1.6,1.6v1c0,0.9,0.7,1.6,1.6,1.6h1c0.9,0,1.6-0.7,1.6-1.6v-1
		C21.9,10.1,21.2,9.4,20.3,9.4z M20.8,12c0,0.3-0.2,0.5-0.5,0.5h-1c-0.3,0-0.5-0.2-0.5-0.5v-1c0-0.3,0.2-0.5,0.5-0.5h1
		c0.3,0,0.5,0.2,0.5,0.5V12z"/>
</g>
</svg>
