<?xml version="1.0" encoding="utf-8"?>
<!-- Generator: Adobe Illustrator 21.1.0, SVG Export Plug-In . SVG Version: 6.00 Build 0)  -->
<svg version="1.1" id="Layer_1" xmlns="http://www.w3.org/2000/svg" xmlns:xlink="http://www.w3.org/1999/xlink" x="0px" y="0px"
	 viewBox="0 0 29 29" style="enable-background:new 0 0 29 29;" xml:space="preserve">
<style type="text/css">
	.st0{fill:#FFFFFF;}
</style>
<g>
	<path class="st0" d="M19.2,3.5h3l0,3.2c0,0.6,0.5,1,1,1.1l0,0l0,0c0.5-0.1,1-0.5,1-1.1l0-4.2c0-0.6-0.5-1-1.1-1.1l-4.1,0
		c-0.6,0-1,0.5-1,1.1C18.2,3,18.6,3.5,19.2,3.5z"/>
	<path class="st0" d="M28.7,14.3L15.3,0.4c-0.1-0.1-0.1-0.2-0.2-0.2c-0.5-0.3-1.1-0.2-1.4,0.2l-13.4,14l-0.1,0.1
		c-0.2,0.4-0.2,0.9,0,1.3l0.1,0.1L0.4,16c0.2,0.1,0.4,0.2,0.7,0.2c0.2,0,0.5-0.1,0.7-0.3L14.5,2.7l12.6,13.2
		c0.2,0.2,0.5,0.3,0.8,0.3c0.3,0,0.6-0.1,0.7-0.3c0.1,0,0.1-0.1,0.2-0.2c0.2-0.2,0.3-0.5,0.2-0.8S28.8,14.5,28.7,14.3z"/>
	<path class="st0" d="M24.3,15.3c-0.3,0-0.5,0.1-0.7,0.3c-0.2,0.2-0.3,0.5-0.3,0.7v10.4h-4.9l0-7.4c0-0.6-0.5-1-1.1-1.1l-5.9,0
		c-0.6,0-1,0.5-1,1.1v7.4H5.6l0-11c0-0.5-0.5-1-1.1-1.1c-0.6,0-1,0.5-1,1.1l0,12.1c0,0.6,0.5,1,1.1,1.1l7,0c0.6,0,1-0.5,1-1.1v-7.4
		h3.8l0,7.4c0,0.6,0.5,1,1.1,1.1h7l0-0.5l0,0.5c0.6,0,1-0.5,1-1.1V16.4C25.4,15.8,24.9,15.3,24.3,15.3z M24.4,15.8L24.4,15.8
		L24.4,15.8L24.4,15.8z"/>
</g>
</svg>
