<?xml version="1.0" encoding="utf-8"?>
<!-- Generator: Adobe Illustrator 21.1.0, SVG Export Plug-In . SVG Version: 6.00 Build 0)  -->
<svg version="1.1" id="Layer_1" xmlns="http://www.w3.org/2000/svg" xmlns:xlink="http://www.w3.org/1999/xlink" x="0px" y="0px"
	 viewBox="0 0 16 28" style="enable-background:new 0 0 16 28;" xml:space="preserve">
<style type="text/css">
	.st0{fill:#1B1B1B;}
</style>
<g>
	<path class="st0" d="M8.6,12.3c-3.5-0.9-4.7-1.9-4.7-3.3c0-1.7,1.6-2.9,4.2-2.9c2.8,0,3.8,1.3,3.9,3.3h3.5c-0.1-2.9-2.2-5.4-5-5.9
		V0H5.8v3.3C2.7,4,0.3,6,0.3,8.9c0,3.6,3,5.4,7.4,6.5c3.9,0.9,4.7,2.3,4.7,3.7c0,1.1-0.8,2.8-4.2,2.8c-3.2,0-4.5-1.4-4.7-3.3H0
		c0.2,3.4,2.7,5.3,5.8,6V28h4.7v-3.3c3.1-0.6,5.5-2.3,5.5-5.5C16,14.7,12.2,13.2,8.6,12.3z"/>
</g>
</svg>
