<?xml version="1.0" encoding="utf-8"?>
<!-- Generator: Adobe Illustrator 21.1.0, SVG Export Plug-In . SVG Version: 6.00 Build 0)  -->
<svg version="1.1" id="Layer_1" xmlns="http://www.w3.org/2000/svg" xmlns:xlink="http://www.w3.org/1999/xlink" x="0px" y="0px"
	 viewBox="0 0 16.1 27.5" style="enable-background:new 0 0 16.1 27.5;" xml:space="preserve">
<style type="text/css">
	.st0{fill:#FFFFFF;}
</style>
<g>
	<path class="st0" d="M8.7,12.1C5.2,11.2,4,10.3,4,8.8C3.9,7.1,5.5,6,8.2,6C11,6,12,7.3,12.1,9.2h3.5c-0.1-2.9-2.2-5.3-5-5.8V0H5.8
		v3.3C2.8,4,0.3,5.9,0.3,8.8c0,3.5,3,5.3,7.4,6.3c3.9,0.9,4.7,2.3,4.7,3.7c0,1.1-0.8,2.7-4.3,2.7c-3.2,0-4.6-1.4-4.7-3.2H0
		c0.2,3.4,2.8,5.2,5.8,5.9v3.3h4.7v-3.3c3.1-0.6,5.5-2.3,5.5-5.4C16.1,14.4,12.2,13,8.7,12.1z"/>
</g>
</svg>
