<?xml version="1.0" encoding="utf-8"?>
<!-- Generator: Adobe Illustrator 21.1.0, SVG Export Plug-In . SVG Version: 6.00 Build 0)  -->
<svg version="1.1" id="Layer_1" xmlns="http://www.w3.org/2000/svg" xmlns:xlink="http://www.w3.org/1999/xlink" x="0px" y="0px"
	 viewBox="0 0 48 24" style="enable-background:new 0 0 48 24;" xml:space="preserve">
<style type="text/css">
	.st0{fill:#CF142B;}
	.st1{fill:#FFFFFF;}
	.st2{fill:#00247D;}
</style>
<g>
	<path class="st0" d="M21.6,0c1.6,0,3.2,0,4.8,0c0.1,0.1,0.1,0.1,0.1,0.2s0,0.2,0,0.3c0,2.8,0,5.6,0,8.5c0,0.5,0,0.6,0.6,0.6
		c6.8,0,13.7,0,20.5,0c0.1,0,0.3,0,0.4,0.1c0,1.6,0,3.2,0,4.8c-0.1,0.1-0.1,0.1-0.2,0.1c-0.1,0-0.2,0-0.3,0c-6.8,0-13.6,0-20.3,0
		c-0.1,0-0.2,0-0.4,0c-0.2,0-0.3,0.1-0.3,0.3c0,0.1,0,0.2,0,0.3c0,2.8,0,5.7,0,8.5c0,0.1,0,0.3-0.1,0.4c-1.6,0-3.2,0-4.8,0
		c-0.1-0.1-0.1-0.1-0.1-0.2s0-0.2,0-0.3c0-2.8,0-5.6,0-8.5c0-0.5,0-0.6-0.6-0.6c-6.8,0-13.7,0-20.5,0c-0.1,0-0.3,0-0.4-0.1
		c0-1.6,0-3.2,0-4.8c0.1-0.1,0.1-0.1,0.2-0.1s0.2,0,0.3,0c6.8,0,13.6,0,20.3,0c0.1,0,0.2,0,0.4,0c0.2,0,0.3-0.1,0.3-0.3
		c0-0.1,0-0.2,0-0.3c0-2.8,0-5.7,0-8.5C21.5,0.3,21.5,0.1,21.6,0z"/>
	<path class="st1" d="M21.6,0c0,3.1,0,6.2,0,9.4c0,0.2-0.1,0.2-0.2,0.2c-7.1,0-14.2,0-21.4,0c0-0.5,0-1,0-1.6
		c0.1-0.1,0.1-0.1,0.2-0.1c3.3,0,6.7,0,10,0C8.1,6.9,6,5.8,3.9,4.7C2.7,4.2,1.5,3.6,0.4,3C0.2,2.9,0.1,2.9,0,2.7c0-0.3,0-0.6,0-0.9
		c0-0.1,0.1-0.1,0.2,0c0.1,0,0.2,0.1,0.3,0.1c3.9,1.9,7.7,3.9,11.6,5.8c0.3,0.1,0.5,0.2,0.8,0.2c0.8,0,1.7,0,2.5,0
		c0.1,0,0.2,0,0.2,0c0.1,0,0,0,0,0l0,0c-0.1,0-0.2-0.1-0.3-0.1c-5-2.5-10.1-5-15.1-7.5c0-0.1-0.1-0.1-0.1-0.3c1.8,0,3.6,0,5.4,0
		c0.3,0.1,0.6,0.2,0.9,0.4c4.4,2.2,8.8,4.4,13.2,6.6C20,7.2,20,7.2,20,6.8c0-2.1,0-4.3,0-6.4c0-0.1,0-0.2,0.1-0.3
		C20.6,0,21.1,0,21.6,0z"/>
	<path class="st1" d="M26.4,24c0-3.1,0-6.2,0-9.4c0-0.2,0.1-0.2,0.2-0.2c7.1,0,14.2,0,21.4,0c0,0.5,0,1.1,0,1.6
		c-0.1,0.1-0.1,0.1-0.2,0.1c-3.3,0-6.7,0-10,0c2.1,1.1,4.2,2.1,6.4,3.2c1.2,0.6,2.3,1.2,3.5,1.8c0.1,0.1,0.2,0.1,0.3,0.2
		c0,0.3,0,0.6,0,0.9c-0.1,0.1-0.1,0-0.2,0c-0.1,0-0.2-0.1-0.2-0.1c-3.9-1.9-7.7-3.9-11.6-5.8c-0.3-0.1-0.5-0.2-0.8-0.2
		c-0.8,0-1.7,0-2.5,0c-0.1,0-0.2,0-0.3,0l0,0l0,0c0.1,0,0.2,0.1,0.3,0.1c5,2.5,10.1,5,15.1,7.5c0.1,0.1,0.3,0.1,0.3,0.3
		c-1.8,0-3.6,0-5.4,0c-0.3-0.1-0.6-0.2-0.9-0.4c-4.4-2.2-8.8-4.4-13.2-6.6c-0.4-0.2-0.4-0.2-0.4,0.2c0,2.1,0,4.3,0,6.4
		c0,0.1,0,0.2-0.1,0.3C27.5,24,27,24,26.4,24z"/>
	<path class="st1" d="M48,9.6c-7.1,0-14.2,0-21.3,0c-0.3,0-0.3,0-0.3-0.3c0-3.1,0-6.2,0-9.3c0.5,0,1.1,0,1.6,0
		c0.1,0.1,0.1,0.2,0.1,0.3c0,1.1,0,2.3,0,3.4c0,1,0,2,0,3v0.1c0,0.2,0.1,0.3,0.3,0.2c0.7-0.4,1.5-0.7,2.2-1.1
		c3.8-1.9,7.5-3.8,11.3-5.6c0.2-0.1,0.5-0.2,0.7-0.3c0.6,0,1.2,0,1.8,0c0.1,0.1,0,0.1,0,0.1c-0.1,0-0.1,0.1-0.2,0.1
		c-5,2.5-10,5-15.1,7.5c-0.1,0-0.2,0.1-0.2,0.1c0.1,0,0.2,0,0.3,0c0.8,0,1.7,0,2.5,0c0.3,0,0.5-0.1,0.7-0.2
		c4.9-2.5,9.8-4.9,14.7-7.3c0.3-0.2,0.6-0.3,1-0.4c0.1,0,0,0.1,0,0.2c0,0.8,0,1.7,0,2.5C48,2.7,48,2.8,47.9,2.8
		c-3.3,1.7-6.7,3.3-10,5c0.3,0,0.6,0,0.9,0c3,0,6,0,9,0c0.1,0,0.3,0,0.3,0.1C48,8.6,48,9.1,48,9.6z"/>
	<path class="st1" d="M0,14.4c7.1,0,14.2,0,21.3,0c0.3,0,0.3,0,0.3,0.3c0,3.1,0,6.2,0,9.3c-0.5,0-1.1,0-1.6,0
		c-0.1-0.1-0.1-0.2-0.1-0.3c0-1.1,0-2.3,0-3.4c0-1,0-2,0-3v-0.1c0-0.2-0.1-0.3-0.3-0.2c-0.7,0.4-1.5,0.7-2.2,1.1
		c-3.8,1.9-7.5,3.8-11.3,5.6C5.9,23.9,5.7,24,5.4,24c-0.6,0-1.2,0-1.8,0c-0.1-0.1,0.1-0.1,0.1-0.2c0.8-0.4,1.7-0.8,2.5-1.3
		c4.2-2.1,8.4-4.2,12.6-6.3c0.1-0.1,0.2-0.1,0.4-0.2c-0.1,0-0.2,0-0.3,0c-0.9,0-1.7,0-2.6,0c-0.3,0-0.5,0.1-0.7,0.2
		c-4.9,2.5-9.9,4.9-14.8,7.4C0.6,23.9,0.4,24,0.1,24c-0.1,0,0-0.1,0-0.2c0-0.8,0-1.7,0-2.5c0.1-0.1,0.1-0.2,0.2-0.2
		c3.3-1.7,6.7-3.3,10-5c-0.4,0-0.8,0-1.2,0c-2.9,0-5.8,0-8.7,0c-0.1,0-0.3,0-0.3-0.1C0,15.5,0,15,0,14.4z"/>
	<path class="st2" d="M20,0c0,0.1,0,0.1,0,0.2c0,2.3,0,4.6,0,6.9c0,0.2,0,0.2-0.2,0.1c-4.7-2.4-9.5-4.7-14.2-7.1
		c-0.1,0-0.1,0-0.2-0.1C10.3,0,15.2,0,20,0z"/>
	<path class="st2" d="M42.6,0c-0.1,0-0.1,0.1-0.2,0.1C37.7,2.5,33,4.9,28.3,7.2c0,0-0.1,0-0.1,0.1c-0.1,0.1-0.1,0-0.1-0.1
		c0,0,0,0,0-0.1c0-2.3,0-4.6,0-6.9c0-0.1,0-0.1,0-0.2C32.9,0,37.8,0,42.6,0z"/>
	<path class="st2" d="M5.4,24c0.1,0,0.1-0.1,0.2-0.1c4.7-2.4,9.5-4.7,14.2-7.1c0,0,0.1,0,0.1-0.1c0.1-0.1,0.1,0,0.1,0.1
		c0,0,0,0,0,0.1c0,2.3,0,4.6,0,6.9c0,0.1,0,0.1,0,0.2C15.2,24,10.3,24,5.4,24z"/>
	<path class="st2" d="M28.1,24c0-0.1,0-0.1,0-0.2c0-2.3,0-4.6,0-6.9c0-0.2,0-0.2,0.2-0.1c4.7,2.4,9.5,4.7,14.2,7.1
		c0.1,0,0.1,0.1,0.2,0.1C37.8,24,32.9,24,28.1,24z"/>
	<path class="st0" d="M0.1,24c0.1,0,0.1-0.1,0.2-0.1c5.2-2.6,10.4-5.2,15.6-7.8C16,16,16.2,16,16.3,16c1,0,2,0,3.1,0
		c0.1,0,0.1,0,0.2,0l0,0c-0.1,0-0.1,0.1-0.2,0.1C14.1,18.8,9,21.4,3.8,23.9C3.8,24,3.7,24,3.6,24C2.5,24,1.3,24,0.1,24z"/>
	<path class="st0" d="M48,0c0,0.1-0.1,0.1-0.2,0.1c-5.2,2.6-10.4,5.2-15.6,7.8C32.1,8,32,8,31.8,8c-1,0-2,0-3.1,0
		c-0.1,0-0.1,0-0.2,0c0.1-0.1,0.1-0.1,0.2-0.1C33.9,5.3,39,2.7,44.2,0.2c0.1,0,0.1-0.1,0.2-0.1C45.6,0,46.8,0,48,0z"/>
	<path class="st2" d="M0,2.7c0.1,0,0.1,0,0.2,0.1C3.6,4.5,7,6.2,10.4,7.9L10.5,8c0,0.1-0.1,0-0.1,0C7,8,3.6,8,0.1,8H0
		C0,6.3,0,4.5,0,2.7z"/>
	<path class="st2" d="M48,8c-0.1,0-0.1,0-0.2,0c-3.4,0-6.7,0-10.1,0c-0.1,0-0.1,0-0.2,0c0-0.1,0.1-0.1,0.1-0.1
		c3.4-1.7,6.8-3.4,10.3-5.1c0,0,0.1,0,0.1-0.1C48,4.5,48,6.3,48,8z"/>
	<path class="st2" d="M0,16.1c0.1,0,0.1,0,0.2,0c3.4,0,6.7,0,10.1,0c0.1,0,0.1,0,0.2,0c0,0.1-0.1,0.1-0.1,0.1
		C7,17.9,3.6,19.6,0.2,21.3c0,0-0.1,0-0.2,0.1C0,19.6,0,17.8,0,16.1z"/>
	<path class="st2" d="M48,21.3c-0.1,0-0.1,0-0.2-0.1c-3.4-1.7-6.8-3.4-10.2-5.1c-0.1,0-0.1,0-0.2-0.1c0.1,0,0.1,0,0.2,0
		c3.4,0,6.8,0,10.2,0h0.1C48,17.8,48,19.6,48,21.3z"/>
	<path class="st0" d="M48,24c0-0.1-0.1-0.1-0.2-0.1c-5.1-2.6-10.3-5.2-15.4-7.7c-0.1,0-0.1-0.1-0.2-0.1c0-0.1,0.1,0,0.2,0
		c1.1,0,2.1,0,3.2,0c0.1,0,0.2,0,0.4,0.1c4,2,8,4,12,6c0.1,0,0.1,0.1,0.2,0.1c0,0.6,0,1.1,0,1.7C48,24,48.1,24,48,24z"/>
	<path class="st0" d="M0.1,0c0.1,0,0.1,0.1,0.2,0.1c5.2,2.6,10.3,5.2,15.5,7.7c0.1,0,0.1,0.1,0.2,0.1c0,0.1-0.1,0-0.2,0
		c-1.1,0-2.1,0-3.2,0c-0.1,0-0.2,0-0.4-0.1c-4-2-8-4-12-6c0,0.1-0.1,0.1-0.2,0c0-0.6,0-1.1,0-1.7C0,0.1,0,0.1,0.1,0z"/>
</g>
</svg>
