<svg xmlns="http://www.w3.org/2000/svg" viewBox="-223 -3770 45 45">
  <g id="Exchange_icon" data-name="Exchange icon" transform="translate(-286 -4202.8)">
    <path id="Exchange_new" data-name="Exchange new" d="M34.97.154c-.3-.3-.747-.15-1.046.15h0L28.546,6.752a.523.523,0,0,0-.149.75l.149.15,5.379,6.6a.775.775,0,0,0,.6.3.548.548,0,0,0,.448-.15.891.891,0,0,0,.149-1.05L31.086,8.1H41.395a1.545,1.545,0,0,1,1.643,1.65v7.2a.707.707,0,0,0,.747.75.961.961,0,0,0,.747-.75v-7.2a2.868,2.868,0,0,0-.9-2.4,2.461,2.461,0,0,0-2.241-.75H30.638L35.269.9a.486.486,0,0,0-.3-.75ZM9.572,44.691c.3.3.747.15,1.046-.15h0L16,38.093a.523.523,0,0,0,.149-.75L16,37.193l-5.379-6.6a.775.775,0,0,0-.6-.3.548.548,0,0,0-.448.15.891.891,0,0,0-.149,1.05l4.034,5.1H3.147a1.693,1.693,0,0,1-1.2-.45,1.706,1.706,0,0,1-.448-1.2v-7.2A.707.707,0,0,0,.757,27a.8.8,0,0,0-.747.75v7.2a2.868,2.868,0,0,0,.9,2.4,2.461,2.461,0,0,0,2.241.75H13.9l-4.632,5.7c0,.15,0,.75.3.9Zm3.735-23.243v-.3A4.182,4.182,0,0,1,10.169,17.1a.794.794,0,0,1,.9-.9.794.794,0,0,1,.9.9,2.241,2.241,0,1,0,4.482,0c0-.6-.3-1.5-2.54-2.249C11.364,13.95,9.87,12.6,9.87,10.8a4.024,4.024,0,0,1,3.138-4.049v-.3a.794.794,0,0,1,.9-.9.794.794,0,0,1,.9.9v.3A4.182,4.182,0,0,1,17.938,10.8a.794.794,0,0,1-.9.9.794.794,0,0,1-.9-.9,2.241,2.241,0,1,0-4.482,0c0,.6.3,1.5,2.54,2.249.9.3,4.034,1.2,4.034,4.049A3.912,3.912,0,0,1,15.1,21.148v.3a.794.794,0,0,1-.9.9Q13.307,22.573,13.307,21.448Zm4.034,6.3a10.317,10.317,0,0,1-2.988.45A14.054,14.054,0,0,1,.308,14.1a13.97,13.97,0,1,1,27.939,0,20.4,20.4,0,0,1-.3,3,10.974,10.974,0,0,0-2.092.6,10.114,10.114,0,0,0,.6-3.6,12.1,12.1,0,1,0-12.1,12.146,12.691,12.691,0,0,0,3.436-.45C17.639,26.547,17.49,27,17.341,27.746ZM30.937,16.8A14.1,14.1,0,1,0,44.981,30.9,14.054,14.054,0,0,0,30.937,16.8Zm0,26.242A12.146,12.146,0,1,1,43.038,30.9,12.169,12.169,0,0,1,30.937,43.042ZM28.1,28.346h4.93a.75.75,0,0,1,0,1.5H27.65V31.5h5.379a.75.75,0,0,1,0,1.5H28.1a4.614,4.614,0,0,0,4.034,3.149,4.22,4.22,0,0,0,2.988-1.35.741.741,0,1,1,1.046,1.05,5.644,5.644,0,0,1-4.183,1.8A6.028,6.028,0,0,1,26.3,32.995H24.213a.75.75,0,0,1,0-1.5h1.793v-1.65H24.213a.75.75,0,0,1,0-1.5H26.3c.9-2.7,3.138-4.649,5.677-4.649a5.889,5.889,0,0,1,4.183,1.8.741.741,0,1,1-1.046,1.05,4.22,4.22,0,0,0-2.988-1.35A4.853,4.853,0,0,0,28.1,28.346Z" transform="translate(63.019 432.809)"/>
  </g>
</svg>
