<?xml version="1.0" encoding="utf-8"?>
<!-- Generator: Adobe Illustrator 21.1.0, SVG Export Plug-In . SVG Version: 6.00 Build 0)  -->
<svg version="1.1" id="Layer_1" xmlns="http://www.w3.org/2000/svg" xmlns:xlink="http://www.w3.org/1999/xlink" x="0px" y="0px"
	 viewBox="0 0 83 83" style="enable-background:new 0 0 83 83;" xml:space="preserve">
<style type="text/css">
	.st0{fill:#DC3545;}
</style>
<g>
	<path class="st0" d="M79.5,38c-1.8-0.1-3.4,1.3-3.4,3.2c0,0.1,0,0.2,0,0.3c0,19.2-15.5,34.7-34.6,34.7c-19.2,0-34.7-15.5-34.7-34.6
		S22.3,6.9,41.4,6.9c9.3,0,18.2,3.7,24.7,10.3c1.2,1.3,3.3,1.4,4.7,0.2c0.1-0.1,0.1-0.1,0.2-0.2c1.3-1.2,1.4-3.3,0.2-4.7
		c-0.1-0.1-0.1-0.1-0.2-0.2l0,0C63.3,4.3,52.6-0.1,41.5,0C18.6,0,0,18.6,0,41.5S18.6,83,41.5,83S83,64.4,83,41.5
		c0.1-1.8-1.3-3.4-3.2-3.4C79.6,38,79.6,38,79.5,38z"/>
	<path class="st0" d="M55.5,50.6c1.4,1.4,1.4,3.6,0,5c-0.7,0.7-1.6,1-2.5,1c-0.9,0-1.8-0.3-2.5-1l-9-9.1l-9,9.1
		c-0.7,0.7-1.6,1-2.5,1c-0.9,0-1.8-0.3-2.5-1c-1.4-1.4-1.4-3.6,0-5l9-9.1l-9-9.1c-1.4-1.4-1.4-3.6,0-4.9c1.4-1.4,3.6-1.4,4.9,0
		l9,9.1l9-9.1c1.4-1.4,3.6-1.4,5,0c1.4,1.4,1.4,3.6,0,4.9l-9,9.1L55.5,50.6z"/>
</g>
</svg>
