<?xml version="1.0" encoding="utf-8"?>
<!-- Generator: Adobe Illustrator 21.1.0, SVG Export Plug-In . SVG Version: 6.00 Build 0)  -->
<svg version="1.1" id="Layer_1" xmlns="http://www.w3.org/2000/svg" xmlns:xlink="http://www.w3.org/1999/xlink" x="0px" y="0px"
	 viewBox="0 0 28 28" style="enable-background:new 0 0 28 28;" xml:space="preserve">
<style type="text/css">
	.st0{fill:#6D6D6D;}
</style>
<g>
	<path class="st0" d="M15.2,20c0.3,0.3,0.5,0.7,0.4,1.1c-0.1,0.9-0.7,1.5-1.5,1.5c-0.9-0.1-1.5-0.7-1.6-1.5c0-1,0.7-1.6,1.5-1.6l0,0
		l0,0C14.5,19.5,14.9,19.7,15.2,20z"/>
	<path class="st0" d="M18.6,10.1c0.4,2.4-1.1,4.8-3.4,5.6v2c-0.1,0.8-0.7,1.3-1.4,1.3h-0.1c-0.8,0-1.3-0.7-1.3-1.4v-3.1
		c0-0.4,0.2-0.8,0.5-1.1c0.3-0.3,0.7-0.4,1-0.4h0.1c1.1,0,1.9-1,1.9-2c0-0.6-0.2-1.1-0.6-1.4S14.6,9.1,14,9.1l0,0
		c-1.2,0-2.1,1-2.1,2.1v0.1c-0.1,0.8-0.8,1.4-1.4,1.3c-0.8-0.1-1.4-0.7-1.3-1.4V11c0-1.3,0.5-2.4,1.4-3.4c0.9-0.9,2.1-1.4,3.4-1.4
		c0,0,0,0,0.1,0C16.3,6.2,18.2,7.8,18.6,10.1z"/>
	<path class="st0" d="M14,0L14,0C6.3,0,0,6.3,0,14s6.3,14,14,14s14-6.3,14-14S21.7,0,14,0z M14,25.3c-6.2,0-11.3-5-11.3-11.3
		c0-6.2,5-11.3,11.3-11.3c6.2,0,11.3,5,11.3,11.3C25.3,20.2,20.2,25.3,14,25.3z"/>
</g>
</svg>
