<?xml version="1.0" encoding="utf-8"?>
<!-- Generator: Adobe Illustrator 21.1.0, SVG Export Plug-In . SVG Version: 6.00 Build 0)  -->
<svg version="1.1" id="Layer_1" xmlns="http://www.w3.org/2000/svg" xmlns:xlink="http://www.w3.org/1999/xlink" x="0px" y="0px"
	 viewBox="0 0 17.3 17.3" style="enable-background:new 0 0 17.3 17.3;" xml:space="preserve">
<style type="text/css">
	.st0{stroke:#000000;stroke-width:0.5;}
</style>
<g id="info" transform="translate(-1867 -3737)">
	<path id="Path_775" class="st0" d="M1875.7,3737.3c-4.6,0-8.4,3.8-8.4,8.4s3.8,8.4,8.4,8.4c4.6,0,8.4-3.8,8.4-8.4l0,0
		C1884.1,3741,1880.3,3737.3,1875.7,3737.3z M1875.7,3753c-4.1,0-7.4-3.3-7.4-7.4s3.3-7.4,7.4-7.4c4.1,0,7.4,3.3,7.4,7.4
		C1883,3749.7,1879.7,3753,1875.7,3753z"/>
	<circle id="Ellipse_22" class="st0" cx="1875.8" cy="3742.3" r="0.9"/>
	<path id="Path_776" class="st0" d="M1875.5,3744.6c-0.3,0-0.5,0.2-0.5,0.5v4.4c0,0.3,0.2,0.5,0.5,0.5s0.5-0.2,0.5-0.5v-4.4
		C1876,3744.8,1875.8,3744.6,1875.5,3744.6C1875.5,3744.6,1875.5,3744.6,1875.5,3744.6z"/>
</g>
</svg>
