<svg id="Layer_1" data-name="Layer 1" xmlns="http://www.w3.org/2000/svg" viewBox="0 0 218.7 110"><defs><style>.cls-1{fill:#424242;}.cls-2{fill:#1b1b1b;}</style></defs><title>Info box</title><path class="cls-1" d="M218.2,5.54v99a5,5,0,0,1-5,5H16.2a5,5,0,0,1-5-5v-39L.71,55l10.5-10.5v-39a5,5,0,0,1,5-5h197A5,5,0,0,1,218.2,5.54Z" transform="translate(0 -0.04)"/><path class="cls-2" d="M213.2,110H16.2a5.51,5.51,0,0,1-5.5-5.5V65.75L0,55l10.7-10.7V5.54A5.51,5.51,0,0,1,16.2,0h197a5.51,5.51,0,0,1,5.5,5.5v99A5.51,5.51,0,0,1,213.2,110ZM1.41,55,11.7,65.33v39.21a4.5,4.5,0,0,0,4.5,4.5h197a4.5,4.5,0,0,0,4.5-4.5v-99A4.5,4.5,0,0,0,213.2,1H16.2a4.5,4.5,0,0,0-4.5,4.5V44.75Z" transform="translate(0 -0.04)"/></svg>