<svg xmlns="http://www.w3.org/2000/svg" viewBox="-332 -3875 39.13 45">
  <path id="Load_icon" data-name="Load icon" d="M7.47,15.118a9.241,9.241,0,0,1-1.245-4.447A9.109,9.109,0,0,1,15.3,1.6a3.027,3.027,0,0,1,1.245.178h0a10.325,10.325,0,0,0-4.8,8.893,9.134,9.134,0,0,0,1.067,4.447h1.779a7.783,7.783,0,0,1-1.423-4.447,9.071,9.071,0,0,1,18.142,0,9.241,9.241,0,0,1-1.245,4.447h1.779A9.643,9.643,0,0,0,32.9,10.672,10.7,10.7,0,0,0,22.233,0a11.468,11.468,0,0,0-3.557.534h0A8.616,8.616,0,0,0,15.474,0,10.7,10.7,0,0,0,4.8,10.672a9.134,9.134,0,0,0,1.067,4.447ZM17.609,1.067Zm6.581,14.051H20.81a2.868,2.868,0,0,1-1.067-2.312.652.652,0,0,1,.711-.711c.534,0,.711.178.711.711a1.4,1.4,0,0,0,1.423,1.423,1.53,1.53,0,0,0,1.423-1.423c0-.356-.178-1.067-1.779-1.423-1.779-.711-2.846-1.423-2.846-2.846a2.884,2.884,0,0,1,2.134-2.846V5.514a.711.711,0,1,1,1.423,0v.178a2.742,2.742,0,0,1,2.134,2.846.652.652,0,0,1-.711.711c-.534,0-.711-.178-.711-.711a1.309,1.309,0,0,0-1.423-1.423A1.4,1.4,0,0,0,20.81,8.537c0,.356.178,1.067,1.779,1.423.711.178,2.846.889,2.846,2.846A4.853,4.853,0,0,1,24.189,15.118Zm13.162,8.893V15.3a3.837,3.837,0,0,0-3.379-3.735v1.423c1.779.178,1.779,2.134,1.779,2.134H4.269a.711.711,0,1,0,0,1.423H35.751v7.47H30.237a4.709,4.709,0,0,0-4.624,4.624v.356a4.709,4.709,0,0,0,4.624,4.624h5.514v7.648A2.055,2.055,0,0,1,33.616,43.4H3.735a2.354,2.354,0,0,1-2.312-2.312V15.3a2.354,2.354,0,0,1,2.312-2.312h.178V11.561H3.735A3.757,3.757,0,0,0,0,15.3V41.264A3.757,3.757,0,0,0,3.735,45h29.7a3.647,3.647,0,0,0,3.735-3.735V33.616H39.13v-9.6H37.351Zm.356,8.182h-7.47a3.188,3.188,0,0,1-3.2-3.2v-.356a3.188,3.188,0,0,1,3.2-3.2h7.47Zm-6.759-4.98a1.6,1.6,0,1,1-1.6,1.6A1.594,1.594,0,0,1,30.948,27.213Z" transform="translate(-332 -3875)"/>
</svg>
