<?xml version="1.0" encoding="utf-8"?>
<!-- Generator: Adobe Illustrator 21.1.0, SVG Export Plug-In . SVG Version: 6.00 Build 0)  -->
<svg version="1.1" id="Layer_1" xmlns="http://www.w3.org/2000/svg" xmlns:xlink="http://www.w3.org/1999/xlink" x="0px" y="0px"
	 viewBox="0 0 27.6 23" style="enable-background:new 0 0 27.6 23;" xml:space="preserve">
<style type="text/css">
	.st0{fill:#6D6D6D;}
</style>
<g>
	<path class="st0" d="M4.2,12.7h15.2c0.7,0,1.3-0.6,1.3-1.3c0-0.7-0.6-1.3-1.3-1.3H4.2l1.7-1.6c0.5-0.5,0.5-1.3,0-1.8S4.6,6.2,4,6.7
		l-3.9,3.8L0,10.6l0,0c0,0,0,0,0,0.1s0,0,0,0.1s0,0,0,0.1s0,0,0,0.1s0,0,0,0.1s0,0,0,0.1s0,0,0,0.1c0,0.1,0,0,0,0.1c0,0.1,0,0,0,0.1
		s0,0,0,0.1s0,0,0,0.1v0.1l0,0v0.1c0,0,0,0,0,0.1s0,0,0,0.1s0,0,0,0.1s0,0,0,0.1s0,0,0,0.1s0,0,0,0.1s0,0,0,0.1s0,0,0,0.1
		c0,0.1,0,0,0,0.1c0,0.1,0,0,0,0.1s0,0,0,0.1s0,0,0,0L0.1,13l0,0L4,16.8c0.5,0.5,1.3,0.5,1.9,0s0.5-1.3,0-1.8l0,0L4.2,12.7z M26.4,0
		H9.8C9,0,8.4,0.6,8.4,1.3l0,0v5.1c0,0.7,0.6,1.3,1.3,1.3S11,7.1,11,6.4V2.5h14v17.9H11v-3.8c0-0.7-0.6-1.3-1.3-1.3
		s-1.3,0.6-1.3,1.3v5.1C8.4,22.4,9,23,9.7,23h16.6c0.7,0,1.3-0.6,1.3-1.3V1.4C27.7,0.6,27.1,0,26.4,0z"/>
</g>
</svg>
