<?xml version="1.0" encoding="utf-8"?>
<!-- Generator: Adobe Illustrator 21.1.0, SVG Export Plug-In . SVG Version: 6.00 Build 0)  -->
<svg version="1.1" id="Layer_1" xmlns="http://www.w3.org/2000/svg" xmlns:xlink="http://www.w3.org/1999/xlink" x="0px" y="0px"
	 viewBox="0 0 168.3 200" style="enable-background:new 0 0 168.3 200;" xml:space="preserve">
<path id="hourglass" d="M159.6,186.9h-10.2V170c0-24.9-13.1-47.6-36.8-64c-1.5-1.6-2.2-3.8-2-6c-0.2-2.2,0.5-4.4,2-6l0,0
	c23.7-16.4,36.8-39.2,36.8-64V13.1h10.2c3.2,0.1,5.9-2.4,6-5.6c0.1-3.2-2.4-5.9-5.6-6c-0.1,0-0.3,0-0.4,0H8.4
	c-3.2,0.1-5.7,2.8-5.6,6c0.1,3,2.5,5.5,5.6,5.6h10.2V30c0,24.9,13.1,47.6,36.8,64c1.5,1.6,2.2,3.8,2,6c0.2,2.2-0.5,4.4-2,6
	c-23.7,16.4-36.8,39.2-36.8,64v16.9H8.4c-3.2,0.1-5.7,2.8-5.6,6c0.1,3,2.5,5.5,5.6,5.6h151.1c3.2,0.1,5.9-2.4,6-5.6
	c0.1-3.2-2.4-5.9-5.6-6C159.8,186.9,159.7,186.9,159.6,186.9z M62,115.5c4.7-3.7,7.3-9.5,6.9-15.5c0.3-6-2.3-11.8-6.9-15.5
	C41.5,70.3,30.2,50.9,30.2,30V13.1h107.7V30c0,21-11.3,40.3-31.8,54.6c-4.7,3.7-7.3,9.5-6.9,15.5c-0.3,6,2.3,11.8,6.9,15.5
	c14.1,9.1,24.6,22.9,29.7,38.9l-38.7-25.1c-7.9-5.1-18-5.1-25.9,0l-38.8,25.1C37.4,138.4,47.9,124.6,62,115.5z M30.2,186.9V170
	c0-0.2,0-0.3,0-0.5L77.3,139c4.1-2.6,9.3-2.6,13.3,0l47.2,30.5c0,0.2,0,0.3,0,0.5v16.9L30.2,186.9z"/>
</svg>
