<svg xmlns="http://www.w3.org/2000/svg" viewBox="-264 -2176 120 120">
  <defs>
    <style>
      .cls-1 {
        fill: rgba(109,109,109,0.2);
        stroke: #6d6d6d;
        stroke-width: 0.5px;
      }
    </style>
  </defs>
  <path id="Exclusion_1" data-name="Exclusion 1" class="cls-1" d="M1207,3020.75a59.466,59.466,0,0,1-33.406-10.2,59.912,59.912,0,0,1-21.649-26.289,59.67,59.67,0,0,1,5.509-56.664,59.932,59.932,0,0,1,26.289-21.648,59.672,59.672,0,0,1,56.664,5.509,59.927,59.927,0,0,1,21.648,26.288,59.676,59.676,0,0,1-5.509,56.665,59.928,59.928,0,0,1-26.288,21.648A59.4,59.4,0,0,1,1207,3020.75Zm15.495-36.4a7.441,7.441,0,1,0,5.222,2.18A7.345,7.345,0,0,0,1222.494,2984.35Zm-26.221,0a7.443,7.443,0,1,0,5.222,2.18A7.345,7.345,0,0,0,1196.274,2984.35ZM1167,2926.662h5.616a5.372,5.372,0,0,1,5.211,4.073l8.987,35.167a7.743,7.743,0,0,0,4.692,13.87h46.21v-3.912h-46.21a3.848,3.848,0,0,1,0-7.7h47.341l.051-.183,8.342-29.779.089-.318H1234.9l-4.352-13.443-.076-.238-.239.076-18.383,5.96-.239.077.078.238,2.406,7.329h-.34l-4.481-13.445-.079-.236-.236.076-18.383,5.96-.238.077.078.238,2.407,7.329h-9.288l-1.993-7.974a9.3,9.3,0,0,0-8.929-7.16h-5.866v3.912Zm55.494,68.757a3.668,3.668,0,0,1,0-7.337,3.651,3.651,0,0,1,2.551,6.28A3.709,3.709,0,0,1,1222.494,2995.42Zm-26.221,0a3.668,3.668,0,1,1,3.668-3.668A3.718,3.718,0,0,1,1196.274,2995.42Zm39.647-31.152h-45.575l-5.831-22.65h57.732l-6.326,22.651Zm-5.088-26.563h-12.75l-1.732-4.865,11.6-3.763,2.88,8.627Zm-21.273,0h-12.75l-1.732-4.865,11.6-3.763,2.881,8.627Z" transform="translate(-1411 -5077)"/>
</svg>
