<svg xmlns="http://www.w3.org/2000/svg" viewBox="1399 4495 280 280">
  <defs>
    <style>
      .cls-1 {
        fill: rgba(0,0,0,0.87);
      }
    </style>
  </defs>
  <g id="QR_code_made" data-name="QR code made" transform="translate(1351 4309)">
    <path id="QR_Code" data-name="QR Code" class="cls-1" d="M263.031,280v-8.485h8.484V280Zm-25.455,0v-8.485h8.485V280Zm-25.456,0v-8.485h8.486V280Zm-8.484,0v-8.485h8.484V280Zm-16.971,0v-8.485h8.485V280Zm-33.939,0v-8.485h8.486V280Zm-8.482,0v-8.485h8.482V280Zm-8.488,0v-8.485h8.485V280Zm-42.421,0v-8.485h8.485V280Zm-8.485,0v-8.485h8.485V280Zm-8.485,0v-8.485H84.85V280Zm-8.486,0v-8.485h8.486V280Zm-16.97,0v-8.485h8.485V280Zm-8.485,0v-8.485H50.91V280Zm-8.485,0v-8.485h8.485V280Zm-8.485,0v-8.485H33.94V280Zm-8.485,0v-8.485h8.485V280Zm-8.485,0v-8.485H16.97V280ZM0,280v-8.485H8.485V280Zm254.546-8.485V263.03h8.485v8.485Zm-16.97,0V263.03h8.485v8.485Zm-8.486,0V263.03h8.486v8.485Zm-8.484,0V263.03h8.484v8.485Zm-8.486,0V263.03h8.486v8.485Zm-25.455,0V263.03h8.485v8.485Zm-8.484,0V263.03h8.484v8.485Zm-8.486,0V263.03h8.486v8.485Zm-8.484,0V263.03H169.7v8.485Zm-8.486,0V263.03h8.486v8.485Zm-25.452,0V263.03h8.483v8.485Zm-8.484,0V263.03h8.484v8.485Zm-25.454,0V263.03h8.485v8.485Zm-25.456,0V263.03h8.486v8.485Zm-16.97,0V263.03h8.485v8.485Zm-50.91,0V263.03H8.485v8.485Zm254.546-8.485v-8.485h8.485v8.485Zm-33.939,0v-8.485h8.484v8.485Zm-25.456,0v-8.485h8.486v8.485Zm-8.485,0v-8.485h8.485v8.485Zm-8.484,0v-8.485h8.484v8.485Zm-42.425,0v-8.485h8.485v8.485Zm-8.483,0v-8.485h8.483v8.485Zm-25.454,0v-8.485H110.3v8.485Zm-8.485,0v-8.485h8.485v8.485Zm-16.97,0v-8.485H84.85v8.485Zm-8.486,0v-8.485h8.486v8.485Zm-16.97,0v-8.485h8.485v8.485Zm-16.97,0v-8.485h8.485v8.485Zm-8.485,0v-8.485H33.94v8.485Zm-8.485,0v-8.485h8.485v8.485ZM0,263.03v-8.485H8.485v8.485Zm271.515-8.485V246.06H280v8.485Zm-8.484,0V246.06h8.484v8.485Zm-8.485,0V246.06h8.485v8.485Zm-8.485,0V246.06h8.485v8.485Zm-8.485,0V246.06h8.485v8.485Zm-8.486,0V246.06h8.486v8.485Zm-16.97,0V246.06h8.486v8.485Zm-16.97,0V246.06h8.486v8.485Zm-33.939,0V246.06H169.7v8.485Zm-76.362,0V246.06h8.485v8.485Zm-8.485,0V246.06H84.85v8.485Zm-8.486,0V246.06h8.486v8.485Zm-16.97,0V246.06h8.485v8.485Zm-16.97,0V246.06h8.485v8.485Zm-8.485,0V246.06H33.94v8.485Zm-8.485,0V246.06h8.485v8.485Zm-16.97,0V246.06H8.485v8.485Zm271.515-8.485v-8.485H280v8.485Zm-8.484,0v-8.485h8.484v8.485Zm-25.455,0v-8.485h8.485v8.485Zm-8.486,0v-8.485h8.486v8.485Zm-8.484,0v-8.485h8.484v8.485Zm-8.486,0v-8.485h8.486v8.485Zm-8.484,0v-8.485h8.484v8.485Zm-33.941,0v-8.485h8.486v8.485Zm-8.484,0v-8.485H169.7v8.485Zm-8.486,0v-8.485h8.486v8.485Zm-8.482,0v-8.485h8.482v8.485Zm-8.488,0v-8.485h8.485v8.485Zm-8.483,0v-8.485h8.483v8.485Zm-8.484,0v-8.485h8.484v8.485Zm-16.97,0v-8.485H110.3v8.485Zm-16.97,0v-8.485h8.485v8.485Zm-8.485,0v-8.485H84.85v8.485Zm-8.486,0v-8.485h8.486v8.485Zm-16.97,0v-8.485h8.485v8.485Zm-16.97,0v-8.485h8.485v8.485Zm-8.485,0v-8.485H33.94v8.485Zm-8.485,0v-8.485h8.485v8.485ZM0,246.06v-8.485H8.485v8.485Zm271.515-8.485V229.09H280v8.485Zm-8.484,0V229.09h8.484v8.485Zm-8.485,0V229.09h8.485v8.485Zm-8.485,0V229.09h8.485v8.485Zm-8.485,0V229.09h8.485v8.485Zm-33.939,0V229.09h8.484v8.485Zm-8.486,0V229.09h8.486v8.485Zm-8.485,0V229.09h8.485v8.485Zm-8.484,0V229.09h8.484v8.485Zm-42.425,0V229.09h8.485v8.485Zm-8.483,0V229.09h8.483v8.485Zm-16.97,0V229.09h8.483v8.485Zm-8.484,0V229.09H110.3v8.485Zm-16.97,0V229.09h8.485v8.485Zm-33.94,0V229.09h8.485v8.485Zm-50.91,0V229.09H8.485v8.485Zm263.031-8.485v-8.485h8.484v8.485Zm-8.485,0v-8.485h8.485v8.485Zm-16.97,0v-8.485h8.485v8.485Zm-16.97,0v-8.485h8.484v8.485Zm-16.97,0v-8.485h8.484v8.485Zm-8.486,0v-8.485h8.486v8.485Zm-16.969,0v-8.485h8.484v8.485Zm-50.908,0v-8.485h8.483v8.485Zm-8.484,0v-8.485h8.484v8.485Zm-8.485,0v-8.485h8.483v8.485Zm-42.425,0v-8.485h8.486v8.485Zm-16.97,0v-8.485h8.485v8.485Zm-8.485,0v-8.485H50.91v8.485Zm-8.485,0v-8.485h8.485v8.485Zm-8.485,0v-8.485H33.94v8.485Zm-8.485,0v-8.485h8.485v8.485Zm-8.485,0v-8.485H16.97v8.485ZM0,229.09v-8.485H8.485v8.485Zm271.515-8.485V212.12H280v8.485Zm-33.939,0V212.12h8.485v8.485Zm-33.939,0V212.12h8.484v8.485Zm-8.486,0V212.12h8.486v8.485Zm-8.485,0V212.12h8.485v8.485Zm-25.453,0V212.12H169.7v8.485Zm-8.486,0V212.12h8.486v8.485Zm-8.482,0V212.12h8.482v8.485Zm-25.454,0V212.12h8.484v8.485Zm-8.485,0V212.12h8.483v8.485Zm-8.484,0V212.12H110.3v8.485Zm-33.94,0V212.12h8.486v8.485Zm203.636-8.485v-8.485H280v8.485Zm-25.454,0v-8.485h8.485v8.485Zm-8.485,0v-8.485h8.485v8.485Zm-8.486,0v-8.485h8.486v8.485Zm-8.484,0v-8.485h8.484v8.485Zm-8.486,0v-8.485h8.486v8.485Zm-8.484,0v-8.485h8.484v8.485Zm-33.941,0v-8.485h8.486v8.485Zm-16.97,0v-8.485h8.486v8.485Zm-8.482,0v-8.485h8.482v8.485Zm-8.488,0v-8.485h8.485v8.485Zm-8.483,0v-8.485h8.483v8.485Zm-33.939,0v-8.485h8.485v8.485Zm-42.425,0v-8.485h8.485v8.485Zm-8.485,0v-8.485H50.91v8.485Zm-25.455,0v-8.485h8.485v8.485ZM0,212.12v-8.485H8.485v8.485Zm254.546-8.485V195.15h8.485v8.485Zm-8.485,0V195.15h8.485v8.485Zm-16.971,0V195.15h8.486v8.485Zm-8.484,0V195.15h8.484v8.485Zm-8.486,0V195.15h8.486v8.485Zm-16.97,0V195.15h8.486v8.485Zm-8.485,0V195.15h8.485v8.485Zm-8.484,0V195.15h8.484v8.485Zm-8.486,0V195.15h8.486v8.485Zm-8.484,0V195.15H169.7v8.485Zm-33.938,0V195.15h8.483v8.485Zm-8.484,0V195.15h8.484v8.485Zm-25.454,0V195.15h8.485v8.485Zm-8.485,0V195.15h8.485v8.485Zm-67.88,0V195.15h8.485v8.485Zm-16.97,0V195.15H8.485v8.485Zm263.031-8.485v-8.485h8.484v8.485Zm-16.97,0v-8.485h8.485v8.485Zm-25.454,0v-8.485h8.484v8.485Zm-8.486,0v-8.485h8.486v8.485Zm-8.484,0v-8.485h8.484v8.485Zm-25.455,0v-8.485h8.484v8.485Zm-8.486,0v-8.485h8.486v8.485Zm-16.97,0v-8.485h8.486v8.485Zm-8.482,0v-8.485h8.482v8.485Zm-8.488,0v-8.485h8.485v8.485Zm-8.483,0v-8.485h8.483v8.485Zm-25.454,0v-8.485H110.3v8.485Zm-8.485,0v-8.485h8.485v8.485Zm-16.97,0v-8.485H84.85v8.485Zm-16.971,0v-8.485h8.485v8.485Zm-8.485,0v-8.485h8.485v8.485Zm-8.485,0v-8.485H50.91v8.485Zm-8.485,0v-8.485h8.485v8.485ZM0,195.15v-8.485H8.485v8.485Zm271.515-8.485v-8.485H280v8.485Zm-8.484,0v-8.485h8.484v8.485Zm-16.97,0v-8.485h8.485v8.485Zm-25.454,0v-8.485h8.484v8.485Zm-25.456,0v-8.485h8.486v8.485Zm-8.485,0v-8.485h8.485v8.485Zm-8.484,0v-8.485h8.484v8.485Zm-16.97,0v-8.485H169.7v8.485Zm-8.486,0v-8.485h8.486v8.485Zm-16.97,0v-8.485h8.485v8.485Zm-50.906,0v-8.485h8.485v8.485Zm-16.971,0v-8.485h8.486v8.485Zm-8.485,0v-8.485h8.485v8.485Zm-16.97,0v-8.485H50.91v8.485Zm-16.97,0v-8.485H33.94v8.485Zm-16.97,0v-8.485H16.97v8.485Zm-8.485,0v-8.485H8.485v8.485Zm263.031-8.485V169.7h8.484v8.485Zm-25.455,0V169.7h8.485v8.485Zm-8.486,0V169.7h8.486v8.485Zm-16.97,0V169.7h8.486v8.485Zm-8.484,0V169.7h8.484v8.485Zm-8.486,0V169.7h8.486v8.485Zm-25.455,0V169.7h8.486v8.485Zm-25.452,0V169.7h8.482v8.485Zm-16.97,0V169.7h8.483v8.485Zm-8.484,0V169.7h8.484v8.485Zm-16.97,0V169.7H110.3v8.485Zm-16.97,0V169.7h8.485v8.485Zm-33.94,0V169.7h8.485v8.485Zm-16.97,0V169.7h8.485v8.485Zm-25.455,0V169.7H16.97v8.485Zm-8.485,0V169.7H8.485v8.485ZM254.546,169.7v-8.485h8.485v-8.482h8.484v8.485h-8.484V169.7Zm-33.939,0v-8.485h8.484v-8.482h8.486v8.485H229.09V169.7Zm-8.486,0v-8.485h8.486V169.7Zm-8.484,0v-8.485h8.484V169.7Zm-16.971,0v-8.485h8.485V169.7Zm-8.484,0v0H169.7v0h-8.484v-8.485H169.7v-8.482h8.486v0h8.484V169.7Zm-25.456,0v-8.485h8.486V169.7Zm-42.422,0v0H101.82v-8.485H110.3v-8.482h8.483V169.7Zm-25.454,0V152.729h8.485V169.7Zm-50.91,0v0H25.454v0H16.97v0H8.485v-8.485H16.97v-8.482h8.485v0H33.94v0h8.485V169.7Zm212.121-8.482v-8.485h8.485v8.485Zm-101.817,0v-8.485h8.482v8.485Zm-16.97,0v-8.485h8.483v8.485Zm-8.484,0v-8.485h8.484v8.485Zm-42.424,0v-8.485H84.85v8.485Zm-25.456,0v-8.485h8.485v8.485Zm220.606-8.485v-8.485H280v8.485Zm-8.484,0v-8.485h8.484v8.485Zm-16.97,0v-8.485h8.485v8.485Zm-25.454,0v-8.485h8.484v8.485Zm-25.456,0v-8.485h8.486v8.485Zm-8.485,0v-8.485h8.485v8.485Zm-25.453,0v-8.485H169.7v8.485Zm-25.456,0v-8.485h8.485v8.485Zm-25.452,0v-8.485h8.483v8.485Zm-8.484,0v-8.485H110.3v8.485Zm-25.455,0v-8.485H84.85v8.485Zm-16.971,0v-8.485h8.485v8.485Zm-16.97,0v-8.485H50.91v8.485Zm-16.97,0v-8.485H33.94v8.485Zm-8.485,0v-8.485h8.485v8.485Zm-8.485,0v-8.485H16.97v8.485Zm-8.485,0v-8.485H8.485v8.485Zm263.031-8.485v-8.485h8.484v8.485Zm-25.455,0v-8.485h8.485v8.485Zm-8.486,0v-8.485h8.486v8.485Zm-16.97,0v-8.485h8.486v8.485Zm-8.484,0v-8.485h8.484v8.485Zm-42.425,0v-8.485H169.7v8.485Zm-8.486,0v-8.485h8.486v8.485Zm-8.482,0v-8.485h8.482v8.485Zm-16.97,0v-8.485h8.483v8.485Zm-33.939,0v-8.485h8.485v8.485Zm-8.485,0v-8.485h8.485v8.485Zm-8.485,0v-8.485H84.85v8.485Zm-8.486,0v-8.485h8.486v8.485Zm-8.485,0v-8.485h8.485v8.485Zm-8.485,0v-8.485h8.485v8.485Zm-8.485,0v-8.485H50.91v8.485Zm-8.485,0v-8.485h8.485v8.485Zm-16.97,0v-8.485h8.485v8.485Zm-8.485,0v-8.485H16.97v8.485Zm-8.485,0v-8.485H8.485v8.485Zm254.546-8.485v-8.485h8.485v8.485Zm-16.97,0v-8.485h8.485v8.485Zm-16.97,0v-8.485h8.484v8.485Zm-42.425,0v-8.485h8.484v8.485Zm-8.486,0v-8.485h8.486v8.485Zm-33.939,0v-8.485h8.485v8.485Zm-8.483,0v-8.485h8.483v8.485Zm-8.484,0v-8.485h8.484v8.485Zm-25.454,0v-8.485h8.485v8.485Zm-8.485,0v-8.485h8.485v8.485Zm-8.485,0v-8.485H84.85v8.485Zm-16.971,0v-8.485h8.485v8.485Zm-33.94,0v-8.485H33.94v8.485ZM0,135.759v-8.485H8.485v8.485Zm263.031-8.485v-8.485h8.484v8.485Zm-25.455,0v-8.485h8.485v8.485Zm-16.97,0v-8.485h8.484v8.485Zm-8.486,0v-8.485h8.486v8.485Zm-42.425,0v-8.485h8.486v8.485Zm-25.452,0v-8.485h8.482v8.485Zm-16.97,0v-8.485h8.483v8.485Zm-8.484,0v-8.485h8.484v8.485Zm-8.485,0v-8.485h8.483v8.485Zm-8.484,0v-8.485H110.3v8.485Zm-8.485,0v-8.485h8.485v8.485Zm-8.485,0v-8.485h8.485v8.485Zm-16.971,0v-8.485h8.486v8.485Zm-16.97,0v-8.485h8.485v8.485Zm-16.97,0v-8.485h8.485v8.485Zm-8.485,0v-8.485H33.94v8.485Zm246.061-8.485V110.3H280v8.485Zm-8.484,0V110.3h8.484v8.485Zm-42.425,0V110.3h8.484v8.485Zm-25.456,0V110.3h8.486v8.485Zm-8.485,0V110.3h8.485v8.485Zm-8.484,0V110.3h8.484v8.485Zm-16.97,0V110.3H169.7v8.485Zm-50.908,0V110.3h8.483v8.485Zm-33.939,0V110.3H84.85v8.485Zm-8.486,0V110.3h8.486v8.485Zm-8.485,0V110.3h8.485v8.485Zm-25.454,0V110.3h8.485v8.485Zm-16.97,0V110.3h8.485v8.485Zm-8.485,0V110.3H16.97v8.485ZM246.061,110.3v-8.485h8.485V110.3Zm-8.485,0v-8.485h8.485V110.3Zm-8.486,0v-8.485h8.486V110.3Zm-59.394,0v-8.485h8.486V110.3Zm-16.97,0v-8.485h8.486V110.3Zm-8.482,0v-8.485h8.482V110.3Zm-8.488,0v-8.485h8.485V110.3Zm-8.483,0v-8.485h8.483V110.3Zm-16.97,0v-8.485h8.483V110.3Zm-8.484,0v-8.485H110.3V110.3Zm-16.97,0v-8.485h8.485V110.3Zm-8.485,0v-8.485H84.85V110.3Zm-25.456,0v-8.485h8.485V110.3Zm-16.97,0v-8.485h8.485V110.3Zm-16.97,0v-8.485h8.485V110.3ZM0,110.3v-8.485H8.485V110.3Zm254.546-8.485V93.334h8.485v8.485Zm-25.456,0V93.334h8.486v8.485Zm-16.97,0V93.334h8.486v8.485Zm-16.97,0V93.334h8.486v8.485Zm-16.969,0V93.334h8.484v8.485Zm-8.486,0V93.334h8.486v8.485Zm-42.422,0V93.334h8.483v8.485Zm-8.484,0V93.334h8.484v8.485Zm-16.97,0V93.334H110.3v8.485Zm-33.94,0V93.334h8.486v8.485Zm-42.425,0V93.334H33.94v8.485Zm-16.97,0V93.334H16.97v8.485Zm254.546-8.485V84.849h8.484v8.485Zm-16.97,0V84.849h8.485v8.485Zm-8.485,0V84.849h8.485v8.485Zm-8.486,0V84.849h8.486v8.485Zm-16.97,0V84.849h8.486v8.485Zm-25.455,0V84.849h8.485v8.485Zm-33.939,0V84.849h8.486v8.485Zm-25.452,0V84.849h8.483v8.485Zm-42.424,0V84.849h8.485v8.485Zm-33.94,0V84.849h8.485v8.485Zm-16.97,0V84.849h8.485v8.485Zm-8.485,0V84.849H33.94v8.485Zm-8.485,0V84.849h8.485v8.485Zm-8.485,0V84.849H16.97v8.485ZM0,93.334V84.849H8.485v8.485Zm271.515-8.485V76.364H280v8.485Zm-8.484,0V76.364h8.484v8.485Zm-8.485,0V76.364h8.485v8.485Zm-33.939,0V76.364h8.484v8.485Zm-16.97,0V76.364h8.484v8.485Zm-8.486,0V76.364h8.486v8.485Zm-8.485,0V76.364h8.485v8.485Zm-8.484,0V76.364h8.484v8.485Zm-16.97,0V76.364H169.7v8.485Zm-8.486,0V76.364h8.486v8.485Zm-16.97,0V76.364h8.485v8.485Zm-16.967,0V76.364h8.484v8.485Zm-16.97,0V76.364H110.3v8.485Zm-16.97,0V76.364h8.485v8.485Zm-16.971,0V76.364h8.486v8.485Zm-42.425,0V76.364H33.94v8.485Zm-16.97,0V76.364H16.97v8.485Zm254.546-8.485V67.879h8.484v8.485Zm-16.97,0V67.879h8.485v8.485Zm-16.971,0V67.879h8.486v8.485Zm-16.97,0V67.879h8.486v8.485Zm-8.484,0V67.879h8.484v8.485Zm-8.486,0V67.879h8.486v8.485Zm-25.455,0V67.879h8.486v8.485Zm-25.452,0V67.879h8.482v8.485Zm-16.97,0V67.879h8.483v8.485Zm-16.97,0V67.879h8.483v8.485Zm-16.969,0V67.879h8.485v8.485Zm-16.97,0V67.879H84.85v8.485Zm-8.486,0V67.879h8.486v8.485Zm-8.485,0V67.879h8.485v8.485Zm-8.485,0V67.879h8.485v8.485Zm-16.97,0V67.879h8.485v8.485Zm-8.485,0V67.879H33.94v8.485Zm-8.485,0V67.879h8.485v8.485Zm-8.485,0V67.879H16.97v8.485ZM0,76.364V67.879H8.485v8.485Zm195.151-8.485V59.394h8.486v8.485Zm-8.485,0V59.394h8.485v8.485Zm-8.484,0V59.394h8.484v8.485Zm-16.97,0V59.394H169.7v8.485Zm-25.456,0V59.394h8.485v8.485Zm-16.967,0V59.394h8.484v8.485Zm-25.454,0V59.394h8.485v8.485Zm-8.485,0V59.394h8.485v8.485Zm-8.485,0V59.394H84.85v8.485Zm195.15-8.485V50.91H280v8.485Zm-8.484,0V50.91h8.484v8.485Zm-8.485,0V50.91h8.485v8.485Zm-8.485,0V50.91h8.485v8.485Zm-8.485,0V50.91h8.485v8.485Zm-8.486,0V50.91h8.486v8.485Zm-8.484,0V50.91h8.484v8.485Zm-16.97,0V50.91h8.484v8.485Zm-16.971,0V50.91h8.485v8.485Zm-16.97,0V50.91h8.486v8.485Zm-16.97,0V50.91h8.486v8.485Zm-16.97,0V50.91h8.485v8.485Zm-16.967,0V50.91h8.484v8.485Zm-16.97,0V50.91H110.3v8.485Zm-16.97,0V50.91h8.485v8.485Zm-16.971,0V50.91h8.486v8.485Zm-16.97,0V50.91h8.485v8.485Zm-8.485,0V50.91H50.91v8.485Zm-8.485,0V50.91h8.485v8.485Zm-8.485,0V50.91H33.94v8.485Zm-8.485,0V50.91h8.485v8.485Zm-8.485,0V50.91H16.97v8.485ZM0,59.394V50.91H8.485v8.485ZM271.515,50.91V42.425H280V50.91Zm-50.909,0V42.425h8.484V50.91Zm-50.911,0V42.425h8.486V50.91Zm-42.422,0V42.425h8.483V50.91Zm-25.454,0V42.425H110.3V50.91Zm-8.485,0V42.425h8.485V50.91Zm-16.97,0V42.425H84.85V50.91Zm-8.486,0V42.425h8.486V50.91Zm-16.97,0V42.425h8.485V50.91ZM0,50.91V42.425H8.485V50.91Zm271.515-8.485V33.94H280v8.485Zm-16.97,0V33.94h8.485v8.485Zm-8.485,0V33.94h8.485v8.485Zm-8.485,0V33.94h8.485v8.485Zm-16.97,0V33.94h8.484v8.485Zm-16.97,0V33.94h8.484v8.485Zm-8.486,0V33.94h8.486v8.485Zm-8.485,0V33.94h8.485v8.485Zm-8.484,0V33.94h8.484v8.485Zm-16.97,0V33.94H169.7v8.485Zm-8.486,0V33.94h8.486v8.485Zm-8.482,0V33.94h8.482v8.485Zm-8.488,0V33.94h8.485v8.485Zm-16.967,0V33.94h8.484v8.485Zm-8.485,0V33.94h8.483v8.485Zm-33.939,0V33.94H84.85v8.485Zm-25.456,0V33.94h8.485v8.485Zm-16.97,0V33.94h8.485v8.485Zm-8.485,0V33.94H33.94v8.485Zm-8.485,0V33.94h8.485v8.485ZM0,42.425V33.94H8.485v8.485ZM271.515,33.94V25.455H280V33.94Zm-16.97,0V25.455h8.485V33.94Zm-8.485,0V25.455h8.485V33.94Zm-8.485,0V25.455h8.485V33.94Zm-16.97,0V25.455h8.484V33.94Zm-50.911,0V25.455h8.486V33.94Zm-16.97,0V25.455h8.486V33.94Zm-8.482,0V25.455h8.482V33.94Zm-16.97,0V25.455h8.483V33.94Zm-16.97,0V25.455h8.483V33.94Zm-8.484,0V25.455H110.3V33.94Zm-16.97,0V25.455h8.485V33.94Zm-8.485,0V25.455H84.85V33.94Zm-8.486,0V25.455h8.486V33.94Zm-16.97,0V25.455h8.485V33.94Zm-16.97,0V25.455h8.485V33.94Zm-8.485,0V25.455H33.94V33.94Zm-8.485,0V25.455h8.485V33.94ZM0,33.94V25.455H8.485V33.94Zm271.515-8.485V16.97H280v8.485Zm-16.97,0V16.97h8.485v8.485Zm-8.485,0V16.97h8.485v8.485Zm-8.485,0V16.97h8.485v8.485Zm-16.97,0V16.97h8.484v8.485Zm-16.97,0V16.97h8.484v8.485Zm-8.486,0V16.97h8.486v8.485Zm-8.485,0V16.97h8.485v8.485Zm-8.484,0V16.97h8.484v8.485Zm-16.97,0V16.97H169.7v8.485Zm-8.486,0V16.97h8.486v8.485Zm-16.97,0V16.97h8.485v8.485Zm-33.937,0V16.97H110.3v8.485Zm-50.91,0V16.97h8.485v8.485Zm-16.97,0V16.97h8.485v8.485Zm-8.485,0V16.97H33.94v8.485Zm-8.485,0V16.97h8.485v8.485ZM0,25.455V16.97H8.485v8.485ZM271.515,16.97V8.485H280V16.97Zm-50.909,0V8.485h8.484V16.97Zm-50.911,0V8.485h8.486V16.97Zm-16.97,0V8.485h8.486V16.97Zm-8.482,0V8.485h8.482V16.97Zm-16.97,0V8.485h8.483V16.97Zm-42.424,0V8.485h8.485V16.97Zm-16.971,0V8.485h8.486V16.97Zm-16.97,0V8.485h8.485V16.97ZM0,16.97V8.485H8.485V16.97ZM271.515,8.485V0H280V8.485Zm-8.484,0V0h8.484V8.485Zm-8.485,0V0h8.485V8.485Zm-8.485,0V0h8.485V8.485Zm-8.485,0V0h8.485V8.485Zm-8.486,0V0h8.486V8.485Zm-8.484,0V0h8.484V8.485Zm-16.97,0V0h8.484V8.485Zm-8.486,0V0h8.486V8.485Zm-8.485,0V0h8.485V8.485Zm-8.484,0V0h8.484V8.485Zm-16.97,0V0H169.7V8.485Zm-42.423,0V0h8.484V8.485Zm-8.485,0V0h8.483V8.485Zm-8.484,0V0H110.3V8.485Zm-16.97,0V0h8.485V8.485Zm-33.94,0V0h8.485V8.485Zm-8.485,0V0H50.91V8.485Zm-8.485,0V0h8.485V8.485Zm-8.485,0V0H33.94V8.485Zm-8.485,0V0h8.485V8.485Zm-8.485,0V0H16.97V8.485ZM0,8.485V0H8.485V8.485Z" transform="translate(48 186)"/>
  </g>
</svg>
