<?xml version="1.0" encoding="utf-8"?>
<!-- Generator: Adobe Illustrator 21.1.0, SVG Export Plug-In . SVG Version: 6.00 Build 0)  -->
<svg version="1.1" id="Layer_1" xmlns="http://www.w3.org/2000/svg" xmlns:xlink="http://www.w3.org/1999/xlink" x="0px" y="0px"
	 viewBox="0 0 200 200" style="enable-background:new 0 0 200 200;" xml:space="preserve">
<g id="QR_codes" transform="translate(-1871 -3863)">
	<g id="Group_509" transform="translate(0 0)">
		<g id="Group_508">
			<path id="Path_834" d="M1955,3863h-78.1c-3.2,0-5.9,2.6-5.9,5.9v78.1c0,3.2,2.6,5.9,5.9,5.9h78.1c3.2,0,5.9-2.6,5.9-5.9v-78.1
				C1960.8,3865.6,1958.2,3863,1955,3863z M1949.1,3941.1h-66.4v-66.4h66.4V3941.1z"/>
		</g>
	</g>
	<g id="Group_511" transform="translate(2.751 2.751)">
		<g id="Group_510">
			<path id="Path_835" d="M1924.9,3887.6h-23.4c-3.2,0-5.9,2.6-5.9,5.9v23.4c0,3.2,2.6,5.9,5.9,5.9h23.4c3.2,0,5.9-2.6,5.9-5.9
				v-23.4C1930.7,3890.2,1928.1,3887.6,1924.9,3887.6z M1919,3911h-11.7v-11.7h11.7V3911z"/>
		</g>
	</g>
	<g id="Group_513" transform="translate(11.082 0)">
		<g id="Group_512">
			<path id="Path_836" d="M2054.1,3863h-78.1c-3.2,0-5.9,2.6-5.9,5.9c0,0,0,0,0,0v78.1c0,3.2,2.6,5.9,5.9,5.9h78.1
				c3.2,0,5.9-2.6,5.9-5.9v-78.1C2059.9,3865.6,2057.3,3863,2054.1,3863z M2048.2,3941.1h-66.4v-66.4h66.4V3941.1z"/>
		</g>
	</g>
	<g id="Group_515" transform="translate(13.833 2.751)">
		<g id="Group_514">
			<path id="Path_837" d="M2024,3887.6h-23.4c-3.2,0-5.9,2.6-5.9,5.9v23.4c0,3.2,2.6,5.9,5.9,5.9h23.4c3.2,0,5.9-2.6,5.9-5.9v-23.4
				C2029.8,3890.2,2027.2,3887.6,2024,3887.6z M2018.1,3911h-11.7v-11.7h11.7V3911z"/>
		</g>
	</g>
	<g id="Group_517" transform="translate(0 11.082)">
		<g id="Group_516">
			<path id="Path_838" d="M1955,3962.1h-78.1c-3.2,0-5.9,2.6-5.9,5.9c0,0,0,0,0,0v78.1c0,3.2,2.6,5.9,5.9,5.9h78.1
				c3.2,0,5.9-2.6,5.9-5.9v-78.1C1960.8,3964.7,1958.2,3962.1,1955,3962.1C1955,3962.1,1955,3962.1,1955,3962.1z M1949.1,4040.2
				h-66.4v-66.4h66.4V4040.2z"/>
		</g>
	</g>
	<g id="Group_519" transform="translate(2.751 13.833)">
		<g id="Group_518">
			<path id="Path_839" d="M1924.9,3986.7h-23.4c-3.2,0-5.9,2.6-5.9,5.9v23.4c0,3.2,2.6,5.9,5.9,5.9h23.4c3.2,0,5.9-2.6,5.9-5.9
				v-23.4C1930.7,3989.3,1928.1,3986.7,1924.9,3986.7z M1919,4010.1h-11.7v-11.7h11.7V4010.1z"/>
		</g>
	</g>
	<g id="Group_521" transform="translate(15.012 13.833)">
		<g id="Group_520">
			<path id="Path_840" d="M2050.1,4014.3h-33.2v-21.7c0-3.2-2.6-5.9-5.9-5.9c-3.2,0-5.9,2.6-5.9,5.9v27.6c0,3.2,2.6,5.9,5.9,5.9
				h33.2v11.5h-33.2c-3.2,0-5.9,2.6-5.9,5.9c0,3.2,2.6,5.9,5.9,5.9h39.1c3.2,0,5.8-2.6,5.9-5.9v-23.2
				C2056,4016.9,2053.4,4014.3,2050.1,4014.3C2050.1,4014.3,2050.1,4014.3,2050.1,4014.3z"/>
		</g>
	</g>
	<g id="Group_523" transform="translate(18.942 11.082)">
		<g id="Group_522">
			<path id="Path_841" d="M2046.2,3962.1c-3.2,0-5.9,2.6-5.9,5.9c0,0,0,0,0,0v27.3c0,3.2,2.6,5.9,5.9,5.9c3.2,0,5.9-2.6,5.9-5.9
				v-27.3C2052.1,3964.7,2049.4,3962.1,2046.2,3962.1C2046.2,3962.1,2046.2,3962.1,2046.2,3962.1z"/>
		</g>
	</g>
	<g id="Group_525" transform="translate(11.082 11.082)">
		<g id="Group_524">
			<path id="Path_842" d="M2003.3,3962.1h-27.3c-3.2,0-5.9,2.6-5.9,5.9c0,0,0,0,0,0v27.3c0,3.2,2.6,5.9,5.9,5.9
				c3.2,0,5.9-2.6,5.9-5.9v-21.5h21.5c3.2,0,5.9-2.6,5.9-5.9C2009.1,3964.7,2006.5,3962.1,2003.3,3962.1L2003.3,3962.1z"/>
		</g>
	</g>
	<g id="Group_527" transform="translate(11.082 16.609)">
		<g id="Group_526">
			<path id="Path_843" d="M1975.9,4011.5c-3.2,0-5.9,2.6-5.9,5.9v23.2c0,3.2,2.6,5.9,5.9,5.9c3.2,0,5.9-2.6,5.9-5.9v-23.2
				C1981.8,4014.1,1979.2,4011.5,1975.9,4011.5C1975.9,4011.5,1975.9,4011.5,1975.9,4011.5z"/>
		</g>
	</g>
</g>
</svg>
