<?xml version="1.0" encoding="utf-8"?>
<!-- Generator: Adobe Illustrator 21.1.0, SVG Export Plug-In . SVG Version: 6.00 Build 0)  -->
<svg version="1.1" id="Layer_1" xmlns="http://www.w3.org/2000/svg" xmlns:xlink="http://www.w3.org/1999/xlink" x="0px" y="0px"
	 viewBox="0 0 57.6 57.6" style="enable-background:new 0 0 57.6 57.6;" xml:space="preserve">
<path id="qrcode" d="M0,25.6h6.4V32H0V25.6 M25.6,6.4H32v12.8h-6.4V6.4 M19.2,25.6H32v12.8h-6.4V32h-6.4V25.6 M38.4,25.6h6.4V32h6.4
	v-6.4h6.4V32h-6.4v6.4h6.4v12.8h-6.4v6.4h-6.4v-6.4H32v6.4h-6.4V44.8h12.8v-6.4h6.4V32h-6.4V25.6 M51.2,51.2V38.4h-6.4v12.8H51.2
	 M38.4,0h19.2v19.2H38.4V0 M44.8,6.4v6.4h6.4V6.4H44.8 M0,0h19.2v19.2H0V0 M6.4,6.4v6.4h6.4V6.4H6.4 M0,38.4h19.2v19.2H0V38.4
	 M6.4,44.8v6.4h6.4v-6.4L6.4,44.8z"/>
</svg>
