<svg xmlns="http://www.w3.org/2000/svg" viewBox="-211.5 -3663 39.489 40">
  <defs>
    <style>
      .cls-1 {
        fill: #1b1b1b;
      }
    </style>
  </defs>
  <g id="Receive_icon" data-name="Receive icon" transform="translate(-284.5 -4095.8)">
    <path id="Path_788" data-name="Path 788" class="cls-1" d="M38.449,293.493H32.214a.982.982,0,0,0-1.039,1.039,3.2,3.2,0,0,1-3.117,3.118H11.431a3.2,3.2,0,0,1-3.117-3.118.982.982,0,0,0-1.039-1.039H1.039A.982.982,0,0,0,0,294.532v15.1a.982.982,0,0,0,1.039,1.039h37.41a.982.982,0,0,0,1.039-1.039v-15.1A.982.982,0,0,0,38.449,293.493ZM37.41,308.6H2.078V295.571H6.443a5.131,5.131,0,0,0,4.988,4.157H28.058a5.131,5.131,0,0,0,4.988-4.157H37.41V308.6Z" transform="translate(73 162.126)"/>
    <path id="Path_789" data-name="Path 789" class="cls-1" d="M9.249.227A1.027,1.027,0,0,0,7.794.434L.312,9.579a.779.779,0,0,0,0,1.247l7.482,9.353a1.08,1.08,0,0,0,.831.416.764.764,0,0,0,.624-.208,1.28,1.28,0,0,0,.208-1.455L3.637,11.658H18.186a2.635,2.635,0,0,1,1.663.624,2.36,2.36,0,0,1,.624,1.663V24.128a1.039,1.039,0,0,0,2.078,0V13.944A4.388,4.388,0,0,0,21.3,10.618a4.162,4.162,0,0,0-3.117-1.039H3.014l6.443-7.9A1.027,1.027,0,0,0,9.249.227Z" transform="translate(82.214 455.35) rotate(-90)"/>
    <path id="Path_790" data-name="Path 790" class="cls-1" d="M131.627,392.945H112.922a1.039,1.039,0,1,0,0,2.078h18.705a1.039,1.039,0,0,0,0-2.078Z" transform="translate(-29.53 72.304)"/>
  </g>
</svg>
