<?xml version="1.0" encoding="utf-8"?>
<!-- Generator: Adobe Illustrator 21.1.0, SVG Export Plug-In . SVG Version: 6.00 Build 0)  -->
<svg version="1.1" id="Layer_1" xmlns="http://www.w3.org/2000/svg" xmlns:xlink="http://www.w3.org/1999/xlink" x="0px" y="0px"
	 viewBox="0 0 27 28" style="enable-background:new 0 0 27 28;" xml:space="preserve">
<style type="text/css">
	.st0{fill:#6D6D6D;}
</style>
<g>
	<path class="st0" d="M26.6,25.5l-6.7-6.9c4-4.8,3.4-11.9-1.4-15.9c-4.8-4-11.9-3.4-15.9,1.4C-1.4,8.9-0.7,16,4,20
		c2,1.7,4.6,2.6,7.3,2.6c2.3,0,4.6-0.7,6.5-2l6.7,7c0.6,0.6,1.5,0.6,2.1,0c0,0,0,0,0,0C27.1,27,27.2,26.1,26.6,25.5z M11.3,19.7
		c-4.6,0-8.4-3.7-8.4-8.3c0,0,0,0,0,0C3,6.7,6.7,3,11.3,2.9c4.6,0,8.4,3.7,8.4,8.3C19.7,15.9,15.9,19.7,11.3,19.7z"/>
</g>
</svg>
