<svg xmlns="http://www.w3.org/2000/svg" viewBox="-414 -3663 40.84 40">
  <defs>
    <style>
      .cls-1 {
        fill: #1b1b1b;
      }
    </style>
  </defs>
  <g id="Send_icon" data-name="Send icon" transform="translate(-414 -3666.86)">
    <path id="Path_788" data-name="Path 788" class="cls-1" d="M39.766,293.493H33.317a.971.971,0,0,0-1.075.975,3.164,3.164,0,0,1-3.224,2.926h-17.2A3.164,3.164,0,0,1,8.6,294.468a.971.971,0,0,0-1.075-.975H1.075A.972.972,0,0,0,0,294.468v14.173a.971.971,0,0,0,1.075.975H39.766a.972.972,0,0,0,1.075-.975V294.468A.971.971,0,0,0,39.766,293.493Zm-1.075,14.173H2.15V295.443H6.663a5.191,5.191,0,0,0,5.159,3.9h17.2a5.191,5.191,0,0,0,5.159-3.9h4.514v12.222Z" transform="translate(0 -265.756)"/>
    <path id="Path_789" data-name="Path 789" class="cls-1" d="M13.295,5.073a1.135,1.135,0,0,0-1.5.2L4.052,13.85a.692.692,0,0,0,0,1.17L11.79,23.8a1.157,1.157,0,0,0,.86.39.843.843,0,0,0,.645-.2,1.117,1.117,0,0,0,.215-1.365L7.491,15.8H22.537a2.911,2.911,0,0,1,1.72.585,2.1,2.1,0,0,1,.645,1.56V27.5a1.08,1.08,0,0,0,2.149,0V17.945a3.917,3.917,0,0,0-1.29-3.121,4.621,4.621,0,0,0-3.224-.975H6.846L13.51,6.438C13.939,6.048,13.724,5.463,13.295,5.073Z" transform="translate(-3.407 -1)"/>
    <path id="Path_790" data-name="Path 790" class="cls-1" d="M132.3,392.945H112.958a.98.98,0,1,0,0,1.95H132.3a.98.98,0,1,0,0-1.95Z" transform="translate(-102.21 -356.171)"/>
  </g>
</svg>
