<?xml version="1.0" encoding="utf-8"?>
<!-- Generator: Adobe Illustrator 21.1.0, SVG Export Plug-In . SVG Version: 6.00 Build 0)  -->
<svg version="1.1" id="Layer_1" xmlns="http://www.w3.org/2000/svg" xmlns:xlink="http://www.w3.org/1999/xlink" x="0px" y="0px"
	 viewBox="0 0 29 29" style="enable-background:new 0 0 29 29;" xml:space="preserve">
<style type="text/css">
	.st0{fill:#6D6D6D;}
</style>
<g id="Setting_Menu_icon" transform="translate(2329.1 -1594.9)">
	<path class="st0" d="M-2314.4,1605L-2314.4,1605c-2.4,0-4.3,1.9-4.4,4.4c0,2.4,1.9,4.4,4.3,4.4s4.3-1.9,4.3-4.5
		C-2310.1,1607.1-2312,1605.1-2314.4,1605z M-2312.5,1609.4c-0.1,1.1-0.9,1.9-1.9,1.9c-0.5,0-1-0.2-1.3-0.6
		c-0.4-0.4-0.6-0.9-0.6-1.4c0-0.5,0.2-1,0.6-1.4s0.9-0.6,1.3-0.6l0,0c0.5,0,1,0.2,1.3,0.6S-2312.5,1608.9-2312.5,1609.4z"/>
	<path class="st0" d="M-2300.7,1608.3c-0.1-1.3-1.1-2.2-2.3-2.3h-0.1l0,0h-1.2c-0.2-0.5-0.4-1-0.6-1.4l0.9-0.9
		c0.9-0.9,1-2.2,0.1-3.3l-1.7-1.7c-1-0.9-2.4-0.9-3.4,0l-1,1l0,0c-0.2-0.1-0.4-0.2-0.7-0.3c-0.2-0.1-0.5-0.2-0.7-0.3v-1.4
		c0-0.6-0.2-1.3-0.7-1.6c-0.4-0.5-1-0.7-1.6-0.7h-2.1c-0.6,0-1.2,0.2-1.6,0.7c-0.5,0.4-0.7,1-0.7,1.6v1.5c-0.5,0.2-1,0.4-1.3,0.6
		l-1-1c-1-0.9-2.4-0.9-3.4,0l-1.6,1.6c-0.9,0.9-1,2.2-0.1,3.3l1.1,1.1c-0.1,0.2-0.2,0.5-0.3,0.7s-0.2,0.4-0.3,0.6l0,0h-1.3
		c-1.2,0-2.3,1-2.4,2.2v2.1c0,1.3,1,2.3,2.2,2.4h1.4c0.2,0.5,0.4,1,0.6,1.4l-0.9,0.9c-0.9,0.9-1,2.2-0.1,3.3l1.7,1.7
		c1,0.9,2.4,0.9,3.4,0l1-1c0.4,0.2,1,0.4,1.4,0.7v1.3c0,0.6,0.2,1.3,0.7,1.6c0.4,0.5,1,0.7,1.6,0.7h0.1h2c0.6,0,1.2-0.3,1.6-0.8
		c0.4-0.5,0.7-1.1,0.6-1.6v-1.4c0.5-0.2,1-0.4,1.3-0.6l1,1c1,0.9,2.4,0.9,3.4,0l1.6-1.6c0.9-0.9,1-2.2,0.1-3.3l-1.1-1.1
		c0.1-0.2,0.2-0.5,0.3-0.7s0.2-0.4,0.3-0.6l0,0h1.3c0,0,0,0,0.1,0c1.2,0,2.3-1,2.3-2.2L-2300.7,1608.3z M-2306.5,1611.9
		c-0.1,0.2-0.2,0.4-0.3,0.6s-0.3,0.5-0.4,0.8c-0.5,0.9-0.3,1.9,0.4,2.7l0.9,0.9l-1.2,1.2l-0.9-0.9c-0.8-0.7-1.8-0.9-2.8-0.3
		c-0.4,0.3-0.9,0.5-1.3,0.6c-1.1,0.3-1.7,1.3-1.5,2.2v1.3h-1.5v-1.9c0-0.6-0.5-1.2-1.1-1.3c-0.7-0.1-1.2-0.4-1.8-0.8h-0.1
		c-0.3-0.1-0.6-0.2-0.9-0.2c-0.1,0-0.1,0-0.2,0c-0.6,0-1.2,0.2-1.5,0.7l-0.9,0.9l-1.2-1.2l0.9-0.9c0.7-0.8,0.9-1.8,0.3-2.8
		c-0.3-0.4-0.5-0.9-0.6-1.4c-0.3-1.1-1.2-1.7-2.2-1.6h-1.2v-1.6h1.2c1,0,1.8-0.6,2.2-1.6c0.1-0.2,0.2-0.4,0.3-0.6s0.3-0.5,0.4-0.8
		c0.5-0.9,0.3-1.9-0.4-2.7l-0.9-0.9l1.2-1.2l0.9,0.9c0.8,0.7,1.8,0.9,2.8,0.3c0.4-0.3,0.9-0.5,1.3-0.6c1.1-0.3,1.7-1.3,1.5-2.2v-1.3
		h1.5v1.3c0,1,0.6,1.8,1.5,2.2c0.2,0.1,0.4,0.2,0.6,0.3c0.3,0.1,0.5,0.3,0.8,0.4c0.9,0.3,1.8,0.2,2.6-0.4l0.9-0.9l1.2,1.2l-0.9,0.9
		c-0.7,0.8-0.9,1.8-0.3,2.8c0.3,0.4,0.5,0.9,0.6,1.4c0.3,1.1,1.2,1.7,2.2,1.6h1.2v1.4h-1.2
		C-2305.2,1610.4-2306.1,1611-2306.5,1611.9z"/>
</g>
</svg>
