<?xml version="1.0" encoding="utf-8"?>
<!-- Generator: Adobe Illustrator 21.1.0, SVG Export Plug-In . SVG Version: 6.00 Build 0)  -->
<svg version="1.1" id="Layer_1" xmlns="http://www.w3.org/2000/svg" xmlns:xlink="http://www.w3.org/1999/xlink" x="0px" y="0px"
	 viewBox="0 0 145 48" style="enable-background:new 0 0 145 48;" xml:space="preserve">
<style type="text/css">
	.st0{fill:#FBC02D;}
	.st1{fill:#F9A825;}
	.st2{fill:#FFF263;}
	.st3{fill:#F57F17;}
	.st4{fill:#FFFFFF;}
</style>
<g id="Splash_Alpha_logo" transform="translate(77 -2409)">
	<g>
		<path class="st0" d="M-35.8,2425l-16.5-16l-24.7,24l24.7,24l24.7-24l8.3-8v-16L-35.8,2425z M-52.3,2441l-8.3-8l8.3-8l8.3,8
			C-44.1,2433-52.3,2441-52.3,2441z"/>
		<path class="st1" d="M-19.4,2441v16l-16.5-16l8.2-8l2.6,2.5L-19.4,2441z"/>
		<path class="st2" d="M-19.4,2409v0.3l-32.8,31.9l-0.1-0.1L-19.4,2409z"/>
		<path class="st3" d="M-35.8,2441l8.2-8l1.9,1.8l-8.2,8L-35.8,2441z"/>
	</g>
	<g id="Group_2" transform="translate(65.618 5.915)">
		<path class="st4" d="M-63.4,2431.2H-77V2409h5.2v18.2h8.5V2431.2z M-56,2423.6v7.7h-5.2V2409h8.1c5.8,0,8.6,2.4,8.6,7.1
			c0.1,2.1-0.9,4.1-2.5,5.4c-1.9,1.5-4.2,2.2-6.6,2.1L-56,2423.6z M-56,2412.8v6.9h2c2.7,0,4.1-1.2,4.1-3.5c0-2.3-1.4-3.4-4.1-3.4
			L-56,2412.8z M-22.1,2431.2h-5.2v-9.1h-9.5v9.1h-5.2V2409h5.2v8.9h9.5v-8.9h5.2V2431.2z M2.4,2431.2h-5.6l-1.6-4.9H-13l-1.6,4.9
			h-5.6l8.3-22.2h6.1L2.4,2431.2z M-6,2422.4l-2.5-7.5c-0.2-0.7-0.3-1.3-0.4-2H-9c-0.1,0.7-0.2,1.3-0.4,1.9l-2.5,7.5L-6,2422.4z"/>
		<path class="st4" d="M-67.5,2438l-2.1,7.2h-1l-1.5-5.2c-0.1-0.2-0.1-0.5-0.1-0.7h0c0,0.2-0.1,0.5-0.1,0.7l-1.5,5.2h-1l-2.2-7.2
			h0.9l1.6,5.5c0.1,0.2,0.1,0.5,0.1,0.7h0c0-0.2,0.1-0.5,0.2-0.7l1.6-5.5h0.8l1.6,5.5c0.1,0.2,0.1,0.4,0.1,0.7h0
			c0-0.2,0.1-0.5,0.1-0.7l1.5-5.5L-67.5,2438z M-52.5,2445.2h-1l-0.8-2h-3.1l-0.7,2h-1l2.8-7.2h0.9L-52.5,2445.2z M-54.5,2442.4
			l-1.2-3c-0.1-0.2-0.1-0.3-0.1-0.5h0c0,0.2-0.1,0.3-0.1,0.5l-1.1,3H-54.5z M-39.1,2445.2h-3.8v-7.2h0.9v6.4h3L-39.1,2445.2z
			 M-25.6,2445.2h-3.8v-7.2h0.9v6.4h3L-25.6,2445.2z M-12,2445.2h-3.9v-7.2h3.7v0.8H-15v2.4h2.7v0.8H-15v2.5h3L-12,2445.2
			L-12,2445.2z M2.3,2438.8H0.2v6.4h-0.9v-6.4h-2.1v-0.8h5.1L2.3,2438.8z"/>
	</g>
</g>
</svg>
