<?xml version="1.0" encoding="utf-8"?>
<!-- Generator: Adobe Illustrator 21.1.0, SVG Export Plug-In . SVG Version: 6.00 Build 0)  -->
<svg version="1.1" id="Layer_1" xmlns="http://www.w3.org/2000/svg" xmlns:xlink="http://www.w3.org/1999/xlink" x="0px" y="0px"
	 viewBox="0 0 20 21.7" style="enable-background:new 0 0 20 21.7;" xml:space="preserve">
<path d="M5.3,21.7c-0.4,0-0.8,0-1.1-0.1c-0.3-0.1-0.5-0.5-0.4-0.8l1-3.3C1.8,15.8,0,12.7,0,9.4C0,4.2,4.5,0,10,0s10,4.2,10,9.4
	c-0.1,5.2-4.4,9.4-9.6,9.4c-0.1,0-0.2,0-0.3,0l0,0c-0.3-0.1-0.6-0.4-0.5-0.8c0.1-0.3,0.3-0.5,0.6-0.5c4.6,0,8.3-3.6,8.5-8.1
	c0-4.5-3.9-8.1-8.7-8.1S1.3,4.9,1.3,9.4c0,3,1.8,5.8,4.5,7.1c0.3,0.1,0.4,0.4,0.3,0.7c0,0,0,0,0,0.1l-0.9,3.1c1.1,0,2.2-0.4,3.1-1.1
	C8.6,19,9,19.1,9.2,19.4c0.2,0.3,0.1,0.7-0.1,0.9C8,21.1,6.6,21.6,5.3,21.7z M10,6.8H4.4c-0.3,0-0.5-0.2-0.5-0.5
	c0-0.3,0.2-0.5,0.5-0.5c0,0,0,0,0,0H10c0.3,0,0.5,0.3,0.5,0.5C10.5,6.6,10.3,6.8,10,6.8z M10,10H4.4c-0.3,0-0.5-0.3-0.5-0.5
	C3.9,9.2,4.1,9,4.4,9H10c0.3,0,0.5,0.3,0.5,0.5C10.5,9.7,10.3,10,10,10z M10,13.1H4.4c-0.3,0-0.5-0.2-0.5-0.5c0-0.3,0.2-0.5,0.5-0.5
	c0,0,0,0,0,0H10c0.3,0,0.5,0.3,0.5,0.5C10.5,12.9,10.3,13.1,10,13.1z M13.1,7.8c0,0.1,0,0.1,0,0.2c0,0.1-0.1,0.1-0.1,0.2
	c0,0-0.1,0.1-0.2,0.1c-0.1,0-0.1,0-0.2,0c-0.1,0-0.3,0-0.4-0.1C12.1,8.1,12,8,12,7.8c0-0.3,0.1-0.6,0.2-0.9c0.1-0.3,0.3-0.5,0.5-0.8
	c0.2-0.2,0.5-0.4,0.8-0.5c0.3-0.1,0.6-0.2,0.9-0.2c0.3,0,0.6,0.1,0.9,0.2c0.3,0.1,0.5,0.3,0.8,0.5c0.2,0.2,0.4,0.5,0.5,0.8
	c0.1,0.3,0.2,0.6,0.2,0.9c0,0.6-0.2,1.2-0.7,1.7l-0.8,0.7c-0.2,0.2-0.4,0.5-0.4,0.9c0,0.3-0.2,0.5-0.5,0.5c0,0,0,0,0,0
	c-0.1,0-0.3,0-0.4-0.1c-0.1-0.1-0.2-0.2-0.1-0.4c0-0.6,0.3-1.2,0.7-1.6l0.8-0.7c0.3-0.3,0.4-0.6,0.4-0.9c0-0.2,0-0.4-0.1-0.5
	c-0.1-0.3-0.4-0.6-0.7-0.7c-0.2-0.1-0.3-0.1-0.5-0.1c-0.2,0-0.4,0-0.5,0.1c-0.2,0.1-0.3,0.2-0.4,0.3C13.2,7.1,13.1,7.5,13.1,7.8
	L13.1,7.8z M15.1,12.7c0,0.4-0.3,0.7-0.7,0.7c-0.4,0-0.7-0.3-0.7-0.7S14,12,14.4,12c0.2,0,0.4,0.1,0.5,0.2
	C15,12.3,15.1,12.5,15.1,12.7z"/>
</svg>
