<?xml version="1.0" encoding="utf-8"?>
<!-- Generator: Adobe Illustrator 21.1.0, SVG Export Plug-In . SVG Version: 6.00 Build 0)  -->
<svg version="1.1" id="Layer_1" xmlns="http://www.w3.org/2000/svg" xmlns:xlink="http://www.w3.org/1999/xlink" x="0px" y="0px"
	 viewBox="0 0 190.6 149.8" style="enable-background:new 0 0 190.6 149.8;" xml:space="preserve">
<style type="text/css">
	.st0{fill:#FFFFFF;}
</style>
<g>
	<path class="st0" d="M188.6,49.7L141,2c-2.7-2.7-7-2.7-9.6,0c-1.3,1.3-2,3-2,4.8v20.4H81.7c-3.8,0-6.8,3.1-6.7,6.9
		c0,3.7,3,6.7,6.7,6.7h54.5c3.8,0,6.8-3,6.8-6.8c0,0,0,0,0,0V23.2l31.2,31.2L143,85.7V74.9c0-3.8-3-6.8-6.8-6.8l0,0H61.3V47.7
		c0-3.8-3.1-6.8-6.8-6.8c-1.8,0-3.5,0.7-4.8,2L2,90.5c-2.7,2.7-2.7,7,0,9.6l47.7,47.7c1.3,1.3,3,2,4.8,2c0.9,0,1.8-0.2,2.6-0.5
		c2.5-1.1,4.2-3.5,4.2-6.3v-20.4h47.7c3.8,0,6.8-3,6.9-6.7c0-3.8-3-6.8-6.7-6.9c-0.1,0-0.1,0-0.2,0H54.5c-3.8,0-6.8,3-6.8,6.8
		c0,0,0,0,0,0v10.8L16.4,95.3l31.2-31.2v10.8c0,3.8,3,6.8,6.8,6.8l0,0h74.9v20.4c0,3.8,3.1,6.8,6.8,6.8c1.8,0,3.5-0.7,4.8-2
		l47.7-47.7C191.3,56.6,191.3,52.3,188.6,49.7z"/>
</g>
</svg>
