<?xml version="1.0" encoding="utf-8"?>
<!-- Generator: Adobe Illustrator 21.1.0, SVG Export Plug-In . SVG Version: 6.00 Build 0)  -->
<svg version="1.1" id="Layer_1" xmlns="http://www.w3.org/2000/svg" xmlns:xlink="http://www.w3.org/1999/xlink" x="0px" y="0px"
	 viewBox="0 0 54 54" style="enable-background:new 0 0 54 54;" xml:space="preserve">
<style type="text/css">
	.st0{fill:#FFFFFF;}
	.st1{fill:#1B1B1B;}
</style>
<g id="User" transform="translate(1666.453 -2398)">
	<path class="st0" d="M-1612.5,2425c0,6.8-2.5,13-6.7,17.7c-0.8,1-1.8,1.9-2.7,2.7c-4.7,4.1-10.9,6.6-17.6,6.6s-12.9-2.5-17.6-6.6
		c-1-0.8-1.9-1.7-2.7-2.7c-4.2-4.8-6.7-10.9-6.7-17.8c0-14.9,12.1-27,27-27C-1624.5,2398-1612.5,2410.1-1612.5,2425z"/>
	<path class="st1" d="M-1624.2,2434.5c-2.3-2.3-5.1-4.1-8.2-5.1c5.7-3.9,7.1-11.6,3.2-17.3c-3.9-5.7-11.6-7.1-17.3-3.2
		c-5.7,3.9-7.1,11.6-3.2,17.3c0.9,1.3,1.9,2.4,3.2,3.2c-6.4,2.2-11.2,7.2-13.3,13.4c0.8,1,1.7,1.9,2.7,2.7
		c1.9-7.9,9.1-13.8,17.6-13.8c8.5,0,15.7,5.9,17.6,13.8c1-0.8,1.9-1.7,2.7-2.7C-1620.2,2439.7-1621.9,2436.9-1624.2,2434.5z
		 M-1639.5,2428.2c-5,0-9.1-4.1-9.1-9.1s4.1-9.1,9.1-9.1c5,0,9.1,4.1,9.1,9.1S-1634.4,2428.2-1639.5,2428.2z"/>
</g>
</svg>
