<?xml version="1.0" encoding="utf-8"?>
<!-- Generator: Adobe Illustrator 21.1.0, SVG Export Plug-In . SVG Version: 6.00 Build 0)  -->
<svg version="1.1" id="Layer_1" xmlns="http://www.w3.org/2000/svg" xmlns:xlink="http://www.w3.org/1999/xlink" x="0px" y="0px"
	 viewBox="0 0 29 29" style="enable-background:new 0 0 29 29;" xml:space="preserve">
<style type="text/css">
	.st0{fill:#707070;}
</style>
<g>
	<path class="st0" d="M22.5,15.3c0.9,0,1.7,0.8,1.7,1.7s-0.8,1.7-1.7,1.7S20.8,18,20.8,17S21.6,15.3,22.5,15.3z"/>
	<path class="st0" d="M27.7,13.1V7.3c0-1.7-1.4-3.2-3.2-3.2h-1.6L21.2,1c-0.4-0.6-1.1-1-1.9-1c-0.4,0-0.7,0.2-1,0.3l-7.1,3.9h-8
		C1.4,4.3,0,5.7,0,7.4v18.4C0,27.6,1.4,29,3.2,29h21.2c1.7,0,3.2-1.4,3.2-3.2v-5h1.3l0.2-7.8H27.7z M2.1,25.8l0-18.6
		c0-0.3,0.1-0.5,0.3-0.7s0.4-0.3,0.7-0.3l0-0.5l0.1,0.5h4.3L6.6,6.7l-3.1,0c-0.5,0-1,0.5-1,1.1c0,0.5,0.5,1,1,1h22v4.3h-3.5
		c-2.1,0-3.8,1.7-3.8,3.8v0.3c0,2.1,1.7,3.8,3.8,3.8h3.5v4.8c0,0.6-0.5,1.1-1.1,1.1H3.1c-0.3,0-0.5-0.1-0.7-0.3s-0.3-0.4-0.3-0.7
		l-0.5,0l0,0L2.1,25.8z M26.9,18.8h-4.8c-0.5,0-0.9-0.2-1.2-0.5s-0.5-0.8-0.5-1.3v-0.3c0-1,0.8-1.8,1.8-1.8h4.8V18.8z M10.8,6.8
		l8.4-4.6c0,0,0.1,0,0.2,0.1l2.5,4.5H10.8z M24,6.2h0.3c0.4,0,0.7,0.2,0.9,0.5h-1L24,6.2z"/>
</g>
</svg>
