<?xml version="1.0" encoding="utf-8"?>
<!-- Generator: Adobe Illustrator 21.1.0, SVG Export Plug-In . SVG Version: 6.00 Build 0)  -->
<svg version="1.1" id="Layer_1" xmlns="http://www.w3.org/2000/svg" xmlns:xlink="http://www.w3.org/1999/xlink" x="0px" y="0px"
	 viewBox="0 0 22 18.9" style="enable-background:new 0 0 22 18.9;" xml:space="preserve">
<style type="text/css">
	.st0{fill:#FFFFFF;}
</style>
<g>
	<path class="st0" d="M20.8,8.2h-0.5V5.1c0-1.3-1-2.3-2.3-2.3h-0.5V1.6c0-0.9-0.7-1.6-1.6-1.6h-14C0.9,0,0,0.8,0,1.9v15.4
		c0,0.9,0.7,1.6,1.6,1.6c0,0,0,0,0,0h16.4c1.3,0,2.3-1,2.3-2.3v-3.2h0.5c0.7,0,1.2-0.6,1.2-1.2V9.4C22,8.8,21.4,8.2,20.8,8.2z
		 M1.9,1.1h14c0.3,0,0.5,0.2,0.5,0.5v1.2H1.9c-0.5,0-0.8-0.4-0.8-0.8C1.1,1.4,1.5,1.1,1.9,1.1z M19.2,16.6c0,0.7-0.6,1.2-1.2,1.2
		H1.6c-0.3,0-0.5-0.2-0.5-0.5V3.6c0.3,0.1,0.5,0.2,0.8,0.2h16c0.7,0,1.2,0.6,1.2,1.2v3.1h-3.7c-0.7,0-1.2,0.5-1.2,1.2v2.7
		c0,0.7,0.5,1.2,1.2,1.2h3.7V16.6L19.2,16.6z M20.9,12.2c0,0.1-0.1,0.1-0.1,0.1c0,0,0,0,0,0h-5.3c-0.1,0-0.1-0.1-0.1-0.1
		c0,0,0,0,0,0V9.4c0-0.1,0.1-0.1,0.1-0.1h5.3c0.1,0,0.1,0.1,0.1,0.1V12.2z"/>
</g>
</svg>
