<?xml version="1.0" encoding="utf-8"?>
<!-- Generator: Adobe Illustrator 21.1.0, SVG Export Plug-In . SVG Version: 6.00 Build 0)  -->
<svg version="1.1" id="Layer_1" xmlns="http://www.w3.org/2000/svg" xmlns:xlink="http://www.w3.org/1999/xlink" x="0px" y="0px"
	 viewBox="0 0 21.1 21" style="enable-background:new 0 0 21.1 21;" xml:space="preserve">
<style type="text/css">
	.st0{fill:#FFFFFF;}
</style>
<g>
	<path class="st0" d="M16.3,10.9c0.6,0,1.2,0.6,1.2,1.2s-0.6,1.2-1.2,1.2c-0.6,0-1.2-0.5-1.2-1.2S15.7,10.9,16.3,10.9z"/>
	<path class="st0" d="M20.1,9.5V5.3c0-1.2-1-2.3-2.3-2.3h-1.2l-1.2-2.2C15.1,0.3,14.6,0,14,0c-0.3,0-0.5,0.1-0.7,0.2L8.2,3H2.4
		C1.1,3.1,0.1,4.1,0.1,5.3v13.3c0,1.3,1,2.3,2.3,2.3h15.3c1.2,0,2.3-1,2.3-2.3V15h1.1V9.4L20.1,9.5L20.1,9.5z M1.6,18.6V5.2
		c0-0.2,0.1-0.4,0.2-0.5s0.3-0.2,0.5-0.2V4.1l0.1,0.4h3.1L4.8,4.8H2.6c-0.4,0-0.7,0.4-0.7,0.8c0,0.4,0.4,0.7,0.7,0.7h15.9v3.1h-2.5
		c-1.5,0-2.7,1.2-2.7,2.7v0.2c0,1.5,1.2,2.7,2.7,2.7h2.5v3.5c0,0.4-0.4,0.8-0.8,0.8H2.3c-0.2,0-0.4-0.1-0.5-0.2S1.6,18.9,1.6,18.6
		l-0.4,0.1l0,0L1.6,18.6z M19.5,13.6H16c-0.4,0-0.6-0.1-0.9-0.4c-0.2-0.2-0.4-0.6-0.4-0.9v-0.2c0-0.7,0.6-1.3,1.3-1.3h3.5L19.5,13.6
		L19.5,13.6z M7.9,4.9l6.1-3.3c0,0,0.1,0,0.1,0.1l1.8,3.2H7.9z M17.4,4.5h0.2c0.3,0,0.5,0.1,0.6,0.4h-0.7L17.4,4.5z"/>
</g>
</svg>
