<?xml version="1.0" encoding="utf-8"?>
<!-- Generator: Adobe Illustrator 21.1.0, SVG Export Plug-In . SVG Version: 6.00 Build 0)  -->
<svg version="1.1" id="Layer_1" xmlns="http://www.w3.org/2000/svg" xmlns:xlink="http://www.w3.org/1999/xlink" x="0px" y="0px"
	 viewBox="0 0 225.4 164.8" style="enable-background:new 0 0 225.4 164.8;" xml:space="preserve">
<style type="text/css">
	.st0{fill:#FFFFFF;}
</style>
<g>
	<path class="st0" d="M36.5,72.4L36.5,72.4l0,0.2c-0.1,3.2-2.8,5.8-6,5.8c-0.1,0-0.1,0-0.2,0l-24.3,0c-0.1,0-0.1,0-0.2,0
		c-3.1,0-5.8-2.6-5.9-5.8L0,5.9C0.1,2.6,2.8,0,6,0C6,0,6.1,0,6.1,0l212.8,0c3.2-0.1,6,2.5,6.1,5.8l0,49.9l0,0
		c-0.1,3.2-2.8,5.8-6,5.8c-0.1,0-0.1,0-0.2,0c-3.2,0-5.9-2.6-6-5.8l0-44.4H11.8v55.3h18.6C33.6,66.6,36.4,69.2,36.5,72.4z
		 M225.4,72.5L225.4,72.5c-0.1,3.3-2.8,5.9-6,5.9c-0.1,0-0.1,0-0.2,0l-25.8,0l-0.1-0.2c-2.5-0.7-4.3-2.9-4.4-5.6l0-0.1l0-0.1
		c0.1-3.2,2.8-5.8,6-5.8c0.1,0,0.1,0,0.2,0l24.3,0c0.1,0,0.1,0,0.2,0C222.6,66.7,225.3,69.2,225.4,72.5L225.4,72.5z M190.4,35
		c0.1,3.3-2.5,6-5.7,6.2l-0.1,0l-141.9,0C39.4,41,36.9,38.2,37,35c-0.1-3.3,2.5-6,5.7-6.2l0.1,0l141.9,0
		C188,28.9,190.5,31.7,190.4,35z M182.3,142.7c0,3.6-2.5,6.1-5.9,6.1l-125.4,0c-3.3-0.2-5.9-3-5.7-6.3c0-3.6,2.5-6.1,5.9-6.1
		l125.4,0C179.9,136.7,182.5,139.5,182.3,142.7z M182.3,158.6c0.1,3.3-2.5,6-5.7,6.2l-0.1,0l-125.4,0c-3.3-0.2-5.8-2.9-5.7-6.2
		c-0.1-3.3,2.5-6,5.7-6.2l0.1,0l125.4,0C179.9,152.6,182.4,155.3,182.3,158.6z M113.5,83.8c-15.3,0-27.8-12.3-27.8-27.5
		c0-3.2-2.6-5.9-5.9-5.9H50.6c-3.2,0-5.9,2.6-5.9,5.9V123c0,3.2,2.6,5.9,5.9,5.9h124.9c3.2,0,5.9-2.6,5.9-5.9V56.7
		c0.4-1.7,0.1-3.3-0.8-4.5c-1-1.3-2.5-2-4.4-2h-14.5c-3.2,0-5.9,2.6-5.9,5.9c0,3.2,2.6,5.9,5.9,5.9h8.9v30.7
		c-6,1.2-11.7,4.1-16.1,8.4c-4.4,4.4-7.3,10-8.5,16.1H81.4c-2.2-12.3-11.9-22-24.6-24.5V61.9h18.2c1.2,8.2,5,15.9,10.9,21.8
		c15.1,15.1,39.9,15.1,55.4,0c7.4-7.4,11.5-17.2,11.5-27.7c0-3.2-2.6-5.9-5.9-5.9H94.7c-3.2,0-5.9,2.6-5.9,5.9
		c0,3.2,2.6,5.9,5.9,5.9h45.9c-1.1,5.3-3.7,10.1-7.6,13.9C127.8,81,120.9,83.8,113.5,83.8z M69.3,116.8H56.8v-12.6
		C62.8,106.1,67.5,110.8,69.3,116.8z M170.3,104.3v12.6h-12.6c0.9-3,2.5-5.7,4.7-7.8C164.6,106.8,167.3,105.2,170.3,104.3z"/>
</g>
</svg>
