<svg xmlns="http://www.w3.org/2000/svg" viewBox="-436 -3768 54.225 40">
  <defs>
    <style>
      .cls-1 {
        fill: #1b1b1b;
      }
    </style>
  </defs>
  <g id="Withdraw_icon" data-name="Withdraw icon" transform="translate(-436 -3768)">
    <path id="Path_1" data-name="Path 1" class="cls-1" d="M54.225,94.256a.847.847,0,0,1-1.695,0V81.971H1.695V97.786H6.867a.847.847,0,1,1,0,1.695H.847A.848.848,0,0,1,0,98.634V81.123a.848.848,0,0,1,.847-.847H53.376a.848.848,0,0,1,.847.847V94.256Zm-6.868,5.225h6.019a.847.847,0,0,0,0-1.695H47.357a.847.847,0,0,0,0,1.695Z" transform="translate(0 -80.276)"/>
    <path id="Path_5" data-name="Path 5" class="cls-1" d="M112.012,514.294a.847.847,0,1,1,0-1.695h32.832a.847.847,0,0,1,0,1.695Z" transform="translate(-101.315 -474.295)"/>
    <path id="Path_2" data-name="Path 2" class="cls-1" d="M87.308,180.783a.847.847,0,1,1,0-1.695h37.209a.847.847,0,1,1,0,1.695Z" transform="translate(-78.8 -170.333)"/>
    <path id="Union_2" data-name="Union 2" class="cls-1" d="M.869,22.475H.847A.928.928,0,0,1,0,21.483V.992A.928.928,0,0,1,.847,0H8.508a.848.848,0,0,1,.847.848,7.881,7.881,0,0,0,2.316,5.59,7.911,7.911,0,0,0,11.182,0l0,0,0,0a7.888,7.888,0,0,0,2.235-4.455H12.337a.928.928,0,0,1-.848-.992A.928.928,0,0,1,12.337,0h13.68a.848.848,0,0,1,.848.848c0,.035,0,.07,0,.105,0,.013,0,.026,0,.039s0,.052,0,.077a9.574,9.574,0,0,1-2.81,6.569l0,0a9.595,9.595,0,0,1-13.577,0A9.575,9.575,0,0,1,7.727,1.984H1.695V13.662a7.413,7.413,0,0,1,6.547,6.83H26.284a7.4,7.4,0,0,1,2.152-4.7l0,0a7.4,7.4,0,0,1,4.39-2.123V1.984H29.847A.928.928,0,0,1,29,.992.928.928,0,0,1,29.847,0h3.83a.928.928,0,0,1,.848.992V14.41c0,.017,0,.034,0,.051s0,.034,0,.051v6.971a.93.93,0,0,1-.848.992ZM32.83,20.492V15.371a5.7,5.7,0,0,0-3.2,1.609l0,0a5.7,5.7,0,0,0-1.647,3.508Zm-31.135,0H6.541a5.7,5.7,0,0,0-1.651-3.508,5.7,5.7,0,0,0-3.2-1.613Z" transform="translate(9.85 13.132)"/>
  </g>
</svg>
