<svg xmlns="http://www.w3.org/2000/svg" viewBox="-283.75 -1774.75 121.5 121.5">
  <defs>
    <style>
      .cls-1 {
        fill: rgba(109,109,109,0.2);
      }

      .cls-2, .cls-3 {
        stroke: none;
      }

      .cls-3 {
        fill: #6d6d6d;
      }
    </style>
  </defs>
  <g id="Withdraw" class="cls-1" transform="translate(-1449 -4273)">
    <path class="cls-2" d="M 1225.999877929688 2619.375 C 1217.849609375 2619.375 1209.94287109375 2617.778564453125 1202.499145507813 2614.63037109375 C 1195.31005859375 2611.58935546875 1188.853393554688 2607.236328125 1183.30859375 2601.69140625 C 1177.76416015625 2596.14697265625 1173.411010742188 2589.6904296875 1170.3701171875 2582.500732421875 C 1167.221801757813 2575.05712890625 1165.62548828125 2567.150390625 1165.62548828125 2558.999755859375 C 1165.62548828125 2550.849365234375 1167.221801757813 2542.942626953125 1170.3701171875 2535.4990234375 C 1173.411010742188 2528.3095703125 1177.76416015625 2521.852783203125 1183.30859375 2516.308349609375 C 1188.853149414063 2510.763916015625 1195.309814453125 2506.41064453125 1202.499145507813 2503.36962890625 C 1209.942626953125 2500.221435546875 1217.849365234375 2498.625244140625 1225.999877929688 2498.625244140625 C 1234.150390625 2498.625244140625 1242.05712890625 2500.221435546875 1249.500732421875 2503.36962890625 C 1256.690307617188 2506.410888671875 1263.147094726563 2510.76416015625 1268.691528320313 2516.308349609375 C 1274.236083984375 2521.852783203125 1278.58935546875 2528.3095703125 1281.63037109375 2535.4990234375 C 1284.77880859375 2542.942626953125 1286.375122070313 2550.849609375 1286.375122070313 2558.999755859375 C 1286.375122070313 2567.150146484375 1284.77880859375 2575.05712890625 1281.63037109375 2582.500732421875 C 1278.58935546875 2589.690185546875 1274.236083984375 2596.14697265625 1268.691528320313 2601.69140625 C 1263.146606445313 2607.236328125 1256.689819335938 2611.589599609375 1249.500732421875 2614.63037109375 C 1242.056884765625 2617.778564453125 1234.150024414063 2619.375 1225.999877929688 2619.375 Z M 1202.47314453125 2590.267822265625 L 1250.127075195313 2590.267822265625 L 1250.152709960938 2590.267822265625 C 1251.179443359375 2590.1982421875 1251.988037109375 2589.31689453125 1251.957153320313 2588.2978515625 L 1251.956909179688 2588.28662109375 L 1251.957153320313 2588.275390625 C 1251.988525390625 2587.237548828125 1251.196899414063 2586.3740234375 1250.153076171875 2586.304443359375 L 1202.499877929688 2586.304443359375 L 1202.473754882813 2586.304443359375 C 1201.447265625 2586.375 1200.639038085938 2587.2568359375 1200.669799804688 2588.275390625 L 1200.670043945313 2588.28662109375 L 1200.669799804688 2588.2978515625 C 1200.638427734375 2589.336181640625 1201.4296875 2590.199462890625 1202.47314453125 2590.267822265625 Z M 1202.435302734375 2584.1865234375 L 1250.089233398438 2584.1865234375 C 1251.18896484375 2584.1865234375 1251.95703125 2583.386962890625 1251.95703125 2582.2421875 L 1251.95703125 2582.23046875 L 1251.957763671875 2582.218994140625 C 1252.019897460938 2581.219482421875 1251.208984375 2580.327392578125 1250.147094726563 2580.22314453125 L 1202.499877929688 2580.22314453125 C 1201.400146484375 2580.22314453125 1200.632080078125 2581.0224609375 1200.632080078125 2582.166748046875 L 1200.632080078125 2582.17822265625 L 1200.63134765625 2582.189697265625 C 1200.600708007813 2582.691162109375 1200.773681640625 2583.175537109375 1201.1181640625 2583.55322265625 C 1201.460327148438 2583.92822265625 1201.927734375 2584.15283203125 1202.435302734375 2584.1865234375 Z M 1202.271362304688 2547.533447265625 C 1201.241455078125 2547.533447265625 1200.403564453125 2548.371337890625 1200.403564453125 2549.4013671875 L 1200.403564453125 2574.754150390625 C 1200.403564453125 2575.7841796875 1201.241455078125 2576.6220703125 1202.271362304688 2576.6220703125 L 1249.747192382813 2576.6220703125 C 1250.776611328125 2576.6220703125 1251.614135742188 2575.7841796875 1251.614135742188 2574.754150390625 L 1251.614135742188 2549.553466796875 L 1251.614135742188 2549.510009765625 L 1251.624145507813 2549.467529296875 C 1251.749145507813 2548.9365234375 1251.664428710938 2548.439453125 1251.3857421875 2548.0673828125 C 1251.07958984375 2547.669921875 1250.603759765625 2547.457763671875 1250.0126953125 2547.457763671875 L 1244.501098632813 2547.457763671875 C 1243.4716796875 2547.457763671875 1242.63427734375 2548.295166015625 1242.63427734375 2549.32470703125 C 1242.63427734375 2550.354736328125 1243.4716796875 2551.192626953125 1244.501098632813 2551.192626953125 L 1247.88427734375 2551.192626953125 L 1248.25927734375 2551.192626953125 L 1248.25927734375 2551.567626953125 L 1248.25927734375 2563.237060546875 L 1248.25927734375 2563.54443359375 L 1247.957885742188 2563.604736328125 C 1245.715454101563 2564.053466796875 1243.609008789063 2565.152099609375 1242.0263671875 2566.698486328125 C 1240.431030273438 2568.293701171875 1239.349609375 2570.343017578125 1238.902099609375 2572.622314453125 L 1238.8427734375 2572.925048828125 L 1238.5341796875 2572.925048828125 L 1213.978515625 2572.925048828125 L 1213.664672851563 2572.925048828125 L 1213.609375 2572.615966796875 C 1212.79541015625 2568.064453125 1209.24169921875 2564.52734375 1204.556030273438 2563.60498046875 L 1204.25341796875 2563.54541015625 L 1204.25341796875 2563.237060546875 L 1204.25341796875 2551.52978515625 L 1204.25341796875 2551.15478515625 L 1204.62841796875 2551.15478515625 L 1211.545776367188 2551.15478515625 L 1211.869873046875 2551.15478515625 L 1211.916870117188 2551.475341796875 C 1212.363403320313 2554.525634765625 1213.797485351563 2557.393798828125 1215.95458984375 2559.551025390625 C 1218.659423828125 2562.25634765625 1222.2841796875 2563.74609375 1226.1611328125 2563.74609375 C 1230.040161132813 2563.74609375 1233.706909179688 2562.255126953125 1236.485961914063 2559.547607421875 C 1239.22998046875 2556.8037109375 1240.743041992188 2553.158447265625 1240.743041992188 2549.286865234375 C 1240.743041992188 2548.257568359375 1239.905517578125 2547.420166015625 1238.876098632813 2547.420166015625 L 1219.033813476563 2547.420166015625 C 1218.00439453125 2547.420166015625 1217.166870117188 2548.257568359375 1217.166870117188 2549.286865234375 C 1217.166870117188 2550.31689453125 1218.00439453125 2551.15478515625 1219.033813476563 2551.15478515625 L 1236.481201171875 2551.15478515625 L 1236.942016601563 2551.15478515625 L 1236.848388671875 2551.60595703125 C 1236.41259765625 2553.704345703125 1235.377197265625 2555.597900390625 1233.85400390625 2557.082275390625 C 1231.826049804688 2559.110107421875 1229.099487304688 2560.228759765625 1226.179809570313 2560.228759765625 C 1220.146484375 2560.228759765625 1215.237915039063 2555.37158203125 1215.237915039063 2549.4013671875 C 1215.237915039063 2548.371337890625 1214.400390625 2547.533447265625 1213.370971679688 2547.533447265625 L 1202.271362304688 2547.533447265625 Z M 1256.78173828125 2557.4267578125 L 1266.357666015625 2557.4267578125 L 1266.433227539063 2557.4267578125 C 1267.44921875 2557.4267578125 1268.301635742188 2556.590087890625 1268.338623046875 2555.55908203125 C 1268.302734375 2554.562255859375 1267.482177734375 2553.726806640625 1266.503051757813 2553.691162109375 L 1266.433227539063 2553.691162109375 L 1257.197387695313 2553.691162109375 L 1257.120971679688 2553.691162109375 C 1256.103515625 2553.691162109375 1255.249877929688 2554.51416015625 1255.21533203125 2555.52734375 L 1255.21533203125 2555.55908203125 L 1255.21533203125 2555.58984375 C 1255.2490234375 2556.42724609375 1255.810180664063 2557.139892578125 1256.613403320313 2557.3642578125 L 1256.7724609375 2557.40869140625 L 1256.78173828125 2557.4267578125 Z M 1183.374633789063 2555.5908203125 C 1183.409912109375 2556.603759765625 1184.24658203125 2557.4267578125 1185.242431640625 2557.4267578125 L 1185.318969726563 2557.4267578125 L 1194.5556640625 2557.4267578125 L 1194.631225585938 2557.4267578125 C 1195.648681640625 2557.4267578125 1196.502319335938 2556.603759765625 1196.536865234375 2555.5908203125 L 1196.536865234375 2555.52734375 C 1196.502685546875 2554.531494140625 1195.614013671875 2553.691162109375 1194.593383789063 2553.691162109375 L 1187.523071289063 2553.691162109375 L 1187.148071289063 2553.691162109375 L 1187.148071289063 2553.316162109375 L 1187.148071289063 2532.296875 L 1187.148071289063 2531.921875 L 1187.523071289063 2531.921875 L 1263.924926757813 2531.921875 L 1264.299926757813 2531.921875 L 1264.299926757813 2532.296875 L 1264.299926757813 2549.16650390625 C 1264.33447265625 2550.1796875 1265.188232421875 2551.002685546875 1266.20556640625 2551.002685546875 L 1266.281982421875 2551.002685546875 C 1267.298706054688 2551.002685546875 1268.15234375 2550.179443359375 1268.187622070313 2549.166259765625 L 1268.187622070313 2530.2119140625 C 1268.1533203125 2529.198486328125 1267.3125 2528.375 1266.310546875 2528.375 C 1266.292236328125 2528.375 1266.27392578125 2528.375244140625 1266.255615234375 2528.375732421875 L 1266.24951171875 2528.3759765625 L 1266.243286132813 2528.3759765625 L 1185.356689453125 2528.3759765625 L 1185.318969726563 2528.3759765625 C 1184.301025390625 2528.3759765625 1183.447143554688 2529.21630859375 1183.413330078125 2530.25 L 1183.374633789063 2555.5908203125 Z M 1199.28076171875 2543.286865234375 L 1253.205932617188 2543.286865234375 L 1253.2314453125 2543.286865234375 C 1254.25830078125 2543.21630859375 1255.066772460938 2542.334716796875 1255.036010742188 2541.316162109375 L 1255.035766601563 2541.304931640625 L 1255.036010742188 2541.293701171875 C 1255.051513671875 2540.781494140625 1254.87353515625 2540.294921875 1254.534912109375 2539.92333984375 C 1254.197387695313 2539.552978515625 1253.736938476563 2539.34033203125 1253.23779296875 2539.32373046875 L 1199.306762695313 2539.32373046875 L 1199.280883789063 2539.32373046875 C 1198.25439453125 2539.393310546875 1197.445922851563 2540.274658203125 1197.4765625 2541.293701171875 L 1197.476806640625 2541.30517578125 L 1197.4765625 2541.316650390625 C 1197.44482421875 2542.3369140625 1198.253295898438 2543.218505859375 1199.28076171875 2543.286865234375 Z M 1247.770874023438 2572.810791015625 L 1247.769897460938 2572.810791015625 L 1242.981079101563 2572.810791015625 L 1242.47705078125 2572.810791015625 L 1242.621948242188 2572.328125 C 1242.98583984375 2571.11474609375 1243.635986328125 2570.035400390625 1244.50244140625 2569.205810546875 C 1245.367065429688 2568.30322265625 1246.430297851563 2567.657470703125 1247.662841796875 2567.286865234375 L 1248.145874023438 2567.1416015625 L 1248.145874023438 2567.64599609375 L 1248.145874023438 2572.434814453125 L 1248.145874023438 2572.809814453125 L 1247.770874023438 2572.810791015625 Z M 1209.379516601563 2572.77294921875 L 1209.378173828125 2572.77294921875 L 1204.62841796875 2572.77294921875 L 1204.25341796875 2572.77294921875 L 1204.25341796875 2572.39794921875 L 1204.25341796875 2567.608154296875 L 1204.25341796875 2567.095947265625 L 1204.74169921875 2567.250732421875 C 1207.153076171875 2568.01513671875 1209.02099609375 2569.8984375 1209.73828125 2572.288818359375 L 1209.883178710938 2572.771728515625 L 1209.379516601563 2572.77294921875 Z"/>
    <path class="cls-3" d="M 1225.999877929688 2619 C 1234.099731445313 2619 1241.957397460938 2617.41357421875 1249.354614257813 2614.284912109375 C 1256.499389648438 2611.262939453125 1262.916015625 2606.9365234375 1268.426391601563 2601.42626953125 C 1273.936645507813 2595.916015625 1278.262939453125 2589.499267578125 1281.285034179688 2582.354736328125 C 1284.413696289063 2574.95751953125 1286.000122070313 2567.099609375 1286.000122070313 2558.999755859375 C 1286.000122070313 2550.89990234375 1284.413696289063 2543.042236328125 1281.285034179688 2535.64501953125 C 1278.262939453125 2528.50048828125 1273.936645507813 2522.083740234375 1268.426391601563 2516.573486328125 C 1262.916137695313 2511.0634765625 1256.499389648438 2506.7373046875 1249.354614257813 2503.715087890625 C 1241.957275390625 2500.58642578125 1234.099609375 2499.000244140625 1225.999877929688 2499.000244140625 C 1217.900146484375 2499.000244140625 1210.04248046875 2500.58642578125 1202.645263671875 2503.715087890625 C 1195.500732421875 2506.737060546875 1189.084106445313 2511.063232421875 1183.57373046875 2516.573486328125 C 1178.063598632813 2522.083740234375 1173.737426757813 2528.50048828125 1170.715454101563 2535.64501953125 C 1167.586791992188 2543.042236328125 1166.00048828125 2550.899658203125 1166.00048828125 2558.999755859375 C 1166.00048828125 2567.099853515625 1167.586791992188 2574.95751953125 1170.715454101563 2582.354736328125 C 1173.737548828125 2589.499755859375 1178.063720703125 2595.916259765625 1183.57373046875 2601.42626953125 C 1189.083984375 2606.9365234375 1195.500610351563 2611.262939453125 1202.645263671875 2614.284912109375 C 1210.042358398438 2617.41357421875 1217.89990234375 2619 1225.999877929688 2619 M 1202.461303710938 2585.929443359375 L 1202.499877929688 2585.929443359375 L 1250.164916992188 2585.929443359375 C 1251.417602539063 2586.006103515625 1252.36962890625 2587.04150390625 1252.33203125 2588.28662109375 C 1252.369018554688 2589.509521484375 1251.396728515625 2590.56640625 1250.164794921875 2590.642822265625 L 1250.127075195313 2590.642822265625 L 1202.461303710938 2590.642822265625 C 1201.208862304688 2590.5673828125 1200.25732421875 2589.532470703125 1200.294921875 2588.28662109375 C 1200.258056640625 2587.064453125 1201.229858398438 2586.007080078125 1202.461303710938 2585.929443359375 M 1202.499877929688 2579.84814453125 L 1250.164794921875 2579.84814453125 C 1251.434692382813 2579.963134765625 1252.406982421875 2581.037109375 1252.33203125 2582.2421875 C 1252.33203125 2583.586181640625 1251.388793945313 2584.5615234375 1250.089233398438 2584.5615234375 L 1202.42333984375 2584.5615234375 C 1201.813720703125 2584.5244140625 1201.251831054688 2584.256103515625 1200.841064453125 2583.805908203125 C 1200.427612304688 2583.3525390625 1200.22021484375 2582.7705078125 1200.257080078125 2582.166748046875 C 1200.257080078125 2580.8232421875 1201.200317382813 2579.84814453125 1202.499877929688 2579.84814453125 M 1202.271362304688 2547.158447265625 L 1213.370971679688 2547.158447265625 C 1214.607177734375 2547.158447265625 1215.612915039063 2548.16455078125 1215.612915039063 2549.4013671875 C 1215.612915039063 2555.164794921875 1220.353149414063 2559.853759765625 1226.179809570313 2559.853759765625 C 1228.999267578125 2559.853759765625 1231.631713867188 2558.774169921875 1233.59228515625 2556.813720703125 C 1235.061157226563 2555.38232421875 1236.060546875 2553.555419921875 1236.481201171875 2551.52978515625 L 1219.033813476563 2551.52978515625 C 1217.797607421875 2551.52978515625 1216.791870117188 2550.523681640625 1216.791870117188 2549.286865234375 C 1216.791870117188 2548.05078125 1217.797607421875 2547.045166015625 1219.033813476563 2547.045166015625 L 1238.876098632813 2547.045166015625 C 1240.1123046875 2547.045166015625 1241.118041992188 2548.05078125 1241.118041992188 2549.286865234375 C 1241.118041992188 2553.2587890625 1239.56591796875 2556.998046875 1236.747680664063 2559.816162109375 C 1233.898071289063 2562.59228515625 1230.138305664063 2564.12109375 1226.1611328125 2564.12109375 C 1222.18408203125 2564.12109375 1218.465087890625 2562.59228515625 1215.689453125 2559.816162109375 C 1213.475219726563 2557.601806640625 1212.004028320313 2554.659423828125 1211.545776367188 2551.52978515625 L 1204.62841796875 2551.52978515625 L 1204.62841796875 2563.237060546875 C 1209.467407226563 2564.189697265625 1213.137084960938 2567.844970703125 1213.978515625 2572.550048828125 L 1238.5341796875 2572.550048828125 C 1238.99609375 2570.197509765625 1240.113037109375 2568.081298828125 1241.764282226563 2566.43017578125 C 1243.398681640625 2564.833251953125 1245.571899414063 2563.69970703125 1247.88427734375 2563.237060546875 L 1247.88427734375 2551.567626953125 L 1244.501098632813 2551.567626953125 C 1243.265014648438 2551.567626953125 1242.25927734375 2550.5615234375 1242.25927734375 2549.32470703125 C 1242.25927734375 2548.088623046875 1243.265014648438 2547.082763671875 1244.501098632813 2547.082763671875 L 1250.0126953125 2547.082763671875 C 1250.724365234375 2547.082763671875 1251.302978515625 2547.345458984375 1251.685791015625 2547.842529296875 C 1252.032348632813 2548.304931640625 1252.140014648438 2548.91259765625 1251.989135742188 2549.553466796875 L 1251.989135742188 2574.754150390625 C 1251.989135742188 2575.990966796875 1250.9833984375 2576.9970703125 1249.747192382813 2576.9970703125 L 1202.271362304688 2576.9970703125 C 1201.03466796875 2576.9970703125 1200.028564453125 2575.990966796875 1200.028564453125 2574.754150390625 L 1200.028564453125 2549.4013671875 C 1200.028564453125 2548.16455078125 1201.03466796875 2547.158447265625 1202.271362304688 2547.158447265625 M 1257.120971679688 2553.316162109375 L 1257.197387695313 2553.316162109375 L 1266.433227539063 2553.316162109375 L 1266.509765625 2553.316162109375 C 1267.68896484375 2553.355224609375 1268.677734375 2554.361328125 1268.7138671875 2555.55908203125 C 1268.676635742188 2556.795654296875 1267.653564453125 2557.8017578125 1266.433227539063 2557.8017578125 L 1266.357666015625 2557.8017578125 L 1256.55126953125 2557.8017578125 L 1256.512573242188 2557.725341796875 C 1255.54931640625 2557.456298828125 1254.877319335938 2556.60107421875 1254.84033203125 2555.596923828125 L 1254.84033203125 2555.55908203125 L 1254.84033203125 2555.521240234375 C 1254.878173828125 2554.305419921875 1255.901245117188 2553.316162109375 1257.120971679688 2553.316162109375 M 1185.318969726563 2528.0009765625 L 1185.356689453125 2528.0009765625 L 1266.243286132813 2528.0009765625 C 1266.265747070313 2528.000244140625 1266.2880859375 2528 1266.310546875 2528 C 1267.514892578125 2528 1268.525146484375 2528.98974609375 1268.562622070313 2530.2060546875 L 1268.562622070313 2549.172607421875 C 1268.52392578125 2550.388427734375 1267.500854492188 2551.377685546875 1266.281982421875 2551.377685546875 L 1266.20556640625 2551.377685546875 C 1264.98583984375 2551.377685546875 1263.962768554688 2550.388427734375 1263.924926757813 2549.172607421875 L 1263.924926757813 2532.296875 L 1187.523071289063 2532.296875 L 1187.523071289063 2553.316162109375 L 1194.593383789063 2553.316162109375 C 1195.81298828125 2553.316162109375 1196.874755859375 2554.325927734375 1196.911865234375 2555.521240234375 L 1196.911865234375 2555.596923828125 C 1196.8740234375 2556.812744140625 1195.850952148438 2557.8017578125 1194.631225585938 2557.8017578125 L 1194.5556640625 2557.8017578125 L 1185.318969726563 2557.8017578125 L 1185.242431640625 2557.8017578125 C 1184.04443359375 2557.8017578125 1183.038330078125 2556.812744140625 1182.999633789063 2555.596923828125 L 1183.038330078125 2530.243896484375 C 1183.075561523438 2529.007080078125 1184.0986328125 2528.0009765625 1185.318969726563 2528.0009765625 M 1199.268798828125 2538.94775390625 L 1199.268920898438 2538.94873046875 L 1199.306762695313 2538.94873046875 L 1253.243774414063 2538.94873046875 C 1253.847412109375 2538.967041015625 1254.404296875 2539.223388671875 1254.81201171875 2539.670654296875 C 1255.216552734375 2540.114501953125 1255.429321289063 2540.69482421875 1255.410888671875 2541.304931640625 C 1255.44775390625 2542.527099609375 1254.4755859375 2543.58447265625 1253.243774414063 2543.661865234375 L 1253.205932617188 2543.661865234375 L 1199.268798828125 2543.661865234375 C 1198.036010742188 2543.586669921875 1197.063720703125 2542.529296875 1197.101684570313 2541.304931640625 C 1197.06494140625 2540.08203125 1198.037109375 2539.025146484375 1199.268798828125 2538.94873046875 L 1199.268798828125 2538.94775390625 M 1247.770874023438 2572.435791015625 L 1247.770874023438 2572.434814453125 L 1247.770874023438 2567.64599609375 C 1246.598510742188 2567.99853515625 1245.588012695313 2568.612548828125 1244.767578125 2569.47119140625 C 1243.945556640625 2570.256103515625 1243.327514648438 2571.28076171875 1242.981079101563 2572.435791015625 L 1247.769897460938 2572.435791015625 L 1247.770874023438 2572.435791015625 M 1209.379516601563 2572.39794921875 L 1209.379150390625 2572.396728515625 C 1208.697631835938 2570.125732421875 1206.922119140625 2568.335205078125 1204.62841796875 2567.608154296875 L 1204.62841796875 2572.39794921875 L 1209.378173828125 2572.39794921875 L 1209.379516601563 2572.39794921875 M 1225.999877929688 2619.75 C 1217.799194335938 2619.75 1209.84326171875 2618.143798828125 1202.353149414063 2614.9755859375 C 1195.119262695313 2611.916015625 1188.62255859375 2607.53564453125 1183.04345703125 2601.95654296875 C 1177.464599609375 2596.3779296875 1173.084594726563 2589.881103515625 1170.024658203125 2582.64697265625 C 1166.856811523438 2575.15673828125 1165.25048828125 2567.20068359375 1165.25048828125 2558.999755859375 C 1165.25048828125 2550.798828125 1166.856811523438 2542.843017578125 1170.024658203125 2535.352783203125 C 1173.084594726563 2528.11865234375 1177.464721679688 2521.6220703125 1183.04345703125 2516.043212890625 C 1188.622314453125 2510.46435546875 1195.119018554688 2506.084228515625 1202.353149414063 2503.0244140625 C 1209.843017578125 2499.8564453125 1217.798950195313 2498.250244140625 1225.999877929688 2498.250244140625 C 1234.200805664063 2498.250244140625 1242.15673828125 2499.8564453125 1249.646728515625 2503.0244140625 C 1256.881103515625 2506.08447265625 1263.3779296875 2510.464599609375 1268.956665039063 2516.043212890625 C 1274.535522460938 2521.6220703125 1278.915771484375 2528.11865234375 1281.975708007813 2535.352783203125 C 1285.143798828125 2542.843017578125 1286.750122070313 2550.799072265625 1286.750122070313 2558.999755859375 C 1286.750122070313 2567.20068359375 1285.143798828125 2575.15673828125 1281.975830078125 2582.64697265625 C 1278.915771484375 2589.881103515625 1274.535522460938 2596.377685546875 1268.956787109375 2601.95654296875 C 1263.37744140625 2607.535888671875 1256.880615234375 2611.916015625 1249.646728515625 2614.9755859375 C 1242.156494140625 2618.143798828125 1234.200561523438 2619.75 1225.999877929688 2619.75 Z M 1202.486083984375 2589.892822265625 L 1250.127075195313 2589.892822265625 L 1250.139404296875 2589.892822265625 C 1250.961547851563 2589.83056640625 1251.607055664063 2589.124755859375 1251.582397460938 2588.309326171875 L 1251.581665039063 2588.28662109375 L 1251.582397460938 2588.263916015625 C 1251.607421875 2587.433349609375 1250.975341796875 2586.7412109375 1250.139770507813 2586.679443359375 L 1202.499877929688 2586.679443359375 L 1202.487182617188 2586.679443359375 C 1201.665283203125 2586.74267578125 1201.02001953125 2587.448974609375 1201.044555664063 2588.263916015625 L 1201.045288085938 2588.28662109375 L 1201.044555664063 2588.309326171875 C 1201.01953125 2589.140380859375 1201.651123046875 2589.83203125 1202.486083984375 2589.892822265625 Z M 1202.448364257813 2583.8115234375 L 1250.089233398438 2583.8115234375 C 1250.968139648438 2583.8115234375 1251.58203125 2583.166259765625 1251.58203125 2582.2421875 L 1251.58203125 2582.218994140625 L 1251.58349609375 2582.195556640625 C 1251.632934570313 2581.4013671875 1250.982299804688 2580.69091796875 1250.1279296875 2580.59814453125 L 1202.499877929688 2580.59814453125 C 1201.620971679688 2580.59814453125 1201.007080078125 2581.2431640625 1201.007080078125 2582.166748046875 L 1201.007080078125 2582.189697265625 L 1201.005615234375 2582.21240234375 C 1200.981323242188 2582.61181640625 1201.11962890625 2582.998291015625 1201.395263671875 2583.300537109375 C 1201.669067382813 2583.6005859375 1202.042358398438 2583.78173828125 1202.448364257813 2583.8115234375 Z M 1202.271362304688 2547.908447265625 C 1201.4482421875 2547.908447265625 1200.778564453125 2548.578125 1200.778564453125 2549.4013671875 L 1200.778564453125 2574.754150390625 C 1200.778564453125 2575.577392578125 1201.4482421875 2576.2470703125 1202.271362304688 2576.2470703125 L 1249.747192382813 2576.2470703125 C 1250.56982421875 2576.2470703125 1251.239135742188 2575.577392578125 1251.239135742188 2574.754150390625 L 1251.239135742188 2549.553466796875 L 1251.239135742188 2549.46630859375 L 1251.259033203125 2549.381591796875 C 1251.357666015625 2548.962646484375 1251.297241210938 2548.577392578125 1251.088623046875 2548.29638671875 C 1250.849731445313 2547.98876953125 1250.48779296875 2547.832763671875 1250.0126953125 2547.832763671875 L 1244.501098632813 2547.832763671875 C 1243.678466796875 2547.832763671875 1243.00927734375 2548.501953125 1243.00927734375 2549.32470703125 C 1243.00927734375 2550.14794921875 1243.678466796875 2550.817626953125 1244.501098632813 2550.817626953125 L 1247.88427734375 2550.817626953125 L 1248.63427734375 2550.817626953125 L 1248.63427734375 2551.567626953125 L 1248.63427734375 2563.237060546875 L 1248.63427734375 2563.851806640625 L 1248.031372070313 2563.972412109375 C 1245.860961914063 2564.40673828125 1243.82275390625 2565.468994140625 1242.291748046875 2566.96337890625 C 1240.747802734375 2568.50830078125 1239.703002929688 2570.489990234375 1239.270141601563 2572.694580078125 L 1239.151245117188 2573.300048828125 L 1238.5341796875 2573.300048828125 L 1213.978515625 2573.300048828125 L 1213.350708007813 2573.300048828125 L 1213.240234375 2572.68212890625 C 1212.453735351563 2568.283935546875 1209.016479492188 2564.865234375 1204.483520507813 2563.972900390625 L 1203.87841796875 2563.853759765625 L 1203.87841796875 2563.237060546875 L 1203.87841796875 2551.52978515625 L 1203.87841796875 2550.77978515625 L 1204.62841796875 2550.77978515625 L 1211.545776367188 2550.77978515625 L 1212.193969726563 2550.77978515625 L 1212.287841796875 2551.421142578125 C 1212.722900390625 2554.39208984375 1214.119262695313 2557.185302734375 1216.219848632813 2559.285888671875 C 1218.853759765625 2561.920166015625 1222.38427734375 2563.37109375 1226.1611328125 2563.37109375 C 1229.940185546875 2563.37109375 1233.512451171875 2561.919189453125 1236.220703125 2559.282470703125 C 1238.895141601563 2556.6064453125 1240.368041992188 2553.056640625 1240.368041992188 2549.286865234375 C 1240.368041992188 2548.46435546875 1239.69873046875 2547.795166015625 1238.876098632813 2547.795166015625 L 1219.033813476563 2547.795166015625 C 1218.211181640625 2547.795166015625 1217.541870117188 2548.46435546875 1217.541870117188 2549.286865234375 C 1217.541870117188 2550.110107421875 1218.211181640625 2550.77978515625 1219.033813476563 2550.77978515625 L 1236.481201171875 2550.77978515625 L 1237.402954101563 2550.77978515625 L 1237.215576171875 2551.682373046875 C 1236.764892578125 2553.852294921875 1235.6943359375 2555.81103515625 1234.119384765625 2557.34716796875 C 1232.017578125 2559.447265625 1229.198120117188 2560.603759765625 1226.179809570313 2560.603759765625 C 1219.939697265625 2560.603759765625 1214.862915039063 2555.578369140625 1214.862915039063 2549.4013671875 C 1214.862915039063 2548.578125 1214.193603515625 2547.908447265625 1213.370971679688 2547.908447265625 L 1202.271362304688 2547.908447265625 Z M 1256.888916015625 2557.0517578125 L 1266.357666015625 2557.0517578125 L 1266.433227539063 2557.0517578125 C 1267.244750976563 2557.0517578125 1267.926513671875 2556.38427734375 1267.96337890625 2555.559326171875 C 1267.927612304688 2554.776611328125 1267.261840820313 2554.097900390625 1266.49609375 2554.066162109375 L 1266.433227539063 2554.066162109375 L 1257.197387695313 2554.066162109375 L 1257.120971679688 2554.066162109375 C 1256.3056640625 2554.066162109375 1255.621337890625 2554.7236328125 1255.59033203125 2555.533935546875 L 1255.59033203125 2555.55908203125 L 1255.59033203125 2555.581787109375 C 1255.620361328125 2556.2529296875 1256.070678710938 2556.8232421875 1256.71435546875 2557.0029296875 L 1256.888916015625 2557.0517578125 Z M 1183.749633789063 2555.58447265625 C 1183.781372070313 2556.39453125 1184.44873046875 2557.0517578125 1185.242431640625 2557.0517578125 L 1185.318969726563 2557.0517578125 L 1194.5556640625 2557.0517578125 L 1194.631225585938 2557.0517578125 C 1195.446533203125 2557.0517578125 1196.130859375 2556.39453125 1196.161865234375 2555.584228515625 L 1196.161865234375 2555.534423828125 C 1196.131469726563 2554.7509765625 1195.401245117188 2554.066162109375 1194.593383789063 2554.066162109375 L 1187.523071289063 2554.066162109375 L 1186.773071289063 2554.066162109375 L 1186.773071289063 2553.316162109375 L 1186.773071289063 2532.296875 L 1186.773071289063 2531.546875 L 1187.523071289063 2531.546875 L 1263.924926757813 2531.546875 L 1264.674926757813 2531.546875 L 1264.674926757813 2532.296875 L 1264.674926757813 2549.159912109375 C 1264.705932617188 2549.97021484375 1265.390258789063 2550.627685546875 1266.20556640625 2550.627685546875 L 1266.281982421875 2550.627685546875 C 1267.0966796875 2550.627685546875 1267.781005859375 2549.97021484375 1267.812622070313 2549.15966796875 L 1267.812622070313 2530.21875 C 1267.7822265625 2529.407958984375 1267.110473632813 2528.75 1266.310546875 2528.75 C 1266.296264648438 2528.75 1266.2822265625 2528.75 1266.267944335938 2528.75048828125 L 1266.255615234375 2528.7509765625 L 1266.243286132813 2528.7509765625 L 1185.356689453125 2528.7509765625 L 1185.318969726563 2528.7509765625 C 1184.503051757813 2528.7509765625 1183.818481445313 2529.425537109375 1183.788330078125 2530.2568359375 L 1183.749633789063 2555.58447265625 Z M 1199.2939453125 2542.911865234375 L 1253.205932617188 2542.911865234375 L 1253.217895507813 2542.911865234375 C 1254.040161132813 2542.848876953125 1254.685791015625 2542.142578125 1254.661254882813 2541.32763671875 L 1254.660522460938 2541.304931640625 L 1254.661254882813 2541.2822265625 C 1254.673706054688 2540.8681640625 1254.530395507813 2540.47509765625 1254.257690429688 2540.17578125 C 1253.990356445313 2539.882568359375 1253.626098632813 2539.71337890625 1253.231079101563 2539.69873046875 L 1199.306762695313 2539.69873046875 L 1199.294189453125 2539.69873046875 C 1198.472290039063 2539.760986328125 1197.826782226563 2540.466796875 1197.851318359375 2541.282470703125 L 1197.85205078125 2541.30517578125 L 1197.851318359375 2541.328125 C 1197.826049804688 2542.14453125 1198.471435546875 2542.850830078125 1199.2939453125 2542.911865234375 Z M 1247.770874023438 2573.185791015625 L 1247.769897460938 2573.185791015625 L 1242.981079101563 2573.185791015625 L 1241.97314453125 2573.185791015625 L 1242.2626953125 2572.22021484375 C 1242.644409179688 2570.947998046875 1243.326904296875 2569.814208984375 1244.237060546875 2568.940673828125 C 1245.14599609375 2567.99365234375 1246.26220703125 2567.31640625 1247.554931640625 2566.927734375 L 1248.520874023438 2566.63720703125 L 1248.520874023438 2567.64599609375 L 1248.520874023438 2572.434814453125 L 1248.520874023438 2573.184814453125 L 1247.770874023438 2573.185791015625 Z M 1209.379516601563 2573.14794921875 L 1209.378173828125 2573.14794921875 L 1204.62841796875 2573.14794921875 L 1203.87841796875 2573.14794921875 L 1203.87841796875 2572.39794921875 L 1203.87841796875 2567.608154296875 L 1203.87841796875 2566.583740234375 L 1204.85498046875 2566.893310546875 C 1207.384643554688 2567.695068359375 1209.344482421875 2569.671875 1210.097534179688 2572.18115234375 L 1210.387329101563 2573.146728515625 L 1209.379516601563 2573.14794921875 Z"/>
  </g>
</svg>
